<svg width="45" height="45" viewBox="0 0 45 45" fill="none" xmlns="http://www.w3.org/2000/svg">
<g clip-path="url(#clip0_58_49)">
<path d="M45 22.5C45 10.0723 34.9277 0 22.5 0C10.0723 0 0 10.0723 0 22.5C0 33.0469 7.26855 41.9062 17.0684 44.3408V29.373H12.4277V22.5H17.0684V19.5381C17.0684 11.8828 20.5313 8.33203 28.0547 8.33203C29.4785 8.33203 31.9395 8.61328 32.9502 8.89453V15.1172C32.4229 15.0645 31.5 15.0293 30.3486 15.0293C26.6572 15.0293 25.2334 16.4268 25.2334 20.0566V22.5H32.5811L31.3154 29.373H25.2246V44.833C36.3691 43.4883 45 34.0049 45 22.5Z" fill="#183D3D"/>
</g>
<defs>
<clipPath id="clip0_58_49">
<rect width="45" height="45" fill="white"/>
</clipPath>
</defs>
</svg>
