<svg width="160" height="160" viewBox="0 0 160 160" fill="none" xmlns="http://www.w3.org/2000/svg">
<path d="M72.44 31.544C72.424 31.592 72.376 31.768 72.328 31.92C72.216 32.28 71.264 33.6 69.592 35.72C66.896 39.144 65.496 41.12 65.256 41.84C64.992 42.608 65.232 43.6 65.928 44.616C66.704 45.76 68.912 47.616 71.344 49.176C71.728 49.424 72.056 49.632 72.072 49.648C72.136 49.704 71.912 50.32 71.84 50.32C71.8 50.32 71.192 50.16 70.504 49.968C68.72 49.464 66.344 48.864 64.8 48.52C63.344 48.2 63.384 48.224 62.84 47.4C62.488 46.864 62.32 46.336 62.32 45.768C62.32 44.856 62.432 44.632 64.904 40.656C67.224 36.928 67.848 35.712 67.584 35.384C67.464 35.232 67.28 35.36 67.28 35.592C67.28 36.024 66.56 37.328 64.456 40.72C62.048 44.592 61.976 44.736 61.976 45.72C61.968 46.448 62.152 47.016 62.6 47.68C62.752 47.904 62.84 48.08 62.8 48.08C62.72 48.08 59.504 47.384 57.8 47C52.528 45.808 48.008 44.408 44.72 42.96C43.664 42.496 41.608 41.456 40.496 40.824C37.376 39.048 32.592 37.12 27.816 35.704C26.984 35.464 26.096 35.176 25.84 35.072C24.96 34.72 22.656 34.176 20.8 33.88C20.384 33.816 19.576 33.688 19 33.6C17.8 33.408 15.832 33.336 14.96 33.448C12.56 33.752 11.088 34.832 10.728 36.544C10.48 37.72 10.696 39.104 11.32 40.36C11.84 41.408 12.584 42.352 14.032 43.8C15.888 45.648 17.432 46.928 23.48 51.6C26.96 54.288 29.84 56.552 29.84 56.608C29.84 56.624 29.688 56.624 29.496 56.6C28.92 56.536 27.712 56.48 25.92 56.44C24.976 56.416 23.696 56.36 23.08 56.312C21.96 56.224 19.8 56.304 18.44 56.48C17.888 56.552 17.6 56.584 16.56 56.68C15.136 56.816 13.408 57.208 12.336 57.648C10.12 58.536 9.03998 59.816 9.03998 61.552C9.03998 63.784 10.472 65.712 13.488 67.528C15.552 68.776 17.744 69.776 25 72.76C27.6 73.832 30.8 75.16 32.12 75.72C44.056 80.784 49.792 82.8 55.6 83.952C59.2 84.672 62.848 84.824 65.24 84.36C68.928 83.64 71.536 81.52 73.4 77.72C74.008 76.464 74.456 75.352 75.16 73.256C75.456 72.384 75.712 71.688 75.728 71.704C75.8 71.776 76.16 73.816 76.208 74.44C76.232 74.832 76.272 75.248 76.296 75.36C76.36 75.76 76.376 81.352 76.32 82.44C76.288 83.056 76.232 84.064 76.208 84.68C76.184 85.296 76.12 86.544 76.08 87.464C76.032 88.376 75.984 91 75.96 93.304C75.944 95.6 75.912 97.584 75.888 97.72C75.864 97.848 75.824 98.352 75.8 98.84C75.76 99.6 75.696 100.424 75.48 102.84C75.456 103.104 75.416 103.496 75.392 103.72C75.216 105.368 75.128 107.328 75.152 109.48C75.176 111.576 75.208 112.048 75.392 113.24C75.504 113.984 75.632 114.944 75.672 115.36C75.744 116.08 75.728 119.168 75.648 119.6C75.632 119.712 75.592 120.096 75.56 120.456C75.4 122.528 75.464 123.28 75.864 124.08C76.08 124.512 78.288 128.456 78.36 128.544C78.376 128.56 78.504 128.064 78.648 127.448C78.792 126.824 78.936 126.32 78.968 126.32C79 126.32 79.488 126.832 80.056 127.456C81.024 128.528 81.08 128.576 81.104 128.352C81.232 127 81.672 125.12 82.256 123.4C82.648 122.224 82.656 122.184 82.68 121.12C82.712 119.808 82.688 119.52 82.2 115.64C81.944 113.624 81.808 112.344 81.72 111.28C81.704 111.04 81.664 110.584 81.64 110.28C81.568 109.352 81.584 105.632 81.672 104.52C81.712 103.944 81.776 102.992 81.8 102.4C81.824 101.808 81.864 101.088 81.88 100.8C81.896 100.512 81.936 99.688 81.96 98.96C81.984 98.232 82.024 97.264 82.04 96.8C82.056 96.336 82.096 95.328 82.12 94.56C82.208 91.744 82.24 90.824 82.28 90.12C82.304 89.72 82.336 89 82.36 88.52C82.448 86.8 82.656 83.936 82.76 82.88C82.928 81.272 82.984 79.832 83.008 76.4C83.016 73.984 83.064 72.224 83.12 71.88C83.216 71.288 83.616 70.192 83.728 70.208C83.768 70.216 84.184 71.328 84.648 72.688C85.648 75.616 85.928 76.344 86.608 77.72C88.68 81.968 91.728 84.144 96.16 84.552C101.096 85.008 107.584 83.664 116.472 80.352C119.6 79.184 122.408 78.04 127.88 75.72C129.2 75.16 132.408 73.832 135 72.76C142.256 69.776 144.448 68.776 146.512 67.528C149.52 65.712 150.96 63.776 150.96 61.552C150.96 59.816 149.88 58.536 147.664 57.648C146.424 57.144 144.92 56.824 142.72 56.6C139.296 56.256 138.208 56.2 136.92 56.312C136.392 56.352 135.08 56.416 134 56.44C132.92 56.464 131.624 56.52 131.12 56.56C130.616 56.592 130.192 56.616 130.176 56.6C130.144 56.568 132.8 54.48 136.52 51.6C140.096 48.84 142.296 47.096 143.68 45.928C145.032 44.792 147.128 42.68 147.784 41.8C148.832 40.4 149.36 39.008 149.36 37.672C149.36 36.36 149.056 35.536 148.312 34.8C147.592 34.096 146.48 33.632 145.04 33.448C144.168 33.336 142.2 33.408 141 33.6C140.432 33.688 139.616 33.816 139.2 33.88C137.344 34.176 135.04 34.72 134.16 35.072C133.904 35.176 133.016 35.464 132.184 35.704C127.408 37.12 122.624 39.048 119.504 40.824C114.088 43.904 108.744 45.664 97.864 47.952C97.144 48.096 96.56 48.216 96.56 48.2C96.56 48.192 96.616 48.048 96.68 47.896C96.848 47.48 96.832 46.648 96.64 46.072C96.456 45.544 96.16 45 93.656 40.624C91.04 36.064 90.616 35.36 90.512 35.36C90.288 35.36 90.328 35.56 90.688 36.184C90.896 36.544 91.32 37.272 91.624 37.8C92.832 39.888 95.28 44.168 95.744 45C96.44 46.264 96.608 46.952 96.392 47.672C96.216 48.272 96.184 48.288 94.32 48.72C92.816 49.072 89.352 49.976 88.912 50.128C88.832 50.16 89.176 49.888 89.68 49.52C91.528 48.2 92.312 47.432 92.688 46.6C93.08 45.728 92.992 45.064 92.232 43.144C91.56 41.432 91.288 40.944 89.328 38.016C87.784 35.712 86.784 33.984 86.496 33.136C86.408 32.88 86.208 32.792 86.136 32.984C86.088 33.112 86.568 34.232 87.08 35.16C87.296 35.552 88.224 37.016 89.152 38.4C91.008 41.168 91.24 41.568 91.824 43.04C92.376 44.432 92.56 45.064 92.56 45.592C92.56 46.544 91.832 47.488 90.144 48.744C88.4 50.04 87.096 50.816 86.952 50.656C86.928 50.624 86.824 50.384 86.72 50.12C86.432 49.384 86.048 48.64 85.648 48.056L85.28 47.52L85.568 47.4C86.408 47.056 87.376 46.096 87.752 45.248C88.328 43.936 88.192 42.072 87.384 40.416C87.032 39.704 86.184 38.776 85.6 38.48C84.792 38.072 84.4 37.976 83.384 37.96L82.408 37.936L82.152 37.64C81.848 37.296 81.376 37.048 80.56 36.784C79.72 36.528 78.184 36.52 77.488 36.776C76.904 37 76.528 37.28 76.304 37.672L76.128 37.976L75.288 38.032C72.872 38.184 71.016 39.184 70.28 40.728C69.656 42.04 69.608 43.392 70.136 44.72C70.608 45.904 71.392 46.784 72.416 47.264C72.76 47.424 73.024 47.576 73.016 47.6C72.632 48.512 72.264 49.28 72.208 49.28C72.104 49.28 70.472 48.184 69.48 47.448C67.592 46.048 66.432 44.88 65.88 43.824C65.48 43.064 65.4 42.288 65.68 41.728C66.072 40.912 67.408 39.072 69.904 35.896C72.008 33.224 72.72 32.168 72.72 31.744C72.72 31.528 72.496 31.368 72.44 31.544ZM17.76 33.808C18.264 33.848 18.336 33.872 18.2 33.952C18.112 34 17.912 34.168 17.752 34.32C16.88 35.16 17.352 36.264 18.784 36.728C19.264 36.888 19.536 36.912 21.32 36.944C22.424 36.96 23.352 37.008 23.4 37.048C23.44 37.088 23.56 37.12 23.68 37.12C23.872 37.12 25.696 37.44 25.744 37.48C25.784 37.52 25.432 38.752 25.368 38.824C25.336 38.856 24.768 38.832 24.112 38.768C23.456 38.704 22.416 38.624 21.808 38.592C20.544 38.536 20.432 38.496 18.424 37.496C16.576 36.568 15.104 35.552 14.344 34.672C13.768 34.008 13.768 34.024 14.296 33.912C15.184 33.728 16.344 33.696 17.76 33.808ZM145.704 33.912C146.232 34.024 146.232 34.008 145.656 34.672C144.896 35.552 143.424 36.568 141.576 37.496C139.488 38.544 139.536 38.528 137.68 38.632C136.776 38.688 135.792 38.76 135.48 38.8C134.544 38.92 134.624 38.968 134.416 38.192C134.312 37.808 134.24 37.488 134.256 37.48C134.304 37.44 136.136 37.12 136.32 37.12C136.44 37.12 136.56 37.088 136.6 37.048C136.648 37.008 137.584 36.96 138.68 36.944C140.464 36.912 140.736 36.888 141.216 36.728C142.272 36.384 142.864 35.664 142.648 34.968C142.528 34.568 142.224 34.2 141.848 34.008L141.56 33.856L142.24 33.808C142.616 33.784 143.064 33.752 143.24 33.736C143.76 33.712 145.2 33.808 145.704 33.912ZM13.72 34.488C14.096 35.016 15.168 35.976 16.072 36.568C16.952 37.152 18.728 38.08 19.952 38.608L20.672 38.912L20.112 39.024C19.808 39.08 19.528 39.136 19.48 39.144C19.44 39.152 19.112 39.016 18.76 38.848C16.92 37.968 14.192 37 12.44 36.6C11.912 36.48 11.4 36.36 11.296 36.328L11.12 36.28L11.328 35.856C11.608 35.296 12.2 34.728 12.816 34.416C13.096 34.28 13.36 34.16 13.408 34.16C13.456 34.16 13.6 34.304 13.72 34.488ZM147.168 34.408C147.8 34.72 148.392 35.288 148.672 35.856L148.88 36.28L148.704 36.328C148.6 36.36 148.088 36.48 147.56 36.6C145.808 37 143.08 37.968 141.24 38.848C140.888 39.016 140.568 39.152 140.52 39.144C140.48 39.136 140.192 39.08 139.888 39.024L139.328 38.912L140.048 38.608C141.272 38.08 143.048 37.152 143.928 36.568C144.832 35.976 145.904 35.016 146.28 34.488C146.4 34.304 146.536 34.16 146.584 34.16C146.624 34.16 146.888 34.272 147.168 34.408ZM28.888 36.4C33.376 37.792 37.12 39.352 40.52 41.24C46.072 44.328 51.192 45.992 62.336 48.352C63.24 48.544 63.296 48.568 63.816 48.984C65.248 50.128 66.736 50.864 69.864 51.96C70.336 52.128 70.712 52.272 70.704 52.28C70.688 52.288 70.376 52.264 70.008 52.232C69.632 52.2 69 52.152 68.608 52.12C68.208 52.096 67.72 52.056 67.52 52.04C67.32 52.024 66.672 51.968 66.08 51.92C59.16 51.384 54.816 50.328 49.104 47.792C47.192 46.944 42.568 44.696 40 43.368C36.104 41.352 32.32 39.488 30.8 38.848C29.128 38.136 26.896 37.376 25.72 37.128C25.28 37.032 24.792 36.92 24.64 36.888L24.36 36.824L24.76 36.768C25.848 36.608 26.88 36.208 26.88 35.952C26.88 35.888 26.928 35.84 26.984 35.84C27.048 35.84 27.896 36.088 28.888 36.4ZM133.12 35.952C133.12 36.208 134.152 36.608 135.24 36.768L135.64 36.824L135.36 36.888C135.208 36.92 134.72 37.032 134.28 37.128C133.104 37.376 130.872 38.136 129.2 38.848C127.68 39.488 123.896 41.352 120 43.368C117.432 44.696 112.808 46.944 110.896 47.792C105.176 50.328 100.912 51.368 93.96 51.92C93.392 51.968 92.72 52.016 92.48 52.04C92.24 52.056 91.736 52.096 91.36 52.12C90.68 52.168 89.36 52.28 88.6 52.36C88.32 52.392 88.6 52.28 89.56 51.976C91.368 51.416 92.552 50.968 93.736 50.4C94.84 49.872 95.296 49.576 95.888 49.024C96.296 48.64 96.304 48.64 97.448 48.4C108.88 45.976 113.816 44.376 119.48 41.24C122.16 39.752 125.08 38.464 128.48 37.256C129.688 36.832 132.8 35.848 132.984 35.848C133.056 35.84 133.12 35.888 133.12 35.952ZM12.928 37.072C14.392 37.44 16.344 38.144 18.192 38.968L18.952 39.312L18.568 39.528C18.352 39.656 18.104 39.856 18.016 39.976C17.824 40.24 17.664 40.816 17.72 40.976C17.76 41.08 17.528 41.104 16.184 41.144C15.312 41.168 14.104 41.248 13.496 41.32C12.216 41.48 12.4 41.56 11.8 40.52C11.168 39.408 10.848 38.008 10.992 37.024L11.048 36.656L11.592 36.76C11.888 36.816 12.488 36.96 12.928 37.072ZM149.016 37.88C148.96 38.776 148.688 39.664 148.2 40.52C147.6 41.56 147.784 41.48 146.504 41.32C145.896 41.248 144.688 41.168 143.816 41.144C142.472 41.104 142.24 41.08 142.28 40.976C142.336 40.816 142.176 40.24 141.984 39.976C141.896 39.856 141.648 39.656 141.432 39.528L141.048 39.312L141.808 38.968C144.208 37.896 146.584 37.104 148.4 36.768L148.92 36.672L148.992 36.912C149.024 37.048 149.04 37.48 149.016 37.88ZM27.232 37.888C28.208 38.176 30.92 39.216 31.152 39.384C31.264 39.472 31.264 39.544 31.104 40.12C31.008 40.472 30.92 40.768 30.912 40.784C30.904 40.8 30.648 40.688 30.352 40.536C29.376 40.048 27.928 39.512 26.872 39.24C26.304 39.104 25.816 38.96 25.792 38.936C25.72 38.864 26.088 37.6 26.184 37.6C26.224 37.6 26.704 37.728 27.232 37.888ZM134.08 38.248C134.176 38.6 134.232 38.912 134.208 38.936C134.184 38.96 133.696 39.104 133.128 39.24C132.072 39.512 130.624 40.048 129.648 40.536C129.352 40.688 129.096 40.8 129.088 40.784C129.08 40.768 128.992 40.472 128.896 40.12C128.736 39.544 128.736 39.472 128.848 39.384C129.224 39.104 133.304 37.632 133.768 37.608C133.872 37.6 133.944 37.76 134.08 38.248ZM23.328 39.04C25.44 39.2 27.144 39.56 28.656 40.16C29.112 40.344 29.504 40.512 29.536 40.544C29.568 40.576 29.528 41.176 29.44 41.88C29.36 42.584 29.264 43.376 29.232 43.64C29.208 43.904 29.176 44.128 29.168 44.136C29.144 44.16 27.896 43.928 27.88 43.896C27.624 43.192 26.976 42.264 26.304 41.64C25.312 40.704 23.36 39.528 22.216 39.152C21.656 38.976 21.648 38.968 21.968 38.96C22.152 38.96 22.76 39 23.328 39.04ZM137.784 39.152C136.64 39.528 134.688 40.704 133.696 41.64C133.024 42.264 132.376 43.192 132.12 43.896C132.104 43.928 130.856 44.16 130.832 44.136C130.824 44.128 130.792 43.904 130.768 43.64C130.736 43.376 130.64 42.584 130.56 41.88C130.472 41.176 130.432 40.576 130.464 40.544C130.6 40.408 132.24 39.816 133.064 39.608C134.472 39.24 136.344 39 137.84 38.976L138.36 38.968L137.784 39.152ZM32.088 39.792C32.52 39.984 34.624 41.016 35.256 41.344L35.584 41.52L35.384 42.296C35.264 42.728 35.16 43.096 35.152 43.112C35.136 43.128 34.432 42.744 33.584 42.256C32.736 41.776 31.856 41.288 31.624 41.168L31.216 40.968L31.328 40.584C31.392 40.376 31.48 40.064 31.528 39.896C31.568 39.736 31.616 39.6 31.632 39.6C31.648 39.6 31.856 39.688 32.088 39.792ZM128.472 39.896C128.52 40.064 128.608 40.376 128.672 40.584L128.784 40.968L128.376 41.168C128.144 41.288 127.264 41.776 126.416 42.256C125.568 42.744 124.864 43.128 124.848 43.112C124.84 43.096 124.736 42.728 124.616 42.296L124.416 41.512L125.064 41.184C126.032 40.688 128.272 39.608 128.336 39.6C128.368 39.6 128.432 39.736 128.472 39.896ZM31.032 41.248C32.184 41.856 33.128 42.392 35.144 43.584L36.56 44.416L36.032 45.432C35.736 45.992 35.456 46.512 35.4 46.592C35.304 46.72 35.192 46.68 34.024 46.096C32.496 45.328 31.424 44.864 30.384 44.528C29.952 44.384 29.584 44.248 29.56 44.224C29.536 44.2 29.608 43.44 29.72 42.536C29.832 41.64 29.92 40.856 29.92 40.808C29.92 40.76 29.944 40.72 29.976 40.72C30 40.72 30.48 40.96 31.032 41.248ZM130.08 40.8C130.08 40.848 130.168 41.624 130.288 42.528C130.4 43.44 130.464 44.2 130.44 44.224C130.416 44.248 130.048 44.384 129.616 44.528C128.576 44.864 127.504 45.328 125.968 46.096C124.792 46.688 124.688 46.72 124.608 46.584C124.56 46.504 124.28 45.984 123.976 45.432L123.44 44.416L124.376 43.856C126.8 42.424 129.856 40.72 130.024 40.72C130.056 40.72 130.08 40.76 130.08 40.8ZM17.48 41.488C17.8 41.536 17.856 41.576 17.96 41.816C18.136 42.232 18.72 43.016 19.232 43.52L19.68 43.952L18.456 44.36C17.792 44.584 16.976 44.88 16.656 45.016L16.072 45.264L15.176 44.448C14.28 43.624 13.336 42.656 12.888 42.088L12.648 41.784L13.464 41.688C13.912 41.632 14.584 41.568 14.96 41.544C15.336 41.52 15.648 41.496 15.656 41.488C15.72 41.44 17.176 41.44 17.48 41.488ZM145.36 41.56C145.472 41.576 145.968 41.632 146.456 41.688L147.36 41.784L147.12 42.088C146.664 42.648 145.72 43.624 144.824 44.44L143.928 45.264L143.064 44.912C142.592 44.72 141.776 44.432 141.264 44.264L140.328 43.968L140.872 43.4C141.4 42.856 141.928 42.128 142.08 41.728C142.128 41.6 142.232 41.52 142.376 41.496C142.616 41.448 145.032 41.504 145.36 41.56ZM40.072 43.816C40.128 43.864 39.736 45.84 39.672 45.84C39.616 45.84 35.624 43.472 35.504 43.368C35.456 43.328 35.68 42.408 35.888 41.776C35.912 41.704 36.552 41.992 37.976 42.728C39.112 43.312 40.056 43.8 40.072 43.816ZM124.328 42.544C124.448 42.968 124.528 43.344 124.496 43.368C124.384 43.472 120.384 45.84 120.328 45.84C120.232 45.84 119.872 43.816 119.96 43.784C120.008 43.768 120.936 43.288 122.04 42.72C123.136 42.152 124.056 41.704 124.072 41.728C124.096 41.752 124.208 42.12 124.328 42.544ZM42.584 45.064C44.224 45.88 44.64 46.12 44.608 46.224C44.584 46.304 44.44 46.832 44.272 47.416L43.984 48.464L43.016 47.888C40.144 46.192 40.08 46.152 40.08 45.976C40.08 45.712 40.432 43.992 40.48 44.016C40.504 44.032 41.448 44.504 42.584 45.064ZM119.744 44.904C119.84 45.4 119.92 45.888 119.92 45.976C119.92 46.152 119.856 46.192 116.984 47.888L116.016 48.464L115.72 47.408C115.56 46.832 115.424 46.296 115.416 46.216C115.4 46.112 115.88 45.832 117.44 45.048C118.56 44.488 119.496 44.016 119.52 44.008C119.544 44.008 119.648 44.408 119.744 44.904ZM20.584 44.672C22.128 45.824 23.88 46.568 25.36 46.688C25.968 46.744 25.968 46.744 26.152 47.056C26.248 47.232 26.32 47.384 26.304 47.4C26.288 47.416 25.912 47.44 25.464 47.448C23.68 47.48 22.504 47.84 20.872 48.856C20.664 48.984 20.664 48.984 19.112 47.752C18.264 47.072 17.296 46.296 16.976 46.016L16.384 45.52L16.848 45.312C17.28 45.12 19.8 44.256 19.944 44.24C19.976 44.24 20.264 44.432 20.584 44.672ZM141.376 44.672C142.096 44.912 142.888 45.2 143.152 45.312L143.616 45.52L143.024 46.016C142.704 46.296 141.736 47.072 140.888 47.752C139.336 48.984 139.336 48.984 139.128 48.856C137.496 47.84 136.32 47.48 134.536 47.448C134.088 47.44 133.712 47.416 133.696 47.4C133.68 47.384 133.752 47.232 133.848 47.056C134.032 46.744 134.032 46.744 134.64 46.688C136.12 46.568 137.912 45.808 139.4 44.68C139.712 44.44 139.984 44.248 140.016 44.248C140.048 44.24 140.664 44.432 141.376 44.672ZM28.784 44.448C31.392 44.984 34.464 46.512 41.296 50.648C42.536 51.408 44.2 52.408 44.976 52.872L46.392 53.712L46.728 54.48C46.904 54.896 47.304 55.72 47.6 56.304C48.216 57.504 48.264 57.448 47.08 56.984C44.56 55.984 40.032 53.48 37.992 51.944C37.576 51.632 36.592 50.816 35.8 50.12C34.144 48.672 33.184 47.912 32.28 47.32C31.104 46.544 29.736 45.944 28.512 45.648L27.936 45.504L28.008 45.216C28.04 45.056 28.056 44.784 28.024 44.616C27.968 44.272 27.952 44.272 28.784 44.448ZM131.976 44.616C131.944 44.784 131.96 45.056 131.992 45.216L132.064 45.504L131.488 45.648C130.264 45.944 128.896 46.544 127.72 47.32C126.816 47.912 125.856 48.672 124.2 50.12C121.96 52.08 120.704 52.96 117.88 54.544C115.904 55.648 112.992 57.032 112.032 57.312C111.88 57.36 111.936 57.216 112.4 56.304C112.696 55.72 113.096 54.896 113.272 54.48L113.608 53.712L114.904 52.944C115.616 52.52 117.192 51.568 118.4 50.832C125.448 46.552 128.52 45.016 131.2 44.448C132.016 44.272 132.032 44.272 131.976 44.616ZM37.44 44.944C38.048 45.304 41.712 47.528 41.744 47.56C41.76 47.576 41.392 48.016 40.92 48.544L40.072 49.504L38.976 48.848C38.376 48.488 37.384 47.912 36.776 47.568C36.168 47.216 35.68 46.896 35.696 46.84C35.736 46.688 36.832 44.648 36.88 44.64C36.904 44.64 37.152 44.776 37.44 44.944ZM123.72 45.696C124.032 46.272 124.288 46.784 124.304 46.84C124.32 46.896 123.832 47.216 123.224 47.568C122.616 47.912 121.624 48.488 121.024 48.848L119.928 49.504L119.08 48.544C118.608 48.016 118.24 47.576 118.256 47.56C118.376 47.448 123.064 44.64 123.12 44.64C123.144 44.64 123.416 45.112 123.72 45.696ZM28.96 46.136C29.848 46.384 31.568 47.216 31.624 47.408C31.888 48.344 31.816 49.76 31.432 51.064L31.272 51.6L30.568 51.12C30.176 50.856 29.736 50.512 29.576 50.36C29.416 50.208 29.256 50.08 29.216 50.08C29.112 50.08 27.592 48.496 27.184 47.96C26.984 47.696 26.712 47.304 26.576 47.08L26.328 46.688L26.784 46.544C27.088 46.456 27.336 46.304 27.52 46.12C27.832 45.8 27.784 45.8 28.96 46.136ZM132.52 46.152C132.736 46.352 132.992 46.496 133.264 46.56L133.672 46.672L133.504 46.952C133.12 47.6 132.408 48.488 131.648 49.256C131.208 49.712 130.816 50.08 130.784 50.08C130.744 50.08 130.584 50.208 130.424 50.36C130.264 50.512 129.824 50.856 129.432 51.12L128.728 51.6L128.56 51.04C128.304 50.184 128.192 49.224 128.248 48.384C128.272 47.976 128.32 47.56 128.352 47.456C128.416 47.272 129.328 46.76 130.264 46.392C130.584 46.264 131.936 45.872 132.152 45.84C132.168 45.84 132.336 45.976 132.52 46.152ZM48.464 47.872C48.704 47.952 48.696 47.952 47.944 49.224C47.48 50.008 47.304 50.24 47.208 50.2C46.984 50.12 44.656 48.856 44.48 48.72L44.312 48.592L44.6 47.552C44.76 46.984 44.904 46.464 44.928 46.384C44.96 46.28 45.24 46.384 46.624 47.032C47.536 47.464 48.368 47.84 48.464 47.872ZM115.368 47.448L115.688 48.592L115.52 48.72C115.344 48.856 113.016 50.12 112.792 50.2C112.688 50.24 112.52 50.008 112.056 49.216C111.72 48.648 111.424 48.136 111.4 48.072C111.368 47.992 111.552 47.872 111.976 47.68C112.32 47.528 113.144 47.152 113.8 46.832C114.464 46.52 115.008 46.272 115.024 46.28C115.04 46.296 115.192 46.816 115.368 47.448ZM33.08 48.312C33.912 48.936 35.344 50.168 35.4 50.312C35.592 50.768 35.504 53.32 35.288 53.672C35.24 53.744 34.992 53.656 34.312 53.32C33.32 52.824 31.6 51.848 31.6 51.792C31.6 51.768 31.688 51.44 31.8 51.056C32.064 50.12 32.184 49.064 32.12 48.248L32.064 47.576L32.328 47.768C32.48 47.864 32.816 48.112 33.08 48.312ZM127.88 48.256C127.816 49.064 127.936 50.12 128.2 51.056C128.312 51.44 128.4 51.768 128.4 51.792C128.4 51.848 126.68 52.824 125.688 53.32C125.008 53.656 124.76 53.744 124.712 53.672C124.496 53.32 124.408 50.768 124.6 50.304C124.688 50.088 127.72 47.608 127.904 47.6C127.92 47.6 127.912 47.896 127.88 48.256ZM26.68 47.864C26.768 48.04 27.4 48.776 28.016 49.4L28.8 50.208L27.976 50.472C26.952 50.808 25.912 51.256 25.184 51.68C24.88 51.856 24.584 51.976 24.536 51.944C24.44 51.888 23.904 51.488 22.096 50.088C20.856 49.136 20.864 49.192 21.912 48.648C23.08 48.04 24.576 47.736 26 47.808C26.368 47.832 26.68 47.856 26.68 47.864ZM43.936 48.832C45.504 49.728 47.4 50.728 48.8 51.392C49.352 51.656 49.808 51.88 49.824 51.88C49.832 51.888 49.496 52.464 49.072 53.152L48.304 54.408L47.848 54.152C46.656 53.488 40.408 49.712 40.424 49.664C40.432 49.632 40.808 49.192 41.264 48.68L42.088 47.752L42.344 47.912C42.488 47.992 43.2 48.408 43.936 48.832ZM119.152 49.144C119.408 49.44 119.608 49.696 119.592 49.712C119.432 49.84 112.336 54.064 111.872 54.304C111.704 54.392 111.648 54.32 110.92 53.144C110.336 52.2 110.176 51.88 110.256 51.832C110.312 51.792 110.392 51.76 110.424 51.76C110.504 51.76 113.336 50.344 114.272 49.84C114.672 49.624 115.648 49.064 116.44 48.608L117.88 47.768L118.28 48.184C118.504 48.416 118.896 48.848 119.152 49.144ZM135.216 47.84C136.264 47.944 137.272 48.224 138.088 48.648C139.136 49.192 139.144 49.136 137.904 50.088C136.096 51.488 135.56 51.888 135.464 51.944C135.416 51.976 135.12 51.856 134.816 51.68C134.088 51.256 133.048 50.808 132.024 50.472L131.208 50.208L132.064 49.32C132.536 48.832 133.008 48.304 133.12 48.144C133.296 47.88 133.36 47.848 133.72 47.816C133.936 47.8 134.176 47.784 134.24 47.776C134.304 47.768 134.744 47.8 135.216 47.84ZM50.056 48.592C50.624 48.824 51.488 49.176 51.992 49.368C52.888 49.712 52.904 49.72 53.072 50.08C53.192 50.344 53.24 50.608 53.24 51.04C53.24 51.552 53.208 51.696 53.024 52.008C52.688 52.584 52.616 52.616 52.136 52.448C51.056 52.064 47.68 50.536 47.68 50.424C47.68 50.392 47.816 50.136 47.992 49.848C48.16 49.56 48.448 49.056 48.632 48.736C48.816 48.424 48.984 48.16 49 48.16C49.024 48.16 49.496 48.352 50.056 48.592ZM111.688 49.28C112.032 49.872 112.32 50.384 112.32 50.424C112.32 50.536 108.976 52.056 107.864 52.448C107.384 52.616 107.312 52.584 106.976 52.008C106.792 51.696 106.76 51.552 106.76 51.04C106.76 50.608 106.808 50.344 106.928 50.08C107.096 49.712 107.096 49.712 108.128 49.32C108.696 49.104 109.56 48.76 110.04 48.544C110.528 48.336 110.952 48.176 110.992 48.184C111.024 48.2 111.344 48.688 111.688 49.28ZM66.024 49.16C67.632 49.544 71.664 50.616 71.752 50.688C71.776 50.704 71.368 52.008 71.312 52.064C71.24 52.152 67.44 50.72 66.448 50.232C65.544 49.784 64.08 48.872 64.08 48.752C64.08 48.696 64.104 48.704 66.024 49.16ZM95.56 48.88C95.464 49.032 94.592 49.584 93.872 49.944C92.512 50.632 90.784 51.272 88.76 51.848C88.144 52.024 87.584 52.184 87.512 52.2C87.416 52.232 87.352 52.128 87.248 51.752C87.088 51.184 87.12 51.128 87.664 50.896C88.168 50.68 91.456 49.768 93.64 49.24C95.536 48.776 95.632 48.76 95.56 48.88ZM55.08 50.392C55.832 50.616 56.584 50.832 56.768 50.88C57.176 50.976 57.288 51.192 57.336 51.96C57.376 52.584 57.2 53.216 56.864 53.616L56.68 53.832L55.616 53.56C54.744 53.336 53.064 52.832 52.976 52.76C52.968 52.752 53.08 52.536 53.232 52.28C53.392 52.032 53.536 51.664 53.568 51.464C53.624 51.096 53.576 50.416 53.472 50.088C53.424 49.92 53.44 49.904 53.568 49.936C53.648 49.96 54.336 50.168 55.08 50.392ZM106.52 50.096C106.432 50.384 106.376 51.248 106.432 51.544C106.456 51.696 106.608 52.024 106.76 52.28C106.92 52.536 107.032 52.752 107.024 52.76C106.936 52.832 105.256 53.336 104.384 53.56L103.32 53.832L103.136 53.616C102.624 53 102.48 51.656 102.864 51.064C102.896 51.008 103.376 50.84 103.928 50.688C104.472 50.536 105.248 50.304 105.64 50.176C106.544 49.872 106.592 49.872 106.52 50.096ZM29.472 50.744C29.952 51.136 30.752 51.688 31.536 52.184L32.224 52.616L31.656 52.84C30.872 53.136 29.776 53.736 29.68 53.912C29.64 53.992 29.28 54.232 28.888 54.432L28.168 54.8L26.568 53.552C25.68 52.856 24.96 52.272 24.96 52.24C24.96 52.16 26.272 51.488 27 51.192C27.496 50.992 28.936 50.512 29.112 50.488C29.128 50.48 29.288 50.6 29.472 50.744ZM131.56 50.688C132.592 50.976 135.04 52.072 135.04 52.24C135.04 52.272 134.32 52.856 133.432 53.552L131.832 54.8L131.112 54.432C130.72 54.232 130.36 53.992 130.32 53.912C130.224 53.736 129.128 53.136 128.344 52.84L127.776 52.616L128.448 52.192C129.176 51.736 130.216 51.008 130.6 50.688C130.736 50.576 130.896 50.504 130.96 50.52C131.024 50.536 131.296 50.608 131.56 50.688ZM37.944 52.352C38.664 52.88 38.672 52.888 38.872 53.496C39.048 54.016 39.12 55.44 38.968 55.44C38.872 55.44 35.744 54.016 35.672 53.944C35.64 53.904 35.672 53.648 35.736 53.36C35.824 53.024 35.872 52.456 35.872 51.752L35.88 50.664L36.624 51.296C37.032 51.64 37.624 52.112 37.944 52.352ZM124.128 51.736C124.128 52.456 124.176 53.024 124.264 53.36C124.328 53.648 124.36 53.904 124.328 53.944C124.256 54.016 121.128 55.44 121.032 55.44C120.992 55.44 120.96 55.112 120.96 54.72C120.96 54.008 121.152 53.168 121.384 52.896C121.432 52.84 121.792 52.544 122.192 52.24C122.728 51.84 124.112 50.688 124.12 50.64C124.12 50.64 124.128 51.136 124.128 51.736ZM60.08 51.56C60.76 51.672 61.408 51.784 61.512 51.808C61.696 51.848 61.696 51.872 61.664 52.408C61.632 52.856 61.552 53.104 61.288 53.648L60.952 54.32H60.536C60.048 54.32 58.24 54.12 57.584 53.992L57.128 53.904L57.352 53.448C57.712 52.736 57.8 52.152 57.64 51.472L57.544 51.064L58.192 51.208C58.552 51.288 59.4 51.44 60.08 51.56ZM102.36 51.464C102.2 52.152 102.288 52.736 102.64 53.448L102.872 53.904L102.416 53.992C101.76 54.12 99.952 54.32 99.464 54.32H99.048L98.712 53.648C98.448 53.104 98.368 52.856 98.336 52.408C98.304 51.872 98.304 51.848 98.488 51.808C98.592 51.784 99.328 51.656 100.12 51.52C101.264 51.32 102.384 51.096 102.448 51.048C102.456 51.04 102.416 51.232 102.36 51.464ZM63.16 52C64.32 52.128 65.512 52.232 67.08 52.352C70.496 52.616 71.056 52.68 71.096 52.76C71.112 52.816 71.08 53.048 71.016 53.288L70.912 53.72L70.512 53.744C70.296 53.752 69.096 53.872 67.84 54C64.64 54.336 61.36 54.512 61.36 54.36C61.36 54.336 61.464 54.112 61.592 53.856C61.888 53.264 62.008 52.808 62.008 52.272C62.008 51.856 62.016 51.848 62.224 51.88C62.344 51.904 62.768 51.952 63.16 52ZM97.992 52.272C97.992 52.808 98.112 53.264 98.408 53.856C98.536 54.112 98.64 54.336 98.64 54.36C98.64 54.456 95.224 54.344 94.04 54.2C92.264 53.992 89.744 53.76 88.84 53.712C88.224 53.688 87.696 53.64 87.672 53.608C87.64 53.584 87.592 53.392 87.568 53.192L87.512 52.824L88.056 52.768C88.832 52.696 92.168 52.408 92.88 52.36C93.456 52.32 94.64 52.216 95.76 52.112C96.176 52.072 97.688 51.888 97.936 51.848C97.968 51.848 97.992 52.032 97.992 52.272ZM51.384 52.528C52.008 52.776 52.992 53.136 53.56 53.32C54.224 53.536 54.6 53.696 54.6 53.768C54.6 54 53.8 56.8 53.736 56.8C53.384 56.8 48.64 54.712 48.64 54.56C48.64 54.536 48.832 54.208 49.064 53.832C49.296 53.464 49.624 52.92 49.8 52.624C49.976 52.328 50.152 52.08 50.184 52.08C50.224 52.08 50.76 52.28 51.384 52.528ZM110.2 52.624C110.376 52.92 110.704 53.464 110.936 53.832C111.168 54.208 111.36 54.536 111.36 54.56C111.36 54.712 106.616 56.8 106.264 56.8C106.2 56.8 105.4 54 105.4 53.768C105.4 53.704 105.832 53.52 106.56 53.28C107.2 53.064 108.152 52.712 108.68 52.496C109.208 52.28 109.696 52.096 109.76 52.088C109.832 52.088 110.016 52.312 110.2 52.624ZM34.352 53.712C35.28 54.168 36.704 54.84 37.52 55.2C39 55.856 39.272 56 39.024 56C38.76 56 37.16 56.568 36.408 56.928C35.672 57.272 35.616 57.288 35.136 57.24C34.656 57.192 34.576 57.144 32.416 55.704C31.2 54.888 30.152 54.176 30.096 54.128C30.016 54.056 30.136 53.96 30.64 53.688C31.208 53.384 32.4 52.896 32.592 52.88C32.632 52.88 33.424 53.256 34.352 53.712ZM128.016 53.088C128.336 53.2 128.912 53.464 129.304 53.664C129.856 53.952 129.984 54.048 129.904 54.128C129.848 54.176 128.8 54.888 127.584 55.704C125.4 57.16 125.352 57.192 124.84 57.24C124.352 57.296 124.28 57.28 123.856 57.056C123.232 56.728 122.672 56.504 121.68 56.192L120.84 55.936L121.32 55.72C123.456 54.768 124.864 54.112 125.96 53.552C126.664 53.192 127.28 52.896 127.336 52.888C127.384 52.888 127.696 52.976 128.016 53.088ZM40.536 54.032C41.152 54.392 41.216 54.448 41.432 54.904C41.56 55.176 41.704 55.616 41.752 55.872C41.84 56.368 41.872 56.96 41.8 56.96C41.776 56.96 41.392 56.744 40.936 56.488C40.488 56.232 39.944 55.936 39.736 55.832L39.352 55.64L39.4 55.08C39.448 54.576 39.4 54.056 39.232 53.408L39.176 53.176L39.528 53.416C39.72 53.552 40.176 53.824 40.536 54.032ZM120.672 53.848C120.584 54.256 120.56 54.624 120.6 55.04L120.648 55.648L120.264 55.832C120.056 55.936 119.512 56.232 119.064 56.488C118.608 56.744 118.224 56.96 118.2 56.96C118.128 56.96 118.16 56.368 118.248 55.872C118.296 55.616 118.44 55.176 118.568 54.912C118.784 54.448 118.84 54.4 119.496 54.016C119.888 53.792 120.328 53.52 120.48 53.416C120.632 53.304 120.768 53.224 120.776 53.232C120.792 53.24 120.744 53.52 120.672 53.848ZM56.04 54.032C56.936 54.256 58.616 54.528 59.76 54.632C61.36 54.776 65.088 54.712 66.256 54.52L66.464 54.488L66.424 55.544C66.4 56.128 66.352 56.672 66.32 56.76C66.224 57.024 64.048 57.56 62.264 57.76C60.968 57.904 58.888 57.864 57.56 57.672C56.48 57.52 54.288 57.032 54.176 56.928C54.152 56.904 54.328 56.176 54.56 55.32C54.904 54.056 55.016 53.768 55.112 53.792C55.184 53.816 55.6 53.92 56.04 54.032ZM105.44 55.32C105.672 56.176 105.848 56.904 105.824 56.928C105.712 57.032 103.52 57.52 102.44 57.672C100.56 57.944 98.256 57.904 96.32 57.552C95.528 57.408 93.84 56.968 93.712 56.864C93.664 56.832 93.616 56.512 93.608 56.136C93.6 55.776 93.576 55.248 93.552 54.976C93.512 54.512 93.52 54.472 93.656 54.504C94.096 54.632 96.76 54.736 98.424 54.696C100.696 54.64 102.464 54.416 104.16 53.976C104.576 53.864 104.944 53.776 104.968 53.768C104.992 53.76 105.2 54.464 105.44 55.32ZM91.744 54.312C92.504 54.392 93.144 54.48 93.16 54.496C93.168 54.504 93.208 55.016 93.24 55.616C93.28 56.392 93.272 56.72 93.208 56.72C93.064 56.72 91.536 56.128 90.44 55.64C89.872 55.384 89.04 55.04 88.6 54.88C87.96 54.632 87.792 54.536 87.776 54.4C87.72 54.04 87.752 54.04 89.088 54.096C89.792 54.128 90.984 54.224 91.744 54.312ZM48.08 54.672C49.08 55.224 49.08 55.224 49.44 55.824C49.64 56.152 50.008 56.704 50.264 57.048C50.512 57.4 50.72 57.72 50.72 57.768C50.72 57.896 49.688 58.88 49.552 58.88C49.4 58.88 48.608 57.512 47.712 55.712C47.296 54.88 46.96 54.16 46.96 54.128C46.96 54.048 46.904 54.024 48.08 54.672ZM70.76 54.608C70.704 54.896 70.648 55.144 70.624 55.16C70.488 55.296 66.992 56.72 66.792 56.72C66.728 56.72 66.72 56.392 66.76 55.616C66.792 55.016 66.832 54.504 66.84 54.488C66.888 54.448 69.84 54.128 70.568 54.096L70.856 54.08L70.76 54.608ZM113.04 54.136C113.04 54.168 112.704 54.88 112.288 55.712C111.392 57.512 110.6 58.88 110.448 58.88C110.304 58.88 109.28 57.896 109.28 57.752C109.28 57.696 109.344 57.576 109.432 57.488C109.608 57.288 110.456 56.016 110.72 55.56C110.872 55.288 111.072 55.136 111.912 54.664C112.944 54.088 113.04 54.04 113.04 54.136ZM44.032 55.992C44.416 56.32 46.008 59.056 45.888 59.176C45.872 59.192 45.624 59.184 45.336 59.152C44.832 59.104 44.76 59.064 43.952 58.472C43.48 58.128 42.888 57.704 42.632 57.544L42.16 57.24V56.584C42.16 56.16 42.104 55.76 42 55.424C41.912 55.152 41.84 54.896 41.84 54.864C41.84 54.792 43.816 55.816 44.032 55.992ZM118.008 55.4C117.896 55.752 117.84 56.16 117.84 56.592V57.24L117.368 57.544C117.112 57.704 116.52 58.128 116.048 58.472C115.24 59.064 115.168 59.104 114.664 59.152C114.376 59.184 114.128 59.192 114.104 59.176C114.04 59.104 115.064 57.208 115.504 56.6C115.96 55.968 115.976 55.952 117.04 55.392C117.632 55.072 118.128 54.832 118.144 54.84C118.16 54.856 118.096 55.104 118.008 55.4ZM89.384 55.576C89.968 55.824 90.76 56.16 91.152 56.32C91.704 56.56 91.928 56.696 92.16 56.976L92.464 57.328L92.072 57.84C91.856 58.128 91.64 58.456 91.592 58.584L91.496 58.808L90.448 58.784L89.4 58.76L89.024 57.88C88.688 57.088 88.352 56.072 88.2 55.376C88.168 55.2 88.176 55.12 88.24 55.12C88.288 55.12 88.808 55.32 89.384 55.576ZM52.52 57.248C52.96 57.68 53.528 58.176 53.776 58.352L54.224 58.656L53.944 59.048C53.664 59.44 53.664 59.44 53.2 59.44H52.736L52.12 58.784C51.336 57.952 50.224 56.488 49.736 55.624C49.704 55.576 50.136 55.744 50.704 55.992C51.68 56.432 51.752 56.48 52.52 57.248ZM110.272 55.616C109.76 56.496 108.664 57.952 107.88 58.784L107.264 59.44H106.8C106.336 59.44 106.336 59.44 106.056 59.048L105.776 58.656L106.224 58.352C106.472 58.176 107.032 57.68 107.48 57.248C108.24 56.496 108.336 56.432 109.28 56C109.832 55.744 110.288 55.536 110.304 55.528C110.32 55.52 110.304 55.568 110.272 55.616ZM70.552 56.056C70.52 56.312 70.488 57.032 70.488 57.656L70.48 58.8H69.488H68.496L68.408 58.576C68.36 58.456 68.144 58.128 67.928 57.84L67.536 57.328L67.864 56.944C68.04 56.736 68.216 56.56 68.248 56.56C68.288 56.56 68.816 56.344 69.416 56.08C70.024 55.824 70.536 55.608 70.568 55.6C70.592 55.6 70.584 55.808 70.552 56.056ZM88.672 57.96C88.864 58.4 89.016 58.76 89.008 58.768C89.008 58.776 88.76 58.8 88.464 58.824L87.92 58.872L87.928 57.336V55.8L88.128 56.48C88.24 56.856 88.488 57.52 88.672 57.96ZM40.512 56.648C40.912 56.872 41.52 57.24 41.864 57.456L42.488 57.864L41.688 58.168L40.888 58.464L39.264 58.08C38.368 57.872 37.32 57.632 36.92 57.552L36.2 57.408L36.84 57.112C37.56 56.776 39.2 56.248 39.552 56.24C39.68 56.24 40.088 56.416 40.512 56.648ZM121.576 56.528C122.096 56.68 122.808 56.944 123.16 57.112L123.8 57.408L122.92 57.584C122.44 57.68 121.384 57.92 120.576 58.112L119.112 58.464L118.312 58.168L117.52 57.864L117.976 57.56C118.864 56.968 120.2 56.248 120.416 56.24C120.536 56.24 121.056 56.368 121.576 56.528ZM47.12 57.56C47.288 57.816 47.88 59.272 47.832 59.32C47.816 59.336 47.464 59.32 47.056 59.296L46.312 59.24L46.04 58.608C45.888 58.264 45.56 57.632 45.304 57.208C45.048 56.784 44.832 56.416 44.816 56.384C44.8 56.352 45.28 56.56 45.88 56.832C46.664 57.192 47.016 57.4 47.12 57.56ZM114.688 57.224C114.408 57.688 114.072 58.336 113.936 58.656L113.688 59.24L112.944 59.296C112.536 59.32 112.184 59.336 112.168 59.312C112.12 59.272 112.624 58.016 112.84 57.64C113 57.368 113.12 57.28 113.728 57.016C114.12 56.848 114.6 56.624 114.8 56.52C115 56.416 115.168 56.344 115.176 56.352C115.192 56.368 114.968 56.752 114.688 57.224ZM27 56.832C28.016 56.864 28.928 56.896 29.04 56.912C29.152 56.928 29.584 56.968 30 57C32.904 57.192 36.592 57.768 39.44 58.48C41.128 58.896 43.792 59.376 45.08 59.48C45.304 59.504 45.912 59.552 46.44 59.6C47.816 59.72 50.088 59.8 52.12 59.8C53.736 59.8 57.312 59.704 58.144 59.64C58.336 59.624 59.04 59.592 59.704 59.568C60.376 59.536 61.008 59.496 61.12 59.48C61.232 59.464 61.808 59.424 62.4 59.392C62.992 59.368 63.928 59.32 64.48 59.288C65.032 59.256 66.608 59.216 67.984 59.208C69.976 59.192 70.488 59.216 70.512 59.296C70.536 59.384 70.696 60.496 70.744 60.92C70.752 61.016 70.704 61.08 70.6 61.104C70.512 61.12 69.328 61.344 67.96 61.608C62.264 62.696 60.096 62.96 56.64 62.992C52.016 63.032 48.16 62.472 36.64 60.072C29.64 58.608 27.872 58.36 24.592 58.36H22.424L23.152 57.976C23.92 57.568 24.376 57.192 24.448 56.92C24.48 56.776 24.544 56.752 24.824 56.768C25.008 56.776 25.992 56.808 27 56.832ZM55 57.52C58.152 58.36 61.336 58.44 64.384 57.768C65.208 57.576 67.008 57.064 67.224 56.944C67.536 56.784 67.424 56.952 66.928 57.424C66.64 57.688 66.048 58.144 65.608 58.432C64.832 58.944 64.8 58.96 64.288 58.96C63.856 58.96 61.48 59.088 59.32 59.232C59.016 59.256 58.184 59.296 57.48 59.328L56.2 59.376L55.584 59.056C54.592 58.544 53.304 57.616 52.688 56.968L52.448 56.72L53.288 57C53.744 57.16 54.52 57.392 55 57.52ZM107.312 56.968C106.696 57.616 105.408 58.544 104.416 59.056L103.8 59.376L102.52 59.328C101.816 59.296 100.992 59.256 100.68 59.24C98.912 59.12 97.464 59.04 96.384 58.992L95.16 58.936L94.376 58.424C93.944 58.136 93.36 57.688 93.072 57.424C92.576 56.952 92.464 56.784 92.776 56.944C92.992 57.064 94.792 57.576 95.624 57.768C97.096 58.096 98.064 58.192 99.8 58.192C102.176 58.192 103.96 57.896 106.32 57.12C106.96 56.912 107.496 56.736 107.512 56.728C107.536 56.72 107.448 56.832 107.312 56.968ZM135.52 56.848C135.52 57.104 136.104 57.592 136.872 57.984L137.656 58.384L135.928 58.344C132.72 58.264 130.216 58.624 122.2 60.312C114.744 61.88 109.864 62.688 106.52 62.928C105.488 63 102.032 63 101 62.928C98.512 62.76 96.328 62.432 92.08 61.608C90.96 61.392 89.592 61.136 89.04 61.04C88.488 60.952 87.968 60.856 87.872 60.84C87.72 60.808 87.712 60.768 87.768 60.424C87.8 60.208 87.832 59.896 87.84 59.72C87.84 59.544 87.872 59.352 87.904 59.296C87.96 59.216 88.64 59.2 91.088 59.2C92.8 59.208 94.328 59.216 94.48 59.232C94.632 59.248 95.336 59.288 96.04 59.32C96.744 59.344 97.464 59.384 97.64 59.4C98.096 59.44 99.32 59.512 100.44 59.568C100.968 59.592 101.584 59.624 101.8 59.64C104.744 59.856 111.04 59.832 113.56 59.6C114.048 59.552 114.64 59.504 114.88 59.488C116.152 59.392 118.416 58.984 120.72 58.44C123.28 57.832 125.232 57.488 127.4 57.24C128.016 57.176 128.664 57.104 128.84 57.08C129.824 56.968 133.328 56.776 134.824 56.744C135.376 56.736 135.52 56.76 135.52 56.848ZM15.416 57.432C14.536 58.4 14.992 59.488 16.392 59.744C17.208 59.896 18.52 59.672 20.424 59.064C20.784 58.952 21.312 58.848 21.6 58.832C21.888 58.816 22.472 58.776 22.904 58.744C23.336 58.704 23.704 58.688 23.728 58.712C23.744 58.728 23.76 59.064 23.76 59.448V60.152L23.504 60.192C23.36 60.216 22.968 60.272 22.64 60.328C22 60.424 20.072 60.832 19.592 60.976C19.248 61.072 18.456 60.984 16.672 60.632C15.28 60.36 13.936 59.952 12.992 59.52C12.168 59.144 11.32 58.568 11.424 58.464C11.712 58.176 13.832 57.464 15.08 57.24C15.392 57.184 15.656 57.128 15.672 57.128C15.688 57.12 15.576 57.256 15.416 57.432ZM146.104 57.52C146.952 57.736 148.408 58.296 148.576 58.464C148.68 58.568 147.832 59.144 147.008 59.52C145.752 60.104 143.76 60.624 141.704 60.92L140.808 61.048L139.384 60.728C138.6 60.56 137.688 60.376 137.36 60.32C137.032 60.272 136.64 60.216 136.504 60.192L136.24 60.152V59.448C136.24 59.064 136.256 58.728 136.272 58.712C136.296 58.688 136.664 58.704 137.096 58.744C137.528 58.776 138.112 58.816 138.4 58.832C138.688 58.848 139.216 58.952 139.576 59.064C142.04 59.848 143.416 59.976 144.328 59.512C145.136 59.104 145.248 58.168 144.592 57.44L144.32 57.144L144.76 57.216C145 57.248 145.608 57.384 146.104 57.52ZM48.536 58.024C48.6 58.16 48.816 58.512 49.008 58.816C49.2 59.112 49.36 59.384 49.36 59.408C49.36 59.456 48.296 59.36 48.24 59.312C48.224 59.288 48.112 59.016 47.992 58.696C47.872 58.376 47.72 57.992 47.656 57.832L47.528 57.544L47.968 57.664C48.312 57.76 48.44 57.84 48.536 58.024ZM112.352 57.816C112.28 57.984 112.128 58.376 112.008 58.696C111.888 59.016 111.776 59.288 111.76 59.312C111.736 59.328 111.48 59.368 111.184 59.4C110.664 59.448 110.552 59.408 110.712 59.232C110.752 59.192 110.968 58.856 111.2 58.48C111.584 57.832 111.624 57.792 112.024 57.664C112.256 57.592 112.448 57.536 112.464 57.528C112.472 57.52 112.424 57.656 112.352 57.816ZM67.6 57.976C67.968 58.464 68.168 58.8 68.096 58.8C66.928 58.872 65.656 58.88 65.72 58.824C65.768 58.784 66.056 58.568 66.36 58.336C66.672 58.112 66.992 57.856 67.072 57.768C67.16 57.672 67.248 57.6 67.272 57.6C67.296 57.6 67.448 57.768 67.6 57.976ZM92.928 57.768C93.008 57.856 93.328 58.112 93.64 58.336C93.944 58.568 94.24 58.784 94.28 58.824C94.344 58.88 93.072 58.872 91.904 58.8C91.792 58.8 92.616 57.608 92.728 57.6C92.752 57.6 92.84 57.672 92.928 57.768ZM51.632 58.76L52.248 59.44H51.064C50.296 59.44 49.84 59.408 49.784 59.352C49.72 59.288 49.816 59.16 50.16 58.872C50.424 58.656 50.696 58.392 50.776 58.28C50.856 58.176 50.936 58.08 50.96 58.08C50.984 58.08 51.288 58.384 51.632 58.76ZM109.216 58.288C109.304 58.4 109.592 58.664 109.84 58.88C110.184 59.16 110.28 59.288 110.216 59.352C110.16 59.408 109.704 59.44 108.936 59.44H107.752L108.368 58.76C108.712 58.384 109.008 58.08 109.024 58.08C109.04 58.08 109.128 58.176 109.216 58.288ZM43.488 58.56C43.792 58.776 43.984 58.96 43.92 58.96C43.648 58.968 41.608 58.608 41.648 58.568C41.712 58.496 42.656 58.176 42.808 58.168C42.88 58.16 43.184 58.336 43.488 58.56ZM117.768 58.328C118.048 58.424 118.304 58.528 118.344 58.552C118.392 58.608 116.384 58.968 116.08 58.96C116.016 58.96 116.208 58.776 116.512 58.56C116.816 58.336 117.104 58.16 117.152 58.16C117.208 58.16 117.48 58.24 117.768 58.328ZM27.4 58.808C27.888 58.848 28.368 58.904 28.48 58.92C28.592 58.944 28.888 58.976 29.136 59.008L29.6 59.064V59.784V60.496L29.344 60.448C28.208 60.216 27.344 60.136 25.84 60.128L24.2 60.12L24.16 59.928C24.136 59.824 24.136 59.488 24.144 59.184L24.176 58.616L25.344 58.672C25.992 58.696 26.92 58.76 27.4 58.808ZM135.856 59.192C135.872 59.496 135.864 59.824 135.84 59.928L135.8 60.12L134.16 60.128C132.656 60.136 131.792 60.216 130.664 60.448L130.4 60.496V59.784V59.064L131.56 58.92C132.776 58.776 134.168 58.672 135.216 58.648L135.824 58.64L135.856 59.192ZM11.456 59.04C12.688 59.976 14.72 60.68 17.56 61.152C18.224 61.264 18.872 61.36 19 61.376C19.216 61.4 19.192 61.424 18.664 61.688L18.088 61.976L17.544 61.872C15.656 61.52 14.304 61.408 11.816 61.408L9.34398 61.4L9.39998 61.04C9.47998 60.424 9.87198 59.744 10.44 59.208C10.728 58.936 10.984 58.72 11 58.72C11.024 58.72 11.224 58.864 11.456 59.04ZM149.56 59.208C150.128 59.744 150.52 60.424 150.6 61.04L150.656 61.4H148.184C145.688 61.408 144.344 61.52 142.496 61.864L141.912 61.976L141.336 61.688C140.808 61.424 140.784 61.4 141 61.376C141.624 61.312 143.736 60.928 144.56 60.72C146.32 60.28 147.68 59.704 148.536 59.032C148.744 58.864 148.944 58.728 148.976 58.728C149.008 58.72 149.272 58.936 149.56 59.208ZM54.912 59.088C55.112 59.2 55.296 59.328 55.32 59.368C55.352 59.408 55.096 59.44 54.72 59.44H54.072L54.296 59.16C54.416 59.008 54.528 58.88 54.528 58.88C54.536 58.88 54.704 58.976 54.912 59.088ZM105.704 59.16L105.928 59.44H105.264C104.768 59.44 104.632 59.416 104.704 59.344C104.792 59.256 105.36 58.904 105.44 58.888C105.464 58.88 105.584 59.008 105.704 59.16ZM32.08 59.52C33.024 59.688 33.92 59.856 34.064 59.888L34.32 59.936V60.792V61.648L32.184 61.112C29.76 60.496 29.944 60.616 29.984 59.688C30.008 59.184 30.024 59.144 30.184 59.168C30.28 59.184 31.136 59.344 32.08 59.52ZM130 60.384C129.96 60.56 129.784 60.616 127.816 61.112L125.68 61.648V60.792V59.936L127.184 59.648C128.008 59.488 128.968 59.312 129.32 59.256L129.96 59.152L130 59.672C130.024 59.96 130.024 60.28 130 60.384ZM37.12 60.528C38.28 60.768 39.248 60.984 39.264 61C39.296 61.032 39.336 61.392 39.4 62.328L39.456 63.096L37.264 62.48C36.064 62.144 34.984 61.84 34.864 61.808L34.64 61.76V60.88C34.64 60.008 34.64 60 34.824 60.04C34.92 60.064 35.952 60.28 37.12 60.528ZM125.36 60.88V61.76L125.144 61.808C125.016 61.84 123.936 62.144 122.736 62.48L120.544 63.096L120.6 62.328C120.648 61.544 120.704 61.024 120.744 60.992C120.76 60.968 125.152 60.024 125.304 60.008C125.336 60 125.36 60.392 125.36 60.88ZM27.208 60.48C27.664 60.528 28.096 60.584 28.168 60.6C28.264 60.632 28.352 61.032 28.552 62.408C28.696 63.376 28.808 64.184 28.792 64.192C28.776 64.208 28.488 64.24 28.152 64.264L27.544 64.32L27.216 63.928C26.488 63.072 25.416 62.432 23.752 61.872C22.44 61.432 21.52 61.24 20.56 61.192C20.328 61.184 20.392 61.152 20.88 61.032C23.016 60.496 25.328 60.296 27.208 60.48ZM135.92 60.48C136.856 60.576 138.32 60.832 139.12 61.032C139.608 61.152 139.672 61.184 139.44 61.192C138.48 61.24 137.56 61.432 136.248 61.872C134.584 62.432 133.512 63.072 132.784 63.928L132.456 64.32L131.848 64.264C131.512 64.24 131.224 64.208 131.208 64.192C131.192 64.184 131.304 63.376 131.448 62.4C131.744 60.392 131.616 60.6 132.68 60.488C133.592 60.392 135.04 60.392 135.92 60.48ZM131.088 62.424C130.944 63.384 130.808 64.176 130.792 64.192C130.776 64.208 130.296 64.24 129.72 64.264C128.616 64.312 127.224 64.512 125.608 64.848C124.888 65 124.6 65.032 124.56 64.968C124.464 64.808 123.976 62.552 124.032 62.504C124.176 62.352 131.216 60.592 131.336 60.672C131.344 60.68 131.232 61.472 131.088 62.424ZM29.728 60.88C31.12 61.168 35.864 62.4 35.968 62.504C36.024 62.552 35.536 64.808 35.44 64.968C35.4 65.032 35.112 65 34.392 64.848C32.776 64.512 31.384 64.312 30.28 64.264C29.712 64.24 29.224 64.208 29.208 64.192C29.192 64.176 29.08 63.488 28.952 62.664C28.824 61.84 28.704 61.064 28.688 60.936C28.632 60.664 28.672 60.664 29.728 60.88ZM42.064 61.528L44.24 61.96V63.176V64.4L44.024 64.352C43.624 64.256 40.952 63.528 40.4 63.36C39.768 63.168 39.792 63.232 39.712 61.928C39.672 61.176 39.68 61.024 39.768 61.064C39.832 61.088 40.864 61.296 42.064 61.528ZM120.28 61.976C120.208 63.16 120.184 63.232 119.744 63.336C119.56 63.376 118.68 63.616 117.8 63.856C116.92 64.096 116.104 64.32 115.984 64.352L115.76 64.4V63.184V61.96L117.984 61.512C119.2 61.264 120.232 61.056 120.272 61.056C120.304 61.048 120.312 61.464 120.28 61.976ZM88.68 61.328C89.08 61.392 90.336 61.632 91.48 61.848C94.176 62.368 96.4 62.768 96.984 62.84C97.416 62.896 97.448 62.912 97.408 63.072C97.208 63.768 97.192 64.392 97.368 65.04C97.496 65.528 97.496 65.52 96.584 65.28C95.32 64.944 93.664 64.368 91.36 63.456C90.24 63.016 88.912 62.52 88.424 62.352C87.456 62.04 87.48 62.056 87.568 61.496C87.632 61.144 87.64 61.144 88.68 61.328ZM71.04 61.984L71.184 62.488L70.984 62.568C70.88 62.608 70.776 62.64 70.752 62.64C70.736 62.64 69.792 63.008 68.656 63.448C66.336 64.368 64.68 64.944 63.424 65.28C62.504 65.52 62.504 65.528 62.632 65.04C62.8 64.424 62.792 63.784 62.608 63.112C62.552 62.912 62.56 62.904 62.976 62.848C63.592 62.768 66.2 62.296 68.52 61.84C69.624 61.624 70.608 61.456 70.712 61.464C70.88 61.48 70.928 61.552 71.04 61.984ZM14.4 61.8C14.552 61.816 15.128 61.896 15.68 61.96C16.232 62.032 16.904 62.12 17.184 62.168L17.688 62.256L17.328 62.64C16.936 63.064 16.832 63.392 16.912 63.968C16.944 64.216 16.928 64.336 16.856 64.36C16.808 64.376 16.304 64.512 15.744 64.672C15.192 64.824 14.104 65.2 13.328 65.504L11.92 66.064L11.376 65.552C10.256 64.52 9.59198 63.36 9.39998 62.104L9.34398 61.768L9.85598 61.736C10.456 61.696 14 61.744 14.4 61.8ZM150.608 61.784C150.688 61.856 150.488 62.712 150.272 63.256C149.952 64.072 149.576 64.608 148.8 65.376L148.096 66.072L146.68 65.512C145.904 65.2 144.808 64.824 144.256 64.672C143.696 64.512 143.192 64.376 143.144 64.36C143.072 64.336 143.056 64.216 143.088 63.968C143.168 63.392 143.064 63.064 142.672 62.64L142.312 62.256L142.816 62.168C143.504 62.056 145.072 61.856 146.04 61.768C146.84 61.688 150.528 61.704 150.608 61.784ZM48.568 62.72C48.632 62.72 48.6 62.872 48.232 64.264L47.96 65.288L47.72 65.232C47.264 65.144 44.68 64.544 44.656 64.52C44.624 64.488 44.616 64.2 44.632 63.08L44.64 62.032L46.584 62.376C47.648 62.56 48.544 62.712 48.568 62.72ZM115.368 63.264C115.376 63.936 115.368 64.496 115.352 64.512C115.32 64.536 112.864 65.12 112.28 65.24L112.04 65.288L111.768 64.264C111.4 62.872 111.368 62.72 111.432 62.72C111.456 62.712 112.344 62.56 113.4 62.376C114.456 62.184 115.328 62.032 115.336 62.04C115.344 62.04 115.36 62.592 115.368 63.264ZM88.096 62.608C88.656 62.784 91.936 64.032 92.088 64.12C92.112 64.144 92.024 64.64 91.896 65.24C91.696 66.12 91.632 66.32 91.528 66.28C91.32 66.2 90.216 65.384 89.024 64.416C88.392 63.912 87.728 63.392 87.552 63.264C87.224 63.032 87.224 63.024 87.296 62.712C87.344 62.544 87.392 62.4 87.408 62.4C87.416 62.4 87.728 62.496 88.096 62.608ZM39.176 63.376C40.64 63.784 41.84 64.144 41.84 64.168C41.84 64.232 40.816 66.352 40.76 66.416C40.736 66.44 40.528 66.408 40.296 66.336C40.064 66.272 38.968 65.976 37.856 65.68C36.744 65.392 35.832 65.12 35.824 65.096C35.8 64.912 36.368 62.64 36.432 62.64C36.48 62.632 37.72 62.968 39.176 63.376ZM123.904 63.776C124.048 64.408 124.16 64.976 124.16 65.04C124.16 65.128 123.792 65.256 122.776 65.512C122.024 65.704 120.92 66 120.344 66.16C119.592 66.368 119.256 66.432 119.208 66.368C119.12 66.248 118.16 64.248 118.16 64.176C118.16 64.112 123.232 62.656 123.48 62.648C123.632 62.64 123.672 62.76 123.904 63.776ZM50.04 62.92C51.448 63.104 51.52 63.112 52.312 63.168C52.984 63.216 53.088 63.248 53.32 63.456C53.912 63.968 54.128 65.112 53.776 65.816C53.608 66.136 53.6 66.144 53.224 66.104C51.856 65.976 48.456 65.44 48.352 65.336C48.328 65.32 48.456 64.752 48.64 64.088C48.816 63.416 48.96 62.856 48.96 62.832C48.96 62.784 49.104 62.792 50.04 62.92ZM71.52 63.36L71.696 63.84L71.512 63.992C71.408 64.072 70.984 64.408 70.576 64.744C69.736 65.424 68.648 66.208 68.472 66.28C68.368 66.32 68.304 66.12 68.104 65.24L67.864 64.144L68.032 64.072C68.664 63.792 71.248 62.824 71.288 62.848C71.32 62.864 71.424 63.096 71.52 63.36ZM111.04 62.832C111.04 62.856 111.184 63.416 111.36 64.088C111.544 64.752 111.672 65.32 111.648 65.336C111.544 65.44 107.952 66.008 106.816 66.104L106.392 66.136L106.224 65.808C105.872 65.12 106.096 63.968 106.68 63.456C106.904 63.256 107.024 63.216 107.648 63.176C108.504 63.104 109.024 63.048 109.92 62.92C110.672 62.808 111.04 62.784 111.04 62.832ZM62.296 63.28C62.504 63.896 62.312 65.544 62.016 65.632C61.752 65.72 59.552 66.064 58.944 66.12L58.328 66.176L58.448 65.792C58.624 65.216 58.56 64.36 58.296 63.824C58.168 63.56 58.12 63.384 58.168 63.352C58.216 63.328 58.712 63.28 59.264 63.24C59.824 63.208 60.64 63.136 61.08 63.08C62.16 62.944 62.184 62.952 62.296 63.28ZM98.832 63.08C99.352 63.144 100.224 63.224 100.768 63.248C101.304 63.28 101.784 63.328 101.832 63.352C101.88 63.384 101.832 63.56 101.704 63.824C101.44 64.36 101.376 65.216 101.552 65.792L101.672 66.176L101.056 66.12C100.448 66.064 98.248 65.72 97.984 65.632C97.784 65.568 97.568 64.52 97.616 63.848C97.648 63.416 97.776 62.96 97.864 62.96C97.872 62.96 98.312 63.016 98.832 63.08ZM57.656 63.456C57.712 63.504 57.856 63.736 57.976 63.992C58.16 64.368 58.2 64.536 58.192 65.04C58.184 65.4 58.136 65.76 58.056 65.936L57.928 66.24H56.336C55.456 66.24 54.576 66.216 54.376 66.192L54.016 66.144L54.12 65.88C54.416 65.184 54.336 64.312 53.92 63.656L53.696 63.304L55.632 63.344C56.712 63.36 57.6 63.416 57.656 63.456ZM106.088 63.64C105.664 64.312 105.584 65.176 105.88 65.888L105.984 66.144L105.696 66.192C105.528 66.216 104.648 66.24 103.736 66.24H102.072L101.968 65.976C101.672 65.264 101.752 64.376 102.16 63.728L102.392 63.36L103.856 63.344C104.664 63.328 105.544 63.312 105.824 63.296L106.32 63.272L106.088 63.64ZM88.64 64.568C89.408 65.192 90.088 65.712 90.144 65.736C90.208 65.76 90.352 65.984 90.472 66.24L90.696 66.696L90.072 67.184C89.368 67.736 88.824 68.376 88.464 69.08L88.216 69.56L87.992 69.08C87.704 68.456 87.384 67.352 87.24 66.44C87.12 65.696 87.072 63.44 87.184 63.44C87.216 63.44 87.872 63.944 88.64 64.568ZM72.728 66.632C72.624 67.336 72.184 68.8 71.928 69.28L71.776 69.552L71.536 69.08C71.176 68.376 70.632 67.736 69.928 67.184L69.304 66.696L69.528 66.24C69.648 65.984 69.792 65.76 69.856 65.736C69.912 65.712 70.392 65.352 70.912 64.928L71.864 64.16L72.344 65.056L72.824 65.96L72.728 66.632ZM43.4 64.552C45.568 65.136 48.08 65.704 50.024 66.04C50.448 66.12 50.8 66.2 50.8 66.232C50.792 66.256 50.616 66.872 50.408 67.6L50.016 68.92L49.736 68.904C49.344 68.88 41.272 66.656 41.152 66.536C41.128 66.52 41.368 65.984 41.68 65.368C42.128 64.456 42.272 64.24 42.384 64.272C42.456 64.296 42.92 64.424 43.4 64.552ZM118.328 65.368C118.632 65.992 118.872 66.52 118.848 66.536C118.728 66.656 110.64 68.88 110.256 68.904L109.984 68.92L109.592 67.6C109.384 66.872 109.208 66.256 109.2 66.224C109.2 66.2 109.352 66.152 109.544 66.12C111.248 65.848 116.088 64.744 117.4 64.328C117.536 64.288 117.664 64.248 117.696 64.248C117.736 64.24 118.016 64.744 118.328 65.368ZM67.776 65.32C67.896 65.848 67.992 66.36 68 66.456C68 66.648 67.688 66.856 66.36 67.576C64.136 68.776 61.736 69.512 59.28 69.752C58 69.872 56.68 69.936 56.448 69.872L56.24 69.824V68.232V66.64L56.584 66.632C60.032 66.512 62.864 65.968 66.12 64.776C66.784 64.536 67.376 64.344 67.44 64.352C67.52 64.36 67.624 64.648 67.776 65.32ZM93.824 64.768C97.248 65.984 99.976 66.512 103.424 66.632L103.76 66.64V68.232V69.824L103.552 69.872C103.072 69.992 100.312 69.76 98.88 69.472C96.648 69.032 94.304 68.088 92.376 66.856L91.944 66.576L92.176 65.552C92.432 64.4 92.456 64.32 92.52 64.32C92.544 64.32 93.128 64.52 93.824 64.768ZM31.92 64.76C34.28 65.104 36.944 65.744 42.76 67.384C44.872 67.984 46.904 68.552 47.272 68.648L47.936 68.832L48.72 69.752C49.144 70.264 49.76 70.96 50.08 71.304L50.656 71.92L50.072 71.872C48.576 71.752 45.648 71.192 43.2 70.552C40.52 69.864 39.432 69.456 36.592 68.096C32.928 66.336 31.648 65.944 29.344 65.864L28 65.816V65.6C28 65.48 27.944 65.224 27.88 65.04C27.816 64.856 27.76 64.688 27.76 64.672C27.76 64.528 30.768 64.592 31.92 64.76ZM132.2 64.648C132.224 64.672 132.184 64.848 132.12 65.04C132.056 65.224 132 65.48 132 65.608V65.832H131C128.76 65.832 127.128 66.312 123.48 68.064C122.424 68.568 121.168 69.144 120.68 69.336C118.096 70.376 113.048 71.56 109.848 71.88L109.336 71.928L109.92 71.304C110.24 70.96 110.856 70.264 111.28 69.752L112.064 68.832L112.728 68.648C113.096 68.552 115.128 67.984 117.24 67.384C124.008 65.48 126.536 64.904 129.32 64.608C129.768 64.568 132.144 64.6 132.2 64.648ZM18.912 66.136L19.608 66.552L18.784 67.088C18.328 67.376 17.672 67.84 17.32 68.112C16.968 68.384 16.64 68.632 16.584 68.664C16.36 68.808 12.144 66.448 12.328 66.288C12.392 66.24 13.976 65.608 14.68 65.36C15.08 65.216 15.792 65.008 16.264 64.88L17.136 64.664L17.672 65.192C17.968 65.48 18.528 65.904 18.912 66.136ZM86.76 65.32C86.936 67.552 87.464 69.072 88.992 71.76C91.104 75.464 93.704 77.44 97 77.84C97.44 77.896 97.984 77.984 98.2 78.048C99.664 78.456 101.488 78.608 103.12 78.456L103.8 78.392L104.72 79.344C105.344 79.984 105.784 80.528 106.088 81.024C106.528 81.736 106.936 82.776 106.856 82.976C106.84 83.032 106.44 83.168 105.968 83.264L105.12 83.456L104.624 83.016C103.296 81.864 101.592 81.104 99.784 80.88C97.16 80.544 96.336 80.368 95.032 79.872C92.64 78.968 90.408 77.328 88.728 75.24C87.984 74.312 87.016 72.816 86.52 71.8C86.032 70.8 85.512 69.32 85.312 68.32L85.176 67.64L85.656 66.76C85.92 66.272 86.256 65.6 86.408 65.264C86.552 64.928 86.68 64.656 86.696 64.664C86.704 64.672 86.728 64.968 86.76 65.32ZM144.64 65.136C145.32 65.352 147.592 66.216 147.672 66.288C147.848 66.456 143.648 68.808 143.416 68.664C143.36 68.632 143.032 68.384 142.68 68.112C142.328 67.84 141.672 67.376 141.216 67.088L140.392 66.552L141.088 66.136C141.472 65.904 142.024 65.488 142.312 65.2L142.84 64.672L143.36 64.784C143.648 64.848 144.224 65.008 144.64 65.136ZM30.496 66.28C30.92 66.344 31.432 66.44 31.64 66.488C32 66.576 32.032 66.608 32.248 67.072C32.56 67.744 32.712 68.376 32.8 69.36C32.864 70.064 32.84 70.8 32.76 70.8C32.744 70.8 32.416 70.688 32.024 70.552C30.288 69.944 28.336 68.832 27.28 67.864L26.76 67.384L27.008 67.256C27.296 67.104 27.8 66.568 27.88 66.328C27.928 66.168 27.984 66.16 28.824 66.16C29.32 66.16 30.064 66.216 30.496 66.28ZM132.12 66.328C132.2 66.568 132.704 67.104 132.992 67.256L133.24 67.384L132.72 67.864C131.664 68.832 129.712 69.944 127.976 70.552C127.584 70.688 127.256 70.8 127.248 70.8C127.168 70.8 127.144 70 127.2 69.32C127.288 68.368 127.44 67.736 127.752 67.064L127.984 66.576L128.576 66.448C129.504 66.24 130.056 66.184 131.096 66.168C132.024 66.16 132.072 66.168 132.12 66.328ZM52.296 66.352C53.448 66.488 54.296 66.552 55.256 66.576L55.92 66.6V68.232V69.864L55.04 69.808C53.8 69.728 50.648 69.232 50.4 69.08C50.336 69.04 51.136 66.24 51.208 66.24C51.24 66.24 51.728 66.288 52.296 66.352ZM109.248 67.64C109.472 68.416 109.632 69.064 109.6 69.08C109.352 69.232 106.2 69.728 104.96 69.808L104.08 69.864V68.232V66.6H104.304C105.016 66.592 107.032 66.448 107.68 66.36C108.976 66.192 108.784 66.032 109.248 67.64ZM68.912 66.696C68.024 68.256 66.328 69.832 64.64 70.68C63.08 71.456 62.008 71.712 60.24 71.712C58.448 71.72 57.152 71.408 55.48 70.584C55.088 70.392 54.76 70.224 54.752 70.216C54.744 70.208 55.672 70.2 56.824 70.2C58.96 70.2 59.6 70.144 61.16 69.832C63.568 69.352 65.992 68.344 68.16 66.928C68.664 66.592 69.088 66.32 69.104 66.32C69.12 66.32 69.032 66.488 68.912 66.696ZM91.92 66.984C93.616 68.096 95.872 69.096 97.8 69.6C99.6 70.064 100.768 70.2 103.136 70.2H105.28L104.592 70.544C102.904 71.392 101.568 71.72 99.76 71.712C97.992 71.712 96.92 71.456 95.36 70.68C93.664 69.832 91.976 68.256 91.088 66.688C90.96 66.472 90.912 66.328 90.968 66.368C91.032 66.4 91.456 66.68 91.92 66.984ZM74.04 67.944L74.584 68.888L74.248 69.92C73.264 72.904 71.056 75.992 68.568 77.864C66.96 79.08 65.36 79.856 63.48 80.344C62.744 80.536 62.16 80.632 60.216 80.88C58.408 81.104 56.704 81.864 55.376 83.016L54.88 83.456L54.032 83.264C53.56 83.168 53.16 83.032 53.144 82.976C53.064 82.776 53.472 81.736 53.912 81.024C54.208 80.544 54.672 79.968 55.28 79.336L56.2 78.384L57.16 78.48C58.504 78.616 60.264 78.456 61.664 78.08C61.984 77.992 62.472 77.896 62.744 77.872C65.776 77.592 68.264 75.96 70.304 72.92C70.936 71.968 72.264 69.464 72.552 68.664C72.68 68.32 72.864 67.688 72.96 67.256L73.144 66.472L73.32 66.736C73.416 66.88 73.744 67.424 74.04 67.944ZM21.24 67.16C21.816 67.352 22.616 67.56 23.032 67.632C23.96 67.792 25.24 67.792 25.872 67.648L26.352 67.536L26.704 67.824L27.056 68.112L26.344 68.296C24.776 68.712 23.776 69.272 22.688 70.336L21.896 71.12L20.048 70.328C19.032 69.888 17.896 69.392 17.528 69.224L16.848 68.912L17.36 68.512C18.312 67.776 19.96 66.728 20.08 66.768C20.144 66.792 20.672 66.968 21.24 67.16ZM34.36 67.44C34.8 67.624 35.44 67.92 35.776 68.088C36.448 68.424 36.608 68.632 36.904 69.56C37.168 70.36 37.368 71.84 37.216 71.84C36.888 71.84 33.872 71.168 33.376 70.984C33.216 70.92 33.2 70.856 33.168 69.8C33.136 68.648 32.984 67.832 32.648 67.088L32.496 66.736L33.024 66.92C33.32 67.016 33.92 67.248 34.36 67.44ZM127.304 67.208C127 67.968 126.872 68.68 126.832 69.84C126.8 70.848 126.784 70.92 126.624 70.984C126.128 71.168 123.112 71.84 122.784 71.84C122.632 71.84 122.832 70.36 123.096 69.56C123.392 68.632 123.552 68.424 124.224 68.088C125.08 67.664 125.912 67.304 126.76 66.992C127.16 66.848 127.488 66.728 127.488 66.72C127.496 66.72 127.416 66.936 127.304 67.208ZM140.936 67.32C141.44 67.656 142.152 68.144 142.504 68.416L143.152 68.912L142.392 69.256C141.976 69.448 140.848 69.952 139.872 70.36L138.104 71.112L137.312 70.336C136.224 69.272 135.224 68.712 133.656 68.296L132.944 68.112L133.296 67.824L133.648 67.536L134.168 67.656C134.544 67.744 134.96 67.768 135.72 67.736C136.92 67.696 137.8 67.512 139.088 67.048C139.568 66.88 139.968 66.736 139.984 66.728C140 66.72 140.424 66.992 140.936 67.32ZM69.848 67.576C70.096 67.784 70.456 68.136 70.632 68.36C70.976 68.768 71.52 69.768 71.52 69.976C71.52 70.192 70.96 70.944 70.416 71.456C69.912 71.928 68.792 72.744 68.736 72.68C68.72 72.664 68.656 72.392 68.592 72.088C68.448 71.304 68.088 70.6 67.528 69.992L67.056 69.472L67.328 69.248C67.648 69 68.672 67.784 68.952 67.336C69.16 66.992 69.176 66.992 69.848 67.576ZM91.368 67.76C91.64 68.136 92.104 68.68 92.392 68.968L92.92 69.496L92.456 70C91.912 70.6 91.552 71.304 91.408 72.088C91.344 72.392 91.28 72.664 91.264 72.68C91.256 72.696 90.984 72.536 90.68 72.336C89.952 71.848 89.12 71.056 88.752 70.504C88.48 70.096 88.464 70.04 88.544 69.768C88.68 69.328 89.176 68.536 89.6 68.096C89.968 67.712 90.8 67.016 90.84 67.056C90.856 67.072 91.088 67.384 91.368 67.76ZM84.976 68.416C85.008 68.624 84.944 68.776 84.568 69.288C84.32 69.632 84.096 69.912 84.064 69.92C84.024 69.92 84 69.84 84 69.744C84 69.576 84.792 68.168 84.888 68.16C84.92 68.16 84.96 68.272 84.976 68.416ZM28.64 69.32C28.84 69.448 29.248 69.68 29.544 69.84L30.096 70.144L29.608 70.432C28.936 70.84 27.768 71.76 27.064 72.424L26.48 72.984L24.456 72.16C23.352 71.712 22.408 71.312 22.368 71.28C22.336 71.24 22.48 71.024 22.688 70.8C23.728 69.688 25.248 68.864 26.888 68.528L27.4 68.424L27.84 68.76C28.08 68.944 28.44 69.2 28.64 69.32ZM134.12 68.808C135.384 69.232 136.488 69.92 137.312 70.8C137.52 71.024 137.664 71.24 137.632 71.28C137.592 71.312 136.656 71.712 135.544 72.16L133.528 72.984L132.88 72.376C132.192 71.728 131.032 70.832 130.336 70.4L129.912 70.136L130.496 69.824C131.112 69.488 131.96 68.936 132.352 68.616C132.56 68.448 132.624 68.432 132.992 68.496C133.216 68.536 133.728 68.68 134.12 68.808ZM37.664 68.992C37.96 69.136 38.632 69.432 39.16 69.64C39.688 69.848 40.208 70.096 40.312 70.192C40.728 70.56 41.136 71.416 41.24 72.12L41.304 72.504L40.992 72.456C39.896 72.304 38.376 72.064 38.024 71.992L37.6 71.912V71.48C37.6 70.92 37.392 69.864 37.168 69.232C37.064 68.952 37.016 68.72 37.048 68.72C37.088 68.72 37.368 68.84 37.664 68.992ZM122.832 69.232C122.608 69.864 122.4 70.92 122.4 71.48V71.912L121.984 71.992C121.624 72.064 120.128 72.296 119.024 72.456C118.664 72.512 118.648 72.456 118.84 71.72C118.984 71.168 119.336 70.528 119.656 70.232C119.776 70.112 120.312 69.848 120.84 69.64C121.368 69.432 122.032 69.144 122.32 68.992C122.608 68.848 122.88 68.728 122.928 68.72C122.984 68.72 122.952 68.912 122.832 69.232ZM49.848 69.32L50.984 69.6L51.512 70.104C51.8 70.384 52.304 70.816 52.624 71.072C52.936 71.328 53.2 71.568 53.2 71.608C53.2 71.744 52.736 72.592 52.528 72.84L52.328 73.08L51.104 71.84C49.992 70.712 48.64 69.2 48.64 69.088C48.64 69.024 48.6 69.016 49.848 69.32ZM111.36 69.088C111.36 69.2 110.008 70.712 108.896 71.84L107.672 73.08L107.472 72.84C107.264 72.592 106.8 71.744 106.8 71.608C106.8 71.568 107.064 71.328 107.384 71.072C107.696 70.816 108.2 70.384 108.488 70.104L109.016 69.6L110.088 69.328C111.232 69.04 111.36 69.016 111.36 69.088ZM85.464 70.144C85.624 70.656 85.968 71.496 86.224 72.008L86.688 72.936L86.216 73.792C85.952 74.264 85.712 74.624 85.68 74.584C85.648 74.552 85.312 73.584 84.92 72.432L84.216 70.344L84.64 69.776C84.864 69.456 85.08 69.2 85.104 69.2C85.136 69.2 85.296 69.624 85.464 70.144ZM75.072 69.912C75.184 70.168 75.336 70.536 75.4 70.728L75.528 71.08L74.952 72.8C74.64 73.744 74.352 74.552 74.32 74.584C74.288 74.624 74.048 74.264 73.784 73.792L73.312 72.936L73.776 72.008C74.024 71.496 74.352 70.712 74.496 70.264C74.64 69.816 74.784 69.44 74.808 69.44C74.84 69.44 74.952 69.648 75.072 69.912ZM53.152 69.952C53.704 70.04 54 70.12 54.112 70.232C54.312 70.416 55.872 71.2 56.448 71.4L56.864 71.544L56.712 71.872C56.64 72.056 56.528 72.376 56.472 72.6C56.424 72.816 56.368 73.016 56.352 73.024C56.304 73.088 55.128 72.416 54.304 71.872C53.48 71.32 52.624 70.648 51.96 70.04L51.64 69.752L52 69.792C52.2 69.816 52.72 69.888 53.152 69.952ZM67.264 70.208C67.896 70.92 68.312 71.888 68.32 72.664C68.32 72.968 68.32 72.968 67.704 73.256C67.008 73.568 65.88 73.96 65.424 74.04L65.12 74.096V73.472C65.12 72.76 64.96 71.992 64.72 71.52C64.632 71.344 64.56 71.184 64.56 71.168C64.56 71.144 64.768 71.016 65.024 70.888C65.272 70.76 65.768 70.456 66.12 70.208C66.472 69.96 66.784 69.76 66.816 69.76C66.84 69.76 67.048 69.96 67.264 70.208ZM93.912 70.232C94.288 70.488 94.792 70.792 95.024 70.912C95.248 71.024 95.44 71.144 95.44 71.168C95.44 71.184 95.368 71.344 95.28 71.52C95.04 71.992 94.88 72.76 94.88 73.472V74.096L94.584 74.04C94.12 73.96 92.992 73.568 92.304 73.256C91.68 72.968 91.68 72.968 91.68 72.664C91.688 71.888 92.104 70.92 92.736 70.208C92.952 69.96 93.152 69.76 93.176 69.76C93.208 69.76 93.536 69.968 93.912 70.232ZM108.04 70.048C107.296 70.712 106.496 71.336 105.696 71.872C104.872 72.416 103.696 73.088 103.648 73.024C103.632 73.016 103.576 72.816 103.528 72.6C103.472 72.376 103.36 72.056 103.288 71.872L103.136 71.544L103.552 71.4C104.128 71.2 105.688 70.416 105.888 70.232C106.008 70.12 106.296 70.04 106.888 69.952C107.344 69.888 107.76 69.816 107.8 69.8C107.848 69.784 107.992 69.768 108.12 69.768H108.36L108.04 70.048ZM43.312 71.112C43.8 71.552 44.552 72.992 44.384 73.16C44.36 73.192 44 73.12 43.592 73.008C43.176 72.896 42.624 72.768 42.352 72.72C42.08 72.664 41.824 72.6 41.776 72.568C41.728 72.544 41.632 72.248 41.568 71.928C41.496 71.6 41.32 71.096 41.176 70.808L40.904 70.272L41.992 70.584C42.76 70.808 43.152 70.96 43.312 71.112ZM118.84 70.8C118.68 71.104 118.496 71.616 118.432 71.936C118.368 72.256 118.272 72.544 118.224 72.568C118.176 72.6 117.92 72.664 117.648 72.72C117.376 72.768 116.824 72.896 116.408 73.008C115.992 73.112 115.64 73.184 115.616 73.16C115.528 73.072 115.848 72.248 116.152 71.792C116.64 71.048 116.776 70.952 117.984 70.592C118.584 70.408 119.088 70.256 119.096 70.248C119.112 70.248 118.992 70.488 118.84 70.8ZM31.28 70.64C31.728 70.816 32.504 71.088 33.024 71.248C33.536 71.4 33.96 71.536 33.976 71.552C33.984 71.56 33.848 71.68 33.656 71.808C33.016 72.264 32.096 73.128 31.976 73.384C31.816 73.72 30.752 74.752 30.616 74.696C30.08 74.488 26.912 73.168 26.88 73.136C26.824 73.088 27.76 72.24 28.52 71.64C29.016 71.248 30.336 70.36 30.456 70.328C30.472 70.32 30.84 70.464 31.28 70.64ZM130 70.608C130.944 71.16 133.248 73.024 133.12 73.136C133.088 73.168 129.848 74.52 129.408 74.688C129.248 74.752 128.208 73.768 128.024 73.384C127.904 73.128 126.984 72.264 126.344 71.808C126.152 71.68 126.016 71.56 126.024 71.552C126.04 71.536 126.464 71.4 126.976 71.248C127.488 71.088 128.264 70.816 128.696 70.648C129.128 70.472 129.488 70.328 129.496 70.328C129.504 70.32 129.736 70.448 130 70.608ZM80.928 71.08C81.288 71.2 81.696 71.368 81.832 71.448C82.264 71.712 82.024 71.76 81.496 71.52C80.768 71.192 80.104 71.04 79.384 71.04C78.656 71.04 78.128 71.176 77.672 71.472C77.336 71.696 77.168 71.736 77.216 71.576C77.272 71.416 77.928 71.056 78.4 70.92C79.048 70.744 80.112 70.808 80.928 71.08ZM45.12 71.376C46.224 71.616 46.304 71.648 46.76 72.008C47.712 72.752 49.272 74.504 49.488 75.072C49.512 75.136 49.008 74.96 48.264 74.64C47.568 74.344 46.504 73.928 45.904 73.72C45.272 73.504 44.8 73.296 44.8 73.24C44.8 72.952 44.448 72.048 44.16 71.616C43.984 71.344 43.872 71.12 43.904 71.12C43.936 71.12 44.48 71.232 45.12 71.376ZM115.84 71.616C115.552 72.048 115.2 72.952 115.2 73.24C115.2 73.296 114.728 73.504 114.104 73.72C113.496 73.928 112.432 74.344 111.736 74.64C110.992 74.96 110.488 75.136 110.512 75.072C110.728 74.504 112.352 72.688 113.264 71.984C113.664 71.672 113.816 71.616 114.792 71.392C116.28 71.048 116.216 71.032 115.84 71.616ZM64.68 72.496C64.808 73.032 64.832 73.584 64.752 73.984C64.704 74.216 64.688 74.224 64.008 74.312C63.624 74.36 62.896 74.4 62.392 74.4H61.48V73.2V72H61.68C61.952 72 63.312 71.648 63.808 71.456L64.2 71.296L64.384 71.648C64.48 71.84 64.616 72.224 64.68 72.496ZM97.352 71.8C97.776 71.912 98.208 72 98.32 72H98.52V73.2V74.4H97.608C97.104 74.4 96.376 74.36 95.992 74.312C95.312 74.224 95.296 74.216 95.248 73.984C95.12 73.352 95.248 72.488 95.576 71.744L95.776 71.288L96.184 71.448C96.4 71.536 96.928 71.696 97.352 71.8ZM36.136 72C37.376 72.248 41.224 72.88 41.48 72.88C41.6 72.88 41.408 73.04 41.016 73.264C40.368 73.632 39.32 74.432 38.744 75.016L38.216 75.544L35.288 74.56C33.68 74.016 32.344 73.56 32.328 73.544C32.216 73.456 34.272 71.68 34.496 71.68C34.528 71.68 35.264 71.824 36.136 72ZM57.936 71.848C58.392 71.96 58.992 72.024 59.864 72.056L61.12 72.104L61.128 72.472C61.144 73.264 61.12 73.968 61.08 74.168L61.032 74.376L60.336 74.264C59.064 74.064 56.896 73.424 56.76 73.2C56.672 73.056 57.096 71.68 57.232 71.68C57.256 71.68 57.568 71.752 57.936 71.848ZM103.016 72.16C103.112 72.4 103.2 72.744 103.216 72.92L103.24 73.24L102.568 73.504C101.784 73.816 100.64 74.112 99.664 74.264L98.968 74.376L98.92 74.168C98.88 73.968 98.856 73.264 98.872 72.472L98.88 72.104L100.144 72.056C101 72.024 101.592 71.96 102 71.856C102.328 71.768 102.656 71.704 102.72 71.712C102.784 71.72 102.92 71.92 103.016 72.16ZM126.152 72.12C126.744 72.544 127.752 73.488 127.672 73.544C127.656 73.56 126.32 74.016 124.712 74.56L121.784 75.544L121.256 75.016C120.68 74.432 119.632 73.632 118.984 73.264C118.752 73.128 118.544 73 118.52 72.96C118.472 72.888 118.472 72.888 120.68 72.552C121.608 72.416 123.008 72.168 123.8 72C124.592 71.84 125.304 71.696 125.392 71.688C125.472 71.688 125.816 71.88 126.152 72.12ZM49.256 72.12C49.792 72.176 49.832 72.192 49.928 72.416C50.312 73.344 51.632 75.056 52.936 76.336C53.416 76.8 53.76 77.16 53.688 77.136C53.616 77.112 52.784 76.72 51.84 76.272L50.12 75.464L49.856 74.992C49.376 74.152 48.856 73.488 47.976 72.632L47.112 71.784L47.896 71.92C48.328 72 48.936 72.088 49.256 72.12ZM55.896 73.2L56.872 73.688L56.504 74.464C56.304 74.888 56.112 75.336 56.064 75.456C56.024 75.584 55.968 75.68 55.936 75.68C55.856 75.68 55.168 75.256 54.6 74.856C54.048 74.464 52.64 73.352 52.64 73.312C52.64 73.296 52.776 73.096 52.944 72.856C53.112 72.616 53.312 72.28 53.392 72.104L53.536 71.784L54.224 72.248C54.608 72.504 55.36 72.928 55.896 73.2ZM107.152 73C107.264 73.144 107.36 73.28 107.36 73.304C107.36 73.352 106.008 74.424 105.4 74.856C104.832 75.256 104.144 75.68 104.064 75.68C104.032 75.68 103.976 75.584 103.936 75.456C103.888 75.336 103.696 74.888 103.496 74.464L103.128 73.688L104.112 73.192C104.648 72.928 105.392 72.504 105.768 72.248L106.44 71.8L106.696 72.264C106.832 72.52 107.04 72.848 107.152 73ZM112.032 72.616C111.144 73.488 110.624 74.144 110.144 74.992L109.88 75.464L108.16 76.272C107.216 76.72 106.384 77.112 106.312 77.136C106.24 77.168 106.544 76.84 106.984 76.416C108.28 75.16 109.48 73.616 110.008 72.536L110.184 72.176L110.752 72.12C111.176 72.08 112.488 71.864 112.872 71.768C112.888 71.76 112.512 72.144 112.032 72.616ZM70.512 71.936C69.904 72.992 68.24 75.08 68.064 75.024C68.016 75.008 67.904 74.776 67.8 74.52C67.48 73.656 67.48 73.712 67.856 73.56C68.368 73.36 69.576 72.624 70.08 72.208C70.56 71.816 70.6 71.792 70.512 71.936ZM91.128 73.032C91.496 73.248 91.952 73.488 92.144 73.56C92.52 73.712 92.52 73.656 92.2 74.52C92.096 74.776 91.984 75.008 91.936 75.024C91.752 75.08 90.112 73.016 89.48 71.92C89.44 71.856 89.64 71.984 89.928 72.216C90.216 72.448 90.76 72.816 91.128 73.032ZM51.68 72.904C54.464 75.56 57.552 77.28 60.4 77.776L61 77.872L60.48 77.976C59.08 78.256 56.616 78.184 55.496 77.84C54.288 77.464 51.632 74.744 50.48 72.696L50.224 72.24H50.6C50.968 72.24 51.008 72.264 51.68 72.904ZM109.52 72.696C108.368 74.736 105.704 77.464 104.504 77.84C103.384 78.184 100.912 78.256 99.52 77.976L99 77.872L99.624 77.768C101.472 77.464 103.488 76.584 105.536 75.184C106.336 74.64 108.016 73.248 108.6 72.648C108.968 72.264 109.024 72.24 109.384 72.24H109.776L109.52 72.696ZM43.12 73.24C43.584 73.352 44.264 73.544 44.632 73.656L45.312 73.872L45.08 74.032C44.176 74.688 43.728 75.056 43.208 75.552C42.528 76.216 41.984 76.864 42.04 76.96C42.072 77.008 41.064 78.784 40.912 78.952C40.88 78.984 37.44 77.608 37.344 77.528C37.272 77.464 38.288 75.808 38.424 75.768C38.472 75.752 38.824 75.448 39.2 75.088C39.576 74.728 40.168 74.24 40.52 74C41.184 73.544 42.064 73.048 42.2 73.04C42.248 73.04 42.656 73.128 43.12 73.24ZM118.264 73.248C118.992 73.616 120.096 74.416 120.8 75.088C121.176 75.448 121.528 75.752 121.584 75.768C121.712 75.808 122.728 77.464 122.656 77.528C122.624 77.552 121.808 77.896 120.848 78.28C119.4 78.864 119.08 78.976 119.024 78.88C118.984 78.816 118.72 78.368 118.44 77.896C118.152 77.416 117.936 76.992 117.96 76.96C118.016 76.864 117.472 76.216 116.792 75.552C116.272 75.056 115.824 74.688 114.92 74.032L114.688 73.864L115.28 73.68C115.944 73.48 117.584 73.056 117.744 73.048C117.8 73.04 118.032 73.136 118.264 73.248ZM73.664 74.264L74.144 75.128L73.904 75.744C73.392 77.096 72.016 79.688 71.656 79.992C71.56 80.064 71.504 79.968 71.328 79.424C71.112 78.76 70.856 77.584 70.76 76.84C70.712 76.44 70.712 76.432 71.128 75.96C71.624 75.392 72.312 74.472 72.76 73.784C72.936 73.512 73.104 73.312 73.128 73.344C73.16 73.376 73.392 73.792 73.664 74.264ZM88.464 75.464C89.392 76.584 89.304 76.376 89.2 77.136C89.104 77.848 88.72 79.392 88.536 79.832L88.424 80.096L88.216 79.832C87.64 79.056 86.584 77.04 86.096 75.744L85.856 75.128L86.376 74.2L86.896 73.272L87.456 74.096C87.76 74.544 88.216 75.16 88.464 75.464ZM58.152 74.112C58.616 74.264 59.224 74.432 59.496 74.48C59.944 74.568 59.992 74.6 59.96 74.752C59.936 74.84 59.832 75.424 59.72 76.032C59.608 76.648 59.504 77.168 59.48 77.184C59.408 77.264 57.904 76.72 57.072 76.32C56.304 75.944 56.248 75.904 56.312 75.744C56.504 75.248 57.2 73.84 57.248 73.84C57.28 73.84 57.688 73.96 58.152 74.112ZM67.56 74.856L67.752 75.36L67.416 75.624C66.904 76.032 66.416 76.352 65.84 76.64C65.344 76.888 64.48 77.224 64.432 77.184C64.408 77.152 64.08 74.936 64.08 74.784C64.08 74.704 64.296 74.632 64.824 74.528C65.224 74.456 65.92 74.272 66.36 74.128L67.16 73.864L67.264 74.104C67.328 74.24 67.456 74.576 67.56 74.856ZM95.184 74.528C95.704 74.632 95.92 74.704 95.92 74.784C95.92 74.936 95.592 77.152 95.568 77.184C95.52 77.224 94.656 76.888 94.16 76.64C93.6 76.36 92.568 75.672 92.376 75.456C92.272 75.336 92.288 75.248 92.536 74.592L92.816 73.864L93.624 74.128C94.072 74.272 94.776 74.448 95.184 74.528ZM103.208 74.696C103.432 75.176 103.648 75.64 103.688 75.744C103.752 75.904 103.696 75.944 102.928 76.32C102.104 76.72 100.592 77.264 100.52 77.192C100.48 77.144 99.992 74.616 100.024 74.584C100.04 74.576 100.312 74.512 100.648 74.448C100.976 74.376 101.552 74.216 101.92 74.088C102.296 73.96 102.648 73.848 102.704 73.848C102.76 73.84 102.992 74.224 103.208 74.696ZM47.032 74.512C48.176 74.96 49.92 75.736 51.592 76.544L52.584 77.024L52.328 77.208C52.024 77.432 51.168 78.44 50.76 79.056C50.592 79.312 50.424 79.52 50.384 79.52C50.32 79.52 44.88 77.824 42.784 77.152C42.568 77.08 42.4 77 42.4 76.96C42.4 76.84 43.6 75.608 44.144 75.184C44.976 74.52 45.624 74.08 45.792 74.08C45.872 74.08 46.424 74.272 47.032 74.512ZM114.84 74.416C115.656 74.984 116.432 75.64 117.024 76.28C117.344 76.624 117.6 76.928 117.6 76.96C117.6 77 117.432 77.08 117.224 77.152C115.12 77.824 109.68 79.52 109.616 79.52C109.576 79.52 109.408 79.312 109.24 79.056C108.832 78.44 107.976 77.432 107.672 77.208L107.416 77.024L108.408 76.544C110.928 75.328 113.856 74.088 114.2 74.08C114.28 74.08 114.568 74.232 114.84 74.416ZM62.528 74.752L63.728 74.736L63.888 75.912C63.968 76.552 64.04 77.136 64.04 77.2C64.04 77.384 63.272 77.52 62.112 77.52C61.136 77.528 60.04 77.408 59.904 77.288C59.872 77.264 59.88 77.096 59.912 76.92C59.952 76.744 60.064 76.16 60.16 75.616L60.336 74.632L60.832 74.696C61.096 74.728 61.864 74.752 62.528 74.752ZM99.68 74.696C99.68 74.736 99.792 75.336 99.92 76.032C100.048 76.736 100.144 77.32 100.136 77.32C100.024 77.408 98.656 77.528 97.856 77.528C96.736 77.528 95.96 77.392 95.96 77.2C95.96 77.136 96.032 76.544 96.12 75.896L96.272 74.712L97.2 74.76C97.704 74.784 98.392 74.768 98.72 74.736C99.544 74.632 99.68 74.632 99.68 74.696ZM70.48 77.24C70.488 77.624 70.696 78.528 71.016 79.552L71.312 80.504L70.432 81.352C69.776 81.976 69.328 82.336 68.696 82.704C68.224 82.984 67.808 83.192 67.768 83.168C67.52 83.008 67.392 81.056 67.56 80.04C67.76 78.848 67.696 78.96 68.632 78.256C69.096 77.896 69.68 77.432 69.92 77.216C70.384 76.8 70.472 76.8 70.48 77.24ZM91.568 78.408C92.176 78.848 92.216 78.904 92.304 79.288C92.472 79.992 92.576 81.216 92.52 81.76C92.456 82.456 92.328 83.104 92.24 83.16C92.152 83.216 91.12 82.624 90.48 82.152C90.192 81.944 89.672 81.48 89.328 81.128L88.688 80.488L88.984 79.544C89.312 78.512 89.48 77.768 89.6 76.816C89.6 76.8 89.896 77.048 90.264 77.368C90.624 77.68 91.208 78.152 91.568 78.408ZM53.864 77.6C54.368 77.816 55.008 78.056 55.296 78.136L55.816 78.272L55.16 78.928C53.96 80.128 53.184 81.312 52.88 82.424C52.76 82.864 52.72 82.92 52.56 82.896C52.272 82.848 49.912 82.176 49.856 82.12C49.768 82.04 50.488 79.968 50.68 79.76C50.776 79.648 51.016 79.328 51.2 79.04C51.544 78.536 52.76 77.2 52.888 77.2C52.92 77.2 53.36 77.376 53.864 77.6ZM107.816 77.864C108.168 78.224 108.608 78.76 108.8 79.04C108.984 79.328 109.224 79.648 109.32 79.76C109.512 79.968 110.232 82.04 110.144 82.12C110.088 82.176 107.728 82.848 107.44 82.896C107.28 82.92 107.24 82.864 107.12 82.424C106.816 81.328 106.056 80.152 104.864 78.952C104.512 78.6 104.24 78.296 104.256 78.288C104.272 78.272 104.536 78.184 104.84 78.096C105.152 78 105.768 77.768 106.2 77.568C106.64 77.368 107.04 77.208 107.088 77.208C107.136 77.2 107.464 77.496 107.816 77.864ZM67.24 79.8C67.048 80.864 67.096 82.136 67.376 83.272C67.448 83.592 63.472 84.448 63.272 84.152C63.152 83.976 63.256 82.608 63.44 81.936C63.528 81.608 63.696 81.176 63.8 80.96C63.992 80.584 64.008 80.568 64.752 80.32C65.176 80.184 65.92 79.864 66.416 79.608C66.912 79.36 67.328 79.16 67.336 79.16C67.344 79.16 67.304 79.456 67.24 79.8ZM95.24 80.32C95.992 80.568 96.008 80.584 96.2 80.96C96.304 81.176 96.472 81.608 96.56 81.936C96.744 82.592 96.848 83.984 96.736 84.152C96.52 84.456 92.544 83.6 92.624 83.272C92.936 82.032 92.952 80.44 92.672 79.32C92.632 79.16 92.712 79.184 93.552 79.6C94.056 79.856 94.816 80.176 95.24 80.32ZM80.696 80.64C81.136 80.792 81.84 81.24 81.84 81.36C81.84 81.496 81.712 81.448 81.28 81.16C80.312 80.512 79.232 80.472 78.032 81.048C77.496 81.304 77.44 81.312 77.44 81.208C77.44 81.112 77.864 80.864 78.336 80.688C79.112 80.392 79.928 80.376 80.696 80.64ZM63.352 81.096C63.064 81.76 62.88 82.712 62.88 83.496C62.88 84.152 62.864 84.24 62.744 84.248C62.664 84.248 62.496 84.264 62.36 84.28C62.048 84.312 59.216 84.176 58.888 84.112C58.68 84.064 58.648 84.032 58.688 83.888C58.8 83.512 59.52 82.56 60.2 81.88L60.92 81.152L61.68 81.048C62.096 80.992 62.64 80.904 62.88 80.84C63.544 80.68 63.536 80.672 63.352 81.096ZM97.744 80.96C98.248 81.048 98.744 81.12 98.848 81.12C99.248 81.12 101.104 83.216 101.312 83.888C101.36 84.04 101.328 84.072 101.096 84.112C100.608 84.2 98.056 84.312 97.584 84.264L97.12 84.216V83.488C97.12 82.712 96.928 81.752 96.648 81.088L96.48 80.704L96.656 80.752C96.76 80.776 97.248 80.872 97.744 80.96ZM59.872 81.696C59.208 82.376 58.752 82.976 58.464 83.544L58.224 84.024L57.776 83.968C57.528 83.936 56.88 83.84 56.336 83.744L55.36 83.568L55.576 83.336C56.48 82.384 58.64 81.408 60.28 81.208C60.32 81.208 60.136 81.424 59.872 81.696ZM100.76 81.416C101.984 81.712 103.424 82.44 104.224 83.16L104.664 83.568L103.672 83.744C103.128 83.84 102.472 83.936 102.224 83.968L101.776 84.024L101.536 83.544C101.248 82.976 100.792 82.376 100.136 81.704L99.648 81.208L99.968 81.248C100.136 81.28 100.496 81.352 100.76 81.416ZM80.264 90.8C80.72 90.968 81.36 91.464 81.264 91.56C81.232 91.592 81.088 91.536 80.944 91.424C79.904 90.632 78.832 90.6 77.864 91.336C77.512 91.608 77.376 91.632 77.464 91.424C77.528 91.248 78.128 90.864 78.584 90.704C79.08 90.528 79.624 90.56 80.264 90.8ZM79.408 101.016C80.104 101.256 81.04 101.888 81.04 102.136C81.04 102.232 80.992 102.216 80.824 102.08C80.128 101.544 79.944 101.432 79.56 101.288C78.68 100.96 77.936 101.008 77.24 101.448C76.768 101.744 76.568 101.64 77.024 101.344C77.712 100.88 78.648 100.752 79.408 101.016ZM79.296 111.688C80 111.84 81.24 112.464 81.104 112.6C81.072 112.632 80.768 112.512 80.424 112.336C79.472 111.84 78.776 111.704 77.968 111.848C77.44 111.944 76.88 112.2 76.496 112.512C76.224 112.752 76.16 112.768 76.16 112.608C76.16 112.392 77.08 111.824 77.656 111.688C78.088 111.584 78.808 111.584 79.296 111.688Z" fill="#93B1A6"/>
</svg>
