<svg width="45" height="45" viewBox="0 0 45 45" fill="none" xmlns="http://www.w3.org/2000/svg">
<path d="M10.0748 39.375H0.743304V13.0869H10.0748V39.375ZM5.40402 9.50098C2.42076 9.50098 0 7.33887 0 4.72852C0 3.47444 0.56935 2.27172 1.5828 1.38495C2.59625 0.498181 3.97078 0 5.40402 0C6.83725 0 8.21179 0.498181 9.22523 1.38495C10.2387 2.27172 10.808 3.47444 10.808 4.72852C10.808 7.33887 8.38728 9.50098 5.40402 9.50098ZM44.99 39.375H35.6786V26.5781C35.6786 23.5283 35.6083 19.6172 30.827 19.6172C25.9754 19.6172 25.2321 22.9307 25.2321 26.3584V39.375H15.9107V13.0869H24.8605V16.6729H24.9911C26.2366 14.6074 29.2801 12.4277 33.8203 12.4277C43.2623 12.4277 45 17.8682 45 24.9346V39.375H44.99Z" fill="#183D3D"/>
</svg>
