<svg width="38" height="38" viewBox="0 0 38 38" fill="none" xmlns="http://www.w3.org/2000/svg">
<g clip-path="url(#clip0_58_57)" filter="url(#filter0_d_58_57)">
<path d="M13.6429 8.4375V11.25H24.3571V8.4375C24.3571 5.84766 21.9598 3.75 19 3.75C16.0402 3.75 13.6429 5.84766 13.6429 8.4375ZM9.35714 11.25V8.4375C9.35714 3.7793 13.6763 0 19 0C24.3237 0 28.6429 3.7793 28.6429 8.4375V11.25H29.7143C32.0781 11.25 34 12.9316 34 15V26.25C34 28.3184 32.0781 30 29.7143 30H8.28571C5.92188 30 4 28.3184 4 26.25V15C4 12.9316 5.92188 11.25 8.28571 11.25H9.35714Z" fill="white"/>
</g>
<defs>
<filter id="filter0_d_58_57" x="0" y="0" width="38" height="38" filterUnits="userSpaceOnUse" color-interpolation-filters="sRGB">
<feFlood flood-opacity="0" result="BackgroundImageFix"/>
<feColorMatrix in="SourceAlpha" type="matrix" values="0 0 0 0 0 0 0 0 0 0 0 0 0 0 0 0 0 0 127 0" result="hardAlpha"/>
<feOffset dy="4"/>
<feGaussianBlur stdDeviation="2"/>
<feComposite in2="hardAlpha" operator="out"/>
<feColorMatrix type="matrix" values="0 0 0 0 0 0 0 0 0 0 0 0 0 0 0 0 0 0 0.25 0"/>
<feBlend mode="normal" in2="BackgroundImageFix" result="effect1_dropShadow_58_57"/>
<feBlend mode="normal" in="SourceGraphic" in2="effect1_dropShadow_58_57" result="shape"/>
</filter>
<clipPath id="clip0_58_57">
<rect width="30" height="30" fill="white" transform="translate(4)"/>
</clipPath>
</defs>
</svg>
