<svg width="500" height="500" viewBox="0 0 500 500" fill="none" xmlns="http://www.w3.org/2000/svg">
<g clip-path="url(#clip0_97_18)">
<path d="M215.754 0.287406C212.536 1.35015 211.411 3.19436 211.443 7.41411L211.474 10.1336L210.474 9.85222C208.288 9.19582 200.509 7.69546 196.698 7.19533C190.418 6.35137 179.766 6.41387 174.674 7.35161C170.05 8.1643 165.645 9.60216 162.709 11.2276C160.272 12.6029 157.242 15.3223 156.398 16.8852C156.055 17.5104 155.649 18.0105 155.493 18.0105C155.336 18.0105 152.9 17.0728 150.088 15.9475C143.871 13.4781 136.124 10.8525 131.251 9.60216C123.816 7.69546 105.54 4.28835 95.6374 2.97555C91.5763 2.41292 81.8607 2.41292 79.9864 2.9443C75.3004 4.31963 75.5503 7.72671 80.7361 13.1968C89.5769 22.5428 107.102 32.2327 119.38 34.5457C122.035 35.0459 125.565 35.3584 131.407 35.671C140.841 36.1711 146.402 36.8588 152.337 38.1716C158.804 39.6407 158.054 39.1094 160.553 44.1106C168.176 59.333 181.109 73.8053 199.509 87.7462C207.756 93.9664 228.062 107.001 241.995 114.972C259.458 124.974 271.173 129.131 291.666 132.57C297.258 133.507 308.254 135.101 313.065 135.664C338.588 138.696 342.399 139.509 353.208 144.291C361.299 147.886 365.485 148.792 373.358 148.792C379.325 148.761 383.948 148.105 388.571 146.635C389.915 146.198 391.164 145.854 391.321 145.854C391.508 145.854 391.914 146.323 392.227 146.917C393.132 148.636 396.444 151.668 399.224 153.325C403.66 155.981 410.658 158.42 418.811 160.107L422.248 160.826L418.811 160.858C416.937 160.889 414.469 160.951 413.345 161.014C412.22 161.076 409.627 161.202 407.565 161.327C405.503 161.42 403.254 161.577 402.567 161.639C401.88 161.733 399.911 161.92 398.193 162.108C391.852 162.827 388.072 164.077 386.666 165.953C385.416 167.641 385.666 172.829 387.322 179.518C387.416 179.987 387.353 180.237 387.072 180.237C386.853 180.237 385.791 180.8 384.729 181.519C379.418 184.957 377.294 189.458 377.45 196.898C377.544 200.492 377.825 202.805 379.387 212.589C380.012 216.371 380.668 220.997 380.855 222.841C381.386 227.905 381.261 238.126 380.637 242.753C379.949 247.973 379.949 248.379 380.73 248.879C382.199 249.879 382.917 247.785 383.636 240.252C383.948 237.251 383.854 226.217 383.511 223.06C383.229 220.435 382.105 212.464 381.761 210.714C381.043 206.931 380.199 200.461 380.043 197.429C379.731 192.053 380.949 188.239 383.886 185.52C385.76 183.769 387.697 182.582 388.04 182.926C388.165 183.082 388.915 185.864 389.696 189.146C393.788 206.15 395.663 219.528 395.819 232.719C395.85 235.907 396.038 238.752 396.194 239.064C396.631 239.846 397.943 239.783 398.381 238.939C398.912 237.939 398.474 227.218 397.537 218.059C396.569 208.713 394.663 198.242 391.914 187.302C391.133 184.238 390.633 181.581 390.758 181.456C391.196 181.019 401.036 176.987 408.284 174.236C419.592 170.016 445.115 161.264 445.365 161.545C445.428 161.608 443.21 163.608 440.429 166.015C423.497 180.738 411.533 192.74 408.409 198.023C407.721 199.179 407.565 199.836 407.596 201.336C407.628 204.993 409.377 209.369 417.249 225.405C422.873 236.845 425.341 242.315 427.84 248.785C430.901 256.725 432.744 265.602 432.276 269.947C432.12 271.385 432.182 271.853 432.557 272.26C433.275 272.979 433.869 272.885 434.462 271.978C434.9 271.291 434.962 270.572 434.806 267.04C434.338 256.881 430.932 247.347 419.03 223.06C412.22 209.182 410.283 204.462 410.158 201.618C410.096 199.367 412.095 196.554 418.811 189.646C426.403 181.832 449.739 160.764 448.302 163.046C438.242 178.893 429.277 194.928 428.246 198.961C427.402 202.243 428.371 205.118 433.931 216.027C441.679 231.187 445.271 241.065 446.646 250.973C446.865 252.599 447.458 253.161 448.583 252.724C449.489 252.38 449.489 251.348 448.458 246.347C446.677 237.439 444.022 230.531 436.962 216.215C431.276 204.743 430.37 202.493 430.62 200.305C430.807 198.648 434.181 191.74 438.242 184.77C442.554 177.393 449.051 166.797 449.208 166.953C449.333 167.047 448.926 173.298 448.489 178.518C448.427 179.362 448.27 181.206 448.177 182.582C448.083 183.957 447.927 185.926 447.864 186.958C447.802 187.989 447.646 190.302 447.521 192.115C447.396 193.928 447.271 195.46 447.24 195.554C447.177 195.647 447.052 198.179 446.927 201.18L446.708 206.65L448.083 209.307C448.833 210.776 451.426 214.84 453.862 218.372C468.451 239.596 474.637 253.036 476.917 268.54C477.479 272.385 477.854 273.072 479.104 272.51C480.072 272.072 480.104 271.541 479.26 266.696C477.261 255.037 472.762 243.534 465.265 231.093C463.828 228.655 459.86 222.591 456.518 217.621C453.175 212.651 450.176 207.963 449.864 207.244C449.301 206.025 449.301 205.525 449.582 200.649C449.957 194.335 450.176 190.927 450.363 188.833C450.426 187.958 450.582 186.145 450.676 184.77C451.02 179.456 451.957 166.922 452.269 163.671C452.581 160.514 452.706 160.483 454.643 163.233C455.581 164.609 456.674 165.953 457.018 166.296C457.642 166.828 457.674 167.078 457.486 169.735C457.392 171.298 457.267 177.706 457.267 183.988C457.236 196.804 457.236 196.929 459.392 199.242C460.079 200.023 463.547 203.118 467.077 206.119C474.449 212.401 482.009 219.872 485.82 224.623C489.413 229.124 493.287 235.063 495.817 240.002C497.629 243.534 498.035 244.159 498.722 244.253C499.285 244.315 499.628 244.159 499.878 243.69C500.159 243.159 500.003 242.596 498.879 240.314C492.881 227.905 483.884 216.965 470.201 205.4C462.328 198.742 460.329 196.71 460.079 195.241C459.673 192.709 459.892 170.11 460.329 169.704C460.391 169.641 461.266 170.11 462.266 170.704C466.92 173.517 472.887 173.986 477.136 171.86L478.917 170.985L480.104 171.892C481.947 173.298 485.539 174.924 487.257 175.111C489.288 175.361 491.069 174.486 492.318 172.673C494.724 169.141 497.16 162.889 498.191 157.513C498.972 153.481 498.879 147.104 498.035 143.822C497.004 139.946 495.161 136.508 492.599 133.757C485.289 125.974 477.323 123.661 471.107 127.568L469.951 128.319L467.983 127.475C466.233 126.756 465.546 126.662 462.547 126.631C459.329 126.631 459.017 126.693 457.455 127.568C454.425 129.225 452.019 132.57 451.051 136.477L450.613 138.196L450.363 136.789C449.707 132.788 447.208 127.975 444.178 124.724C438.524 118.66 430.276 115.534 419.842 115.534H415.875L410.877 112.752C399.38 106.313 396.225 103.969 387.259 95.2167C382.917 90.9657 378.606 87.0585 376.326 85.3393C367.578 78.7127 355.426 71.1484 324.624 53.1753C309.004 44.0481 301.975 39.797 292.603 33.8581C288.823 31.4512 283.919 28.3255 281.669 26.9189C269.267 19.042 257.334 12.4466 249.649 9.19582C245.556 7.44539 229.624 2.06908 225.438 0.975059C221.596 0.00606436 217.503 -0.275247 215.754 0.287406ZM222.783 1.78777C226.813 2.5692 242.557 7.72671 248.868 10.3524C251.773 11.5402 258.865 15.0098 262.426 16.979C266.143 19.042 274.953 24.2933 274.953 24.4496C274.953 24.6684 274.359 24.5433 267.081 22.8242C242.37 17.0102 222.095 9.94597 214.723 4.56969C213.38 3.6007 213.38 3.56945 213.911 2.9443C215.441 1.25637 218.222 0.912559 222.783 1.78777ZM214.442 6.10131C220.596 10.2899 234.123 15.4786 251.273 20.1985L256.803 21.7301L258.771 23.7306C262.894 27.9191 270.767 32.4828 293.853 43.9543C302.787 48.3929 311.441 52.894 313.065 53.9567C316.564 56.2385 318.688 57.9264 325.405 63.6466C335.495 72.2737 341.618 76.6497 351.802 82.5262C354.989 84.3703 357.707 85.9957 357.832 86.1208C357.988 86.2771 357.832 86.9335 357.488 87.6211C356.895 88.7777 356.27 91.0282 356.426 91.5283C356.613 92.216 355.27 91.3095 349.085 86.5271C332.809 73.9303 321.906 66.9599 302.288 56.6136C291.979 51.1748 279.389 43.798 263.863 34.1081C250.992 26.0437 247.806 24.1995 241.683 21.23C235.372 18.198 229.156 15.7287 220.377 12.8217C213.317 10.4774 213.161 10.3836 212.973 9.47713C212.724 8.28933 212.724 5.19485 212.973 5.19485C213.067 5.19485 213.723 5.60119 214.442 6.10131ZM192.324 8.1643C193.261 8.32061 194.417 9.00826 197.041 11.0713C201.384 14.4784 203.758 16.5726 202.946 16.2913C193.73 13.1343 184.233 12.728 180.297 15.3223L179.235 16.01L175.986 15.0098C174.174 14.4471 170.831 13.5406 168.519 12.978C163.677 11.8215 163.677 11.8215 168.582 10.2274C172.143 9.07079 175.798 8.38311 179.984 8.07055C183.577 7.82049 190.325 7.88299 192.324 8.1643ZM204.508 9.91472C209.787 10.9463 218.159 13.2906 223.095 15.1035C226.375 16.2913 226.375 16.2913 228.093 18.5419C232.717 24.5746 237.278 33.2329 239.465 40.2034C240.933 44.767 242.089 51.3311 241.402 50.8935C241.214 50.7997 239.933 49.8932 238.559 48.9242C237.184 47.9553 233.342 45.2984 229.999 43.0478C224.626 39.4219 223.814 38.7655 223.189 37.5152C222.533 36.2337 222.502 35.9523 222.814 34.6708C223.283 32.9203 222.845 30.7948 221.658 28.7631C219.877 25.6999 214.942 21.7301 209.693 19.1045C208.381 18.4481 206.288 16.979 204.914 15.7912C203.602 14.6034 201.04 12.5092 199.291 11.1026L196.073 8.53939L197.947 8.7582C198.978 8.88323 201.946 9.4146 204.508 9.91472ZM165.552 13.6657C168.926 14.3846 173.205 15.5099 176.173 16.4789C177.798 17.0102 178.11 17.229 177.923 17.6667C177.798 17.948 177.641 18.8232 177.548 19.6359C177.454 20.7924 177.61 21.4176 178.266 22.6366C181.89 29.3257 197.416 37.0776 210.568 38.7968C214.004 39.2656 215.223 39.2344 218.472 38.6092L220.252 38.2654L224.563 41.1098L228.874 43.9855L226.063 43.798C219.628 43.3604 214.473 42.7978 208.256 41.8913C201.04 40.8285 199.759 40.5159 197.729 39.3907C188.981 34.3895 167.239 23.3243 160.397 20.3548C156.523 18.6669 156.586 18.8544 158.335 16.5101C159.023 15.6036 161.99 13.0093 162.365 13.0093C162.428 13.0093 163.865 13.2906 165.552 13.6657ZM232.998 18.8544C235.029 19.6671 239.09 21.5426 241.995 23.0117L247.306 25.6686L249.711 29.232C257.552 40.7973 262.457 51.5811 263.863 60.302C264.175 62.3025 264.175 62.8026 263.863 62.9276C262.957 63.2715 250.836 57.2388 245.744 53.8629L243.245 52.2375L242.87 49.2681C241.745 39.9533 237.059 28.7631 230.374 19.3233C229.593 18.2605 229.062 17.3853 229.156 17.3853C229.249 17.3853 230.999 18.0417 232.998 18.8544ZM262.457 23.1992C263.582 23.4806 267.799 24.4496 271.86 25.356L279.202 26.9814L284.044 30.0447C298.445 39.1719 307.63 44.7982 320.625 52.3938C332.777 59.5518 335.37 61.1772 337.338 63.0214C342.431 67.7726 353.271 76.5872 358.988 80.6194C360.518 81.6822 361.737 82.6512 361.705 82.7449C361.674 82.8387 361.081 83.4326 360.362 84.0578L359.112 85.183L352.396 81.2758C342.524 75.5244 337.276 71.8361 329.466 65.272C327.279 63.4278 323.843 60.5521 321.844 58.8642C315.315 53.3316 312.316 51.5811 293.603 42.2664C275.796 33.3892 270.985 30.7948 265.112 26.9189C261.426 24.4808 258.708 22.2615 259.802 22.5116C260.145 22.6053 261.332 22.8867 262.457 23.1992ZM257.334 31.6388C262.02 34.5457 262.082 34.577 263.394 36.8276C269.33 46.83 278.171 58.0202 288.667 68.7103L293.197 73.3364L291.51 72.8363C287.386 71.6172 273.797 67.0224 269.955 65.5533L265.706 63.9279L265.331 61.0209C264.144 52.175 259.521 41.4224 252.148 30.3572C251.367 29.1382 250.586 27.9817 250.43 27.7316C250.149 27.2315 250.399 27.3565 257.334 31.6388ZM267.768 38.1716C270.08 39.672 282.982 47.4239 285.574 48.8617C286.949 49.6744 287.792 50.5184 289.792 53.2378C298.289 64.7093 307.723 74.0553 314.159 77.3061C317.126 78.8378 319.969 79.6505 322.968 79.8067C326.405 80.0255 328.873 79.5879 332.059 78.2751L334.339 77.3374L335.62 78.1814C336.308 78.6502 338.276 80.0568 339.994 81.3071L343.055 83.5576L340.556 83.7765C337.37 84.0265 333.246 85.2143 330.216 86.7459L327.842 87.9337L325.53 86.5271C319.376 82.7762 311.535 79.3691 301.507 76.1183L296.352 74.4304L290.854 68.9604C282.982 61.1147 276.296 53.269 270.548 45.2046C268.08 41.7663 264.956 36.9213 264.956 36.6087C264.956 36.39 264.987 36.4212 267.768 38.1716ZM164.396 41.7975C170.8 44.1418 180.266 48.6742 179.266 48.893C178.329 49.0805 172.518 47.7052 169.363 46.5487C167.738 45.9548 165.302 44.892 163.958 44.2043C161.99 43.1729 161.397 42.704 160.897 41.735C160.553 41.0473 160.428 40.5159 160.616 40.5159C160.772 40.5159 162.49 41.0786 164.396 41.7975ZM209.756 43.4542C212.724 43.8918 216.035 44.2981 217.16 44.3919C218.284 44.5169 219.752 44.6732 220.44 44.767C221.127 44.8295 223.814 45.0483 226.407 45.1733L231.092 45.4547L237.965 50.2058C241.714 52.8314 245.681 55.4571 246.744 56.1135C247.837 56.7386 248.712 57.3325 248.712 57.4576C248.712 57.8639 243.807 58.0827 237.34 57.9577L230.718 57.8327L223.532 53.8004C207.913 45.017 203.883 42.704 204.133 42.704C204.289 42.704 206.819 43.0478 209.756 43.4542ZM170.925 48.4554C174.143 49.4869 178.235 50.2996 181.796 50.6434C183.702 50.8309 184.483 51.2373 192.73 56.3635C195.854 58.3328 200.634 61.2085 203.352 62.7401C207.444 65.1157 208.038 65.5533 207.007 65.397C199.322 64.2405 187.419 64.3967 180.297 65.7096L177.641 66.2097L176.267 64.6781C174.111 62.3337 170.613 57.8639 168.332 54.5506C166.177 51.4249 162.803 45.8923 162.803 45.4547C162.803 45.3296 163.865 45.7047 165.208 46.2986C166.52 46.9238 169.082 47.8927 170.925 48.4554ZM299.164 56.4573C309.254 61.9274 316.658 66.0534 320.813 68.554C327.342 72.4925 332.809 76.1183 332.59 76.4309C332.309 76.931 329.31 77.9313 326.936 78.3376C319.251 79.713 310.035 74.7743 300.538 64.1779C297.414 60.7084 290.573 52.3001 290.573 51.925C290.573 51.7999 291.166 52.05 291.916 52.4876C292.635 52.894 295.915 54.7069 299.164 56.4573ZM265.362 65.2094C271.454 67.6475 280.264 70.6795 293.228 74.7743C307.692 79.3691 315.721 82.5262 321.781 85.9645C328.029 89.4966 344.898 100.718 344.93 101.343C344.93 101.687 342.805 106.157 342.618 106.157C342.555 106.157 339.713 104.594 336.308 102.687C301.85 83.4326 302.475 83.7139 267.924 73.8053L250.117 68.7103L243.557 65.0532C239.933 63.0214 236.185 60.9272 235.216 60.3645L233.404 59.3643L240.214 59.333C244.526 59.333 247.649 59.1455 248.837 58.8954L250.68 58.4891L255.241 60.7396C257.74 61.9899 262.301 63.9904 265.362 65.2094ZM351.178 70.4607C354.708 72.6175 359.893 75.837 362.674 77.65L367.797 80.932L365.579 81.4946L363.33 82.0573L361.081 80.4632C355.27 76.3371 343.243 66.7411 342.087 65.3032C341.556 64.6468 342.555 65.2094 351.178 70.4607ZM205.57 66.616C211.349 67.1787 210.755 66.9599 219.659 71.6172C222.408 73.0551 223.251 73.6177 222.47 73.4927C220.346 73.1489 211.661 73.0551 209.037 73.3677C203.414 73.9928 197.916 75.4619 192.855 77.6812L190.575 78.6815L189.544 77.9C188.981 77.4937 186.295 74.9931 183.608 72.3674C179.328 68.2414 178.766 67.5538 179.297 67.3662C180.109 67.0536 186.482 66.1784 188.575 66.0534C192.262 65.8659 200.759 66.1472 205.57 66.616ZM270.892 76.0246C285.574 80.2131 297.477 84.089 303.225 86.6209C305.443 87.5899 309.66 89.6529 312.597 91.2158C318.157 94.2165 340.65 106.626 341.556 107.22C342.024 107.563 341.993 107.72 341.368 109.189C340.993 110.095 340.619 110.908 340.494 111.002C339.994 111.502 314.877 100.812 297.133 92.4973C280.888 84.9017 255.022 71.7423 257.303 72.2424C257.834 72.3674 263.925 74.0553 270.892 76.0246ZM223.782 75.0556C227.188 75.5244 227.531 75.6495 232.936 78.2751L238.559 81.0258H233.092C222.002 81.0883 214.036 83.5889 207.725 88.9965C206.757 89.8404 205.882 90.5281 205.757 90.5281C205.476 90.5281 196.541 83.8077 193.949 81.6197C192.761 80.6507 191.918 79.713 192.074 79.5879C192.605 79.0566 197.916 77.0561 200.728 76.2746C202.352 75.8683 204.914 75.3056 206.444 75.0868C210.287 74.493 219.44 74.4617 223.782 75.0556ZM241.558 82.87C242.307 82.995 245.619 84.3391 248.868 85.8394C255.272 88.7777 255.053 88.6839 265.893 93.6539C284.2 102.031 299.132 109.189 304.631 112.221L307.286 113.69L303.631 113.471C301.632 113.377 296.477 113.252 292.228 113.221L284.481 113.159L279.17 111.346C272.735 109.189 267.424 106.657 260.052 102.312C252.898 98.0924 249.586 96.2795 244.182 93.6539C237.153 90.278 222.595 83.964 221.752 83.964C220.815 83.964 222.22 83.3701 224.032 83.0263C228.156 82.2136 237.184 82.1511 241.558 82.87ZM372.764 84.3391C374.264 85.4331 375.513 86.4021 375.545 86.5271C375.545 86.7772 370.421 91.2158 369.953 91.4033C369.734 91.4658 361.081 86.4646 360.581 85.9645C360.05 85.4644 363.361 83.4951 365.86 82.8387C368.828 82.026 369.734 82.2136 372.764 84.3391ZM224.845 86.5896C239.933 92.8412 248.805 97.186 259.708 103.688C266.956 108.032 270.985 109.939 277.702 112.252L281.576 113.596L279.42 113.784C275.953 114.128 271.579 114.878 268.049 115.753L264.738 116.566L262.27 115.222C258.021 112.877 252.898 109.658 244.807 104.281C232.998 96.4045 226.813 92.7161 218.128 88.3713C215.972 87.2773 214.379 86.3083 214.535 86.152C214.879 85.8394 218.409 84.3391 218.909 84.3078C219.096 84.2766 221.783 85.3081 224.845 86.5896ZM348.147 87.5274C349.647 88.6839 350.928 89.7467 351.021 89.8717C351.084 90.028 350.584 90.3718 349.897 90.6844C349.21 90.9969 347.96 91.9972 347.148 92.9037C345.929 94.2165 345.523 94.9979 345.086 96.6858C344.773 97.8424 344.492 98.8426 344.461 98.9051C344.399 98.9989 329.997 89.4028 329.497 88.934C329.122 88.5901 332.371 87.0898 335.433 86.152C337.901 85.4018 342.212 84.9642 344.18 85.2456C345.117 85.3706 346.148 85.9645 348.147 87.5274ZM226.188 94.1852C231.186 96.9984 233.935 98.7488 245.15 106.157C250.461 109.689 256.709 113.627 258.958 114.909L263.082 117.253L261.489 117.941C260.614 118.347 259.083 119.16 258.084 119.754L256.272 120.848L254.553 120.098C252.21 119.066 244.994 115.159 239.465 111.908C231.53 107.282 208.131 92.5286 207.163 91.5596C206.944 91.372 209.1 89.4966 211.037 88.1838L212.567 87.121L217.566 89.6216C220.315 91.0282 224.189 93.06 226.188 94.1852ZM362.674 88.8714C367.204 91.5283 381.011 100.03 386.166 103.344C395.194 109.158 406.191 116.691 406.628 117.378C406.722 117.535 406.159 117.878 405.378 118.129C404.191 118.535 403.848 118.566 403.129 118.191C402.629 117.972 400.224 116.878 397.725 115.753C382.761 109.064 371.14 102.687 361.112 95.5918L357.675 93.185L357.832 91.4346C357.957 89.9029 359.019 87.0898 359.487 87.0898C359.581 87.0898 361.018 87.9025 362.674 88.8714ZM383.011 92.9037L385.979 95.7169L383.823 96.7171C382.667 97.2797 381.386 97.8111 381.043 97.8736C380.574 97.9987 379.012 97.186 375.857 95.248C373.358 93.7164 371.358 92.341 371.39 92.2473C371.39 92.1222 372.671 90.9969 374.17 89.7467L376.919 87.4648L378.481 88.7464C379.356 89.4653 381.386 91.3408 383.011 92.9037ZM356.895 94.154L360.862 97.1234V103.219V109.345L358.769 108.157C356.332 106.813 348.71 102.031 347.21 100.906C346.304 100.218 346.179 99.9679 346.179 98.5925C346.179 96.7484 346.71 95.373 348.054 93.8414C349.085 92.6849 351.521 91.1845 352.427 91.1845C352.677 91.1845 354.676 92.5286 356.895 94.154ZM393.757 103.312C394.413 103.813 394.976 104.344 395.007 104.469C395.038 104.594 394.601 105 394.007 105.375L392.914 106.063L387.666 102.687C384.76 100.843 382.355 99.2177 382.324 99.1239C382.292 99.0302 383.323 98.4675 384.604 97.8736L386.947 96.8109L389.759 99.5928C391.289 101.124 393.101 102.781 393.757 103.312ZM370.515 108.282C370.015 110.627 369.547 112.752 369.453 112.971C369.297 113.377 368.266 112.971 364.142 110.971L362.268 110.064L362.174 104.063L362.112 98.0612L366.766 101.031L371.421 104L370.515 108.282ZM349.241 103.906C356.582 108.814 365.111 113.284 371.171 115.378C374.42 116.534 394.788 121.786 395.882 121.786C396.694 121.786 396.631 122.317 395.788 122.755C395.382 122.942 394.382 123.63 393.539 124.224C391.602 125.63 390.102 125.755 385.354 124.911C376.357 123.286 372.452 121.942 364.173 117.816C359.487 115.472 344.586 107.47 344.18 107.095C343.899 106.813 345.961 102.093 346.335 102.093C346.429 102.093 347.741 102.906 349.241 103.906ZM378.262 107.751C381.136 109.314 383.573 110.658 383.636 110.72C383.698 110.783 382.98 112.096 382.074 113.659C380.449 116.378 380.355 116.472 379.449 116.316C377.919 116.034 371.671 114.284 371.202 113.971C370.827 113.752 370.89 113.034 371.608 109.533C372.452 105.532 372.639 104.907 372.889 104.907C372.952 104.907 375.357 106.188 378.262 107.751ZM400.193 107.907C402.192 109.22 403.941 110.408 404.098 110.533C404.379 110.814 403.379 112.721 402.942 112.721C402.723 112.721 395.257 107.751 394.507 107.095C394.288 106.907 396.007 105.563 396.444 105.532C396.506 105.532 398.193 106.594 400.193 107.907ZM347.616 110.564C349.834 111.783 354.52 114.315 358.05 116.191C361.58 118.066 364.361 119.598 364.267 119.598C363.861 119.598 348.397 114.284 345.18 113.034L341.837 111.752L342.431 110.189C342.774 109.345 343.055 108.564 343.055 108.501C343.055 108.126 343.805 108.47 347.616 110.564ZM388.915 113.221C390.946 114.159 394.663 115.878 397.194 117.035C401.817 119.098 401.817 119.098 401.099 119.66C399.599 120.785 398.724 120.973 396.663 120.567C393.132 119.848 381.792 117.035 381.792 116.878C381.792 116.597 384.979 111.471 385.135 111.471C385.229 111.471 386.916 112.252 388.915 113.221ZM408.44 112.909C409.846 113.721 411.626 114.721 412.407 115.159L413.782 115.941L411.158 116.472L408.502 117.035L406.628 115.597C405.597 114.815 404.629 114.065 404.472 113.94C404.223 113.721 405.378 111.471 405.722 111.471C405.816 111.471 407.034 112.127 408.44 112.909ZM307.442 115.097L310.41 115.284L317.376 119.035C321.219 121.129 324.249 122.911 324.093 123.036C323.968 123.161 323.281 123.442 322.593 123.661C321.906 123.88 320.188 124.536 318.751 125.099C315.346 126.506 312.128 127.037 308.098 126.912C300.913 126.693 293.259 124.505 284.887 120.348C280.67 118.254 276.421 115.815 276.64 115.628C277.421 114.815 298.57 114.471 307.442 115.097ZM277.233 117.785C281.763 120.535 289.292 124.099 293.665 125.537C298.976 127.318 302.631 128.068 307.255 128.256L311.285 128.444L309.754 129.225C308.91 129.631 307.036 130.663 305.537 131.476C303.818 132.445 302.6 132.945 302.1 132.851C280.545 129.475 272.766 127.631 261.707 123.255C257.209 121.473 257.24 121.629 260.583 119.91C263.019 118.691 266.456 117.535 270.267 116.628C272.079 116.222 273.672 115.878 273.797 115.878C273.922 115.847 275.484 116.722 277.233 117.785ZM330.716 126.256L334.777 128.506L334.683 131.788C334.621 133.601 334.714 135.539 334.902 136.07C335.245 137.289 335.433 137.258 331.653 136.633C330.122 136.383 324.124 135.633 318.376 134.914C312.628 134.226 307.286 133.539 306.505 133.413L305.13 133.195L309.785 130.788C312.378 129.506 315.533 127.975 316.814 127.381C319.782 126.099 325.561 124.005 326.186 124.005C326.436 124.005 328.466 125.036 330.716 126.256ZM345.023 134.007C346.679 134.851 348.054 135.664 348.054 135.789C348.054 135.945 347.46 136.883 346.773 137.852C345.742 139.29 345.336 139.634 344.805 139.509C344.461 139.415 342.555 138.915 340.587 138.415C337.463 137.602 336.964 137.383 336.557 136.633C335.995 135.539 335.714 132.632 335.995 130.725L336.214 129.319L339.088 130.882C340.681 131.726 343.336 133.132 345.023 134.007ZM354.801 139.009C357.707 140.384 360.143 141.572 360.206 141.634C360.237 141.697 359.956 142.541 359.519 143.478L358.706 145.229L356.113 144.072C354.676 143.447 352.021 142.322 350.178 141.54L346.835 140.165L348.116 138.321C348.835 137.289 349.459 136.477 349.491 136.477C349.522 136.477 351.896 137.602 354.801 139.009ZM365.673 143.572C369.89 145.01 374.17 145.573 381.324 145.635C386.822 145.666 387.134 145.698 385.697 146.073C380.887 147.323 371.515 147.823 366.797 147.104C364.736 146.792 360.487 145.854 360.268 145.666C360.206 145.604 360.487 144.791 360.862 143.822C361.424 142.447 361.674 142.103 362.08 142.291C362.361 142.384 363.986 142.978 365.673 143.572ZM430.526 163.483C430.433 163.546 427.121 164.765 423.185 166.14C410.345 170.579 399.443 174.705 393.101 177.487C391.414 178.206 390.071 178.643 389.915 178.487C389.509 178.049 388.353 171.673 388.353 169.797C388.353 166.859 389.634 166.015 395.538 165.109C400.692 164.296 403.566 164.077 411.783 163.733C418.499 163.421 430.714 163.265 430.526 163.483Z" fill="#040D12"/>
<path d="M139.717 150.574C139.342 150.73 138.967 151.043 138.873 151.262C138.654 151.887 140.404 156.482 142.059 159.576C145.027 165.046 147.495 168.078 151.431 171.048C153.868 172.892 157.367 176.424 159.023 178.737L160.085 180.206L161.99 178.237C163.021 177.143 164.521 175.955 165.302 175.549L166.708 174.861L165.239 176.362C164.458 177.205 163.271 178.831 162.646 180.019L161.491 182.144L163.677 185.801C166.333 190.271 169.863 197.085 172.487 202.805L174.455 207.088L176.454 205.244C179.516 202.368 179.766 202.493 177.579 205.775C176.517 207.432 175.611 208.963 175.611 209.213C175.611 209.432 176.923 212.839 178.516 216.746C180.953 222.591 182.702 227.061 185.326 233.907L185.576 234.594L188.169 233.375C189.606 232.688 191.262 232.031 191.855 231.938C192.886 231.75 192.824 231.812 191.012 233C188.794 234.469 186.545 236.439 186.545 236.907C186.545 237.095 187.732 240.627 189.169 244.784C190.606 248.91 192.73 255.318 193.886 259.007C195.073 262.695 196.042 265.789 196.104 265.821C196.135 265.883 196.791 265.571 197.541 265.133C198.978 264.289 202.071 263.383 203.414 263.383C203.976 263.414 203.727 263.57 202.571 264.008C200.571 264.695 199.509 265.446 197.978 267.134C197.197 268.009 196.885 268.603 197.01 268.946C197.385 269.915 202.414 287.545 203.727 292.608C204.476 295.359 205.164 297.735 205.32 297.891C205.445 298.047 206.163 297.641 206.913 297.016C208.194 295.891 211.13 294.328 212.786 293.859C213.255 293.734 212.849 294.109 211.849 294.797C209.6 296.297 208.288 297.578 207.007 299.516L205.945 301.111L207.6 307.643C209.412 314.739 211.193 322.209 212.817 329.336C213.38 331.837 213.879 333.931 213.911 333.962C213.942 334.025 215.285 333.431 216.91 332.681C220.502 330.93 222.533 330.399 220.065 331.837C219.159 332.368 217.534 333.618 216.472 334.619L214.504 336.463L216.66 344.965C217.816 349.622 218.722 353.498 218.659 353.592C218.565 353.655 217.41 352.904 216.035 351.873C205.726 344.277 203.539 342.621 200.915 340.433C199.291 339.12 195.354 335.369 192.168 332.149C186.107 326.023 184.358 324.648 178.422 321.334C171.643 317.583 164.365 314.52 144.184 306.987C129.158 301.361 123.441 299.016 118.692 296.641C110.914 292.734 96.2934 286.201 85.7969 281.981C69.7397 275.511 58.6809 272.416 55.0884 273.385C53.3077 273.854 52.6204 274.885 53.1827 276.292C53.7763 277.761 57.7125 281.543 62.3672 285.138C80.986 299.579 129.845 329.649 158.898 344.527C163.49 346.903 166.083 348.403 165.614 348.403C163.459 348.403 157.398 349.153 152.65 349.966C140.716 351.998 114.6 355.53 91.1077 358.249C90.4204 358.343 86.203 358.843 81.7358 359.375C77.2685 359.875 72.4264 360.437 70.9581 360.625C69.4898 360.781 67.8029 360.969 67.2093 361.063C66.6158 361.156 64.2103 361.438 61.8986 361.688C58.0561 362.094 54.0262 362.563 50.8085 362.938C42.7175 363.876 35.751 364.563 24.8796 365.439C11.3216 366.533 6.13585 367.439 2.73073 369.283C-0.17456 370.878 -0.768113 373.503 0.981307 376.816C4.7613 383.912 13.8833 388.538 28.7846 390.882C30.9401 391.226 33.7517 391.601 35.0325 391.695C36.3133 391.82 37.8753 391.976 38.4689 392.07C40.6244 392.351 59.6181 392.445 63.6168 392.164C65.866 392.008 69.0212 391.82 70.6457 391.695C72.2701 391.601 73.9571 391.445 74.3944 391.382C74.8318 391.32 76.0814 391.164 77.206 391.07C78.3306 390.945 81.9857 390.507 85.3283 390.101C94.0129 388.976 98.5739 388.444 101.261 388.225C102.541 388.132 104.791 387.913 106.259 387.788C108.977 387.538 127.252 387.632 129.532 387.913C130.22 388.007 133.187 388.225 136.093 388.413C139.029 388.601 142.247 388.788 143.278 388.882C144.309 388.976 147.745 389.163 150.932 389.351C154.118 389.538 157.554 389.726 158.585 389.82C170.55 390.632 197.51 390.664 202.821 389.851C203.227 389.757 204.632 389.632 205.913 389.507C208.85 389.257 210.849 389.038 213.255 388.726C214.286 388.601 215.191 388.538 215.223 388.569C215.285 388.632 215.191 389.413 215.004 390.351C214.286 393.852 213.692 400.635 213.661 405.292C213.661 414.419 215.504 421.077 219.44 426.047C220.127 426.891 220.284 427.329 220.034 427.422C218.597 427.891 212.224 431.267 210.006 432.705C202.383 437.675 195.073 444.614 190.918 450.834C186.107 458.024 187.107 465.901 194.198 476.559C195.292 478.185 198.603 482.561 201.54 486.249C207.35 493.564 208.975 495.97 209.537 498.096C209.943 499.721 210.631 500.346 211.474 499.815C212.724 499.002 212.099 496.377 209.818 492.813C209.1 491.688 206.413 488.156 203.82 484.905C197.479 477.028 195.323 473.903 193.261 469.839C191.137 465.588 190.481 462.962 190.7 459.368C190.856 456.086 191.606 454.242 194.167 450.803C199.166 444.052 207.756 436.675 215.379 432.611L218.128 431.173L217.128 432.861C211.474 442.301 207.069 452.147 205.289 459.211C204.789 461.181 204.57 462.994 204.539 465.307C204.508 468.276 204.601 468.745 205.351 470.308C205.851 471.308 207.819 473.809 210.006 476.247C216.347 483.28 229.687 497.189 230.124 497.189C231.998 497.189 231.936 496.064 229.843 492.501C226.688 487.156 223.782 479.748 222.439 473.527C222.002 471.433 221.752 468.808 221.627 465.244C221.408 458.524 222.002 454.21 223.782 449.428L224.407 447.709L225.407 449.553C227.156 452.804 230.124 455.117 234.341 456.523C235.154 456.773 235.466 457.055 235.497 457.586C235.622 460.274 235.56 493.157 235.404 493.532C235.122 494.282 235.841 495.314 236.653 495.314C238.278 495.314 242.058 491.938 244.619 488.156C247.493 483.936 250.305 477.716 252.242 471.246L253.335 467.651L255.459 467.401C256.615 467.276 257.584 467.213 257.646 467.276C257.865 467.495 256.522 473.121 255.741 475.309C253.398 481.779 249.399 487.281 244.9 490.375C242.932 491.688 242.495 492.782 243.745 493.439C244.244 493.72 244.65 493.626 245.838 492.938C247.743 491.813 252.335 487.218 253.929 484.843C256.771 480.592 259.271 474.309 259.958 469.526C260.177 468.151 260.395 466.87 260.426 466.713C260.489 466.526 261.489 465.994 262.707 465.525C265.55 464.4 269.923 461.493 272.36 459.118C273.735 457.742 274.672 457.117 275.64 456.867C277.952 456.242 281.982 454.148 283.606 452.679C285.512 450.959 286.886 448.896 287.824 446.365C288.823 443.645 288.823 437.675 287.824 434.205C285.137 424.859 280.045 420.296 272.329 420.296C270.08 420.296 267.112 420.858 265.175 421.702C264.675 421.921 264.675 421.827 264.987 421.046C266.268 417.67 266.956 410.575 266.956 400.291C266.956 394.758 266.862 393.571 266.3 391.539C265.925 390.257 265.675 389.163 265.706 389.163C265.706 389.132 268.486 389.007 271.86 388.913L277.952 388.694L284.044 390.726C304.849 397.697 332.528 403.667 360.268 407.136C386.197 410.418 401.598 410.45 416.468 407.324C426.059 405.292 429.933 402.698 427.684 399.853C425.059 396.509 410.97 393.633 371.015 388.257C367.766 387.819 364.111 387.35 362.892 387.163C361.705 387.006 359.519 386.725 358.05 386.538C356.582 386.35 355.051 386.131 354.614 386.069C354.177 386.006 351.646 385.631 348.991 385.287C339.432 384.006 337.495 383.724 329.935 382.63C325.749 382.036 322.218 381.536 322.125 381.505C321.687 381.443 363.017 372.94 373.67 370.909C391.196 367.564 404.191 365.939 410.783 366.314C413.938 366.47 426.153 366.064 432.557 365.595C444.803 364.688 457.267 363.188 466.452 361.531C468.264 361.188 470.169 360.844 470.7 360.75C472.887 360.406 480.791 358.281 483.29 357.405C488.445 355.593 491.787 353.373 492.693 351.216C493.224 349.935 492.849 348.278 491.694 346.965C487.414 342.121 474.262 340.026 440.679 338.87C419.03 338.12 410.064 337.494 398.349 335.9C394.976 335.463 387.447 334.712 383.823 334.494C382.105 334.369 380.387 334.244 379.981 334.181C376.326 333.587 348.147 333.337 338.994 333.806C326.873 334.431 315.877 335.994 308.036 338.245C298.039 341.12 283.044 350.31 261.426 366.814C258.365 369.158 255.834 371.065 255.772 371.065C255.741 371.065 254.616 369.783 253.273 368.189C250.211 364.532 246.619 361.156 242.557 358.187C240.777 356.874 239.34 355.655 239.34 355.467C239.34 354.936 234.185 336.807 230.405 324.085C220.908 292.046 206.663 247.441 200.759 231.187C190.262 202.337 179.422 180.706 168.707 167.422C165.739 163.765 160.803 158.92 158.148 157.138C152.618 153.387 142.184 149.668 139.717 150.574ZM65.991 276.323C68.6776 277.105 73.4573 278.699 76.6125 279.855L82.3606 281.981L84.6098 286.357C85.8282 288.764 86.7966 290.764 86.7341 290.827C86.6716 290.889 79.674 287.951 71.1455 284.294C55.4632 277.636 54.4011 277.073 54.4011 275.542C54.4011 274.729 54.9009 274.635 58.1498 274.76C60.4928 274.854 62.1485 275.198 65.991 276.323ZM66.4283 283.794C89.0146 293.39 107.384 301.267 107.571 301.454C107.696 301.579 108.227 303.049 108.727 304.705L109.602 307.706L108.227 307.925C106.915 308.112 106.79 308.081 105.103 306.518C99.9485 301.798 93.3257 298.891 84.7972 297.61C81.892 297.172 81.642 297.078 78.643 295.078C69.5211 289.014 56.1193 278.98 59.5556 280.793C59.8993 280.981 62.992 282.325 66.4283 283.794ZM97.0432 288.139C103.885 291.077 118.161 297.766 118.692 298.235C118.755 298.297 118.973 299.235 119.223 300.329C119.442 301.392 119.942 302.986 120.285 303.83C120.91 305.205 120.91 305.33 120.41 305.174C119.879 305.049 106.478 299.391 94.4191 294.265L89.0146 291.952L87.0777 288.201C83.9538 282.106 83.7976 282.575 88.546 284.544C90.8265 285.482 94.6377 287.076 97.0432 288.139ZM88.1399 299.61C95.6374 301.298 102.416 305.049 106.04 309.519C107.446 311.207 109.289 314.333 108.914 314.333C108.633 314.333 85.3596 299.735 84.7348 299.141C84.4536 298.891 85.5782 299.048 88.1399 299.61ZM125.471 301.236C127.189 301.955 132.75 304.111 137.811 306.018L147.027 309.488L147.12 311.05C147.183 311.926 147.433 313.489 147.683 314.583C147.933 315.677 148.12 316.614 148.12 316.677C148.12 316.739 146.964 316.302 145.558 315.708C144.121 315.083 138.529 312.77 133.094 310.519L123.222 306.424L122.285 304.674C121.441 303.142 120.317 300.048 120.317 299.266C120.317 299.11 120.785 299.204 121.348 299.454C121.879 299.704 123.753 300.485 125.471 301.236ZM122.66 307.612C129.532 310.488 135.281 312.957 135.437 313.113C135.655 313.301 137.467 320.49 137.499 321.24C137.499 321.334 136.468 321.115 135.187 320.772C133.062 320.146 132.625 319.865 130.251 317.583C125.502 313.02 119.473 309.581 114.006 308.331L111.007 307.643L110.32 305.299C109.914 303.986 109.539 302.736 109.445 302.486C109.32 302.173 109.414 302.111 109.726 302.236C109.976 302.33 115.787 304.768 122.66 307.612ZM116.006 310.3C122.316 312.395 129.22 317.458 133.437 323.053C134.906 324.96 138.248 331.18 137.998 331.462C137.842 331.587 129.22 326.617 118.567 320.24L111.351 315.927L110.195 313.551C109.602 312.238 108.789 310.769 108.414 310.332L107.758 309.488L109.133 309.331C110.945 309.112 113.631 309.488 116.006 310.3ZM159.21 314.176C162.834 315.614 167.176 317.427 168.894 318.208L171.987 319.615L171.831 321.272C171.768 322.178 171.737 324.147 171.8 325.648C171.831 327.179 171.8 328.398 171.737 328.398C171.643 328.398 170.081 327.554 168.207 326.492C164.427 324.397 157.304 320.865 152.837 318.865L149.869 317.552L149.307 315.583C149.026 314.489 148.682 312.77 148.557 311.769L148.339 309.956L150.494 310.738C151.681 311.207 155.618 312.738 159.21 314.176ZM146.246 317.49C149.432 318.865 154.337 321.053 157.179 322.397L162.334 324.804L162.428 329.586C162.459 332.181 162.428 334.337 162.334 334.337C162.24 334.337 161.147 334.119 159.897 333.837C157.898 333.368 157.429 333.118 155.618 331.462C151.9 328.055 145.527 324.272 140.716 322.585L139.092 322.022L138.28 318.396C137.811 316.427 137.374 314.551 137.311 314.239C137.124 313.582 137.436 313.707 146.246 317.49ZM182.64 325.491C185.139 327.117 186.951 328.742 191.668 333.525L197.541 339.495L197.978 342.746C198.228 344.527 198.385 346.121 198.353 346.278C198.291 346.403 195.292 344.434 191.699 341.839C188.075 339.276 182.515 335.431 179.328 333.337L173.518 329.492L173.299 328.117C173.049 326.304 173.049 320.74 173.33 320.49C173.612 320.209 178.86 323.022 182.64 325.491ZM140.466 323.897C148.464 326.992 155.461 332.149 159.148 337.682C160.647 339.932 162.678 344.277 162.365 344.59C162.115 344.809 152.65 339.839 141.06 333.368C139.966 332.743 139.685 332.368 139.217 330.899C138.529 328.774 137.499 326.679 135.749 323.96L134.406 321.866L136.03 322.366C136.936 322.616 138.936 323.303 140.466 323.897ZM171.862 330.211C176.392 332.931 178.485 334.306 185.857 339.432C191.887 343.652 191.481 343.027 190.606 346.247L190.294 347.403L188.169 346.528C187.013 346.028 184.858 345.278 183.358 344.84C181.078 344.184 180.203 343.715 177.829 341.902C174.674 339.526 170.144 337.057 166.489 335.744L164.052 334.869L164.021 331.493C163.99 329.617 163.99 327.805 163.99 327.461C163.99 325.835 163.958 325.835 166.02 326.867C167.082 327.398 169.707 328.899 171.862 330.211ZM362.361 334.837C362.736 334.963 363.049 335.15 363.049 335.306C363.049 335.806 357.644 341.026 355.395 342.714C352.396 344.902 347.273 347.528 343.336 348.841C336.776 351.029 308.91 358.124 308.504 357.718C308.254 357.468 310.504 354.749 312.191 353.279C314.752 351.029 318.126 349.56 324.624 347.809C331.091 346.059 332.84 345.496 336.214 344.027C340.993 341.933 346.335 338.338 348.46 335.744L349.334 334.65H355.489C358.863 334.65 361.955 334.744 362.361 334.837ZM166.957 337.432C172.143 339.495 175.954 341.839 179.141 344.934C181.265 346.965 183.608 349.872 183.358 350.122C183.296 350.185 181.921 349.966 180.297 349.654C178.672 349.31 175.642 348.872 173.58 348.653C170.238 348.341 169.519 348.153 167.02 346.997L164.208 345.684L163.334 343.058C162.553 340.745 161.053 337.838 159.491 335.681L158.991 334.994L161.772 335.744C163.302 336.15 165.614 336.9 166.957 337.432ZM345.648 336.494C343.461 338.526 340.744 340.308 336.964 342.152C333.277 343.933 330.716 344.84 324.78 346.372C319.251 347.809 316.627 348.747 314.377 350.029C312.159 351.279 309.004 354.248 307.411 356.593C306.755 357.562 305.943 358.437 305.661 358.531C305.349 358.593 302.725 359.25 299.788 360C290.385 362.313 285.762 364.157 275.89 369.502C273.235 370.94 269.923 372.565 268.58 373.097C265.643 374.285 260.426 375.66 259.364 375.535C258.865 375.472 258.302 374.941 257.615 373.847L256.584 372.253L261.551 368.439C266.424 364.688 266.581 364.595 268.643 364.313C281.763 362.469 292.103 358.218 301.663 350.748C304.724 348.341 310.285 342.683 312.097 340.089L313.44 338.182L317.314 337.494C324.749 336.182 336.589 335.088 343.68 335.025L347.273 334.994L345.648 336.494ZM372.514 335.15L373.92 335.338L372.952 336.963C366.61 347.341 355.864 357.405 344.867 363.251C342.181 364.657 340.962 365.095 338.494 365.564C336.776 365.908 335.37 366.126 335.308 366.064C335.277 366.033 335.745 365.595 336.401 365.126C342.431 360.625 347.398 354.561 349.022 349.716C349.647 347.872 349.709 347.778 351.896 346.59C356.207 344.215 361.393 339.807 363.892 336.432L364.986 334.963H368.016C369.703 334.963 371.733 335.056 372.514 335.15ZM384.76 335.9C391.852 336.494 392.726 336.619 392.726 336.932C392.726 337.119 392.227 338.12 391.633 339.214C390.571 341.089 390.446 341.214 387.603 342.589C382.792 344.934 373.389 347.903 365.579 349.529C364.954 349.654 365.079 349.435 366.454 347.903C369.453 344.621 374.576 337.463 375.076 335.838C375.326 335.15 375.669 335.15 384.76 335.9ZM402.192 337.807C406.503 338.37 414.532 339.057 421.436 339.464C423.06 339.557 424.435 339.714 424.528 339.807C424.622 339.87 424.56 340.12 424.372 340.339C424.216 340.558 423.529 341.495 422.873 342.402L421.623 344.058L417.249 345.465C406.94 348.778 396.694 350.81 386.978 351.404L383.604 351.623L385.073 350.091C388.696 346.372 391.883 341.995 393.507 338.495L394.351 336.775L395.944 336.994C396.85 337.088 399.662 337.463 402.192 337.807ZM309.691 340.964C303.131 349.185 292.603 356.311 281.669 359.937C278.139 361.125 270.236 362.938 269.58 362.719C268.892 362.469 285.075 351.31 292.072 347.184C297.477 343.996 303.443 341.12 306.817 340.026C309.973 339.026 310.972 338.776 311.16 338.901C311.222 338.964 310.566 339.87 309.691 340.964ZM437.243 340.12C446.927 340.464 462.797 341.214 463.64 341.402C463.89 341.433 464.734 341.495 465.515 341.495C467.389 341.527 466.92 341.902 463.016 343.34C452.019 347.466 439.367 349.622 423.185 350.154L416.937 350.373L420.217 347.215C422.248 345.309 424.028 343.246 424.903 341.87L426.309 339.651L429.277 339.807C430.901 339.87 434.494 340.026 437.243 340.12ZM201.79 342.871C203.102 343.965 207.507 347.309 211.536 350.247C215.566 353.217 218.971 355.749 219.096 355.874C219.409 356.124 219.909 361.844 219.659 361.844C219.409 361.844 217.878 360.75 208.038 353.655C203.789 350.56 200.228 347.966 200.165 347.841C200.103 347.716 199.884 346.403 199.697 344.965C199.509 343.496 199.259 341.995 199.197 341.589C199.103 341.214 199.103 340.901 199.197 340.901C199.291 340.901 200.446 341.808 201.79 342.871ZM475.043 342.621C476.948 342.871 479.573 343.34 480.947 343.621L483.415 344.121L481.353 345.184C471.95 349.904 452.394 355.561 438.805 357.468C434.994 357.999 434.65 358.031 431.62 358.249C430.089 358.343 428.308 358.499 427.715 358.593C426.746 358.718 417.437 358.781 406.534 358.75L402.348 358.718L406.222 356.749C408.315 355.655 411.189 354.061 412.564 353.186L415.063 351.592L423.497 351.404C428.152 351.31 432.432 351.154 433.025 351.091C433.619 350.998 435.587 350.779 437.399 350.591C447.583 349.497 460.766 346.153 467.545 342.964C468.92 342.308 470.076 341.964 470.669 342.027C471.2 342.089 473.168 342.371 475.043 342.621ZM388.009 344.715C387.634 345.278 385.604 347.434 383.542 349.497C379.325 353.686 375.201 356.655 370.452 358.875C366.079 360.906 364.142 361.406 355.864 362.657C351.646 363.282 347.804 363.876 347.273 363.97C346.585 364.063 347.023 363.657 349.053 362.438C352.927 360.031 357.551 356.562 360.518 353.842L363.049 351.498L367.953 350.373C375.201 348.778 383.854 346.028 387.103 344.309C388.634 343.496 388.79 343.59 388.009 344.715ZM202.883 351.623C208.412 355.624 214.442 359.937 216.285 361.219L219.659 363.563V365.345C219.659 366.345 219.534 367.158 219.378 367.158C218.909 367.158 213.036 364.657 210.131 363.188C205.32 360.781 204.695 360.344 203.883 358.687C202.383 355.749 197.978 351.654 193.667 349.153C192.199 348.341 191.574 347.809 191.668 347.466C191.762 347.215 191.98 346.403 192.168 345.653C192.355 344.934 192.574 344.34 192.668 344.34C192.761 344.34 197.385 347.622 202.883 351.623ZM488.257 346.028C489.101 346.465 490.163 347.247 490.631 347.778C493.849 351.623 487.695 355.499 472.95 358.843L472.137 359.031L472.575 357.374C473.137 355.249 473.137 353.029 472.544 351.654C472.106 350.623 472.137 350.56 472.794 350.279C473.168 350.122 475.074 349.341 477.011 348.56C478.917 347.778 481.603 346.622 482.915 345.934C485.571 344.621 485.477 344.621 488.257 346.028ZM190.106 348.81C193.792 350.529 197.479 353.123 199.947 355.78C201.165 357.093 202.165 358.281 202.165 358.406C202.165 358.531 200.509 357.749 198.51 356.655C194.761 354.624 189.356 352.217 186.92 351.498C185.92 351.216 185.42 350.841 185.076 350.154C184.827 349.622 184.108 348.528 183.546 347.684C182.952 346.872 182.484 346.153 182.484 346.09C182.484 345.84 187.607 347.684 190.106 348.81ZM418.499 347.028C414.282 350.591 409.814 353.436 403.66 356.468C399.505 358.499 399.38 358.562 396.631 358.625C389.009 358.875 379.762 359.406 376.388 359.812C370.515 360.5 370.328 360.469 372.889 359.156C375.263 357.906 377.856 356.218 380.605 354.123L382.355 352.779H385.291C392.914 352.779 407.003 350.216 416.781 347.028C418.062 346.622 419.186 346.278 419.28 346.247C419.374 346.247 419.03 346.59 418.499 347.028ZM347.273 350.341C345.711 354.28 340.587 360.25 335.37 364.188C334.027 365.22 332.777 366.22 332.59 366.408C332.434 366.626 328.841 367.502 324.624 368.377C320.407 369.252 315.315 370.377 313.315 370.878L309.629 371.753L312.565 368.689C315.315 365.845 319.501 360.062 320.75 357.405L321.281 356.28L325.998 355.092C332.215 353.561 344.055 350.185 346.023 349.404C346.898 349.06 347.648 348.841 347.71 348.903C347.772 348.966 347.585 349.591 347.273 350.341ZM175.767 351.998C186.014 361.719 196.948 367.189 206.382 367.252C208.1 367.252 210.443 367.095 211.599 366.877C213.63 366.47 213.723 366.501 216.285 367.47C217.722 368.002 219.003 368.564 219.128 368.721C219.284 368.846 219.221 370.034 219.003 371.346L218.628 373.753L215.16 373.691C209.568 373.628 203.976 372.597 191.387 369.377L185.451 367.846L182.796 365.251C176.985 359.531 171.487 357.656 158.741 356.999C149.588 356.499 145.246 355.78 142.122 354.123C140.654 353.373 140.56 353.248 141.247 353.154C141.685 353.092 145.902 352.436 150.619 351.685C161.334 349.935 163.427 349.747 169.051 349.841L173.58 349.904L175.767 351.998ZM180.109 351.029C187.232 352.529 195.792 356.218 203.039 360.844C203.945 361.406 206.257 362.719 208.163 363.72L211.63 365.532L209.818 365.751C201.946 366.751 192.574 363.469 183.265 356.499C180.422 354.405 175.861 350.31 176.298 350.279C176.454 350.279 178.141 350.623 180.109 351.029ZM471.419 352.592C471.981 355.092 471.107 359.125 469.951 359.468C468.076 360.062 451.394 362.5 446.021 363.001C443.991 363.188 443.866 363.157 444.084 362.594C444.49 361.625 445.146 359.562 445.334 358.656C445.459 358.093 445.771 357.749 446.24 357.624C455.424 355.624 463.484 353.498 468.482 351.717C469.701 351.31 470.763 350.935 470.857 350.935C470.95 350.904 471.2 351.654 471.419 352.592ZM140.498 354.811C144.028 356.937 148.526 357.812 158.898 358.406C162.178 358.593 166.176 358.937 167.801 359.218C173.049 360.094 177.735 362.313 181.359 365.626L183.265 367.377L179.984 366.783C178.173 366.47 172.549 365.845 167.489 365.439C148.839 363.845 139.966 362.344 132.406 359.468C129.689 358.437 125.003 355.968 125.003 355.593C125.003 355.405 135.687 353.842 137.53 353.748C138.342 353.717 139.217 354.061 140.498 354.811ZM126.846 358.406C127.471 358.656 128.127 359.375 128.783 360.562C129.97 362.625 131.219 364.313 132.938 366.126C133.625 366.877 134.031 367.47 133.843 367.47C133.656 367.47 132.125 367.189 130.438 366.845C125.69 365.876 120.692 364.188 116.974 362.313C113.6 360.625 109.758 357.906 110.164 357.531C110.289 357.405 113.132 356.968 116.505 356.53L122.66 355.718L124.284 356.874C125.19 357.499 126.346 358.187 126.846 358.406ZM319.313 357.093C319.313 357.562 315.502 363.219 313.69 365.439C311.659 367.908 308.817 370.627 306.942 371.878C306.13 372.44 303.881 373.191 299.945 374.191C296.758 374.972 290.542 376.691 286.105 377.973C281.669 379.255 277.952 380.286 277.858 380.286C277.796 380.286 278.452 379.473 279.326 378.473C281.607 375.941 284.075 372.128 285.793 368.533C286.574 366.845 287.386 365.345 287.574 365.22C288.761 364.438 298.164 361.719 307.411 359.5C318.501 356.843 319.313 356.655 319.313 357.093ZM112.85 361.625C115.006 363.001 118.099 364.563 120.473 365.47C122.566 366.251 122.503 366.283 119.13 367.002C109.445 369.002 97.4493 366.501 92.5134 361.406C91.5138 360.375 91.0139 359.656 91.2639 359.625C91.5138 359.625 95.3875 359.156 99.8548 358.593L107.977 357.593L109.57 359.062C110.445 359.875 111.913 361.031 112.85 361.625ZM443.803 359.25C443.584 360.437 442.491 363.001 442.116 363.251C441.523 363.594 429.464 364.532 420.873 364.845L415.469 365.064L415.719 364.313C415.875 363.907 416 362.813 416 361.907V360.281L418.968 360.25C420.592 360.219 421.998 360.219 422.092 360.219C422.529 360.25 431.276 359.687 433.338 359.5C434.619 359.375 437.305 359.031 439.273 358.718C444.459 357.937 444.053 357.906 443.803 359.25ZM91.8574 362.563C93.3569 364.001 95.6062 365.908 96.8557 366.783C98.1366 367.689 99.105 368.408 99.0113 368.408C98.9488 368.408 97.4181 368.627 95.6374 368.877C92.326 369.377 85.0159 369.533 81.7045 369.19C75.3004 368.502 67.0219 366.908 65.1788 366.033C64.6789 365.783 63.4606 365.001 62.5234 364.345C61.305 363.438 60.9926 363.094 61.43 363.094C61.7736 363.063 67.6779 362.375 74.5506 361.563C81.4234 360.719 87.5151 360.031 88.1087 360C89.0458 359.969 89.5144 360.312 91.8574 362.563ZM140.935 363.344C145.59 364.407 151.9 365.376 157.679 365.939C161.428 366.314 161.491 366.345 162.053 367.283C163.709 370.096 170.956 376.473 175.392 379.004C176.361 379.567 177.173 380.098 177.173 380.192C177.173 380.286 176.361 380.255 175.392 380.161C174.393 380.036 172.893 379.88 172.018 379.786C168.145 379.38 159.148 378.004 153.993 377.004C148.557 375.941 148.245 375.847 145.496 374.222C138.811 370.284 133.437 365.47 130.563 360.875L130.032 360.062L133.375 361.219C135.218 361.875 138.623 362.813 140.935 363.344ZM412.657 360.281H414.594V362.032C414.594 365.032 414.688 364.97 409.033 364.97C403.91 364.97 398.693 365.439 391.196 366.533C388.728 366.877 386.666 367.127 386.603 367.095C386.572 367.033 386.635 366.158 386.76 365.157C386.885 364.157 386.885 362.751 386.76 362.032C386.603 361.344 386.51 360.656 386.478 360.531C386.478 360.219 393.382 360.062 402.879 360.187C407.19 360.219 411.564 360.281 412.657 360.281ZM385.416 362.032C385.666 363.688 385.385 366.814 384.979 367.22C384.854 367.345 381.699 368.033 378.012 368.721C374.326 369.377 369.578 370.284 367.453 370.721L363.611 371.503L362.455 370.659C358.519 367.72 355.457 364.438 356.27 364.001C357.238 363.438 379.293 360.688 383.261 360.625L385.198 360.594L385.416 362.032ZM61.7424 365.439C65.3662 368.033 69.3961 370.284 73.9883 372.222C76.0189 373.066 77.7371 373.847 77.8308 373.941C78.112 374.285 64.8664 373.753 60.3366 373.253C57.8374 372.972 53.995 372.409 51.777 372.003C48.3094 371.378 47.5284 371.096 46.1538 370.159C44.217 368.814 40.7494 365.72 40.968 365.532C41.093 365.407 56.7128 363.532 58.306 363.438C58.6497 363.438 60.2117 364.313 61.7424 365.439ZM356.801 367.533C357.644 368.471 359.05 369.783 359.925 370.471C360.956 371.253 361.362 371.721 361.112 371.878C360.893 372.003 357.894 372.659 354.458 373.347C351.021 374.066 343.743 375.535 338.276 376.691C332.809 377.817 327.967 378.723 327.56 378.723C326.998 378.723 326.123 378.067 324.53 376.441C322.5 374.378 320.282 371.096 320.656 370.721C321.031 370.315 343.212 365.97 351.802 364.595L354.458 364.157L354.864 365.001C355.083 365.439 355.957 366.595 356.801 367.533ZM41.3429 367.939C42.7175 369.221 45.0917 371.096 46.6224 372.128L49.3715 374.003L47.997 374.222C46.7161 374.41 36.3133 374.128 34.5952 373.878C34.2515 373.816 32.9707 373.691 31.7523 373.566C26.4729 373.066 19.6314 371.534 14.5081 369.752C10.5719 368.377 10.6344 368.252 15.6952 367.689C18.1631 367.408 22.0993 367.033 24.411 366.845C26.7228 366.658 29.1907 366.439 29.878 366.376C30.5652 366.283 32.5333 366.158 34.2515 366.033C35.9697 365.908 37.438 365.783 37.5004 365.72C38.0315 365.251 39.1874 365.908 41.3429 367.939ZM284.169 368.752C282.419 372.222 279.982 375.785 277.358 378.598L275.015 381.099L270.985 381.786C268.799 382.161 266.05 382.537 264.925 382.662L262.863 382.849L261.301 379.942L259.708 377.035L262.801 376.316C266.831 375.41 270.673 373.878 276.202 370.909C281.826 367.877 285.075 366.251 285.2 366.376C285.262 366.439 284.793 367.502 284.169 368.752ZM171.706 367.158C178.766 367.783 181.296 368.283 193.761 371.378C205.226 374.222 209.6 374.972 215.004 375.004H218.347L217.722 377.723C217.41 379.192 217.097 380.442 217.066 380.474C217.035 380.505 214.848 380.692 212.224 380.88C206.476 381.286 191.512 381.318 185.389 380.911L180.953 380.63L178.672 379.317C173.736 376.473 169.769 373.503 166.645 370.409C164.864 368.658 163.427 367.064 163.427 366.845C163.427 366.439 163.584 366.439 171.706 367.158ZM127.502 367.595C129.126 368.002 131.688 368.533 133.219 368.752C135.655 369.127 136.124 369.315 137.436 370.377C138.248 371.065 139.966 372.315 141.247 373.191C144.34 375.254 144.34 375.222 142.591 374.972C136.905 374.097 131.001 373.659 123.597 373.597C115.475 373.503 114.069 373.284 108.508 371.253C106.04 370.346 100.573 367.752 100.729 367.564C100.792 367.502 101.948 367.752 103.322 368.127C108.539 369.502 117.568 369.221 122.503 367.502C123.441 367.189 124.284 366.908 124.378 366.877C124.472 366.877 125.877 367.189 127.502 367.595ZM10.3844 369.471C13.6021 371.253 21.6307 373.503 28.1598 374.472C33.4393 375.285 37.5317 375.535 45.1854 375.535L52.3705 375.566L54.4636 376.504C56.7753 377.535 61.7112 379.161 63.5543 379.505C65.1475 379.817 65.335 380.286 63.8667 380.317C63.2107 380.317 60.1492 380.505 57.0565 380.724C53.9637 380.942 47.997 381.099 43.7796 381.036C32.877 380.911 24.3173 379.911 15.9451 377.785C9.47849 376.129 1.6061 373.128 1.6061 372.284C1.6061 371.565 3.73039 370.159 5.88593 369.44C8.57254 368.564 8.75998 368.564 10.3844 369.471ZM74.7381 369.627C84.3911 371.253 92.0448 371.284 98.6364 369.783L100.823 369.283L103.166 370.471C104.447 371.096 107.04 372.159 108.914 372.847C110.82 373.503 112.288 374.035 112.194 374.035C112.101 374.066 111.538 374.128 110.945 374.191C110.351 374.253 107.946 374.535 105.634 374.816C103.322 375.097 99.3862 375.597 96.9182 375.941C93.763 376.379 92.201 376.504 91.7637 376.285C91.3888 376.098 89.4207 375.597 87.3589 375.129C85.2971 374.66 83.4227 374.16 83.1415 374.035C82.8916 373.909 81.0485 373.284 79.0804 372.659C76.2063 371.721 68.4902 368.346 70.3645 368.846C70.6457 368.94 72.6138 369.283 74.7381 369.627ZM319.657 372.222C320.625 374.128 322.437 376.473 324.093 378.004L325.499 379.317L324.03 379.63C313.471 381.88 291.229 385.912 289.261 385.912C287.168 385.912 286.355 384.443 286.574 380.911L286.668 379.192L290.729 378.035C294.103 377.067 300.507 375.441 316.658 371.44C317.689 371.19 318.626 370.971 318.751 370.94C318.876 370.909 319.282 371.503 319.657 372.222ZM56.7441 374.191C63.0857 375.004 67.6779 375.285 75.3316 375.285C82.3293 375.316 82.8291 375.347 85.9219 376.191L89.1708 377.035L82.9541 377.91C79.549 378.411 76.4563 378.848 76.1126 378.942C75.769 379.004 73.8634 379.067 71.8953 379.067C67.9903 379.067 63.5231 378.317 59.3994 376.973C56.8378 376.129 50.9335 373.316 52.2143 373.566C52.6517 373.628 54.6822 373.909 56.7441 374.191ZM7.57287 376.629C10.072 377.567 16.1638 379.317 19.7563 380.098C20.3186 380.224 20.7248 380.63 21.0059 381.286C21.7869 383.256 23.4738 385.881 25.0358 387.569L26.5978 389.288L23.7238 388.663C16.6948 387.163 10.1658 384.412 6.60444 381.443C4.63634 379.817 1.88726 376.254 1.4499 374.753L1.26246 374.066L2.91816 374.785C3.82411 375.191 5.91717 376.035 7.57287 376.629ZM121.722 376.41C121.941 377.91 121.879 385.162 121.629 385.819C121.535 386.131 119.942 386.225 115.037 386.225C111.507 386.225 105.915 386.444 102.635 386.725L96.6995 387.225L94.0442 385.912C91.2014 384.475 87.1402 381.88 85.2034 380.192L83.985 379.161L91.1389 378.129C103.416 376.379 104.416 376.254 109.539 375.754C115.631 375.191 116.787 375.097 119.411 375.035L121.504 374.972L121.722 376.41ZM135.468 375.472C139.748 375.879 147.995 377.129 151.775 377.973L154.024 378.473L154.243 380.192C154.524 382.474 154.243 385.131 153.587 386.788L153.025 388.163L150.026 387.944C148.37 387.85 146.183 387.694 145.152 387.632C144.121 387.569 141.747 387.413 139.841 387.288C137.967 387.194 136.186 387.038 135.937 387.006C135.687 386.944 133.5 386.819 131.094 386.694C128.689 386.569 126.221 386.413 125.627 386.381C125.034 386.319 124.19 386.256 123.753 386.256L122.972 386.225L123.066 380.599L123.16 374.941L127.283 375.004C129.564 375.035 133.25 375.254 135.468 375.472ZM158.398 379.192C165.833 380.505 178.797 382.036 184.139 382.224C185.545 382.255 186.545 382.443 186.545 382.63C186.545 383.287 184.702 386.131 183.233 387.757L181.734 389.413L176.579 389.226C165.489 388.819 161.397 388.632 161.209 388.538C161.116 388.507 159.679 388.413 158.023 388.382C156.336 388.351 154.93 388.225 154.837 388.132C154.774 388.007 154.93 387.163 155.18 386.256C155.524 385.131 155.649 383.693 155.555 381.661C155.524 380.036 155.524 378.723 155.618 378.723C155.711 378.723 156.961 378.942 158.398 379.192ZM84.0163 380.942C86.0468 382.755 90.108 385.537 92.2948 386.569C93.107 386.975 93.763 387.382 93.763 387.507C93.763 387.6 92.3885 387.85 90.7328 388.069C89.0458 388.257 86.6091 388.569 85.3283 388.726C80.205 389.413 74.7068 390.007 69.0837 390.476C66.1159 390.695 64.2416 390.038 60.3991 387.475C57.6812 385.662 54.3386 382.943 54.1512 382.443C54.0887 382.287 54.9009 382.161 55.9943 382.161C59.5869 382.161 74.3632 380.599 81.9857 379.38C82.1419 379.38 83.0478 380.067 84.0163 380.942ZM285.168 381.849C285.2 383.037 285.449 384.537 285.731 385.162C285.98 385.787 286.168 386.35 286.137 386.413C285.793 386.725 276.421 387.288 271.267 387.319H264.925L264.269 385.819C263.925 385.006 263.675 384.287 263.738 384.224C263.8 384.131 264.863 384.006 266.05 383.881C269.798 383.506 276.202 382.224 280.576 380.942C282.888 380.255 284.856 379.692 284.95 379.692C285.043 379.661 285.137 380.63 285.168 381.849ZM27.3788 381.38C32.5333 382.099 37.2505 382.38 44.9667 382.443L51.9644 382.505L54.1824 384.443C56.869 386.756 58.9933 388.351 61.4612 389.82L63.2731 390.914L61.8674 390.945C61.1176 390.945 57.3376 391.007 53.4639 391.07C45.8727 391.164 39.0312 390.882 33.3456 390.195C30.0342 389.788 29.6281 389.663 28.191 388.569C26.3167 387.225 24.9421 385.662 23.5676 383.349C22.0056 380.755 21.9431 380.505 23.0365 380.724C23.5363 380.817 25.5044 381.099 27.3788 381.38ZM216.222 384.381C215.91 385.756 215.598 386.944 215.535 387.006C215.41 387.131 210.037 387.788 209.069 387.788C208.35 387.788 208.35 387.757 208.819 387.225C209.1 386.913 209.881 385.694 210.506 384.506L211.693 382.318L213.723 382.13C214.848 382.036 215.972 381.943 216.254 381.911C216.722 381.849 216.722 382.068 216.222 384.381ZM325.686 383.412C329.122 383.912 332.09 384.35 332.246 384.381C333.34 384.475 330.122 385.006 326.717 385.35C321.937 385.787 317.22 385.381 313.596 384.224L311.347 383.506L312.597 383.256C313.284 383.13 314.69 382.849 315.721 382.63C316.752 382.38 318.032 382.255 318.532 382.349C319.063 382.412 322.281 382.88 325.686 383.412ZM209.006 384.35C208.506 385.287 207.694 386.538 207.225 387.1C206.413 388.069 206.288 388.132 203.102 388.413C201.29 388.569 197.916 388.757 195.604 388.851C193.293 388.976 189.637 389.132 187.513 389.226L183.639 389.413L184.952 387.913C185.67 387.1 186.67 385.569 187.17 384.537L188.107 382.63H199.009H209.943L209.006 384.35ZM311.16 384.85C314.44 386.162 318.345 386.85 322.75 386.85H326.655L326.998 387.913L327.342 388.976L324.124 389.788L320.906 390.601L315.19 388.913C312.034 387.975 307.661 386.819 305.412 386.35L301.35 385.444L304.787 384.756C309.16 383.912 308.754 383.912 311.16 384.85ZM342.118 385.725C345.117 386.162 349.491 386.725 351.802 387.006C354.114 387.319 356.145 387.663 356.301 387.788C356.582 388.069 354.02 389.319 351.24 390.257C347.741 391.445 344.555 391.945 340.556 391.945C336.308 391.976 333.871 391.508 331.215 390.163C329.685 389.382 328.06 387.757 328.06 387.038C328.06 386.788 328.966 386.506 330.528 386.256C331.903 386.069 333.621 385.694 334.371 385.475C336.183 384.881 335.964 384.881 342.118 385.725ZM302.475 387.069L303.319 387.319L301.913 390.445C301.163 392.164 300.413 393.696 300.226 393.883C300.038 394.071 298.664 393.789 296.415 393.164C290.354 391.382 281.826 388.632 281.826 388.413C281.826 388.288 282.982 388.1 284.419 387.975C285.824 387.85 288.605 387.475 290.573 387.163C294.197 386.569 300.632 386.538 302.475 387.069ZM308.879 388.538C314.658 390.007 327.123 393.914 327.123 394.289C327.123 394.414 326.186 395.665 325.061 397.103C323.624 398.884 322.843 399.634 322.468 399.541C322.187 399.447 320.563 399.103 318.845 398.728C315.877 398.103 305.505 395.634 303.006 394.946C302.35 394.79 301.819 394.508 301.819 394.352C301.819 394.196 302.475 392.57 303.287 390.757C304.381 388.257 304.849 387.507 305.224 387.6C305.505 387.694 307.161 388.1 308.879 388.538ZM368.828 389.351C372.608 389.851 375.888 390.288 376.107 390.288C377.513 390.288 374.482 391.976 371.64 392.758C368.266 393.696 360.768 393.477 354.145 392.258L351.334 391.726L352.583 391.257C353.271 391.007 355.02 390.163 356.488 389.445C359.55 387.913 358.456 387.944 368.828 389.351ZM328.966 390.413C329.56 391.132 332.934 392.477 335.183 392.914C338.276 393.508 342.181 393.508 345.648 392.977C348.522 392.508 348.772 392.508 351.459 393.133L354.239 393.758L353.333 395.696L352.427 397.634L349.678 397.54C346.804 397.446 340.4 396.509 337.276 395.727C333.933 394.883 323.531 391.445 323.905 391.32C324.343 391.164 328.123 390.07 328.404 390.007C328.529 390.007 328.779 390.163 328.966 390.413ZM386.01 391.726C389.446 392.195 392.383 392.664 392.508 392.789C392.883 393.133 389.321 394.883 387.478 395.258C384.167 395.946 380.043 395.54 375.888 394.102L374.201 393.539L375.888 392.57C376.825 392.039 377.794 391.382 378.012 391.101C378.231 390.82 378.731 390.664 379.106 390.726C379.449 390.82 382.573 391.257 386.01 391.726ZM403.566 394.414C412.157 395.821 412.157 395.821 409.471 397.259C408.346 397.853 407.721 397.947 404.441 397.915C401.348 397.884 400.068 397.697 397.1 396.915C395.132 396.415 393.101 395.821 392.633 395.634L391.758 395.29L393.101 394.227C393.851 393.633 394.726 393.133 395.038 393.133C395.382 393.102 399.224 393.696 403.566 394.414ZM358.519 394.383C361.331 394.79 368.359 394.79 370.452 394.383C371.858 394.102 372.296 394.164 373.826 394.79C374.795 395.165 375.607 395.602 375.607 395.727C375.638 396.134 373.327 398.759 373.077 398.603C372.952 398.509 368.984 398.384 364.267 398.259C356.613 398.103 353.989 397.947 353.989 397.634C353.989 397.134 355.676 394.039 355.957 394.039C356.176 394.039 357.332 394.196 358.519 394.383ZM331.934 395.602C335.464 396.79 340.744 397.978 344.93 398.509C348.678 398.978 348.585 398.853 347.616 402.198L347.085 403.948L344.367 403.542C340.056 402.854 325.811 400.26 325.186 400.01C324.718 399.853 324.936 399.447 326.686 397.228C327.81 395.821 328.841 394.665 328.966 394.665C329.091 394.665 330.435 395.071 331.934 395.602ZM381.761 396.853C384.01 397.165 386.228 397.04 388.415 396.509C389.727 396.196 390.165 396.259 392.32 396.978C396.35 398.29 399.818 399.072 402.785 399.291L405.597 399.509L406.347 401.354C406.753 402.385 407.065 403.26 407.003 403.323C406.753 403.542 401.161 402.698 394.382 401.385C386.104 399.76 382.199 399.166 378.137 398.853L375.232 398.634L376.232 397.415C377.169 396.227 377.263 396.165 378.481 396.384C379.2 396.509 380.668 396.728 381.761 396.853ZM416.687 396.853C420.217 397.665 424.278 399.009 424.278 399.353C424.278 399.853 419.186 402.166 416.781 402.76C415.5 403.073 413.188 403.354 411.595 403.385L408.752 403.448L407.94 401.604C407.471 400.572 407.097 399.666 407.097 399.572C407.097 399.478 407.878 399.166 408.846 398.884C409.877 398.572 411.033 397.978 411.72 397.321C412.345 396.728 413.126 396.227 413.407 396.227C413.719 396.227 415.188 396.509 416.687 396.853ZM358.05 399.509C359.519 399.572 362.486 399.634 364.704 399.634L368.672 399.666V403.26V406.824L367.516 406.699C366.86 406.605 363.58 406.199 360.237 405.761C349.21 404.354 348.678 404.261 348.678 403.792C348.678 403.417 349.334 400.791 349.803 399.416C349.897 399.103 350.584 399.072 352.646 399.197C354.177 399.291 356.582 399.416 358.05 399.509ZM378.45 400.322C382.136 400.603 389.509 401.635 389.759 401.916C389.915 402.073 391.164 407.511 391.164 407.98C391.164 408.355 390.633 408.387 388.134 408.262C382.73 407.98 371.671 407.136 370.952 406.98C370.265 406.855 370.234 406.73 370.234 403.323V399.791L372.202 399.885C373.264 399.947 376.076 400.135 378.45 400.322ZM426.59 400.666C427.277 401.635 426.778 402.323 424.497 403.448C420.092 405.698 407.878 407.886 397.537 408.324L392.789 408.512L392.102 405.48C391.695 403.823 391.446 402.416 391.508 402.323C391.57 402.26 392.633 402.416 393.82 402.666C404.597 404.917 412.345 405.417 417.249 404.104C419.78 403.417 424.591 401.197 425.247 400.416C425.747 399.822 426.028 399.853 426.59 400.666ZM222.189 438.488C222.377 439.988 222.72 441.957 222.939 442.864C223.345 444.302 223.314 444.552 222.908 445.021C222.314 445.677 220.471 450.834 219.846 453.491C217.597 463.369 218.909 474.528 223.72 486.156C224.345 487.625 224.282 487.625 220.721 483.905C216.379 479.435 210.131 472.558 208.569 470.558C207.194 468.808 206.788 466.682 207.194 463.4C208.163 455.586 213.286 443.77 220.94 431.611C221.346 430.955 221.377 431.08 221.596 433.33C221.721 434.674 221.97 436.987 222.189 438.488ZM242.464 457.992C242.901 457.899 243.745 457.774 244.369 457.68L245.494 457.492L244.557 459.368C243.432 461.587 243.307 463.838 244.151 465.15C244.807 466.119 247.525 467.495 248.868 467.495C250.68 467.526 250.68 467.651 249.055 472.558C246.431 480.373 242.839 487.062 239.59 490.219L238.246 491.532V474.59V457.617L239.965 457.867C240.902 457.992 242.026 458.055 242.464 457.992Z" fill="#040D12"/>
</g>
<defs>
<clipPath id="clip0_97_18">
<rect width="500" height="500" fill="white"/>
</clipPath>
</defs>
</svg>
