<svg width="200" height="200" viewBox="0 0 200 200" fill="none" xmlns="http://www.w3.org/2000/svg">
<path d="M90.55 39.43C90.53 39.49 90.47 39.71 90.41 39.9C90.27 40.35 89.08 42 86.99 44.65C83.62 48.93 81.87 51.4 81.57 52.3C81.24 53.26 81.54 54.5 82.41 55.77C83.38 57.2 86.14 59.52 89.18 61.47C89.66 61.78 90.07 62.04 90.09 62.06C90.17 62.13 89.89 62.9 89.8 62.9C89.75 62.9 88.99 62.7 88.13 62.46C85.9 61.83 82.93 61.08 81 60.65C79.18 60.25 79.23 60.28 78.55 59.25C78.11 58.58 77.9 57.92 77.9 57.21C77.9 56.07 78.04 55.79 81.13 50.82C84.03 46.16 84.81 44.64 84.48 44.23C84.33 44.04 84.1 44.2 84.1 44.49C84.1 45.03 83.2 46.66 80.57 50.9C77.56 55.74 77.47 55.92 77.47 57.15C77.46 58.06 77.69 58.77 78.25 59.6C78.44 59.88 78.55 60.1 78.5 60.1C78.4 60.1 74.38 59.2299 72.25 58.75C65.66 57.26 60.01 55.51 55.9 53.7C54.58 53.12 52.01 51.82 50.62 51.03C46.72 48.81 40.74 46.4 34.77 44.63C33.73 44.33 32.62 43.97 32.3 43.84C31.2 43.4 28.32 42.72 26 42.35C25.48 42.27 24.47 42.11 23.75 42C22.25 41.76 19.79 41.67 18.7 41.81C15.7 42.19 13.86 43.54 13.41 45.68C13.1 47.15 13.37 48.88 14.15 50.45C14.8 51.76 15.73 52.94 17.54 54.75C19.86 57.06 21.79 58.66 29.35 64.5C33.7 67.86 37.3 70.69 37.3 70.76C37.3 70.78 37.11 70.78 36.87 70.75C36.15 70.67 34.64 70.6 32.4 70.5499C31.22 70.52 29.62 70.45 28.85 70.39C27.45 70.28 24.75 70.38 23.05 70.6C22.36 70.69 22 70.7299 20.7 70.85C18.92 71.02 16.76 71.51 15.42 72.06C12.65 73.17 11.3 74.77 11.3 76.94C11.3 79.7299 13.09 82.14 16.86 84.41C19.44 85.97 22.18 87.22 31.25 90.95C34.5 92.29 38.5 93.95 40.15 94.65C55.07 100.98 62.24 103.5 69.5 104.94C74 105.84 78.56 106.03 81.55 105.45C86.16 104.55 89.42 101.9 91.75 97.15C92.51 95.58 93.07 94.1899 93.95 91.57C94.32 90.4799 94.64 89.61 94.66 89.63C94.75 89.72 95.2 92.27 95.26 93.0499C95.29 93.54 95.34 94.06 95.37 94.2C95.45 94.7 95.47 101.69 95.4 103.05C95.36 103.82 95.29 105.08 95.26 105.85C95.23 106.62 95.15 108.18 95.1 109.33C95.04 110.47 94.98 113.75 94.95 116.63C94.93 119.5 94.89 121.98 94.86 122.15C94.83 122.31 94.78 122.94 94.75 123.55C94.7 124.5 94.62 125.53 94.35 128.55C94.32 128.88 94.27 129.37 94.24 129.65C94.02 131.71 93.91 134.16 93.94 136.85C93.97 139.47 94.01 140.06 94.24 141.55C94.38 142.48 94.54 143.68 94.59 144.2C94.68 145.1 94.66 148.96 94.56 149.5C94.54 149.64 94.49 150.12 94.45 150.57C94.25 153.16 94.33 154.1 94.83 155.1C95.1 155.64 97.86 160.57 97.95 160.68C97.97 160.7 98.13 160.08 98.31 159.31C98.49 158.53 98.67 157.9 98.71 157.9C98.75 157.9 99.36 158.54 100.07 159.32C101.28 160.66 101.35 160.72 101.38 160.44C101.54 158.75 102.09 156.4 102.82 154.25C103.31 152.78 103.32 152.73 103.35 151.4C103.39 149.76 103.36 149.4 102.75 144.55C102.43 142.03 102.26 140.43 102.15 139.1C102.13 138.8 102.08 138.23 102.05 137.85C101.96 136.69 101.98 132.04 102.09 130.65C102.14 129.93 102.22 128.74 102.25 128C102.28 127.26 102.33 126.36 102.35 126C102.37 125.64 102.42 124.61 102.45 123.7C102.48 122.79 102.53 121.58 102.55 121C102.57 120.42 102.62 119.16 102.65 118.2C102.76 114.68 102.8 113.53 102.85 112.65C102.88 112.15 102.92 111.25 102.95 110.65C103.06 108.5 103.32 104.92 103.45 103.6C103.66 101.59 103.73 99.79 103.76 95.5C103.77 92.4799 103.83 90.28 103.9 89.85C104.02 89.11 104.52 87.74 104.66 87.76C104.71 87.77 105.23 89.16 105.81 90.86C107.06 94.52 107.41 95.43 108.26 97.15C110.85 102.46 114.66 105.18 120.2 105.69C126.37 106.26 134.48 104.58 145.59 100.44C149.5 98.98 153.01 97.55 159.85 94.65C161.5 93.95 165.51 92.29 168.75 90.95C177.82 87.22 180.56 85.97 183.14 84.41C186.9 82.14 188.7 79.72 188.7 76.94C188.7 74.77 187.35 73.17 184.58 72.06C183.03 71.43 181.15 71.03 178.4 70.75C174.12 70.32 172.76 70.25 171.15 70.39C170.49 70.44 168.85 70.52 167.5 70.5499C166.15 70.58 164.53 70.65 163.9 70.7C163.27 70.74 162.74 70.77 162.72 70.75C162.68 70.71 166 68.1 170.65 64.5C175.12 61.0499 177.87 58.87 179.6 57.41C181.29 55.99 183.91 53.35 184.73 52.25C186.04 50.5 186.7 48.76 186.7 47.09C186.7 45.45 186.32 44.42 185.39 43.5C184.49 42.62 183.1 42.04 181.3 41.81C180.21 41.67 177.75 41.76 176.25 42C175.54 42.11 174.52 42.27 174 42.35C171.68 42.72 168.8 43.4 167.7 43.84C167.38 43.97 166.27 44.33 165.23 44.63C159.26 46.4 153.28 48.81 149.38 51.03C142.61 54.88 135.93 57.08 122.33 59.94C121.43 60.12 120.7 60.27 120.7 60.25C120.7 60.24 120.77 60.06 120.85 59.87C121.06 59.35 121.04 58.31 120.8 57.59C120.57 56.93 120.2 56.25 117.07 50.78C113.8 45.08 113.27 44.2 113.14 44.2C112.86 44.2 112.91 44.45 113.36 45.2299C113.62 45.68 114.15 46.59 114.53 47.25C116.04 49.86 119.1 55.21 119.68 56.25C120.55 57.83 120.76 58.69 120.49 59.59C120.27 60.34 120.23 60.36 117.9 60.9C116.02 61.34 111.69 62.47 111.14 62.66C111.04 62.7 111.47 62.36 112.1 61.9C114.41 60.25 115.39 59.29 115.86 58.25C116.35 57.16 116.24 56.33 115.29 53.93C114.45 51.79 114.11 51.18 111.66 47.52C109.73 44.64 108.48 42.48 108.12 41.42C108.01 41.1 107.76 40.99 107.67 41.23C107.61 41.39 108.21 42.79 108.85 43.95C109.12 44.44 110.28 46.27 111.44 48C113.76 51.46 114.05 51.96 114.78 53.8C115.47 55.54 115.7 56.33 115.7 56.99C115.7 58.18 114.79 59.36 112.68 60.93C110.5 62.5499 108.87 63.52 108.69 63.32C108.66 63.28 108.53 62.9799 108.4 62.65C108.04 61.7299 107.56 60.7999 107.06 60.07L106.6 59.4L106.96 59.25C108.01 58.82 109.22 57.62 109.69 56.56C110.41 54.92 110.24 52.59 109.23 50.52C108.79 49.63 107.73 48.47 107 48.1C105.99 47.59 105.5 47.47 104.23 47.45L103.01 47.42L102.69 47.05C102.31 46.62 101.72 46.31 100.7 45.9799C99.65 45.66 97.73 45.65 96.86 45.97C96.13 46.25 95.66 46.6 95.38 47.09L95.16 47.47L94.11 47.54C91.09 47.7299 88.77 48.9799 87.85 50.91C87.07 52.55 87.01 54.24 87.67 55.9C88.26 57.38 89.24 58.4799 90.52 59.08C90.95 59.28 91.28 59.47 91.27 59.5C90.79 60.64 90.33 61.6 90.26 61.6C90.13 61.6 88.09 60.2299 86.85 59.31C84.49 57.56 83.04 56.1 82.35 54.78C81.85 53.83 81.75 52.86 82.1 52.16C82.59 51.14 84.26 48.84 87.38 44.87C90.01 41.53 90.9 40.21 90.9 39.68C90.9 39.41 90.62 39.21 90.55 39.43ZM22.2 42.26C22.83 42.31 22.92 42.34 22.75 42.44C22.64 42.5 22.39 42.71 22.19 42.9C21.1 43.95 21.69 45.33 23.48 45.91C24.08 46.11 24.42 46.14 26.65 46.18C28.03 46.2 29.19 46.26 29.25 46.31C29.3 46.36 29.45 46.4 29.6 46.4C29.84 46.4 32.12 46.8 32.18 46.85C32.23 46.9 31.79 48.44 31.71 48.53C31.67 48.57 30.96 48.54 30.14 48.46C29.32 48.38 28.02 48.28 27.26 48.24C25.68 48.17 25.54 48.12 23.03 46.87C20.72 45.71 18.88 44.44 17.93 43.34C17.21 42.51 17.21 42.53 17.87 42.39C18.98 42.16 20.43 42.12 22.2 42.26ZM182.13 42.39C182.79 42.53 182.79 42.51 182.07 43.34C181.12 44.44 179.28 45.71 176.97 46.87C174.36 48.18 174.42 48.16 172.1 48.29C170.97 48.36 169.74 48.45 169.35 48.5C168.18 48.65 168.28 48.71 168.02 47.74C167.89 47.26 167.8 46.86 167.82 46.85C167.88 46.8 170.17 46.4 170.4 46.4C170.55 46.4 170.7 46.36 170.75 46.31C170.81 46.26 171.98 46.2 173.35 46.18C175.58 46.14 175.92 46.11 176.52 45.91C177.84 45.4799 178.58 44.58 178.31 43.71C178.16 43.21 177.78 42.75 177.31 42.51L176.95 42.32L177.8 42.26C178.27 42.23 178.83 42.19 179.05 42.17C179.7 42.14 181.5 42.26 182.13 42.39ZM17.15 43.11C17.62 43.77 18.96 44.97 20.09 45.71C21.19 46.44 23.41 47.6 24.94 48.26L25.84 48.64L25.14 48.78C24.76 48.85 24.41 48.92 24.35 48.93C24.3 48.94 23.89 48.77 23.45 48.56C21.15 47.46 17.74 46.25 15.55 45.75C14.89 45.6 14.25 45.45 14.12 45.41L13.9 45.35L14.16 44.82C14.51 44.12 15.25 43.41 16.02 43.02C16.37 42.85 16.7 42.7 16.76 42.7C16.82 42.7 17 42.88 17.15 43.11ZM183.96 43.01C184.75 43.4 185.49 44.11 185.84 44.82L186.1 45.35L185.88 45.41C185.75 45.45 185.11 45.6 184.45 45.75C182.26 46.25 178.85 47.46 176.55 48.56C176.11 48.77 175.71 48.94 175.65 48.93C175.6 48.92 175.24 48.85 174.86 48.78L174.16 48.64L175.06 48.26C176.59 47.6 178.81 46.44 179.91 45.71C181.04 44.97 182.38 43.77 182.85 43.11C183 42.88 183.17 42.7 183.23 42.7C183.28 42.7 183.61 42.84 183.96 43.01ZM36.11 45.5C41.72 47.24 46.4 49.19 50.65 51.55C57.59 55.41 63.99 57.49 77.92 60.44C79.05 60.68 79.12 60.71 79.77 61.2299C81.56 62.66 83.42 63.58 87.33 64.95C87.92 65.16 88.39 65.34 88.38 65.35C88.36 65.36 87.97 65.33 87.51 65.29C87.04 65.25 86.25 65.19 85.76 65.15C85.26 65.12 84.65 65.07 84.4 65.0499C84.15 65.03 83.34 64.96 82.6 64.9C73.95 64.2299 68.52 62.91 61.38 59.74C58.99 58.68 53.21 55.87 50 54.21C45.13 51.69 40.4 49.36 38.5 48.56C36.41 47.67 33.62 46.72 32.15 46.41C31.6 46.29 30.99 46.15 30.8 46.11L30.45 46.03L30.95 45.96C32.31 45.76 33.6 45.26 33.6 44.94C33.6 44.86 33.66 44.8 33.73 44.8C33.81 44.8 34.87 45.11 36.11 45.5ZM166.4 44.94C166.4 45.26 167.69 45.76 169.05 45.96L169.55 46.03L169.2 46.11C169.01 46.15 168.4 46.29 167.85 46.41C166.38 46.72 163.59 47.67 161.5 48.56C159.6 49.36 154.87 51.69 150 54.21C146.79 55.87 141.01 58.68 138.62 59.74C131.47 62.91 126.14 64.21 117.45 64.9C116.74 64.96 115.9 65.02 115.6 65.0499C115.3 65.07 114.67 65.12 114.2 65.15C113.35 65.21 111.7 65.35 110.75 65.45C110.4 65.49 110.75 65.35 111.95 64.97C114.21 64.27 115.69 63.71 117.17 63C118.55 62.34 119.12 61.97 119.86 61.28C120.37 60.7999 120.38 60.7999 121.81 60.5C136.1 57.47 142.27 55.47 149.35 51.55C152.7 49.69 156.35 48.08 160.6 46.57C162.11 46.04 166 44.81 166.23 44.81C166.32 44.8 166.4 44.86 166.4 44.94ZM16.16 46.34C17.99 46.8 20.43 47.68 22.74 48.71L23.69 49.14L23.21 49.41C22.94 49.57 22.63 49.82 22.52 49.97C22.28 50.3 22.08 51.02 22.15 51.22C22.2 51.35 21.91 51.38 20.23 51.43C19.14 51.46 17.63 51.56 16.87 51.65C15.27 51.85 15.5 51.95 14.75 50.65C13.96 49.26 13.56 47.51 13.74 46.28L13.81 45.82L14.49 45.95C14.86 46.02 15.61 46.2 16.16 46.34ZM186.27 47.35C186.2 48.47 185.86 49.58 185.25 50.65C184.5 51.95 184.73 51.85 183.13 51.65C182.37 51.56 180.86 51.46 179.77 51.43C178.09 51.38 177.8 51.35 177.85 51.22C177.92 51.02 177.72 50.3 177.48 49.97C177.37 49.82 177.06 49.57 176.79 49.41L176.31 49.14L177.26 48.71C180.26 47.37 183.23 46.38 185.5 45.96L186.15 45.84L186.24 46.14C186.28 46.31 186.3 46.85 186.27 47.35ZM34.04 47.36C35.26 47.72 38.65 49.02 38.94 49.2299C39.08 49.34 39.08 49.43 38.88 50.15C38.76 50.59 38.65 50.96 38.64 50.9799C38.63 51 38.31 50.86 37.94 50.67C36.72 50.06 34.91 49.39 33.59 49.05C32.88 48.88 32.27 48.7 32.24 48.67C32.15 48.58 32.61 47 32.73 47C32.78 47 33.38 47.16 34.04 47.36ZM167.6 47.81C167.72 48.25 167.79 48.64 167.76 48.67C167.73 48.7 167.12 48.88 166.41 49.05C165.09 49.39 163.28 50.06 162.06 50.67C161.69 50.86 161.37 51 161.36 50.9799C161.35 50.96 161.24 50.59 161.12 50.15C160.92 49.43 160.92 49.34 161.06 49.2299C161.53 48.88 166.63 47.04 167.21 47.01C167.34 47 167.43 47.2 167.6 47.81ZM29.16 48.8C31.8 49 33.93 49.45 35.82 50.2C36.39 50.43 36.88 50.64 36.92 50.68C36.96 50.72 36.91 51.47 36.8 52.35C36.7 53.2299 36.58 54.22 36.54 54.55C36.51 54.88 36.47 55.16 36.46 55.17C36.43 55.2 34.87 54.91 34.85 54.87C34.53 53.99 33.72 52.83 32.88 52.05C31.64 50.88 29.2 49.41 27.77 48.94C27.07 48.72 27.06 48.71 27.46 48.7C27.69 48.7 28.45 48.75 29.16 48.8ZM172.23 48.94C170.8 49.41 168.36 50.88 167.12 52.05C166.28 52.83 165.47 53.99 165.15 54.87C165.13 54.91 163.57 55.2 163.54 55.17C163.53 55.16 163.49 54.88 163.46 54.55C163.42 54.22 163.3 53.2299 163.2 52.35C163.09 51.47 163.04 50.72 163.08 50.68C163.25 50.51 165.3 49.77 166.33 49.51C168.09 49.05 170.43 48.75 172.3 48.72L172.95 48.71L172.23 48.94ZM40.11 49.74C40.65 49.9799 43.28 51.27 44.07 51.68L44.48 51.9L44.23 52.87C44.08 53.41 43.95 53.87 43.94 53.89C43.92 53.91 43.04 53.43 41.98 52.82C40.92 52.22 39.82 51.61 39.53 51.46L39.02 51.21L39.16 50.7299C39.24 50.47 39.35 50.08 39.41 49.87C39.46 49.67 39.52 49.5 39.54 49.5C39.56 49.5 39.82 49.61 40.11 49.74ZM160.59 49.87C160.65 50.08 160.76 50.47 160.84 50.7299L160.98 51.21L160.47 51.46C160.18 51.61 159.08 52.22 158.02 52.82C156.96 53.43 156.08 53.91 156.06 53.89C156.05 53.87 155.92 53.41 155.77 52.87L155.52 51.89L156.33 51.4799C157.54 50.86 160.34 49.51 160.42 49.5C160.46 49.5 160.54 49.67 160.59 49.87ZM38.79 51.56C40.23 52.32 41.41 52.99 43.93 54.4799L45.7 55.52L45.04 56.79C44.67 57.49 44.32 58.14 44.25 58.24C44.13 58.4 43.99 58.35 42.53 57.62C40.62 56.66 39.28 56.08 37.98 55.66C37.44 55.4799 36.98 55.31 36.95 55.28C36.92 55.25 37.01 54.3 37.15 53.17C37.29 52.05 37.4 51.07 37.4 51.01C37.4 50.95 37.43 50.9 37.47 50.9C37.5 50.9 38.1 51.2 38.79 51.56ZM162.6 51C162.6 51.06 162.71 52.03 162.86 53.16C163 54.3 163.08 55.25 163.05 55.28C163.02 55.31 162.56 55.4799 162.02 55.66C160.72 56.08 159.38 56.66 157.46 57.62C155.99 58.36 155.86 58.4 155.76 58.2299C155.7 58.13 155.35 57.4799 154.97 56.79L154.3 55.52L155.47 54.82C158.5 53.03 162.32 50.9 162.53 50.9C162.57 50.9 162.6 50.95 162.6 51ZM21.85 51.86C22.25 51.92 22.32 51.97 22.45 52.27C22.67 52.79 23.4 53.77 24.04 54.4L24.6 54.94L23.07 55.45C22.24 55.7299 21.22 56.1 20.82 56.27L20.09 56.58L18.97 55.56C17.85 54.53 16.67 53.32 16.11 52.61L15.81 52.2299L16.83 52.11C17.39 52.04 18.23 51.96 18.7 51.93C19.17 51.9 19.56 51.87 19.57 51.86C19.65 51.8 21.47 51.8 21.85 51.86ZM181.7 51.95C181.84 51.97 182.46 52.04 183.07 52.11L184.2 52.2299L183.9 52.61C183.33 53.31 182.15 54.53 181.03 55.55L179.91 56.58L178.83 56.14C178.24 55.9 177.22 55.54 176.58 55.33L175.41 54.96L176.09 54.25C176.75 53.57 177.41 52.66 177.6 52.16C177.66 52 177.79 51.9 177.97 51.87C178.27 51.81 181.29 51.88 181.7 51.95ZM50.09 54.77C50.16 54.83 49.67 57.3 49.59 57.3C49.52 57.3 44.53 54.34 44.38 54.21C44.32 54.16 44.6 53.01 44.86 52.22C44.89 52.13 45.69 52.49 47.47 53.41C48.89 54.14 50.07 54.75 50.09 54.77ZM155.41 53.18C155.56 53.71 155.66 54.18 155.62 54.21C155.48 54.34 150.48 57.3 150.41 57.3C150.29 57.3 149.84 54.77 149.95 54.7299C150.01 54.71 151.17 54.11 152.55 53.4C153.92 52.69 155.07 52.13 155.09 52.16C155.12 52.19 155.26 52.65 155.41 53.18ZM53.23 56.33C55.28 57.35 55.8 57.65 55.76 57.78C55.73 57.88 55.55 58.54 55.34 59.27L54.98 60.58L53.77 59.86C50.18 57.74 50.1 57.69 50.1 57.47C50.1 57.14 50.54 54.99 50.6 55.02C50.63 55.04 51.81 55.63 53.23 56.33ZM149.68 56.13C149.8 56.75 149.9 57.36 149.9 57.47C149.9 57.69 149.82 57.74 146.23 59.86L145.02 60.58L144.65 59.26C144.45 58.54 144.28 57.87 144.27 57.77C144.25 57.64 144.85 57.29 146.8 56.31C148.2 55.61 149.37 55.02 149.4 55.01C149.43 55.01 149.56 55.51 149.68 56.13ZM25.73 55.84C27.66 57.28 29.85 58.21 31.7 58.36C32.46 58.43 32.46 58.43 32.69 58.82C32.81 59.04 32.9 59.2299 32.88 59.25C32.86 59.27 32.39 59.2999 31.83 59.31C29.6 59.35 28.13 59.7999 26.09 61.07C25.83 61.2299 25.83 61.2299 23.89 59.69C22.83 58.84 21.62 57.87 21.22 57.52L20.48 56.9L21.06 56.64C21.6 56.4 24.75 55.32 24.93 55.3C24.97 55.3 25.33 55.54 25.73 55.84ZM176.72 55.84C177.62 56.14 178.61 56.5 178.94 56.64L179.52 56.9L178.78 57.52C178.38 57.87 177.17 58.84 176.11 59.69C174.17 61.2299 174.17 61.2299 173.91 61.07C171.87 59.7999 170.4 59.35 168.17 59.31C167.61 59.2999 167.14 59.27 167.12 59.25C167.1 59.2299 167.19 59.04 167.31 58.82C167.54 58.43 167.54 58.43 168.3 58.36C170.15 58.21 172.39 57.26 174.25 55.85C174.64 55.55 174.98 55.31 175.02 55.31C175.06 55.3 175.83 55.54 176.72 55.84ZM35.98 55.56C39.24 56.2299 43.08 58.14 51.62 63.31C53.17 64.26 55.25 65.51 56.22 66.09L57.99 67.14L58.41 68.1C58.63 68.62 59.13 69.65 59.5 70.38C60.27 71.88 60.33 71.81 58.85 71.2299C55.7 69.9799 50.04 66.85 47.49 64.93C46.97 64.54 45.74 63.52 44.75 62.65C42.68 60.84 41.48 59.89 40.35 59.15C38.88 58.18 37.17 57.43 35.64 57.06L34.92 56.88L35.01 56.52C35.05 56.32 35.07 55.9799 35.03 55.77C34.96 55.34 34.94 55.34 35.98 55.56ZM164.97 55.77C164.93 55.9799 164.95 56.32 164.99 56.52L165.08 56.88L164.36 57.06C162.83 57.43 161.12 58.18 159.65 59.15C158.52 59.89 157.32 60.84 155.25 62.65C152.45 65.1 150.88 66.2 147.35 68.18C144.88 69.56 141.24 71.29 140.04 71.64C139.85 71.7 139.92 71.52 140.5 70.38C140.87 69.65 141.37 68.62 141.59 68.1L142.01 67.14L143.63 66.18C144.52 65.65 146.49 64.46 148 63.54C156.81 58.19 160.65 56.27 164 55.56C165.02 55.34 165.04 55.34 164.97 55.77ZM46.8 56.18C47.56 56.63 52.14 59.41 52.18 59.45C52.2 59.47 51.74 60.02 51.15 60.68L50.09 61.88L48.72 61.06C47.97 60.61 46.73 59.89 45.97 59.46C45.21 59.02 44.6 58.62 44.62 58.5499C44.67 58.36 46.04 55.81 46.1 55.8C46.13 55.8 46.44 55.97 46.8 56.18ZM154.65 57.12C155.04 57.84 155.36 58.4799 155.38 58.5499C155.4 58.62 154.79 59.02 154.03 59.46C153.27 59.89 152.03 60.61 151.28 61.06L149.91 61.88L148.85 60.68C148.26 60.02 147.8 59.47 147.82 59.45C147.97 59.31 153.83 55.8 153.9 55.8C153.93 55.8 154.27 56.39 154.65 57.12ZM36.2 57.67C37.31 57.9799 39.46 59.02 39.53 59.26C39.86 60.43 39.77 62.2 39.29 63.83L39.09 64.5L38.21 63.9C37.72 63.57 37.17 63.14 36.97 62.95C36.77 62.76 36.57 62.6 36.52 62.6C36.39 62.6 34.49 60.62 33.98 59.95C33.73 59.62 33.39 59.13 33.22 58.85L32.91 58.36L33.48 58.18C33.86 58.07 34.17 57.88 34.4 57.65C34.79 57.25 34.73 57.25 36.2 57.67ZM165.65 57.69C165.92 57.94 166.24 58.12 166.58 58.2L167.09 58.34L166.88 58.69C166.4 59.5 165.51 60.61 164.56 61.57C164.01 62.14 163.52 62.6 163.48 62.6C163.43 62.6 163.23 62.76 163.03 62.95C162.83 63.14 162.28 63.57 161.79 63.9L160.91 64.5L160.7 63.7999C160.38 62.7299 160.24 61.53 160.31 60.4799C160.34 59.97 160.4 59.45 160.44 59.32C160.52 59.09 161.66 58.45 162.83 57.99C163.23 57.83 164.92 57.34 165.19 57.3C165.21 57.3 165.42 57.47 165.65 57.69ZM60.58 59.84C60.88 59.94 60.87 59.94 59.93 61.53C59.35 62.51 59.13 62.7999 59.01 62.75C58.73 62.65 55.82 61.07 55.6 60.9L55.39 60.74L55.75 59.44C55.95 58.7299 56.13 58.08 56.16 57.9799C56.2 57.85 56.55 57.9799 58.28 58.79C59.42 59.33 60.46 59.7999 60.58 59.84ZM144.21 59.31L144.61 60.74L144.4 60.9C144.18 61.07 141.27 62.65 140.99 62.75C140.86 62.7999 140.65 62.51 140.07 61.52C139.65 60.81 139.28 60.17 139.25 60.09C139.21 59.99 139.44 59.84 139.97 59.6C140.4 59.41 141.43 58.94 142.25 58.54C143.08 58.15 143.76 57.84 143.78 57.85C143.8 57.87 143.99 58.52 144.21 59.31ZM41.35 60.39C42.39 61.17 44.18 62.71 44.25 62.89C44.49 63.46 44.38 66.65 44.11 67.09C44.05 67.18 43.74 67.07 42.89 66.65C41.65 66.03 39.5 64.81 39.5 64.74C39.5 64.71 39.61 64.2999 39.75 63.82C40.08 62.65 40.23 61.33 40.15 60.31L40.08 59.47L40.41 59.71C40.6 59.83 41.02 60.14 41.35 60.39ZM159.85 60.32C159.77 61.33 159.92 62.65 160.25 63.82C160.39 64.2999 160.5 64.71 160.5 64.74C160.5 64.81 158.35 66.03 157.11 66.65C156.26 67.07 155.95 67.18 155.89 67.09C155.62 66.65 155.51 63.46 155.75 62.88C155.86 62.61 159.65 59.51 159.88 59.5C159.9 59.5 159.89 59.87 159.85 60.32ZM33.35 59.83C33.46 60.0499 34.25 60.97 35.02 61.75L36 62.76L34.97 63.09C33.69 63.51 32.39 64.07 31.48 64.6C31.1 64.82 30.73 64.97 30.67 64.93C30.55 64.86 29.88 64.36 27.62 62.61C26.07 61.42 26.08 61.49 27.39 60.81C28.85 60.0499 30.72 59.67 32.5 59.76C32.96 59.79 33.35 59.82 33.35 59.83ZM54.92 61.04C56.88 62.16 59.25 63.41 61 64.24C61.69 64.57 62.26 64.85 62.28 64.85C62.29 64.86 61.87 65.58 61.34 66.44L60.38 68.01L59.81 67.69C58.32 66.86 50.51 62.14 50.53 62.08C50.54 62.04 51.01 61.49 51.58 60.85L52.61 59.69L52.93 59.89C53.11 59.99 54 60.51 54.92 61.04ZM148.94 61.43C149.26 61.7999 149.51 62.12 149.49 62.14C149.29 62.2999 140.42 67.58 139.84 67.88C139.63 67.99 139.56 67.9 138.65 66.43C137.92 65.25 137.72 64.85 137.82 64.79C137.89 64.74 137.99 64.7 138.03 64.7C138.13 64.7 141.67 62.93 142.84 62.2999C143.34 62.03 144.56 61.33 145.55 60.76L147.35 59.71L147.85 60.2299C148.13 60.52 148.62 61.06 148.94 61.43ZM169.02 59.7999C170.33 59.93 171.59 60.28 172.61 60.81C173.92 61.49 173.93 61.42 172.38 62.61C170.12 64.36 169.45 64.86 169.33 64.93C169.27 64.97 168.9 64.82 168.52 64.6C167.61 64.07 166.31 63.51 165.03 63.09L164.01 62.76L165.08 61.65C165.67 61.04 166.26 60.38 166.4 60.18C166.62 59.85 166.7 59.81 167.15 59.77C167.42 59.75 167.72 59.7299 167.8 59.72C167.88 59.71 168.43 59.75 169.02 59.7999ZM62.57 60.74C63.28 61.03 64.36 61.47 64.99 61.71C66.11 62.14 66.13 62.15 66.34 62.6C66.49 62.93 66.55 63.26 66.55 63.7999C66.55 64.44 66.51 64.62 66.28 65.01C65.86 65.7299 65.77 65.77 65.17 65.56C63.82 65.08 59.6 63.17 59.6 63.03C59.6 62.99 59.77 62.67 59.99 62.31C60.2 61.95 60.56 61.32 60.79 60.92C61.02 60.53 61.23 60.2 61.25 60.2C61.28 60.2 61.87 60.44 62.57 60.74ZM139.61 61.6C140.04 62.34 140.4 62.9799 140.4 63.03C140.4 63.17 136.22 65.07 134.83 65.56C134.23 65.77 134.14 65.7299 133.72 65.01C133.49 64.62 133.45 64.44 133.45 63.7999C133.45 63.26 133.51 62.93 133.66 62.6C133.87 62.14 133.87 62.14 135.16 61.65C135.87 61.38 136.95 60.95 137.55 60.68C138.16 60.42 138.69 60.22 138.74 60.2299C138.78 60.25 139.18 60.86 139.61 61.6ZM82.53 61.45C84.54 61.93 89.58 63.27 89.69 63.36C89.72 63.38 89.21 65.01 89.14 65.08C89.05 65.19 84.3 63.4 83.06 62.79C81.93 62.2299 80.1 61.09 80.1 60.94C80.1 60.87 80.13 60.88 82.53 61.45ZM119.45 61.1C119.33 61.29 118.24 61.9799 117.34 62.43C115.64 63.29 113.48 64.09 110.95 64.81C110.18 65.03 109.48 65.2299 109.39 65.25C109.27 65.29 109.19 65.16 109.06 64.69C108.86 63.9799 108.9 63.91 109.58 63.62C110.21 63.35 114.32 62.21 117.05 61.5499C119.42 60.97 119.54 60.95 119.45 61.1ZM68.85 62.99C69.79 63.27 70.73 63.54 70.96 63.6C71.47 63.72 71.61 63.99 71.67 64.95C71.72 65.7299 71.5 66.52 71.08 67.02L70.85 67.29L69.52 66.95C68.43 66.67 66.33 66.04 66.22 65.95C66.21 65.94 66.35 65.67 66.54 65.35C66.74 65.04 66.92 64.58 66.96 64.33C67.03 63.87 66.97 63.02 66.84 62.61C66.78 62.4 66.8 62.38 66.96 62.42C67.06 62.45 67.92 62.71 68.85 62.99ZM133.15 62.62C133.04 62.9799 132.97 64.06 133.04 64.43C133.07 64.62 133.26 65.03 133.45 65.35C133.65 65.67 133.79 65.94 133.78 65.95C133.67 66.04 131.57 66.67 130.48 66.95L129.15 67.29L128.92 67.02C128.28 66.25 128.1 64.57 128.58 63.83C128.62 63.76 129.22 63.5499 129.91 63.36C130.59 63.17 131.56 62.88 132.05 62.72C133.18 62.34 133.24 62.34 133.15 62.62ZM36.84 63.43C37.44 63.92 38.44 64.61 39.42 65.2299L40.28 65.77L39.57 66.0499C38.59 66.42 37.22 67.17 37.1 67.39C37.05 67.49 36.6 67.79 36.11 68.04L35.21 68.5L33.21 66.94C32.1 66.07 31.2 65.34 31.2 65.2999C31.2 65.2 32.84 64.36 33.75 63.99C34.37 63.74 36.17 63.14 36.39 63.11C36.41 63.1 36.61 63.25 36.84 63.43ZM164.45 63.36C165.74 63.72 168.8 65.09 168.8 65.2999C168.8 65.34 167.9 66.07 166.79 66.94L164.79 68.5L163.89 68.04C163.4 67.79 162.95 67.49 162.9 67.39C162.78 67.17 161.41 66.42 160.43 66.0499L159.72 65.77L160.56 65.24C161.47 64.67 162.77 63.76 163.25 63.36C163.42 63.22 163.62 63.13 163.7 63.15C163.78 63.17 164.12 63.26 164.45 63.36ZM47.43 65.44C48.33 66.1 48.34 66.11 48.59 66.87C48.81 67.52 48.9 69.2999 48.71 69.2999C48.59 69.2999 44.68 67.52 44.59 67.43C44.55 67.38 44.59 67.06 44.67 66.7C44.78 66.28 44.84 65.57 44.84 64.69L44.85 63.33L45.78 64.12C46.29 64.5499 47.03 65.14 47.43 65.44ZM155.16 64.67C155.16 65.57 155.22 66.28 155.33 66.7C155.41 67.06 155.45 67.38 155.41 67.43C155.32 67.52 151.41 69.2999 151.29 69.2999C151.24 69.2999 151.2 68.89 151.2 68.4C151.2 67.51 151.44 66.46 151.73 66.12C151.79 66.0499 152.24 65.68 152.74 65.2999C153.41 64.7999 155.14 63.36 155.15 63.2999C155.15 63.2999 155.16 63.92 155.16 64.67ZM75.1 64.45C75.95 64.59 76.76 64.7299 76.89 64.76C77.12 64.81 77.12 64.84 77.08 65.51C77.04 66.07 76.94 66.38 76.61 67.06L76.19 67.9H75.67C75.06 67.9 72.8 67.65 71.98 67.49L71.41 67.38L71.69 66.81C72.14 65.92 72.25 65.19 72.05 64.34L71.93 63.83L72.74 64.01C73.19 64.11 74.25 64.2999 75.1 64.45ZM127.95 64.33C127.75 65.19 127.86 65.92 128.3 66.81L128.59 67.38L128.02 67.49C127.2 67.65 124.94 67.9 124.33 67.9H123.81L123.39 67.06C123.06 66.38 122.96 66.07 122.92 65.51C122.88 64.84 122.88 64.81 123.11 64.76C123.24 64.7299 124.16 64.57 125.15 64.4C126.58 64.15 127.98 63.87 128.06 63.81C128.07 63.7999 128.02 64.04 127.95 64.33ZM78.95 65C80.4 65.16 81.89 65.29 83.85 65.44C88.12 65.77 88.82 65.85 88.87 65.95C88.89 66.02 88.85 66.31 88.77 66.61L88.64 67.15L88.14 67.18C87.87 67.19 86.37 67.34 84.8 67.5C80.8 67.92 76.7 68.14 76.7 67.95C76.7 67.92 76.83 67.64 76.99 67.32C77.36 66.58 77.51 66.01 77.51 65.34C77.51 64.82 77.52 64.81 77.78 64.85C77.93 64.88 78.46 64.94 78.95 65ZM122.49 65.34C122.49 66.01 122.64 66.58 123.01 67.32C123.17 67.64 123.3 67.92 123.3 67.95C123.3 68.07 119.03 67.93 117.55 67.75C115.33 67.49 112.18 67.2 111.05 67.14C110.28 67.11 109.62 67.0499 109.59 67.01C109.55 66.9799 109.49 66.74 109.46 66.49L109.39 66.03L110.07 65.96C111.04 65.87 115.21 65.51 116.1 65.45C116.82 65.4 118.3 65.27 119.7 65.14C120.22 65.09 122.11 64.86 122.42 64.81C122.46 64.81 122.49 65.04 122.49 65.34ZM64.23 65.66C65.01 65.97 66.24 66.42 66.95 66.65C67.78 66.92 68.25 67.12 68.25 67.21C68.25 67.5 67.25 71 67.17 71C66.73 71 60.8 68.39 60.8 68.2C60.8 68.17 61.04 67.76 61.33 67.29C61.62 66.83 62.03 66.15 62.25 65.78C62.47 65.41 62.69 65.1 62.73 65.1C62.78 65.1 63.45 65.35 64.23 65.66ZM137.75 65.78C137.97 66.15 138.38 66.83 138.67 67.29C138.96 67.76 139.2 68.17 139.2 68.2C139.2 68.39 133.27 71 132.83 71C132.75 71 131.75 67.5 131.75 67.21C131.75 67.13 132.29 66.9 133.2 66.6C134 66.33 135.19 65.89 135.85 65.62C136.51 65.35 137.12 65.12 137.2 65.11C137.29 65.11 137.52 65.39 137.75 65.78ZM42.94 67.14C44.1 67.71 45.88 68.5499 46.9 69C48.75 69.82 49.09 70 48.78 70C48.45 70 46.45 70.71 45.51 71.16C44.59 71.59 44.52 71.61 43.92 71.5499C43.32 71.49 43.22 71.43 40.52 69.63C39 68.61 37.69 67.72 37.62 67.66C37.52 67.57 37.67 67.45 38.3 67.11C39.01 66.7299 40.5 66.12 40.74 66.1C40.79 66.1 41.78 66.57 42.94 67.14ZM160.02 66.36C160.42 66.5 161.14 66.83 161.63 67.08C162.32 67.44 162.48 67.56 162.38 67.66C162.31 67.72 161 68.61 159.48 69.63C156.75 71.45 156.69 71.49 156.05 71.5499C155.44 71.62 155.35 71.6 154.82 71.32C154.04 70.91 153.34 70.63 152.1 70.24L151.05 69.92L151.65 69.65C154.32 68.46 156.08 67.64 157.45 66.94C158.33 66.49 159.1 66.12 159.17 66.11C159.23 66.11 159.62 66.22 160.02 66.36ZM50.67 67.54C51.44 67.99 51.52 68.06 51.79 68.63C51.95 68.97 52.13 69.52 52.19 69.84C52.3 70.46 52.34 71.2 52.25 71.2C52.22 71.2 51.74 70.93 51.17 70.61C50.61 70.29 49.93 69.92 49.67 69.79L49.19 69.5499L49.25 68.85C49.31 68.22 49.25 67.57 49.04 66.76L48.97 66.47L49.41 66.77C49.65 66.94 50.22 67.28 50.67 67.54ZM150.84 67.31C150.73 67.82 150.7 68.28 150.75 68.7999L150.81 69.56L150.33 69.79C150.07 69.92 149.39 70.29 148.83 70.61C148.26 70.93 147.78 71.2 147.75 71.2C147.66 71.2 147.7 70.46 147.81 69.84C147.87 69.52 148.05 68.97 148.21 68.64C148.48 68.06 148.55 68 149.37 67.52C149.86 67.24 150.41 66.9 150.6 66.77C150.79 66.63 150.96 66.53 150.97 66.54C150.99 66.5499 150.93 66.9 150.84 67.31ZM70.05 67.54C71.17 67.82 73.27 68.16 74.7 68.29C76.7 68.47 81.36 68.39 82.82 68.15L83.08 68.11L83.03 69.43C83 70.16 82.94 70.84 82.9 70.95C82.78 71.28 80.06 71.95 77.83 72.2C76.21 72.38 73.61 72.33 71.95 72.09C70.6 71.9 67.86 71.29 67.72 71.16C67.69 71.13 67.91 70.22 68.2 69.15C68.63 67.57 68.77 67.21 68.89 67.24C68.98 67.27 69.5 67.4 70.05 67.54ZM131.8 69.15C132.09 70.22 132.31 71.13 132.28 71.16C132.14 71.29 129.4 71.9 128.05 72.09C125.7 72.43 122.82 72.38 120.4 71.94C119.41 71.76 117.3 71.21 117.14 71.08C117.08 71.04 117.02 70.64 117.01 70.17C117 69.72 116.97 69.06 116.94 68.72C116.89 68.14 116.9 68.09 117.07 68.13C117.62 68.29 120.95 68.42 123.03 68.37C125.87 68.2999 128.08 68.02 130.2 67.47C130.72 67.33 131.18 67.22 131.21 67.21C131.24 67.2 131.5 68.08 131.8 69.15ZM114.68 67.89C115.63 67.99 116.43 68.1 116.45 68.12C116.46 68.13 116.51 68.77 116.55 69.52C116.6 70.49 116.59 70.9 116.51 70.9C116.33 70.9 114.42 70.16 113.05 69.5499C112.34 69.2299 111.3 68.7999 110.75 68.6C109.95 68.29 109.74 68.17 109.72 68C109.65 67.5499 109.69 67.5499 111.36 67.62C112.24 67.66 113.73 67.78 114.68 67.89ZM60.1 68.34C61.35 69.03 61.35 69.03 61.8 69.78C62.05 70.19 62.51 70.88 62.83 71.31C63.14 71.75 63.4 72.15 63.4 72.21C63.4 72.3699 62.11 73.6 61.94 73.6C61.75 73.6 60.76 71.89 59.64 69.64C59.12 68.6 58.7 67.7 58.7 67.66C58.7 67.56 58.63 67.53 60.1 68.34ZM88.45 68.26C88.38 68.62 88.31 68.93 88.28 68.95C88.11 69.12 83.74 70.9 83.49 70.9C83.41 70.9 83.4 70.49 83.45 69.52C83.49 68.77 83.54 68.13 83.55 68.11C83.61 68.06 87.3 67.66 88.21 67.62L88.57 67.6L88.45 68.26ZM141.3 67.67C141.3 67.71 140.88 68.6 140.36 69.64C139.24 71.89 138.25 73.6 138.06 73.6C137.88 73.6 136.6 72.3699 136.6 72.19C136.6 72.1199 136.68 71.97 136.79 71.86C137.01 71.61 138.07 70.02 138.4 69.45C138.59 69.11 138.84 68.92 139.89 68.33C141.18 67.61 141.3 67.5499 141.3 67.67ZM55.04 69.99C55.52 70.4 57.51 73.82 57.36 73.97C57.34 73.99 57.03 73.9799 56.67 73.94C56.04 73.88 55.95 73.83 54.94 73.09C54.35 72.66 53.61 72.13 53.29 71.93L52.7 71.5499V70.7299C52.7 70.2 52.63 69.7 52.5 69.28C52.39 68.94 52.3 68.62 52.3 68.58C52.3 68.49 54.77 69.77 55.04 69.99ZM147.51 69.25C147.37 69.69 147.3 70.2 147.3 70.74V71.5499L146.71 71.93C146.39 72.13 145.65 72.66 145.06 73.09C144.05 73.83 143.96 73.88 143.33 73.94C142.97 73.9799 142.66 73.99 142.63 73.97C142.55 73.88 143.83 71.51 144.38 70.75C144.95 69.96 144.97 69.94 146.3 69.24C147.04 68.84 147.66 68.54 147.68 68.5499C147.7 68.57 147.62 68.88 147.51 69.25ZM111.73 69.47C112.46 69.78 113.45 70.2 113.94 70.4C114.63 70.7 114.91 70.87 115.2 71.22L115.58 71.66L115.09 72.2999C114.82 72.66 114.55 73.07 114.49 73.2299L114.37 73.51L113.06 73.4799L111.75 73.45L111.28 72.35C110.86 71.36 110.44 70.09 110.25 69.22C110.21 69 110.22 68.9 110.3 68.9C110.36 68.9 111.01 69.15 111.73 69.47ZM65.65 71.56C66.2 72.1 66.91 72.72 67.22 72.94L67.78 73.32L67.43 73.81C67.08 74.2999 67.08 74.2999 66.5 74.2999H65.92L65.15 73.4799C64.17 72.44 62.78 70.61 62.17 69.53C62.13 69.47 62.67 69.68 63.38 69.99C64.6 70.54 64.69 70.6 65.65 71.56ZM137.84 69.52C137.2 70.62 135.83 72.44 134.85 73.4799L134.08 74.2999H133.5C132.92 74.2999 132.92 74.2999 132.57 73.81L132.22 73.32L132.78 72.94C133.09 72.72 133.79 72.1 134.35 71.56C135.3 70.62 135.42 70.54 136.6 70C137.29 69.68 137.86 69.42 137.88 69.41C137.9 69.4 137.88 69.46 137.84 69.52ZM88.19 70.07C88.15 70.39 88.11 71.29 88.11 72.07L88.1 73.5H86.86H85.62L85.51 73.22C85.45 73.07 85.18 72.66 84.91 72.2999L84.42 71.66L84.83 71.18C85.05 70.92 85.27 70.7 85.31 70.7C85.36 70.7 86.02 70.43 86.77 70.1C87.53 69.78 88.17 69.51 88.21 69.5C88.24 69.5 88.23 69.76 88.19 70.07ZM110.84 72.45C111.08 73 111.27 73.45 111.26 73.46C111.26 73.47 110.95 73.5 110.58 73.53L109.9 73.59L109.91 71.67V69.75L110.16 70.6C110.3 71.07 110.61 71.9 110.84 72.45ZM50.64 70.81C51.14 71.09 51.9 71.5499 52.33 71.82L53.11 72.33L52.11 72.71L51.11 73.08L49.08 72.6C47.96 72.34 46.65 72.04 46.15 71.94L45.25 71.76L46.05 71.39C46.95 70.97 49 70.31 49.44 70.2999C49.6 70.2999 50.11 70.52 50.64 70.81ZM151.97 70.66C152.62 70.85 153.51 71.18 153.95 71.39L154.75 71.76L153.65 71.9799C153.05 72.1 151.73 72.4 150.72 72.64L148.89 73.08L147.89 72.71L146.9 72.33L147.47 71.95C148.58 71.21 150.25 70.31 150.52 70.2999C150.67 70.2999 151.32 70.46 151.97 70.66ZM58.9 71.95C59.11 72.27 59.85 74.09 59.79 74.15C59.77 74.17 59.33 74.15 58.82 74.1199L57.89 74.0499L57.55 73.26C57.36 72.83 56.95 72.04 56.63 71.51C56.31 70.9799 56.04 70.52 56.02 70.4799C56 70.44 56.6 70.7 57.35 71.04C58.33 71.49 58.77 71.75 58.9 71.95ZM143.36 71.53C143.01 72.11 142.59 72.92 142.42 73.32L142.11 74.0499L141.18 74.1199C140.67 74.15 140.23 74.17 140.21 74.14C140.15 74.09 140.78 72.52 141.05 72.0499C141.25 71.71 141.4 71.6 142.16 71.27C142.65 71.06 143.25 70.78 143.5 70.65C143.75 70.52 143.96 70.43 143.97 70.44C143.99 70.46 143.71 70.94 143.36 71.53ZM33.75 71.04C35.02 71.08 36.16 71.12 36.3 71.14C36.44 71.16 36.98 71.21 37.5 71.25C41.13 71.49 45.74 72.21 49.3 73.1C51.41 73.6199 54.74 74.22 56.35 74.35C56.63 74.38 57.39 74.44 58.05 74.5C59.77 74.65 62.61 74.75 65.15 74.75C67.17 74.75 71.64 74.63 72.68 74.5499C72.92 74.53 73.8 74.49 74.63 74.46C75.47 74.42 76.26 74.3699 76.4 74.35C76.54 74.33 77.26 74.28 78 74.24C78.74 74.21 79.91 74.15 80.6 74.11C81.29 74.07 83.26 74.02 84.98 74.01C87.47 73.99 88.11 74.02 88.14 74.1199C88.17 74.2299 88.37 75.6199 88.43 76.15C88.44 76.27 88.38 76.35 88.25 76.38C88.14 76.4 86.66 76.68 84.95 77.01C77.83 78.3699 75.12 78.7 70.8 78.74C65.02 78.79 60.2 78.09 45.8 75.09C37.05 73.26 34.84 72.95 30.74 72.95H28.03L28.94 72.47C29.9 71.96 30.47 71.49 30.56 71.15C30.6 70.97 30.68 70.94 31.03 70.96C31.26 70.97 32.49 71.01 33.75 71.04ZM68.75 71.9C72.69 72.95 76.67 73.0499 80.48 72.21C81.51 71.97 83.76 71.33 84.03 71.18C84.42 70.9799 84.28 71.19 83.66 71.78C83.3 72.11 82.56 72.68 82.01 73.04C81.04 73.68 81 73.7 80.36 73.7C79.82 73.7 76.85 73.86 74.15 74.04C73.77 74.07 72.73 74.1199 71.85 74.16L70.25 74.22L69.48 73.82C68.24 73.18 66.63 72.02 65.86 71.21L65.56 70.9L66.61 71.25C67.18 71.45 68.15 71.74 68.75 71.9ZM134.14 71.21C133.37 72.02 131.76 73.18 130.52 73.82L129.75 74.22L128.15 74.16C127.27 74.1199 126.24 74.07 125.85 74.0499C123.64 73.9 121.83 73.7999 120.48 73.74L118.95 73.67L117.97 73.03C117.43 72.67 116.7 72.11 116.34 71.78C115.72 71.19 115.58 70.9799 115.97 71.18C116.24 71.33 118.49 71.97 119.53 72.21C121.37 72.6199 122.58 72.74 124.75 72.74C127.72 72.74 129.95 72.3699 132.9 71.4C133.7 71.14 134.37 70.92 134.39 70.91C134.42 70.9 134.31 71.04 134.14 71.21ZM169.4 71.06C169.4 71.38 170.13 71.99 171.09 72.4799L172.07 72.9799L169.91 72.93C165.9 72.83 162.77 73.28 152.75 75.39C143.43 77.35 137.33 78.36 133.15 78.66C131.86 78.75 127.54 78.75 126.25 78.66C123.14 78.45 120.41 78.04 115.1 77.01C113.7 76.74 111.99 76.42 111.3 76.2999C110.61 76.19 109.96 76.07 109.84 76.0499C109.65 76.01 109.64 75.96 109.71 75.53C109.75 75.26 109.79 74.8699 109.8 74.65C109.8 74.43 109.84 74.19 109.88 74.1199C109.95 74.02 110.8 74 113.86 74C116 74.01 117.91 74.02 118.1 74.04C118.29 74.06 119.17 74.11 120.05 74.15C120.93 74.18 121.83 74.2299 122.05 74.25C122.62 74.2999 124.15 74.39 125.55 74.46C126.21 74.49 126.98 74.53 127.25 74.5499C130.93 74.82 138.8 74.79 141.95 74.5C142.56 74.44 143.3 74.38 143.6 74.36C145.19 74.24 148.02 73.7299 150.9 73.0499C154.1 72.29 156.54 71.86 159.25 71.5499C160.02 71.47 160.83 71.38 161.05 71.35C162.28 71.21 166.66 70.97 168.53 70.93C169.22 70.92 169.4 70.95 169.4 71.06ZM19.27 71.79C18.17 73 18.74 74.36 20.49 74.68C21.51 74.8699 23.15 74.59 25.53 73.83C25.98 73.69 26.64 73.56 27 73.54C27.36 73.52 28.09 73.47 28.63 73.43C29.17 73.38 29.63 73.36 29.66 73.39C29.68 73.41 29.7 73.83 29.7 74.31V75.19L29.38 75.24C29.2 75.27 28.71 75.34 28.3 75.41C27.5 75.53 25.09 76.04 24.49 76.22C24.06 76.34 23.07 76.2299 20.84 75.79C19.1 75.45 17.42 74.94 16.24 74.4C15.21 73.93 14.15 73.21 14.28 73.08C14.64 72.72 17.29 71.83 18.85 71.5499C19.24 71.4799 19.57 71.41 19.59 71.41C19.61 71.4 19.47 71.57 19.27 71.79ZM182.63 71.9C183.69 72.17 185.51 72.8699 185.72 73.08C185.85 73.21 184.79 73.93 183.76 74.4C182.19 75.13 179.7 75.78 177.13 76.15L176.01 76.31L174.23 75.91C173.25 75.7 172.11 75.47 171.7 75.4C171.29 75.34 170.8 75.27 170.63 75.24L170.3 75.19V74.31C170.3 73.83 170.32 73.41 170.34 73.39C170.37 73.36 170.83 73.38 171.37 73.43C171.91 73.47 172.64 73.52 173 73.54C173.36 73.56 174.02 73.69 174.47 73.83C177.55 74.81 179.27 74.97 180.41 74.39C181.42 73.88 181.56 72.71 180.74 71.7999L180.4 71.43L180.95 71.52C181.25 71.56 182.01 71.7299 182.63 71.9ZM60.67 72.53C60.75 72.7 61.02 73.14 61.26 73.52C61.5 73.89 61.7 74.2299 61.7 74.26C61.7 74.32 60.37 74.2 60.3 74.14C60.28 74.11 60.14 73.77 59.99 73.3699C59.84 72.97 59.65 72.49 59.57 72.29L59.41 71.93L59.96 72.08C60.39 72.2 60.55 72.2999 60.67 72.53ZM140.44 72.27C140.35 72.4799 140.16 72.97 140.01 73.3699C139.86 73.77 139.72 74.11 139.7 74.14C139.67 74.16 139.35 74.21 138.98 74.25C138.33 74.31 138.19 74.26 138.39 74.04C138.44 73.99 138.71 73.57 139 73.1C139.48 72.29 139.53 72.24 140.03 72.08C140.32 71.99 140.56 71.92 140.58 71.91C140.59 71.9 140.53 72.07 140.44 72.27ZM84.5 72.47C84.96 73.08 85.21 73.5 85.12 73.5C83.66 73.59 82.07 73.6 82.15 73.53C82.21 73.4799 82.57 73.21 82.95 72.92C83.34 72.64 83.74 72.32 83.84 72.21C83.95 72.09 84.06 72 84.09 72C84.12 72 84.31 72.21 84.5 72.47ZM116.16 72.21C116.26 72.32 116.66 72.64 117.05 72.92C117.43 73.21 117.8 73.4799 117.85 73.53C117.93 73.6 116.34 73.59 114.88 73.5C114.74 73.5 115.77 72.01 115.91 72C115.94 72 116.05 72.09 116.16 72.21ZM64.54 73.45L65.31 74.2999H63.83C62.87 74.2999 62.3 74.26 62.23 74.19C62.15 74.11 62.27 73.95 62.7 73.59C63.03 73.32 63.37 72.99 63.47 72.85C63.57 72.72 63.67 72.6 63.7 72.6C63.73 72.6 64.11 72.9799 64.54 73.45ZM136.52 72.86C136.63 73 136.99 73.33 137.3 73.6C137.73 73.95 137.85 74.11 137.77 74.19C137.7 74.26 137.13 74.2999 136.17 74.2999H134.69L135.46 73.45C135.89 72.9799 136.26 72.6 136.28 72.6C136.3 72.6 136.41 72.72 136.52 72.86ZM54.36 73.2C54.74 73.47 54.98 73.7 54.9 73.7C54.56 73.71 52.01 73.26 52.06 73.21C52.14 73.1199 53.32 72.72 53.51 72.71C53.6 72.7 53.98 72.92 54.36 73.2ZM147.21 72.91C147.56 73.03 147.88 73.16 147.93 73.19C147.99 73.26 145.48 73.71 145.1 73.7C145.02 73.7 145.26 73.47 145.64 73.2C146.02 72.92 146.38 72.7 146.44 72.7C146.51 72.7 146.85 72.7999 147.21 72.91ZM34.25 73.51C34.86 73.56 35.46 73.63 35.6 73.65C35.74 73.68 36.11 73.72 36.42 73.76L37 73.83V74.7299V75.6199L36.68 75.56C35.26 75.27 34.18 75.17 32.3 75.16L30.25 75.15L30.2 74.91C30.17 74.78 30.17 74.36 30.18 73.9799L30.22 73.27L31.68 73.34C32.49 73.3699 33.65 73.45 34.25 73.51ZM169.82 73.99C169.84 74.3699 169.83 74.78 169.8 74.91L169.75 75.15L167.7 75.16C165.82 75.17 164.74 75.27 163.33 75.56L163 75.6199V74.7299V73.83L164.45 73.65C165.97 73.47 167.71 73.34 169.02 73.31L169.78 73.2999L169.82 73.99ZM14.32 73.7999C15.86 74.97 18.4 75.85 21.95 76.44C22.78 76.58 23.59 76.7 23.75 76.72C24.02 76.75 23.99 76.78 23.33 77.11L22.61 77.47L21.93 77.34C19.57 76.9 17.88 76.76 14.77 76.76L11.68 76.75L11.75 76.2999C11.85 75.53 12.34 74.68 13.05 74.01C13.41 73.67 13.73 73.4 13.75 73.4C13.78 73.4 14.03 73.58 14.32 73.7999ZM186.95 74.01C187.66 74.68 188.15 75.53 188.25 76.2999L188.32 76.75H185.23C182.11 76.76 180.43 76.9 178.12 77.33L177.39 77.47L176.67 77.11C176.01 76.78 175.98 76.75 176.25 76.72C177.03 76.64 179.67 76.16 180.7 75.9C182.9 75.35 184.6 74.63 185.67 73.79C185.93 73.58 186.18 73.41 186.22 73.41C186.26 73.4 186.59 73.67 186.95 74.01ZM68.64 73.86C68.89 74 69.12 74.16 69.15 74.21C69.19 74.26 68.87 74.2999 68.4 74.2999H67.59L67.87 73.95C68.02 73.76 68.16 73.6 68.16 73.6C68.17 73.6 68.38 73.72 68.64 73.86ZM132.13 73.95L132.41 74.2999H131.58C130.96 74.2999 130.79 74.27 130.88 74.18C130.99 74.07 131.7 73.63 131.8 73.61C131.83 73.6 131.98 73.76 132.13 73.95ZM40.1 74.4C41.28 74.61 42.4 74.82 42.58 74.86L42.9 74.92V75.99V77.06L40.23 76.39C37.2 75.6199 37.43 75.77 37.48 74.61C37.51 73.9799 37.53 73.93 37.73 73.96C37.85 73.9799 38.92 74.18 40.1 74.4ZM162.5 75.4799C162.45 75.7 162.23 75.77 159.77 76.39L157.1 77.06V75.99V74.92L158.98 74.56C160.01 74.36 161.21 74.14 161.65 74.07L162.45 73.94L162.5 74.59C162.53 74.95 162.53 75.35 162.5 75.4799ZM46.4 75.66C47.85 75.96 49.06 76.2299 49.08 76.25C49.12 76.29 49.17 76.74 49.25 77.91L49.32 78.8699L46.58 78.1C45.08 77.68 43.73 77.2999 43.58 77.26L43.3 77.2V76.1C43.3 75.01 43.3 75 43.53 75.0499C43.65 75.08 44.94 75.35 46.4 75.66ZM156.7 76.1V77.2L156.43 77.26C156.27 77.2999 154.92 77.68 153.42 78.1L150.68 78.8699L150.75 77.91C150.81 76.93 150.88 76.28 150.93 76.24C150.95 76.21 156.44 75.03 156.63 75.01C156.67 75 156.7 75.49 156.7 76.1ZM34.01 75.6C34.58 75.66 35.12 75.7299 35.21 75.75C35.33 75.79 35.44 76.29 35.69 78.01C35.87 79.22 36.01 80.2299 35.99 80.24C35.97 80.26 35.61 80.2999 35.19 80.33L34.43 80.4L34.02 79.91C33.11 78.84 31.77 78.04 29.69 77.34C28.05 76.79 26.9 76.5499 25.7 76.49C25.41 76.4799 25.49 76.44 26.1 76.29C28.77 75.6199 31.66 75.3699 34.01 75.6ZM169.9 75.6C171.07 75.72 172.9 76.04 173.9 76.29C174.51 76.44 174.59 76.4799 174.3 76.49C173.1 76.5499 171.95 76.79 170.31 77.34C168.23 78.04 166.89 78.84 165.98 79.91L165.57 80.4L164.81 80.33C164.39 80.2999 164.03 80.26 164.01 80.24C163.99 80.2299 164.13 79.22 164.31 78C164.68 75.49 164.52 75.75 165.85 75.61C166.99 75.49 168.8 75.49 169.9 75.6ZM163.86 78.03C163.68 79.2299 163.51 80.22 163.49 80.24C163.47 80.26 162.87 80.2999 162.15 80.33C160.77 80.39 159.03 80.64 157.01 81.06C156.11 81.25 155.75 81.29 155.7 81.21C155.58 81.01 154.97 78.19 155.04 78.13C155.22 77.94 164.02 75.74 164.17 75.84C164.18 75.85 164.04 76.84 163.86 78.03ZM37.16 76.1C38.9 76.46 44.83 78 44.96 78.13C45.03 78.19 44.42 81.01 44.3 81.21C44.25 81.29 43.89 81.25 42.99 81.06C40.97 80.64 39.23 80.39 37.85 80.33C37.14 80.2999 36.53 80.26 36.51 80.24C36.49 80.22 36.35 79.36 36.19 78.33C36.03 77.2999 35.88 76.33 35.86 76.17C35.79 75.83 35.84 75.83 37.16 76.1ZM52.58 76.91L55.3 77.45V78.97V80.5L55.03 80.44C54.53 80.32 51.19 79.41 50.5 79.2C49.71 78.96 49.74 79.04 49.64 77.41C49.59 76.47 49.6 76.28 49.71 76.33C49.79 76.36 51.08 76.6199 52.58 76.91ZM150.35 77.47C150.26 78.95 150.23 79.04 149.68 79.17C149.45 79.22 148.35 79.52 147.25 79.82C146.15 80.1199 145.13 80.4 144.98 80.44L144.7 80.5V78.9799V77.45L147.48 76.89C149 76.58 150.29 76.32 150.34 76.32C150.38 76.31 150.39 76.83 150.35 77.47ZM110.85 76.66C111.35 76.74 112.92 77.04 114.35 77.31C117.72 77.96 120.5 78.46 121.23 78.5499C121.77 78.6199 121.81 78.64 121.76 78.84C121.51 79.71 121.49 80.49 121.71 81.2999C121.87 81.91 121.87 81.9 120.73 81.6C119.15 81.18 117.08 80.46 114.2 79.32C112.8 78.77 111.14 78.15 110.53 77.94C109.32 77.5499 109.35 77.57 109.46 76.8699C109.54 76.43 109.55 76.43 110.85 76.66ZM88.8 77.4799L88.98 78.11L88.73 78.21C88.6 78.26 88.47 78.2999 88.44 78.2999C88.42 78.2999 87.24 78.76 85.82 79.31C82.92 80.46 80.85 81.18 79.28 81.6C78.13 81.9 78.13 81.91 78.29 81.2999C78.5 80.53 78.49 79.7299 78.26 78.89C78.19 78.64 78.2 78.63 78.72 78.56C79.49 78.46 82.75 77.8699 85.65 77.2999C87.03 77.03 88.26 76.82 88.39 76.83C88.6 76.85 88.66 76.94 88.8 77.4799ZM18 77.25C18.19 77.27 18.91 77.3699 19.6 77.45C20.29 77.54 21.13 77.65 21.48 77.71L22.11 77.82L21.66 78.2999C21.17 78.83 21.04 79.24 21.14 79.96C21.18 80.27 21.16 80.42 21.07 80.45C21.01 80.47 20.38 80.64 19.68 80.84C18.99 81.03 17.63 81.5 16.66 81.88L14.9 82.58L14.22 81.94C12.82 80.65 11.99 79.2 11.75 77.63L11.68 77.21L12.32 77.17C13.07 77.1199 17.5 77.18 18 77.25ZM188.26 77.2299C188.36 77.32 188.11 78.39 187.84 79.07C187.44 80.09 186.97 80.76 186 81.72L185.12 82.59L183.35 81.89C182.38 81.5 181.01 81.03 180.32 80.84C179.62 80.64 178.99 80.47 178.93 80.45C178.84 80.42 178.82 80.27 178.86 79.96C178.96 79.24 178.83 78.83 178.34 78.2999L177.89 77.82L178.52 77.71C179.38 77.57 181.34 77.32 182.55 77.21C183.55 77.11 188.16 77.13 188.26 77.2299ZM60.71 78.4C60.79 78.4 60.75 78.59 60.29 80.33L59.95 81.61L59.65 81.54C59.08 81.43 55.85 80.68 55.82 80.65C55.78 80.61 55.77 80.25 55.79 78.85L55.8 77.54L58.23 77.97C59.56 78.2 60.68 78.39 60.71 78.4ZM144.21 79.08C144.22 79.92 144.21 80.6199 144.19 80.64C144.15 80.67 141.08 81.4 140.35 81.5499L140.05 81.61L139.71 80.33C139.25 78.59 139.21 78.4 139.29 78.4C139.32 78.39 140.43 78.2 141.75 77.97C143.07 77.7299 144.16 77.54 144.17 77.5499C144.18 77.5499 144.2 78.24 144.21 79.08ZM110.12 78.26C110.82 78.4799 114.92 80.04 115.11 80.15C115.14 80.18 115.03 80.7999 114.87 81.5499C114.62 82.65 114.54 82.9 114.41 82.85C114.15 82.75 112.77 81.7299 111.28 80.52C110.49 79.89 109.66 79.24 109.44 79.08C109.03 78.79 109.03 78.78 109.12 78.39C109.18 78.18 109.24 78 109.26 78C109.27 78 109.66 78.1199 110.12 78.26ZM48.97 79.22C50.8 79.7299 52.3 80.18 52.3 80.21C52.3 80.29 51.02 82.94 50.95 83.02C50.92 83.0499 50.66 83.01 50.37 82.92C50.08 82.84 48.71 82.47 47.32 82.1C45.93 81.74 44.79 81.4 44.78 81.3699C44.75 81.14 45.46 78.2999 45.54 78.2999C45.6 78.29 47.15 78.71 48.97 79.22ZM154.88 79.72C155.06 80.51 155.2 81.22 155.2 81.2999C155.2 81.41 154.74 81.57 153.47 81.89C152.53 82.13 151.15 82.5 150.43 82.7C149.49 82.96 149.07 83.04 149.01 82.96C148.9 82.81 147.7 80.31 147.7 80.22C147.7 80.14 154.04 78.32 154.35 78.31C154.54 78.2999 154.59 78.45 154.88 79.72ZM62.55 78.65C64.31 78.88 64.4 78.89 65.39 78.96C66.23 79.02 66.36 79.06 66.65 79.32C67.39 79.96 67.66 81.39 67.22 82.27C67.01 82.67 67 82.68 66.53 82.63C64.82 82.47 60.57 81.7999 60.44 81.67C60.41 81.65 60.57 80.94 60.8 80.11C61.02 79.27 61.2 78.57 61.2 78.54C61.2 78.4799 61.38 78.49 62.55 78.65ZM89.4 79.2L89.62 79.7999L89.39 79.99C89.26 80.09 88.73 80.51 88.22 80.93C87.17 81.78 85.81 82.76 85.59 82.85C85.46 82.9 85.38 82.65 85.13 81.5499L84.83 80.18L85.04 80.09C85.83 79.74 89.06 78.53 89.11 78.56C89.15 78.58 89.28 78.8699 89.4 79.2ZM138.8 78.54C138.8 78.57 138.98 79.27 139.2 80.11C139.43 80.94 139.59 81.65 139.56 81.67C139.43 81.7999 134.94 82.51 133.52 82.63L132.99 82.67L132.78 82.26C132.34 81.4 132.62 79.96 133.35 79.32C133.63 79.07 133.78 79.02 134.56 78.97C135.63 78.88 136.28 78.81 137.4 78.65C138.34 78.51 138.8 78.4799 138.8 78.54ZM77.87 79.1C78.13 79.8699 77.89 81.93 77.52 82.04C77.19 82.15 74.44 82.58 73.68 82.65L72.91 82.72L73.06 82.24C73.28 81.52 73.2 80.45 72.87 79.78C72.71 79.45 72.65 79.2299 72.71 79.19C72.77 79.16 73.39 79.1 74.08 79.0499C74.78 79.01 75.8 78.92 76.35 78.85C77.7 78.68 77.73 78.69 77.87 79.1ZM123.54 78.85C124.19 78.93 125.28 79.03 125.96 79.06C126.63 79.1 127.23 79.16 127.29 79.19C127.35 79.2299 127.29 79.45 127.13 79.78C126.8 80.45 126.72 81.52 126.94 82.24L127.09 82.72L126.32 82.65C125.56 82.58 122.81 82.15 122.48 82.04C122.23 81.96 121.96 80.65 122.02 79.81C122.06 79.27 122.22 78.7 122.33 78.7C122.34 78.7 122.89 78.77 123.54 78.85ZM72.07 79.32C72.14 79.38 72.32 79.67 72.47 79.99C72.7 80.46 72.75 80.67 72.74 81.2999C72.73 81.75 72.67 82.2 72.57 82.42L72.41 82.7999H70.42C69.32 82.7999 68.22 82.77 67.97 82.74L67.52 82.68L67.65 82.35C68.02 81.4799 67.92 80.39 67.4 79.57L67.12 79.13L69.54 79.18C70.89 79.2 72 79.27 72.07 79.32ZM132.61 79.5499C132.08 80.39 131.98 81.47 132.35 82.36L132.48 82.68L132.12 82.74C131.91 82.77 130.81 82.7999 129.67 82.7999H127.59L127.46 82.47C127.09 81.58 127.19 80.47 127.7 79.66L127.99 79.2L129.82 79.18C130.83 79.16 131.93 79.14 132.28 79.1199L132.9 79.09L132.61 79.5499ZM110.8 80.71C111.76 81.49 112.61 82.14 112.68 82.17C112.76 82.2 112.94 82.4799 113.09 82.7999L113.37 83.3699L112.59 83.9799C111.71 84.67 111.03 85.47 110.58 86.35L110.27 86.95L109.99 86.35C109.63 85.57 109.23 84.19 109.05 83.0499C108.9 82.1199 108.84 79.2999 108.98 79.2999C109.02 79.2999 109.84 79.93 110.8 80.71ZM90.91 83.29C90.78 84.17 90.23 86 89.91 86.6L89.72 86.9399L89.42 86.35C88.97 85.47 88.29 84.67 87.41 83.9799L86.63 83.3699L86.91 82.7999C87.06 82.4799 87.24 82.2 87.32 82.17C87.39 82.14 87.99 81.69 88.64 81.16L89.83 80.2L90.43 81.32L91.03 82.45L90.91 83.29ZM54.25 80.69C56.96 81.42 60.1 82.13 62.53 82.5499C63.06 82.65 63.5 82.75 63.5 82.79C63.49 82.82 63.27 83.59 63.01 84.5L62.52 86.15L62.17 86.13C61.68 86.1 51.59 83.32 51.44 83.17C51.41 83.15 51.71 82.4799 52.1 81.71C52.66 80.57 52.84 80.2999 52.98 80.34C53.07 80.3699 53.65 80.53 54.25 80.69ZM147.91 81.71C148.29 82.49 148.59 83.15 148.56 83.17C148.41 83.32 138.3 86.1 137.82 86.13L137.48 86.15L136.99 84.5C136.73 83.59 136.51 82.82 136.5 82.78C136.5 82.75 136.69 82.69 136.93 82.65C139.06 82.31 145.11 80.93 146.75 80.41C146.92 80.36 147.08 80.31 147.12 80.31C147.17 80.2999 147.52 80.93 147.91 81.71ZM84.72 81.65C84.87 82.31 84.99 82.95 85 83.07C85 83.31 84.61 83.57 82.95 84.47C80.17 85.97 77.17 86.89 74.1 87.1899C72.5 87.34 70.85 87.42 70.56 87.34L70.3 87.28V85.29V83.2999L70.73 83.29C75.04 83.14 78.58 82.46 82.65 80.97C83.48 80.67 84.22 80.43 84.3 80.44C84.4 80.45 84.53 80.81 84.72 81.65ZM117.28 80.96C121.56 82.4799 124.97 83.14 129.28 83.29L129.7 83.2999V85.29V87.28L129.44 87.34C128.84 87.49 125.39 87.2 123.6 86.84C120.81 86.29 117.88 85.11 115.47 83.57L114.93 83.22L115.22 81.94C115.54 80.5 115.57 80.4 115.65 80.4C115.68 80.4 116.41 80.65 117.28 80.96ZM39.9 80.95C42.85 81.38 46.18 82.18 53.45 84.2299C56.09 84.9799 58.63 85.6899 59.09 85.81L59.92 86.04L60.9 87.1899C61.43 87.83 62.2 88.7 62.6 89.13L63.32 89.9L62.59 89.84C60.72 89.6899 57.06 88.99 54 88.1899C50.65 87.33 49.29 86.82 45.74 85.1199C41.16 82.92 39.56 82.43 36.68 82.33L35 82.27V82C35 81.85 34.93 81.53 34.85 81.2999C34.77 81.07 34.7 80.86 34.7 80.84C34.7 80.66 38.46 80.74 39.9 80.95ZM165.25 80.81C165.28 80.84 165.23 81.06 165.15 81.2999C165.07 81.53 165 81.85 165 82.01V82.29H163.75C160.95 82.29 158.91 82.89 154.35 85.08C153.03 85.71 151.46 86.43 150.85 86.67C147.62 87.97 141.31 89.45 137.31 89.85L136.67 89.91L137.4 89.13C137.8 88.7 138.57 87.83 139.1 87.1899L140.08 86.04L140.91 85.81C141.37 85.6899 143.91 84.9799 146.55 84.2299C155.01 81.85 158.17 81.13 161.65 80.76C162.21 80.71 165.18 80.75 165.25 80.81ZM23.64 82.67L24.51 83.19L23.48 83.86C22.91 84.22 22.09 84.7999 21.65 85.14C21.21 85.4799 20.8 85.79 20.73 85.83C20.45 86.01 15.18 83.06 15.41 82.86C15.49 82.7999 17.47 82.01 18.35 81.7C18.85 81.52 19.74 81.26 20.33 81.1L21.42 80.83L22.09 81.49C22.46 81.85 23.16 82.38 23.64 82.67ZM108.45 81.65C108.67 84.44 109.33 86.34 111.24 89.7C113.88 94.33 117.13 96.8 121.25 97.3C121.8 97.37 122.48 97.48 122.75 97.56C124.58 98.07 126.86 98.26 128.9 98.07L129.75 97.99L130.9 99.18C131.68 99.98 132.23 100.66 132.61 101.28C133.16 102.17 133.67 103.47 133.57 103.72C133.55 103.79 133.05 103.96 132.46 104.08L131.4 104.32L130.78 103.77C129.12 102.33 126.99 101.38 124.73 101.1C121.45 100.68 120.42 100.46 118.79 99.84C115.8 98.71 113.01 96.66 110.91 94.0499C109.98 92.89 108.77 91.02 108.15 89.75C107.54 88.5 106.89 86.65 106.64 85.4L106.47 84.5499L107.07 83.45C107.4 82.84 107.82 82 108.01 81.58C108.19 81.16 108.35 80.82 108.37 80.83C108.38 80.84 108.41 81.21 108.45 81.65ZM180.8 81.42C181.65 81.69 184.49 82.77 184.59 82.86C184.81 83.07 179.56 86.01 179.27 85.83C179.2 85.79 178.79 85.4799 178.35 85.14C177.91 84.7999 177.09 84.22 176.52 83.86L175.49 83.19L176.36 82.67C176.84 82.38 177.53 81.86 177.89 81.5L178.55 80.84L179.2 80.9799C179.56 81.06 180.28 81.26 180.8 81.42ZM38.12 82.85C38.65 82.93 39.29 83.0499 39.55 83.11C40 83.22 40.04 83.26 40.31 83.84C40.7 84.68 40.89 85.47 41 86.7C41.08 87.58 41.05 88.5 40.95 88.5C40.93 88.5 40.52 88.36 40.03 88.1899C37.86 87.43 35.42 86.04 34.1 84.83L33.45 84.2299L33.76 84.07C34.12 83.88 34.75 83.21 34.85 82.91C34.91 82.71 34.98 82.7 36.03 82.7C36.65 82.7 37.58 82.77 38.12 82.85ZM165.15 82.91C165.25 83.21 165.88 83.88 166.24 84.07L166.55 84.2299L165.9 84.83C164.58 86.04 162.14 87.43 159.97 88.1899C159.48 88.36 159.07 88.5 159.06 88.5C158.96 88.5 158.93 87.5 159 86.65C159.11 85.46 159.3 84.67 159.69 83.83L159.98 83.22L160.72 83.06C161.88 82.7999 162.57 82.7299 163.87 82.71C165.03 82.7 165.09 82.71 165.15 82.91ZM65.37 82.94C66.81 83.11 67.87 83.19 69.07 83.22L69.9 83.25V85.29V87.33L68.8 87.26C67.25 87.16 63.31 86.54 63 86.35C62.92 86.2999 63.92 82.7999 64.01 82.7999C64.05 82.7999 64.66 82.86 65.37 82.94ZM136.56 84.5499C136.84 85.52 137.04 86.33 137 86.35C136.69 86.54 132.75 87.16 131.2 87.26L130.1 87.33V85.29V83.25H130.38C131.27 83.24 133.79 83.06 134.6 82.95C136.22 82.74 135.98 82.54 136.56 84.5499ZM86.14 83.3699C85.03 85.32 82.91 87.29 80.8 88.35C78.85 89.32 77.51 89.64 75.3 89.64C73.06 89.65 71.44 89.26 69.35 88.2299C68.86 87.99 68.45 87.78 68.44 87.77C68.43 87.76 69.59 87.75 71.03 87.75C73.7 87.75 74.5 87.68 76.45 87.29C79.46 86.6899 82.49 85.43 85.2 83.66C85.83 83.24 86.36 82.9 86.38 82.9C86.4 82.9 86.29 83.11 86.14 83.3699ZM114.9 83.7299C117.02 85.1199 119.84 86.3699 122.25 87C124.5 87.58 125.96 87.75 128.92 87.75H131.6L130.74 88.18C128.63 89.24 126.96 89.65 124.7 89.64C122.49 89.64 121.15 89.32 119.2 88.35C117.08 87.29 114.97 85.32 113.86 83.36C113.7 83.09 113.64 82.91 113.71 82.96C113.79 83 114.32 83.35 114.9 83.7299ZM92.55 84.93L93.23 86.11L92.81 87.4C91.58 91.13 88.82 94.99 85.71 97.33C83.7 98.85 81.7 99.82 79.35 100.43C78.43 100.67 77.7 100.79 75.27 101.1C73.01 101.38 70.88 102.33 69.22 103.77L68.6 104.32L67.54 104.08C66.95 103.96 66.45 103.79 66.43 103.72C66.33 103.47 66.84 102.17 67.39 101.28C67.76 100.68 68.34 99.96 69.1 99.17L70.25 97.98L71.45 98.1C73.13 98.27 75.33 98.07 77.08 97.6C77.48 97.49 78.09 97.37 78.43 97.34C82.22 96.99 85.33 94.95 87.88 91.15C88.67 89.96 90.33 86.83 90.69 85.83C90.85 85.4 91.08 84.61 91.2 84.07L91.43 83.09L91.65 83.42C91.77 83.6 92.18 84.28 92.55 84.93ZM26.55 83.95C27.27 84.19 28.27 84.45 28.79 84.54C29.95 84.74 31.55 84.74 32.34 84.56L32.94 84.42L33.38 84.78L33.82 85.14L32.93 85.3699C30.97 85.89 29.72 86.59 28.36 87.92L27.37 88.9L25.06 87.91C23.79 87.36 22.37 86.74 21.91 86.53L21.06 86.14L21.7 85.64C22.89 84.72 24.95 83.41 25.1 83.46C25.18 83.49 25.84 83.71 26.55 83.95ZM42.95 84.2999C43.5 84.53 44.3 84.9 44.72 85.11C45.56 85.53 45.76 85.79 46.13 86.95C46.46 87.95 46.71 89.7999 46.52 89.7999C46.11 89.7999 42.34 88.96 41.72 88.7299C41.52 88.65 41.5 88.57 41.46 87.25C41.42 85.81 41.23 84.79 40.81 83.86L40.62 83.42L41.28 83.65C41.65 83.77 42.4 84.06 42.95 84.2999ZM159.13 84.01C158.75 84.96 158.59 85.85 158.54 87.2999C158.5 88.56 158.48 88.65 158.28 88.7299C157.66 88.96 153.89 89.7999 153.48 89.7999C153.29 89.7999 153.54 87.95 153.87 86.95C154.24 85.79 154.44 85.53 155.28 85.11C156.35 84.58 157.39 84.13 158.45 83.74C158.95 83.56 159.36 83.41 159.36 83.4C159.37 83.4 159.27 83.67 159.13 84.01ZM176.17 84.15C176.8 84.57 177.69 85.18 178.13 85.52L178.94 86.14L177.99 86.57C177.47 86.81 176.06 87.4399 174.84 87.95L172.63 88.89L171.64 87.92C170.28 86.59 169.03 85.89 167.07 85.3699L166.18 85.14L166.62 84.78L167.06 84.42L167.71 84.57C168.18 84.68 168.7 84.71 169.65 84.67C171.15 84.6199 172.25 84.39 173.86 83.81C174.46 83.6 174.96 83.42 174.98 83.41C175 83.4 175.53 83.74 176.17 84.15ZM87.31 84.47C87.62 84.7299 88.07 85.17 88.29 85.45C88.72 85.96 89.4 87.21 89.4 87.47C89.4 87.74 88.7 88.68 88.02 89.32C87.39 89.91 85.99 90.93 85.92 90.85C85.9 90.83 85.82 90.49 85.74 90.11C85.56 89.13 85.11 88.25 84.41 87.49L83.82 86.84L84.16 86.56C84.56 86.25 85.84 84.7299 86.19 84.17C86.45 83.74 86.47 83.74 87.31 84.47ZM114.21 84.7C114.55 85.17 115.13 85.85 115.49 86.21L116.15 86.8699L115.57 87.5C114.89 88.25 114.44 89.13 114.26 90.11C114.18 90.49 114.1 90.83 114.08 90.85C114.07 90.8699 113.73 90.67 113.35 90.42C112.44 89.81 111.4 88.82 110.94 88.13C110.6 87.6199 110.58 87.5499 110.68 87.21C110.85 86.66 111.47 85.67 112 85.1199C112.46 84.64 113.5 83.77 113.55 83.82C113.57 83.84 113.86 84.2299 114.21 84.7ZM106.22 85.52C106.26 85.78 106.18 85.97 105.71 86.61C105.4 87.04 105.12 87.39 105.08 87.4C105.03 87.4 105 87.2999 105 87.18C105 86.97 105.99 85.21 106.11 85.2C106.15 85.2 106.2 85.34 106.22 85.52ZM35.8 86.65C36.05 86.81 36.56 87.1 36.93 87.2999L37.62 87.68L37.01 88.04C36.17 88.5499 34.71 89.7 33.83 90.53L33.1 91.2299L30.57 90.2C29.19 89.64 28.01 89.14 27.96 89.1C27.92 89.0499 28.1 88.78 28.36 88.5C29.66 87.11 31.56 86.08 33.61 85.66L34.25 85.53L34.8 85.95C35.1 86.18 35.55 86.5 35.8 86.65ZM167.65 86.01C169.23 86.54 170.61 87.4 171.64 88.5C171.9 88.78 172.08 89.0499 172.04 89.1C171.99 89.14 170.82 89.64 169.43 90.2L166.91 91.2299L166.1 90.47C165.24 89.66 163.79 88.54 162.92 88L162.39 87.67L163.12 87.28C163.89 86.86 164.95 86.17 165.44 85.77C165.7 85.56 165.78 85.54 166.24 85.6199C166.52 85.67 167.16 85.85 167.65 86.01ZM47.08 86.24C47.45 86.42 48.29 86.79 48.95 87.0499C49.61 87.31 50.26 87.6199 50.39 87.74C50.91 88.2 51.42 89.27 51.55 90.15L51.63 90.63L51.24 90.57C49.87 90.38 47.97 90.08 47.53 89.99L47 89.89V89.35C47 88.65 46.74 87.33 46.46 86.54C46.33 86.1899 46.27 85.9 46.31 85.9C46.36 85.9 46.71 86.0499 47.08 86.24ZM153.54 86.54C153.26 87.33 153 88.65 153 89.35V89.89L152.48 89.99C152.03 90.08 150.16 90.3699 148.78 90.57C148.33 90.64 148.31 90.57 148.55 89.65C148.73 88.96 149.17 88.16 149.57 87.79C149.72 87.64 150.39 87.31 151.05 87.0499C151.71 86.79 152.54 86.43 152.9 86.24C153.26 86.06 153.6 85.91 153.66 85.9C153.73 85.9 153.69 86.14 153.54 86.54ZM62.31 86.65L63.73 87L64.39 87.63C64.75 87.9799 65.38 88.52 65.78 88.84C66.17 89.16 66.5 89.46 66.5 89.51C66.5 89.68 65.92 90.74 65.66 91.0499L65.41 91.35L63.88 89.7999C62.49 88.39 60.8 86.5 60.8 86.36C60.8 86.28 60.75 86.27 62.31 86.65ZM139.2 86.36C139.2 86.5 137.51 88.39 136.12 89.7999L134.59 91.35L134.34 91.0499C134.08 90.74 133.5 89.68 133.5 89.51C133.5 89.46 133.83 89.16 134.23 88.84C134.62 88.52 135.25 87.9799 135.61 87.63L136.27 87L137.61 86.66C139.04 86.2999 139.2 86.27 139.2 86.36ZM106.83 87.68C107.03 88.32 107.46 89.3699 107.78 90.01L108.36 91.17L107.77 92.24C107.44 92.83 107.14 93.28 107.1 93.2299C107.06 93.1899 106.64 91.9799 106.15 90.54L105.27 87.93L105.8 87.22C106.08 86.82 106.35 86.5 106.38 86.5C106.42 86.5 106.62 87.03 106.83 87.68ZM93.84 87.39C93.98 87.71 94.17 88.17 94.25 88.41L94.41 88.85L93.69 91C93.3 92.18 92.94 93.1899 92.9 93.2299C92.86 93.28 92.56 92.83 92.23 92.24L91.64 91.17L92.22 90.01C92.53 89.3699 92.94 88.39 93.12 87.83C93.3 87.27 93.48 86.7999 93.51 86.7999C93.55 86.7999 93.69 87.06 93.84 87.39ZM66.44 87.4399C67.13 87.5499 67.5 87.65 67.64 87.79C67.89 88.02 69.84 89 70.56 89.25L71.08 89.43L70.89 89.84C70.8 90.07 70.66 90.47 70.59 90.75C70.53 91.02 70.46 91.27 70.44 91.28C70.38 91.36 68.91 90.52 67.88 89.84C66.85 89.15 65.78 88.31 64.95 87.5499L64.55 87.1899L65 87.24C65.25 87.27 65.9 87.36 66.44 87.4399ZM84.08 87.76C84.87 88.65 85.39 89.86 85.4 90.83C85.4 91.21 85.4 91.21 84.63 91.57C83.76 91.96 82.35 92.45 81.78 92.5499L81.4 92.6199V91.84C81.4 90.95 81.2 89.99 80.9 89.4C80.79 89.18 80.7 88.9799 80.7 88.96C80.7 88.93 80.96 88.77 81.28 88.61C81.59 88.45 82.21 88.07 82.65 87.76C83.09 87.45 83.48 87.2 83.52 87.2C83.55 87.2 83.81 87.45 84.08 87.76ZM117.39 87.79C117.86 88.11 118.49 88.49 118.78 88.64C119.06 88.78 119.3 88.93 119.3 88.96C119.3 88.9799 119.21 89.18 119.1 89.4C118.8 89.99 118.6 90.95 118.6 91.84V92.6199L118.23 92.5499C117.65 92.45 116.24 91.96 115.38 91.57C114.6 91.21 114.6 91.21 114.6 90.83C114.61 89.86 115.13 88.65 115.92 87.76C116.19 87.45 116.44 87.2 116.47 87.2C116.51 87.2 116.92 87.46 117.39 87.79ZM135.05 87.56C134.12 88.39 133.12 89.17 132.12 89.84C131.09 90.52 129.62 91.36 129.56 91.28C129.54 91.27 129.47 91.02 129.41 90.75C129.34 90.47 129.2 90.07 129.11 89.84L128.92 89.43L129.44 89.25C130.16 89 132.11 88.02 132.36 87.79C132.51 87.65 132.87 87.5499 133.61 87.4399C134.18 87.36 134.7 87.27 134.75 87.25C134.81 87.2299 134.99 87.21 135.15 87.21H135.45L135.05 87.56ZM54.14 88.89C54.75 89.4399 55.69 91.24 55.48 91.45C55.45 91.49 55 91.4 54.49 91.26C53.97 91.1199 53.28 90.96 52.94 90.9C52.6 90.83 52.28 90.75 52.22 90.71C52.16 90.68 52.04 90.31 51.96 89.91C51.87 89.5 51.65 88.8699 51.47 88.51L51.13 87.84L52.49 88.2299C53.45 88.51 53.94 88.7 54.14 88.89ZM148.55 88.5C148.35 88.88 148.12 89.52 148.04 89.92C147.96 90.32 147.84 90.68 147.78 90.71C147.72 90.75 147.4 90.83 147.06 90.9C146.72 90.96 146.03 91.1199 145.51 91.26C144.99 91.39 144.55 91.4799 144.52 91.45C144.41 91.34 144.81 90.31 145.19 89.74C145.8 88.81 145.97 88.6899 147.48 88.24C148.23 88.01 148.86 87.82 148.87 87.81C148.89 87.81 148.74 88.11 148.55 88.5ZM39.1 88.2999C39.66 88.52 40.63 88.86 41.28 89.06C41.92 89.25 42.45 89.42 42.47 89.4399C42.48 89.45 42.31 89.6 42.07 89.76C41.27 90.33 40.12 91.41 39.97 91.7299C39.77 92.15 38.44 93.4399 38.27 93.3699C37.6 93.11 33.64 91.46 33.6 91.42C33.53 91.36 34.7 90.2999 35.65 89.5499C36.27 89.06 37.92 87.95 38.07 87.91C38.09 87.9 38.55 88.08 39.1 88.2999ZM162.5 88.26C163.68 88.95 166.56 91.28 166.4 91.42C166.36 91.46 162.31 93.15 161.76 93.36C161.56 93.4399 160.26 92.21 160.03 91.7299C159.88 91.41 158.73 90.33 157.93 89.76C157.69 89.6 157.52 89.45 157.53 89.4399C157.55 89.42 158.08 89.25 158.72 89.06C159.36 88.86 160.33 88.52 160.87 88.31C161.41 88.09 161.86 87.91 161.87 87.91C161.88 87.9 162.17 88.06 162.5 88.26ZM101.16 88.85C101.61 89 102.12 89.21 102.29 89.31C102.83 89.64 102.53 89.7 101.87 89.4C100.96 88.99 100.13 88.7999 99.23 88.7999C98.32 88.7999 97.66 88.97 97.09 89.34C96.67 89.6199 96.46 89.67 96.52 89.47C96.59 89.27 97.41 88.82 98 88.65C98.81 88.43 100.14 88.51 101.16 88.85ZM56.4 89.22C57.78 89.52 57.88 89.56 58.45 90.01C59.64 90.9399 61.59 93.13 61.86 93.84C61.89 93.92 61.26 93.7 60.33 93.2999C59.46 92.93 58.13 92.41 57.38 92.15C56.59 91.88 56 91.6199 56 91.5499C56 91.1899 55.56 90.06 55.2 89.52C54.98 89.18 54.84 88.9 54.88 88.9C54.92 88.9 55.6 89.04 56.4 89.22ZM144.8 89.52C144.44 90.06 144 91.1899 144 91.5499C144 91.6199 143.41 91.88 142.63 92.15C141.87 92.41 140.54 92.93 139.67 93.2999C138.74 93.7 138.11 93.92 138.14 93.84C138.41 93.13 140.44 90.86 141.58 89.9799C142.08 89.59 142.27 89.52 143.49 89.24C145.35 88.81 145.27 88.79 144.8 89.52ZM80.85 90.6199C81.01 91.29 81.04 91.9799 80.94 92.4799C80.88 92.77 80.86 92.78 80.01 92.89C79.53 92.95 78.62 93 77.99 93H76.85V91.5V90H77.1C77.44 90 79.14 89.56 79.76 89.32L80.25 89.1199L80.48 89.56C80.6 89.7999 80.77 90.28 80.85 90.6199ZM121.69 89.75C122.22 89.89 122.76 90 122.9 90H123.15V91.5V93H122.01C121.38 93 120.47 92.95 119.99 92.89C119.14 92.78 119.12 92.77 119.06 92.4799C118.9 91.6899 119.06 90.61 119.47 89.68L119.72 89.11L120.23 89.31C120.5 89.42 121.16 89.6199 121.69 89.75ZM45.17 90C46.72 90.31 51.53 91.1 51.85 91.1C52 91.1 51.76 91.2999 51.27 91.58C50.46 92.04 49.15 93.04 48.43 93.77L47.77 94.43L44.11 93.2C42.1 92.52 40.43 91.95 40.41 91.93C40.27 91.82 42.84 89.6 43.12 89.6C43.16 89.6 44.08 89.78 45.17 90ZM72.42 89.81C72.99 89.95 73.74 90.03 74.83 90.07L76.4 90.13L76.41 90.59C76.43 91.58 76.4 92.46 76.35 92.71L76.29 92.97L75.42 92.83C73.83 92.58 71.12 91.78 70.95 91.5C70.84 91.32 71.37 89.6 71.54 89.6C71.57 89.6 71.96 89.6899 72.42 89.81ZM128.77 90.2C128.89 90.5 129 90.93 129.02 91.15L129.05 91.5499L128.21 91.88C127.23 92.27 125.8 92.64 124.58 92.83L123.71 92.97L123.65 92.71C123.6 92.46 123.57 91.58 123.59 90.59L123.6 90.13L125.18 90.07C126.25 90.03 126.99 89.95 127.5 89.82C127.91 89.71 128.32 89.63 128.4 89.64C128.48 89.65 128.65 89.9 128.77 90.2ZM157.69 90.15C158.43 90.68 159.69 91.86 159.59 91.93C159.57 91.95 157.9 92.52 155.89 93.2L152.23 94.43L151.57 93.77C150.85 93.04 149.54 92.04 148.73 91.58C148.44 91.41 148.18 91.25 148.15 91.2C148.09 91.11 148.09 91.11 150.85 90.6899C152.01 90.52 153.76 90.21 154.75 90C155.74 89.7999 156.63 89.6199 156.74 89.61C156.84 89.61 157.27 89.85 157.69 90.15ZM61.57 90.15C62.24 90.22 62.29 90.24 62.41 90.52C62.89 91.68 64.54 93.82 66.17 95.42C66.77 96 67.2 96.45 67.11 96.42C67.02 96.39 65.98 95.9 64.8 95.34L62.65 94.33L62.32 93.74C61.72 92.6899 61.07 91.86 59.97 90.79L58.89 89.7299L59.87 89.9C60.41 90 61.17 90.11 61.57 90.15ZM69.87 91.5L71.09 92.11L70.63 93.08C70.38 93.61 70.14 94.17 70.08 94.32C70.03 94.4799 69.96 94.6 69.92 94.6C69.82 94.6 68.96 94.07 68.25 93.57C67.56 93.08 65.8 91.6899 65.8 91.64C65.8 91.6199 65.97 91.3699 66.18 91.07C66.39 90.77 66.64 90.35 66.74 90.13L66.92 89.7299L67.78 90.31C68.26 90.63 69.2 91.16 69.87 91.5ZM133.94 91.25C134.08 91.43 134.2 91.6 134.2 91.63C134.2 91.6899 132.51 93.03 131.75 93.57C131.04 94.07 130.18 94.6 130.08 94.6C130.04 94.6 129.97 94.4799 129.92 94.32C129.86 94.17 129.62 93.61 129.37 93.08L128.91 92.11L130.14 91.49C130.81 91.16 131.74 90.63 132.21 90.31L133.05 89.75L133.37 90.33C133.54 90.65 133.8 91.06 133.94 91.25ZM140.04 90.77C138.93 91.86 138.28 92.68 137.68 93.74L137.35 94.33L135.2 95.34C134.02 95.9 132.98 96.39 132.89 96.42C132.8 96.46 133.18 96.0499 133.73 95.52C135.35 93.95 136.85 92.02 137.51 90.67L137.73 90.22L138.44 90.15C138.97 90.1 140.61 89.83 141.09 89.71C141.11 89.7 140.64 90.18 140.04 90.77ZM88.14 89.92C87.38 91.24 85.3 93.85 85.08 93.78C85.02 93.76 84.88 93.47 84.75 93.15C84.35 92.07 84.35 92.14 84.82 91.95C85.46 91.7 86.97 90.78 87.6 90.26C88.2 89.77 88.25 89.74 88.14 89.92ZM113.91 91.29C114.37 91.56 114.94 91.86 115.18 91.95C115.65 92.14 115.65 92.07 115.25 93.15C115.12 93.47 114.98 93.76 114.92 93.78C114.69 93.85 112.64 91.27 111.85 89.9C111.8 89.82 112.05 89.9799 112.41 90.27C112.77 90.56 113.45 91.02 113.91 91.29ZM64.6 91.13C68.08 94.45 71.94 96.6 75.5 97.22L76.25 97.34L75.6 97.47C73.85 97.82 70.77 97.73 69.37 97.3C67.86 96.83 64.54 93.43 63.1 90.8699L62.78 90.2999H63.25C63.71 90.2999 63.76 90.33 64.6 91.13ZM136.9 90.8699C135.46 93.42 132.13 96.83 130.63 97.3C129.23 97.73 126.14 97.82 124.4 97.47L123.75 97.34L124.53 97.21C126.84 96.83 129.36 95.7299 131.92 93.9799C132.92 93.2999 135.02 91.56 135.75 90.81C136.21 90.33 136.28 90.2999 136.73 90.2999H137.22L136.9 90.8699ZM53.9 91.5499C54.48 91.6899 55.33 91.93 55.79 92.07L56.64 92.34L56.35 92.54C55.22 93.36 54.66 93.82 54.01 94.4399C53.16 95.27 52.48 96.08 52.55 96.2C52.59 96.26 51.33 98.48 51.14 98.69C51.1 98.73 46.8 97.01 46.68 96.91C46.59 96.83 47.86 94.76 48.03 94.71C48.09 94.6899 48.53 94.31 49 93.86C49.47 93.41 50.21 92.7999 50.65 92.5C51.48 91.93 52.58 91.31 52.75 91.2999C52.81 91.2999 53.32 91.41 53.9 91.5499ZM147.83 91.56C148.74 92.02 150.12 93.02 151 93.86C151.47 94.31 151.91 94.6899 151.98 94.71C152.14 94.76 153.41 96.83 153.32 96.91C153.28 96.94 152.26 97.37 151.06 97.85C149.25 98.58 148.85 98.72 148.78 98.6C148.73 98.52 148.4 97.96 148.05 97.37C147.69 96.77 147.42 96.24 147.45 96.2C147.52 96.08 146.84 95.27 145.99 94.4399C145.34 93.82 144.78 93.36 143.65 92.54L143.36 92.33L144.1 92.1C144.93 91.85 146.98 91.32 147.18 91.31C147.25 91.2999 147.54 91.42 147.83 91.56ZM92.08 92.83L92.68 93.91L92.38 94.68C91.74 96.3699 90.02 99.61 89.57 99.99C89.45 100.08 89.38 99.96 89.16 99.28C88.89 98.45 88.57 96.98 88.45 96.0499C88.39 95.5499 88.39 95.54 88.91 94.95C89.53 94.24 90.39 93.09 90.95 92.2299C91.17 91.89 91.38 91.64 91.41 91.68C91.45 91.72 91.74 92.24 92.08 92.83ZM110.58 94.33C111.74 95.7299 111.63 95.47 111.5 96.42C111.38 97.31 110.9 99.24 110.67 99.79L110.53 100.12L110.27 99.79C109.55 98.82 108.23 96.2999 107.62 94.68L107.32 93.91L107.97 92.75L108.62 91.59L109.32 92.6199C109.7 93.18 110.27 93.95 110.58 94.33ZM72.69 92.64C73.27 92.83 74.03 93.04 74.37 93.1C74.93 93.21 74.99 93.25 74.95 93.4399C74.92 93.5499 74.79 94.28 74.65 95.04C74.51 95.81 74.38 96.46 74.35 96.4799C74.26 96.58 72.38 95.9 71.34 95.4C70.38 94.93 70.31 94.88 70.39 94.68C70.63 94.06 71.5 92.2999 71.56 92.2999C71.6 92.2999 72.11 92.45 72.69 92.64ZM84.45 93.57L84.69 94.2L84.27 94.53C83.63 95.04 83.02 95.4399 82.3 95.7999C81.68 96.11 80.6 96.53 80.54 96.4799C80.51 96.4399 80.1 93.67 80.1 93.4799C80.1 93.38 80.37 93.29 81.03 93.16C81.53 93.07 82.4 92.84 82.95 92.66L83.95 92.33L84.08 92.63C84.16 92.7999 84.32 93.22 84.45 93.57ZM118.98 93.16C119.63 93.29 119.9 93.38 119.9 93.4799C119.9 93.67 119.49 96.4399 119.46 96.4799C119.4 96.53 118.32 96.11 117.7 95.7999C117 95.45 115.71 94.59 115.47 94.32C115.34 94.17 115.36 94.06 115.67 93.24L116.02 92.33L117.03 92.66C117.59 92.84 118.47 93.06 118.98 93.16ZM129.01 93.3699C129.29 93.97 129.56 94.5499 129.61 94.68C129.69 94.88 129.62 94.93 128.66 95.4C127.63 95.9 125.74 96.58 125.65 96.49C125.6 96.43 124.99 93.27 125.03 93.2299C125.05 93.22 125.39 93.14 125.81 93.06C126.22 92.97 126.94 92.77 127.4 92.61C127.87 92.45 128.31 92.31 128.38 92.31C128.45 92.2999 128.74 92.78 129.01 93.3699ZM58.79 93.14C60.22 93.7 62.4 94.67 64.49 95.68L65.73 96.28L65.41 96.51C65.03 96.79 63.96 98.05 63.45 98.82C63.24 99.14 63.03 99.4 62.98 99.4C62.9 99.4 56.1 97.28 53.48 96.4399C53.21 96.35 53 96.25 53 96.2C53 96.0499 54.5 94.51 55.18 93.9799C56.22 93.15 57.03 92.6 57.24 92.6C57.34 92.6 58.03 92.84 58.79 93.14ZM143.55 93.02C144.57 93.7299 145.54 94.5499 146.28 95.35C146.68 95.78 147 96.16 147 96.2C147 96.25 146.79 96.35 146.53 96.4399C143.9 97.28 137.1 99.4 137.02 99.4C136.97 99.4 136.76 99.14 136.55 98.82C136.04 98.05 134.97 96.79 134.59 96.51L134.27 96.28L135.51 95.68C138.66 94.16 142.32 92.61 142.75 92.6C142.85 92.6 143.21 92.79 143.55 93.02ZM78.16 93.4399L79.66 93.42L79.86 94.89C79.96 95.6899 80.05 96.42 80.05 96.5C80.05 96.73 79.09 96.9 77.64 96.9C76.42 96.91 75.05 96.76 74.88 96.61C74.84 96.58 74.85 96.3699 74.89 96.15C74.94 95.93 75.08 95.2 75.2 94.52L75.42 93.29L76.04 93.3699C76.37 93.41 77.33 93.4399 78.16 93.4399ZM124.6 93.3699C124.6 93.42 124.74 94.17 124.9 95.04C125.06 95.92 125.18 96.65 125.17 96.65C125.03 96.76 123.32 96.91 122.32 96.91C120.92 96.91 119.95 96.74 119.95 96.5C119.95 96.42 120.04 95.68 120.15 94.8699L120.34 93.39L121.5 93.45C122.13 93.4799 122.99 93.46 123.4 93.42C124.43 93.29 124.6 93.29 124.6 93.3699ZM88.1 96.5499C88.11 97.03 88.37 98.16 88.77 99.44L89.14 100.63L88.04 101.69C87.22 102.47 86.66 102.92 85.87 103.38C85.28 103.73 84.76 103.99 84.71 103.96C84.4 103.76 84.24 101.32 84.45 100.05C84.7 98.56 84.62 98.7 85.79 97.82C86.37 97.37 87.1 96.79 87.4 96.52C87.98 96 88.09 96 88.1 96.5499ZM114.46 98.01C115.22 98.56 115.27 98.63 115.38 99.11C115.59 99.99 115.72 101.52 115.65 102.2C115.57 103.07 115.41 103.88 115.3 103.95C115.19 104.02 113.9 103.28 113.1 102.69C112.74 102.43 112.09 101.85 111.66 101.41L110.86 100.61L111.23 99.43C111.64 98.14 111.85 97.21 112 96.02C112 96 112.37 96.31 112.83 96.71C113.28 97.1 114.01 97.69 114.46 98.01ZM67.33 97C67.96 97.27 68.76 97.57 69.12 97.67L69.77 97.84L68.95 98.66C67.45 100.16 66.48 101.64 66.1 103.03C65.95 103.58 65.9 103.65 65.7 103.62C65.34 103.56 62.39 102.72 62.32 102.65C62.21 102.55 63.11 99.96 63.35 99.7C63.47 99.56 63.77 99.16 64 98.8C64.43 98.17 65.95 96.5 66.11 96.5C66.15 96.5 66.7 96.72 67.33 97ZM134.77 97.33C135.21 97.78 135.76 98.45 136 98.8C136.23 99.16 136.53 99.56 136.65 99.7C136.89 99.96 137.79 102.55 137.68 102.65C137.61 102.72 134.66 103.56 134.3 103.62C134.1 103.65 134.05 103.58 133.9 103.03C133.52 101.66 132.57 100.19 131.08 98.69C130.64 98.25 130.3 97.87 130.32 97.86C130.34 97.84 130.67 97.73 131.05 97.62C131.44 97.5 132.21 97.21 132.75 96.96C133.3 96.71 133.8 96.51 133.86 96.51C133.92 96.5 134.33 96.87 134.77 97.33ZM84.05 99.75C83.81 101.08 83.87 102.67 84.22 104.09C84.31 104.49 79.34 105.56 79.09 105.19C78.94 104.97 79.07 103.26 79.3 102.42C79.41 102.01 79.62 101.47 79.75 101.2C79.99 100.73 80.01 100.71 80.94 100.4C81.47 100.23 82.4 99.83 83.02 99.51C83.64 99.2 84.16 98.95 84.17 98.95C84.18 98.95 84.13 99.32 84.05 99.75ZM119.05 100.4C119.99 100.71 120.01 100.73 120.25 101.2C120.38 101.47 120.59 102.01 120.7 102.42C120.93 103.24 121.06 104.98 120.92 105.19C120.65 105.57 115.68 104.5 115.78 104.09C116.17 102.54 116.19 100.55 115.84 99.15C115.79 98.95 115.89 98.98 116.94 99.5C117.57 99.82 118.52 100.22 119.05 100.4ZM100.87 100.8C101.42 100.99 102.3 101.55 102.3 101.7C102.3 101.87 102.14 101.81 101.6 101.45C100.39 100.64 99.04 100.59 97.54 101.31C96.87 101.63 96.8 101.64 96.8 101.51C96.8 101.39 97.33 101.08 97.92 100.86C98.89 100.49 99.91 100.47 100.87 100.8ZM79.19 101.37C78.83 102.2 78.6 103.39 78.6 104.37C78.6 105.19 78.58 105.3 78.43 105.31C78.33 105.31 78.12 105.33 77.95 105.35C77.56 105.39 74.02 105.22 73.61 105.14C73.35 105.08 73.31 105.04 73.36 104.86C73.5 104.39 74.4 103.2 75.25 102.35L76.15 101.44L77.1 101.31C77.62 101.24 78.3 101.13 78.6 101.05C79.43 100.85 79.42 100.84 79.19 101.37ZM122.18 101.2C122.81 101.31 123.43 101.4 123.56 101.4C124.06 101.4 126.38 104.02 126.64 104.86C126.7 105.05 126.66 105.09 126.37 105.14C125.76 105.25 122.57 105.39 121.98 105.33L121.4 105.27V104.36C121.4 103.39 121.16 102.19 120.81 101.36L120.6 100.88L120.82 100.94C120.95 100.97 121.56 101.09 122.18 101.2ZM74.84 102.12C74.01 102.97 73.44 103.72 73.08 104.43L72.78 105.03L72.22 104.96C71.91 104.92 71.1 104.8 70.42 104.68L69.2 104.46L69.47 104.17C70.6 102.98 73.3 101.76 75.35 101.51C75.4 101.51 75.17 101.78 74.84 102.12ZM125.95 101.77C127.48 102.14 129.28 103.05 130.28 103.95L130.83 104.46L129.59 104.68C128.91 104.8 128.09 104.92 127.78 104.96L127.22 105.03L126.92 104.43C126.56 103.72 125.99 102.97 125.17 102.13L124.56 101.51L124.96 101.56C125.17 101.6 125.62 101.69 125.95 101.77ZM100.33 113.5C100.9 113.71 101.7 114.33 101.58 114.45C101.54 114.49 101.36 114.42 101.18 114.28C99.88 113.29 98.54 113.25 97.33 114.17C96.89 114.51 96.72 114.54 96.83 114.28C96.91 114.06 97.66 113.58 98.23 113.38C98.85 113.16 99.53 113.2 100.33 113.5ZM99.26 126.27C100.13 126.57 101.3 127.36 101.3 127.67C101.3 127.79 101.24 127.77 101.03 127.6C100.16 126.93 99.93 126.79 99.45 126.61C98.35 126.2 97.42 126.26 96.55 126.81C95.96 127.18 95.71 127.05 96.28 126.68C97.14 126.1 98.31 125.94 99.26 126.27ZM99.12 139.61C100 139.8 101.55 140.58 101.38 140.75C101.34 140.79 100.96 140.64 100.53 140.42C99.34 139.8 98.47 139.63 97.46 139.81C96.8 139.93 96.1 140.25 95.62 140.64C95.28 140.94 95.2 140.96 95.2 140.76C95.2 140.49 96.35 139.78 97.07 139.61C97.61 139.48 98.51 139.48 99.12 139.61Z" fill="#93B1A6"/>
</svg>
