<svg width="895" height="895" viewBox="0 0 895 895" fill="none" xmlns="http://www.w3.org/2000/svg">
<path d="M405.248 176.42C405.158 176.689 404.89 177.672 404.622 178.521C403.996 180.533 398.677 187.908 389.334 199.754C374.27 218.885 366.448 229.926 365.107 233.949C363.632 238.241 364.973 243.783 368.862 249.46C373.198 255.852 385.535 266.223 399.124 274.939C401.269 276.325 403.102 277.487 403.191 277.577C403.549 277.889 402.297 281.331 401.895 281.331C401.672 281.331 398.274 280.437 394.43 279.365C384.462 276.548 371.186 273.196 362.559 271.274C354.424 269.486 354.647 269.62 351.608 265.016C349.641 262.021 348.702 259.071 348.702 255.897C348.702 250.801 349.328 249.55 363.14 227.334C376.103 206.504 379.59 199.709 378.115 197.876C377.444 197.027 376.416 197.742 376.416 199.039C376.416 201.452 372.393 208.739 360.637 227.691C347.182 249.326 346.78 250.131 346.78 255.629C346.735 259.697 347.763 262.87 350.267 266.58C351.116 267.832 351.608 268.815 351.384 268.815C350.937 268.815 332.968 264.926 323.447 262.781C293.989 256.121 268.734 248.298 250.362 240.207C244.462 237.615 232.974 231.804 226.76 228.272C209.327 218.349 182.597 207.576 155.911 199.664C151.262 198.323 146.3 196.714 144.87 196.133C139.953 194.166 127.079 191.127 116.709 189.473C114.385 189.115 109.87 188.4 106.652 187.908C99.9465 186.836 88.9503 186.433 84.078 187.059C70.668 188.758 62.4432 194.792 60.4317 204.358C59.046 210.929 60.2529 218.662 63.7395 225.68C66.645 231.536 70.8021 236.81 78.8928 244.901C89.2632 255.227 97.8903 262.379 131.684 288.483C151.128 303.503 167.22 316.153 167.22 316.466C167.22 316.555 166.371 316.555 165.298 316.421C162.08 316.063 155.33 315.75 145.317 315.527C140.042 315.393 132.89 315.08 129.449 314.812C123.191 314.32 111.122 314.767 103.523 315.75C100.438 316.153 98.829 316.331 93.018 316.868C85.0614 317.628 75.4062 319.818 69.4164 322.277C57.0345 327.238 51 334.39 51 344.09C51 356.561 59.0013 367.334 75.8532 377.481C87.3858 384.454 99.6336 390.042 140.177 406.715C154.704 412.705 172.584 420.125 179.96 423.254C246.652 451.549 278.702 462.813 311.154 469.25C331.269 473.273 351.652 474.122 365.018 471.53C385.624 467.507 400.196 455.661 410.612 434.429C414.009 427.411 416.512 421.198 420.446 409.486C422.099 404.614 423.53 400.725 423.619 400.814C424.022 401.217 426.033 412.615 426.301 416.102C426.435 418.292 426.659 420.616 426.793 421.242C427.151 423.477 427.24 454.723 426.927 460.802C426.748 464.244 426.435 469.876 426.301 473.318C426.167 476.76 425.81 483.733 425.586 488.873C425.318 493.969 425.05 508.631 424.916 521.504C424.826 534.333 424.647 545.419 424.513 546.179C424.379 546.894 424.156 549.71 424.022 552.437C423.798 556.683 423.44 561.287 422.234 574.787C422.099 576.262 421.876 578.452 421.742 579.704C420.758 588.912 420.267 599.863 420.401 611.888C420.535 623.599 420.714 626.236 421.742 632.897C422.368 637.054 423.083 642.418 423.306 644.742C423.709 648.765 423.619 666.019 423.172 668.433C423.083 669.059 422.859 671.205 422.681 673.216C421.787 684.793 422.144 688.995 424.379 693.465C425.586 695.879 437.923 717.916 438.326 718.408C438.415 718.497 439.13 715.726 439.935 712.284C440.739 708.797 441.544 705.981 441.723 705.981C441.902 705.981 444.628 708.842 447.802 712.329C453.211 718.318 453.524 718.587 453.658 717.335C454.373 709.781 456.831 699.276 460.094 689.666C462.285 683.095 462.329 682.871 462.464 676.926C462.642 669.595 462.508 667.986 459.782 646.307C458.351 635.042 457.591 627.89 457.1 621.945C457.01 620.604 456.787 618.056 456.653 616.358C456.25 611.173 456.34 590.387 456.831 584.174C457.055 580.955 457.412 575.636 457.547 572.328C457.681 569.02 457.904 564.997 457.994 563.388C458.083 561.779 458.306 557.175 458.441 553.107C458.575 549.04 458.798 543.631 458.888 541.038C458.977 538.446 459.2 532.813 459.335 528.522C459.826 512.788 460.005 507.647 460.229 503.714C460.363 501.479 460.541 497.456 460.676 494.774C461.167 485.163 462.329 469.161 462.911 463.26C463.849 454.276 464.162 446.23 464.296 427.053C464.341 413.554 464.609 403.72 464.922 401.798C465.458 398.49 467.693 392.366 468.319 392.456C468.543 392.5 470.867 398.714 473.46 406.312C479.047 422.673 480.612 426.74 484.411 434.429C495.989 458.164 513.019 470.323 537.783 472.603C565.363 475.15 601.615 467.641 651.276 449.135C668.754 442.609 684.444 436.217 715.019 423.254C722.394 420.125 740.319 412.705 754.802 406.715C795.344 390.042 807.592 384.454 819.125 377.481C835.932 367.334 843.978 356.517 843.978 344.09C843.978 334.39 837.944 327.238 825.562 322.277C818.633 319.46 810.23 317.672 797.937 316.421C778.805 314.499 772.726 314.186 765.53 314.812C762.579 315.035 755.249 315.393 749.214 315.527C743.18 315.661 735.938 315.974 733.122 316.197C730.306 316.376 727.937 316.51 727.847 316.421C727.669 316.242 742.509 304.575 763.295 288.483C783.275 273.062 795.568 263.317 803.301 256.791C810.855 250.444 822.567 238.643 826.232 233.726C832.088 225.903 835.038 218.126 835.038 210.661C835.038 203.33 833.339 198.726 829.182 194.613C825.159 190.68 818.946 188.087 810.9 187.059C806.028 186.433 795.032 186.836 788.327 187.908C785.153 188.4 780.593 189.115 778.269 189.473C767.899 191.127 755.025 194.166 750.108 196.133C748.678 196.714 743.716 198.323 739.067 199.664C712.381 207.576 685.651 218.349 668.218 228.272C637.956 245.482 608.096 255.316 547.304 268.1C543.281 268.905 540.018 269.575 540.018 269.486C540.018 269.441 540.331 268.637 540.689 267.787C541.627 265.463 541.538 260.814 540.465 257.596C539.437 254.645 537.783 251.606 523.792 227.155C509.175 201.676 506.806 197.742 506.225 197.742C504.973 197.742 505.197 198.86 507.208 202.346C508.37 204.358 510.74 208.426 512.438 211.376C519.188 223.043 532.866 246.957 535.459 251.606C539.348 258.668 540.286 262.513 539.079 266.536C538.096 269.888 537.917 269.978 527.502 272.391C519.098 274.358 499.743 279.409 497.285 280.259C496.838 280.437 498.76 278.918 501.576 276.861C511.902 269.486 516.282 265.195 518.383 260.546C520.574 255.674 520.082 251.963 515.835 241.235C512.081 231.67 510.561 228.943 499.609 212.583C490.982 199.709 485.395 190.054 483.785 185.316C483.294 183.885 482.176 183.394 481.774 184.466C481.506 185.182 484.188 191.44 487.049 196.625C488.255 198.815 493.441 206.995 498.626 214.728C508.996 230.195 510.293 232.43 513.556 240.654C516.64 248.432 517.668 251.963 517.668 254.914C517.668 260.233 513.6 265.508 504.169 272.525C494.424 279.767 487.138 284.103 486.333 283.209C486.199 283.03 485.618 281.689 485.037 280.214C483.428 276.101 481.282 271.944 479.047 268.681L476.991 265.686L478.6 265.016C483.294 263.094 488.702 257.73 490.803 252.992C494.022 245.661 493.262 235.246 488.747 225.993C486.78 222.014 482.042 216.829 478.779 215.175C474.264 212.896 472.074 212.359 466.397 212.27L460.944 212.136L459.513 210.482C457.815 208.56 455.177 207.174 450.618 205.699C445.925 204.268 437.342 204.224 433.453 205.654C430.19 206.906 428.089 208.47 426.838 210.661L425.854 212.359L421.161 212.672C407.661 213.521 397.291 219.109 393.179 227.736C389.692 235.067 389.424 242.621 392.374 250.041C395.011 256.657 399.392 261.574 405.113 264.256C407.036 265.15 408.511 265.999 408.466 266.133C406.32 271.229 404.264 275.52 403.951 275.52C403.37 275.52 394.251 269.396 388.709 265.284C378.159 257.462 371.678 250.935 368.594 245.035C366.359 240.788 365.912 236.453 367.476 233.324C369.666 228.764 377.131 218.483 391.078 200.737C402.834 185.807 406.812 179.907 406.812 177.538C406.812 176.331 405.56 175.437 405.248 176.42ZM99.723 189.07C102.539 189.294 102.941 189.428 102.182 189.875C101.69 190.143 100.572 191.082 99.6783 191.931C94.806 196.625 97.4433 202.793 105.445 205.386C108.127 206.28 109.646 206.414 119.615 206.593C125.783 206.682 130.968 206.951 131.237 207.174C131.46 207.398 132.131 207.576 132.801 207.576C133.874 207.576 144.065 209.364 144.334 209.588C144.557 209.811 142.59 216.695 142.233 217.097C142.054 217.276 138.88 217.142 135.215 216.785C131.549 216.427 125.738 215.98 122.341 215.801C115.279 215.488 114.653 215.265 103.433 209.677C93.1074 204.492 84.8826 198.815 80.6361 193.898C77.4177 190.188 77.4177 190.277 80.3679 189.652C85.3296 188.624 91.8111 188.445 99.723 189.07ZM814.61 189.652C817.56 190.277 817.56 190.188 814.342 193.898C810.095 198.815 801.871 204.492 791.545 209.677C779.878 215.533 780.146 215.444 769.776 216.025C764.725 216.338 759.227 216.74 757.484 216.963C752.254 217.634 752.701 217.902 751.538 213.566C750.957 211.421 750.555 209.633 750.644 209.588C750.913 209.364 761.149 207.576 762.177 207.576C762.848 207.576 763.518 207.398 763.742 207.174C764.01 206.951 769.24 206.682 775.364 206.593C785.332 206.414 786.851 206.28 789.533 205.386C795.434 203.464 798.742 199.441 797.535 195.552C796.864 193.317 795.166 191.261 793.065 190.188L791.456 189.339L795.255 189.07C797.356 188.936 799.859 188.758 800.843 188.668C803.748 188.534 811.794 189.07 814.61 189.652ZM77.1495 192.87C79.2504 195.82 85.2402 201.184 90.2913 204.492C95.2083 207.755 105.132 212.94 111.971 215.891L115.994 217.589L112.865 218.215C111.166 218.528 109.602 218.841 109.334 218.885C109.11 218.93 107.277 218.17 105.311 217.232C95.0295 212.315 79.7868 206.906 69.9975 204.671C67.0473 204 64.1865 203.33 63.6054 203.151L62.622 202.883L63.7842 200.514C65.3487 197.385 68.6565 194.211 72.0984 192.468C73.6629 191.708 75.138 191.037 75.4062 191.037C75.6744 191.037 76.479 191.842 77.1495 192.87ZM822.79 192.423C826.322 194.166 829.629 197.34 831.194 200.514L832.356 202.883L831.373 203.151C830.792 203.33 827.931 204 824.981 204.671C815.191 206.906 799.949 212.315 789.668 217.232C787.701 218.17 785.913 218.93 785.645 218.885C785.421 218.841 783.812 218.528 782.113 218.215L778.984 217.589L783.007 215.891C789.846 212.94 799.77 207.755 804.687 204.492C809.738 201.184 815.728 195.82 817.829 192.87C818.499 191.842 819.259 191.037 819.527 191.037C819.751 191.037 821.226 191.663 822.79 192.423ZM161.901 203.553C186.977 211.331 207.897 220.048 226.895 230.597C257.916 247.851 286.524 257.149 348.791 270.335C353.843 271.408 354.155 271.542 357.061 273.866C365.062 280.259 373.376 284.371 390.854 290.495C393.491 291.434 395.592 292.238 395.548 292.283C395.458 292.328 393.715 292.193 391.659 292.015C389.558 291.836 386.027 291.568 383.836 291.389C381.601 291.255 378.875 291.031 377.757 290.942C376.64 290.852 373.019 290.54 369.711 290.271C331.046 287.276 306.773 281.376 274.858 267.206C264.174 262.468 238.338 249.907 223.989 242.487C202.22 231.223 181.077 220.808 172.584 217.232C163.242 213.253 150.77 209.007 144.2 207.621C141.741 207.085 139.014 206.459 138.165 206.28L136.601 205.922L138.836 205.609C144.915 204.716 150.681 202.481 150.681 201.05C150.681 200.693 150.949 200.424 151.262 200.424C151.62 200.424 156.358 201.81 161.901 203.553ZM744.297 201.05C744.297 202.481 750.063 204.716 756.143 205.609L758.378 205.922L756.813 206.28C755.964 206.459 753.237 207.085 750.779 207.621C744.208 209.007 731.736 213.253 722.394 217.232C713.901 220.808 692.758 231.223 670.989 242.487C656.64 249.907 630.804 262.468 620.12 267.206C588.16 281.376 564.335 287.187 525.491 290.271C522.317 290.54 518.562 290.808 517.221 290.942C515.88 291.031 513.064 291.255 510.963 291.389C507.164 291.657 499.788 292.283 495.542 292.73C493.977 292.909 495.542 292.283 500.906 290.584C511.008 287.455 517.623 284.952 524.239 281.778C530.408 278.828 532.955 277.174 536.263 274.09C538.543 271.944 538.588 271.944 544.98 270.603C608.856 257.059 636.436 248.119 668.084 230.597C683.058 222.283 699.374 215.086 718.371 208.336C725.121 205.967 742.509 200.469 743.537 200.469C743.939 200.424 744.297 200.693 744.297 201.05ZM72.7242 207.308C80.9043 209.364 91.8111 213.298 102.137 217.902L106.383 219.824L104.238 221.031C103.031 221.746 101.645 222.864 101.153 223.534C100.081 225.009 99.1866 228.228 99.4995 229.122C99.723 229.703 98.4267 229.837 90.9171 230.06C86.0448 230.195 79.2951 230.642 75.8979 231.044C68.7459 231.938 69.774 232.385 66.4215 226.574C62.8902 220.361 61.1022 212.538 61.9068 207.04L62.2197 204.984L65.2593 205.565C66.9132 205.878 70.2657 206.682 72.7242 207.308ZM833.116 211.823C832.803 216.829 831.283 221.791 828.557 226.574C825.204 232.385 826.232 231.938 819.08 231.044C815.683 230.642 808.933 230.195 804.061 230.06C796.551 229.837 795.255 229.703 795.479 229.122C795.791 228.228 794.897 225.009 793.825 223.534C793.333 222.864 791.947 221.746 790.74 221.031L788.595 219.824L792.841 217.902C806.251 211.912 819.527 207.487 829.674 205.609L832.58 205.073L832.982 206.414C833.161 207.174 833.25 209.588 833.116 211.823ZM152.648 211.868C158.101 213.477 173.255 219.288 174.551 220.226C175.177 220.718 175.177 221.12 174.283 224.339C173.746 226.306 173.255 227.96 173.21 228.049C173.165 228.138 171.735 227.513 170.081 226.663C164.627 223.937 156.537 220.942 150.636 219.422C147.463 218.662 144.736 217.857 144.602 217.723C144.2 217.321 146.256 210.258 146.792 210.258C147.016 210.258 149.698 210.974 152.648 211.868ZM749.661 213.879C750.197 215.846 750.51 217.589 750.376 217.723C750.242 217.857 747.515 218.662 744.342 219.422C738.441 220.942 730.351 223.937 724.897 226.663C723.243 227.513 721.813 228.138 721.768 228.049C721.724 227.96 721.232 226.306 720.695 224.339C719.801 221.12 719.801 220.718 720.427 220.226C722.528 218.662 745.325 210.437 747.918 210.303C748.499 210.258 748.901 211.152 749.661 213.879ZM130.834 218.304C142.635 219.198 152.156 221.21 160.604 224.562C163.152 225.59 165.343 226.529 165.521 226.708C165.7 226.887 165.477 230.239 164.985 234.173C164.538 238.106 164.002 242.532 163.823 244.007C163.689 245.482 163.51 246.734 163.465 246.778C163.331 246.912 156.358 245.616 156.269 245.437C154.838 241.504 151.217 236.318 147.463 232.832C141.92 227.602 131.013 221.031 124.621 218.93C121.492 217.947 121.447 217.902 123.235 217.857C124.263 217.857 127.661 218.081 130.834 218.304ZM770.357 218.93C763.965 221.031 753.058 227.602 747.515 232.832C743.761 236.318 740.14 241.504 738.71 245.437C738.62 245.616 731.647 246.912 731.513 246.778C731.468 246.734 731.289 245.482 731.155 244.007C730.976 242.532 730.44 238.106 729.993 234.173C729.501 230.239 729.278 226.887 729.457 226.708C730.217 225.948 739.38 222.64 743.984 221.478C751.851 219.422 762.311 218.081 770.67 217.947L773.576 217.902L770.357 218.93ZM179.781 222.506C182.195 223.579 193.951 229.345 197.482 231.178L199.315 232.161L198.197 236.497C197.527 238.911 196.946 240.967 196.901 241.057C196.811 241.146 192.878 239 188.14 236.274C183.401 233.592 178.484 230.865 177.188 230.195L174.908 229.077L175.534 226.931C175.892 225.769 176.384 224.026 176.652 223.087C176.875 222.193 177.143 221.433 177.233 221.433C177.322 221.433 178.484 221.925 179.781 222.506ZM718.326 223.087C718.595 224.026 719.086 225.769 719.444 226.931L720.07 229.077L717.79 230.195C716.494 230.865 711.577 233.592 706.838 236.274C702.1 239 698.167 241.146 698.077 241.057C698.033 240.967 697.451 238.911 696.781 236.497L695.663 232.117L699.284 230.284C704.693 227.513 717.209 221.478 717.566 221.433C717.745 221.433 718.103 222.193 718.326 223.087ZM173.88 230.642C180.317 234.039 185.592 237.034 196.856 243.694L204.768 248.343L201.818 254.02C200.164 257.149 198.599 260.054 198.287 260.501C197.75 261.216 197.124 260.993 190.598 257.73C182.06 253.439 176.071 250.846 170.26 248.969C167.846 248.164 165.79 247.404 165.656 247.27C165.521 247.136 165.924 242.889 166.55 237.838C167.175 232.832 167.667 228.451 167.667 228.183C167.667 227.915 167.801 227.691 167.98 227.691C168.114 227.691 170.796 229.032 173.88 230.642ZM727.311 228.138C727.311 228.407 727.803 232.742 728.473 237.794C729.099 242.889 729.457 247.136 729.323 247.27C729.188 247.404 727.132 248.164 724.718 248.969C718.907 250.846 712.918 253.439 704.335 257.73C697.764 261.038 697.183 261.216 696.736 260.456C696.468 260.009 694.904 257.104 693.205 254.02L690.21 248.343L695.44 245.214C708.984 237.212 726.059 227.691 726.998 227.691C727.177 227.691 727.311 227.915 727.311 228.138ZM98.1585 231.983C99.9465 232.251 100.259 232.474 100.841 233.815C101.824 236.14 105.087 240.52 107.948 243.336L110.451 245.75L103.612 248.03C99.9018 249.281 95.3424 250.935 93.5544 251.695L90.2913 253.081L85.2849 248.522C80.2785 243.917 75.0039 238.509 72.5007 235.335L71.1597 233.636L75.7191 233.1C78.2223 232.787 81.9771 232.43 84.078 232.295C86.1789 232.161 87.9222 232.027 87.9669 231.983C88.3245 231.714 96.4599 231.714 98.1585 231.983ZM812.688 232.385C813.314 232.474 816.085 232.787 818.812 233.1L823.863 233.636L822.522 235.335C819.974 238.464 814.7 243.917 809.693 248.477L804.687 253.081L799.859 251.114C797.222 250.041 792.662 248.432 789.802 247.493L784.572 245.84L787.611 242.666C790.562 239.626 793.512 235.559 794.361 233.324C794.629 232.608 795.21 232.161 796.015 232.027C797.356 231.759 810.855 232.072 812.688 232.385ZM224.391 244.99C224.704 245.258 222.514 256.299 222.156 256.299C221.843 256.299 199.538 243.068 198.868 242.487C198.599 242.264 199.851 237.123 201.013 233.592C201.147 233.189 204.723 234.799 212.68 238.911C219.027 242.174 224.302 244.901 224.391 244.99ZM695.172 237.883C695.842 240.252 696.289 242.353 696.11 242.487C695.485 243.068 673.135 256.299 672.822 256.299C672.285 256.299 670.274 244.99 670.766 244.811C671.034 244.722 676.219 242.04 682.388 238.866C688.511 235.693 693.652 233.189 693.741 233.324C693.875 233.458 694.501 235.514 695.172 237.883ZM238.427 251.963C247.591 256.523 249.915 257.864 249.736 258.445C249.602 258.892 248.798 261.842 247.859 265.105L246.25 270.961L240.841 267.743C224.794 258.266 224.436 258.043 224.436 257.059C224.436 255.584 226.403 245.974 226.671 246.108C226.805 246.197 232.08 248.834 238.427 251.963ZM669.559 251.069C670.095 253.841 670.542 256.568 670.542 257.059C670.542 258.043 670.184 258.266 654.137 267.743L648.728 270.961L647.075 265.061C646.181 261.842 645.421 258.847 645.376 258.4C645.287 257.819 647.969 256.255 656.685 251.874C662.943 248.745 668.173 246.108 668.307 246.063C668.441 246.063 669.022 248.298 669.559 251.069ZM115.502 249.773C124.129 256.21 133.919 260.367 142.188 261.038C145.585 261.35 145.585 261.35 146.613 263.094C147.15 264.077 147.552 264.926 147.463 265.016C147.373 265.105 145.272 265.239 142.769 265.284C132.801 265.463 126.23 267.474 117.111 273.151C115.949 273.866 115.949 273.866 107.277 266.983C102.539 263.183 97.1304 258.847 95.3424 257.283L92.0346 254.511L94.6272 253.349C97.041 252.276 111.122 247.449 111.926 247.359C112.105 247.359 113.714 248.432 115.502 249.773ZM790.427 249.773C794.45 251.114 798.876 252.723 800.351 253.349L802.943 254.511L799.636 257.283C797.848 258.847 792.439 263.183 787.701 266.983C779.029 273.866 779.029 273.866 777.867 273.151C768.748 267.474 762.177 265.463 752.209 265.284C749.706 265.239 747.605 265.105 747.515 265.016C747.426 264.926 747.828 264.077 748.365 263.094C749.393 261.35 749.393 261.35 752.79 261.038C761.06 260.367 771.072 256.121 779.387 249.818C781.13 248.477 782.65 247.404 782.828 247.404C783.007 247.359 786.449 248.432 790.427 249.773ZM161.32 248.522C175.892 251.516 193.057 260.054 231.23 283.164C238.159 287.411 247.457 292.998 251.792 295.591L259.704 300.284L261.582 304.575C262.565 306.9 264.8 311.504 266.454 314.767C269.896 321.472 270.164 321.159 263.549 318.566C249.468 312.979 224.168 298.988 212.769 290.405C210.445 288.662 204.947 284.103 200.522 280.214C191.269 272.123 185.905 267.877 180.854 264.569C174.283 260.233 166.639 256.88 159.8 255.227L156.581 254.422L156.984 252.813C157.163 251.919 157.252 250.399 157.073 249.46C156.76 247.538 156.671 247.538 161.32 248.522ZM737.905 249.46C737.726 250.399 737.816 251.919 737.994 252.813L738.397 254.422L735.178 255.227C728.339 256.88 720.695 260.233 714.125 264.569C709.073 267.877 703.709 272.123 694.457 280.214C681.941 291.165 674.923 296.082 659.144 304.933C648.103 311.102 631.832 318.835 626.468 320.399C625.619 320.667 625.931 319.863 628.524 314.767C630.178 311.504 632.413 306.9 633.396 304.575L635.274 300.284L642.515 295.993C646.493 293.624 655.299 288.305 662.049 284.192C701.43 260.278 718.595 251.695 733.569 248.522C738.128 247.538 738.218 247.538 737.905 249.46ZM209.685 251.293C213.082 253.304 233.555 265.731 233.734 265.91C233.823 265.999 231.767 268.458 229.13 271.408L224.391 276.772L218.267 273.107C214.915 271.095 209.372 267.877 205.975 265.954C202.578 263.988 199.851 262.2 199.94 261.887C200.164 261.038 206.288 249.639 206.556 249.594C206.69 249.594 208.076 250.354 209.685 251.293ZM691.775 255.495C693.518 258.713 694.948 261.574 695.038 261.887C695.127 262.2 692.4 263.988 689.003 265.954C685.606 267.877 680.063 271.095 676.711 273.107L670.587 276.772L665.849 271.408C663.211 268.458 661.155 265.999 661.244 265.91C661.915 265.284 688.109 249.594 688.422 249.594C688.556 249.594 690.076 252.232 691.775 255.495ZM162.303 257.953C167.265 259.339 176.875 263.988 177.188 265.061C178.663 270.29 178.261 278.202 176.115 285.488L175.221 288.483L171.288 285.801C169.097 284.326 166.639 282.404 165.745 281.555C164.851 280.706 163.957 279.99 163.733 279.99C163.152 279.99 154.659 271.14 152.38 268.145C151.262 266.67 149.742 264.479 148.982 263.228L147.597 261.038L150.145 260.233C151.843 259.741 153.229 258.892 154.257 257.864C156 256.076 155.732 256.076 162.303 257.953ZM740.945 258.043C742.151 259.16 743.582 259.965 745.102 260.322L747.381 260.948L746.443 262.513C744.297 266.133 740.319 271.095 736.072 275.386C733.614 277.934 731.423 279.99 731.245 279.99C731.021 279.99 730.127 280.706 729.233 281.555C728.339 282.404 725.881 284.326 723.69 285.801L719.757 288.483L718.818 285.354C717.388 280.571 716.762 275.207 717.075 270.514C717.209 268.234 717.477 265.91 717.656 265.329C718.013 264.301 723.109 261.44 728.339 259.384C730.127 258.668 737.681 256.478 738.888 256.299C738.978 256.299 739.916 257.059 740.945 258.043ZM271.282 267.653C272.623 268.1 272.578 268.1 268.376 275.207C265.784 279.588 264.8 280.884 264.264 280.661C263.012 280.214 250.004 273.151 249.021 272.391L248.082 271.676L249.692 265.865C250.586 262.691 251.39 259.786 251.524 259.339C251.703 258.758 253.268 259.339 261.001 262.96C266.096 265.373 270.745 267.474 271.282 267.653ZM645.108 265.284L646.896 271.676L645.957 272.391C644.974 273.151 631.966 280.214 630.714 280.661C630.133 280.884 629.195 279.588 626.602 275.163C624.725 271.989 623.071 269.128 622.937 268.771C622.758 268.324 623.786 267.653 626.155 266.58C628.077 265.731 632.681 263.63 636.347 261.842C640.057 260.099 643.096 258.713 643.186 258.758C643.275 258.847 644.124 261.753 645.108 265.284ZM185.324 270.112C189.972 273.598 197.974 280.482 198.287 281.287C199.359 283.835 198.868 298.094 197.661 300.061C197.393 300.463 196.007 299.971 192.207 298.094C186.665 295.322 177.054 289.869 177.054 289.556C177.054 289.422 177.546 287.589 178.172 285.444C179.647 280.214 180.317 274.313 179.96 269.754L179.647 265.999L181.122 267.072C181.971 267.608 183.848 268.994 185.324 270.112ZM715.019 269.799C714.661 274.313 715.331 280.214 716.807 285.444C717.432 287.589 717.924 289.422 717.924 289.556C717.924 289.869 708.314 295.322 702.771 298.094C698.971 299.971 697.586 300.463 697.317 300.061C696.11 298.094 695.619 283.835 696.692 281.242C697.183 280.035 714.125 266.178 715.153 266.133C715.242 266.133 715.197 267.787 715.019 269.799ZM149.564 267.608C150.055 268.592 153.587 272.704 157.028 276.191L161.409 280.706L156.805 282.181C151.083 284.058 145.272 286.561 141.205 288.93C139.506 289.914 137.852 290.584 137.584 290.405C137.048 290.092 134.053 287.858 123.95 280.035C117.022 274.716 117.067 275.029 122.922 271.989C129.449 268.592 137.807 266.893 145.764 267.296C147.82 267.43 149.564 267.564 149.564 267.608ZM245.981 273.017C254.743 278.023 265.337 283.611 273.159 287.321C276.243 288.796 278.791 290.048 278.881 290.048C278.925 290.092 277.048 293.311 274.679 297.155L270.388 304.173L267.84 302.743C261.179 299.033 226.269 277.934 226.358 277.666C226.403 277.487 228.504 275.029 231.052 272.168L235.656 266.983L237.086 267.877C237.891 268.324 241.869 270.648 245.981 273.017ZM666.251 274.76C667.681 276.414 668.799 277.845 668.709 277.934C667.815 278.649 628.166 302.251 625.574 303.592C624.635 304.084 624.322 303.681 620.255 297.11C616.991 291.836 616.097 290.048 616.544 289.78C616.857 289.556 617.304 289.377 617.483 289.377C617.93 289.377 633.754 281.465 638.984 278.649C641.219 277.442 646.672 274.313 651.098 271.766L659.144 267.072L661.379 269.396C662.63 270.693 664.82 273.107 666.251 274.76ZM756.008 267.474C761.864 268.055 767.496 269.62 772.056 271.989C777.911 275.029 777.956 274.716 771.028 280.035C760.925 287.858 757.931 290.092 757.394 290.405C757.126 290.584 755.472 289.914 753.773 288.93C749.706 286.561 743.895 284.058 738.173 282.181L733.614 280.706L738.397 275.744C741.034 273.017 743.671 270.067 744.297 269.173C745.28 267.698 745.638 267.519 747.65 267.34C748.856 267.251 750.197 267.161 750.555 267.117C750.913 267.072 753.371 267.251 756.008 267.474ZM280.177 271.676C283.351 272.972 288.178 274.939 290.994 276.012C296.001 277.934 296.09 277.979 297.029 279.99C297.699 281.465 297.968 282.941 297.968 285.354C297.968 288.215 297.789 289.02 296.761 290.763C294.883 293.981 294.481 294.16 291.799 293.221C285.764 291.076 266.901 282.538 266.901 281.912C266.901 281.734 267.661 280.303 268.644 278.694C269.583 277.085 271.192 274.269 272.22 272.481C273.248 270.737 274.187 269.262 274.277 269.262C274.411 269.262 277.048 270.335 280.177 271.676ZM624.546 275.52C626.468 278.828 628.077 281.689 628.077 281.912C628.077 282.538 609.392 291.031 603.179 293.221C600.497 294.16 600.095 293.981 598.217 290.763C597.189 289.02 597.011 288.215 597.011 285.354C597.011 282.941 597.279 281.465 597.949 279.99C598.888 277.934 598.888 277.934 604.654 275.744C607.828 274.537 612.656 272.615 615.338 271.408C618.064 270.246 620.433 269.352 620.657 269.396C620.836 269.486 622.624 272.213 624.546 275.52ZM369.398 274.85C378.383 276.995 400.912 282.985 401.403 283.388C401.537 283.477 399.258 290.763 398.945 291.076C398.543 291.568 377.31 283.566 371.767 280.84C366.716 278.336 358.536 273.241 358.536 272.57C358.536 272.257 358.67 272.302 369.398 274.85ZM534.431 273.285C533.894 274.135 529.022 277.219 524.999 279.23C517.4 283.075 507.745 286.651 496.436 289.869C492.994 290.852 489.865 291.746 489.462 291.836C488.926 292.015 488.568 291.434 487.987 289.333C487.093 286.159 487.272 285.846 490.312 284.55C493.128 283.343 511.499 278.247 523.703 275.297C534.296 272.704 534.833 272.615 534.431 273.285ZM308.249 281.734C312.45 282.985 316.652 284.192 317.68 284.46C319.96 284.997 320.586 286.204 320.854 290.495C321.077 293.981 320.094 297.513 318.217 299.748L317.189 300.955L311.243 299.435C306.371 298.183 296.984 295.367 296.492 294.965C296.448 294.92 297.074 293.713 297.923 292.283C298.817 290.897 299.621 288.841 299.8 287.723C300.113 285.667 299.845 281.868 299.264 280.035C298.996 279.096 299.085 279.007 299.8 279.186C300.247 279.32 304.091 280.482 308.249 281.734ZM595.67 280.08C595.178 281.689 594.865 286.517 595.178 288.17C595.312 289.02 596.161 290.852 597.011 292.283C597.905 293.713 598.53 294.92 598.486 294.965C597.994 295.367 588.607 298.183 583.735 299.435L577.79 300.955L576.761 299.748C573.901 296.306 573.096 288.796 575.242 285.488C575.42 285.176 578.102 284.237 581.187 283.388C584.226 282.538 588.562 281.242 590.753 280.527C595.804 278.828 596.072 278.828 595.67 280.08ZM165.164 283.7C167.846 285.891 172.316 288.975 176.696 291.746L180.541 294.16L177.367 295.412C172.986 297.066 166.862 300.418 166.326 301.402C166.103 301.849 164.091 303.19 161.901 304.307L157.878 306.363L148.938 299.39C143.976 295.501 139.953 292.238 139.953 292.059C139.953 291.612 147.284 287.858 151.352 286.204C154.123 285.086 162.169 282.404 163.152 282.27C163.242 282.225 164.136 282.896 165.164 283.7ZM735.581 283.388C741.347 284.997 755.025 291.121 755.025 292.059C755.025 292.238 751.002 295.501 746.04 299.39L737.1 306.363L733.077 304.307C730.887 303.19 728.876 301.849 728.652 301.402C728.116 300.418 721.992 297.066 717.611 295.412L714.437 294.16L718.192 291.791C722.26 289.243 728.071 285.176 730.217 283.388C730.976 282.762 731.87 282.359 732.228 282.449C732.586 282.538 734.105 282.941 735.581 283.388ZM212.501 292.685C216.524 295.635 216.569 295.68 217.686 299.077C218.67 301.983 219.072 309.939 218.223 309.939C217.686 309.939 200.209 301.983 199.806 301.58C199.628 301.357 199.806 299.927 200.164 298.317C200.656 296.44 200.924 293.266 200.924 289.333L200.969 283.253L205.126 286.785C207.405 288.707 210.713 291.344 212.501 292.685ZM694.054 289.243C694.054 293.266 694.322 296.44 694.814 298.317C695.172 299.927 695.351 301.357 695.172 301.58C694.769 301.983 677.292 309.939 676.755 309.939C676.532 309.939 676.353 308.107 676.353 305.916C676.353 301.938 677.426 297.245 678.722 295.725C678.99 295.412 681.002 293.758 683.237 292.059C686.232 289.824 693.965 283.388 694.01 283.119C694.01 283.119 694.054 285.891 694.054 289.243ZM336.186 288.26C339.986 288.886 343.606 289.511 344.187 289.646C345.215 289.869 345.215 290.003 345.037 292.998C344.858 295.501 344.411 296.887 342.936 299.927L341.058 303.681H338.734C336.007 303.681 325.905 302.564 322.24 301.849L319.692 301.357L320.943 298.809C322.955 294.831 323.447 291.568 322.553 287.768L322.016 285.488L325.637 286.293C327.648 286.74 332.387 287.589 336.186 288.26ZM572.426 287.723C571.532 291.568 572.023 294.831 573.99 298.809L575.286 301.357L572.738 301.849C569.073 302.564 558.971 303.681 556.244 303.681H553.92L552.042 299.927C550.567 296.887 550.12 295.501 549.941 292.998C549.763 290.003 549.763 289.869 550.791 289.646C551.372 289.511 555.484 288.796 559.91 288.036C566.302 286.919 572.56 285.667 572.917 285.399C572.962 285.354 572.738 286.427 572.426 287.723ZM353.396 290.718C359.877 291.434 366.537 292.015 375.299 292.685C394.385 294.16 397.514 294.518 397.738 294.965C397.827 295.278 397.649 296.574 397.291 297.915L396.71 300.329L394.475 300.463C393.268 300.508 386.563 301.178 379.545 301.893C361.665 303.771 343.338 304.754 343.338 303.905C343.338 303.771 343.919 302.519 344.634 301.089C346.288 297.781 346.959 295.233 346.959 292.238C346.959 289.914 347.003 289.869 348.166 290.048C348.836 290.182 351.205 290.45 353.396 290.718ZM548.019 292.238C548.019 295.233 548.69 297.781 550.344 301.089C551.059 302.519 551.64 303.771 551.64 303.905C551.64 304.441 532.553 303.815 525.938 303.011C516.014 301.849 501.934 300.552 496.883 300.284C493.441 300.15 490.49 299.882 490.356 299.703C490.178 299.569 489.909 298.496 489.775 297.379L489.462 295.322L492.502 295.01C496.838 294.607 515.478 292.998 519.456 292.73C522.674 292.506 529.29 291.925 535.548 291.344C537.872 291.121 546.321 290.092 547.706 289.869C547.885 289.869 548.019 290.897 548.019 292.238ZM287.597 293.669C291.084 295.054 296.582 297.066 299.756 298.094C303.466 299.301 305.567 300.195 305.567 300.597C305.567 301.893 301.097 317.538 300.739 317.538C298.772 317.538 272.265 305.872 272.265 305.022C272.265 304.888 273.338 303.056 274.634 300.955C275.93 298.898 277.763 295.859 278.747 294.205C279.73 292.551 280.713 291.165 280.892 291.165C281.116 291.165 284.111 292.283 287.597 293.669ZM616.232 294.205C617.215 295.859 619.048 298.898 620.344 300.955C621.64 303.056 622.713 304.888 622.713 305.022C622.713 305.872 596.206 317.538 594.239 317.538C593.882 317.538 589.412 301.893 589.412 300.597C589.412 300.239 591.825 299.211 595.893 297.87C599.469 296.663 604.788 294.697 607.739 293.49C610.689 292.283 613.415 291.255 613.773 291.21C614.175 291.21 615.203 292.462 616.232 294.205ZM192.431 300.284C197.616 302.832 205.573 306.587 210.132 308.598C218.402 312.264 219.921 313.068 218.536 313.068C217.061 313.068 208.121 316.242 203.919 318.254C199.806 320.176 199.493 320.265 196.811 319.997C194.129 319.729 193.682 319.46 181.613 311.414C174.819 306.855 168.963 302.877 168.65 302.609C168.203 302.206 168.874 301.67 171.69 300.15C174.864 298.451 181.524 295.725 182.597 295.635C182.82 295.635 187.246 297.736 192.431 300.284ZM715.778 296.798C717.566 297.423 720.785 298.898 722.975 300.016C726.059 301.625 726.775 302.161 726.328 302.609C726.015 302.877 720.159 306.855 713.365 311.414C701.162 319.55 700.893 319.729 698.033 319.997C695.306 320.31 694.904 320.22 692.534 318.969C689.048 317.136 685.919 315.884 680.376 314.141L675.683 312.711L678.365 311.504C690.299 306.185 698.167 302.519 704.291 299.39C708.224 297.379 711.666 295.725 711.979 295.68C712.247 295.68 713.99 296.172 715.778 296.798ZM226.984 302.072C230.426 304.084 230.783 304.397 231.99 306.944C232.706 308.464 233.51 310.923 233.778 312.353C234.27 315.125 234.449 318.432 234.047 318.432C233.912 318.432 231.767 317.225 229.219 315.795C226.716 314.365 223.676 312.711 222.514 312.13L220.368 311.057L220.637 307.928C220.905 305.112 220.637 302.206 219.698 298.586L219.385 297.289L221.352 298.63C222.425 299.39 224.972 300.91 226.984 302.072ZM674.744 301.044C674.252 303.324 674.118 305.38 674.342 307.704L674.61 311.102L672.464 312.13C671.302 312.711 668.262 314.365 665.759 315.795C663.211 317.225 661.066 318.432 660.932 318.432C660.529 318.432 660.708 315.125 661.2 312.353C661.468 310.923 662.273 308.464 662.988 306.989C664.195 304.397 664.508 304.128 668.173 301.983C670.363 300.731 672.822 299.211 673.671 298.63C674.52 298.004 675.28 297.557 675.325 297.602C675.414 297.647 675.146 299.211 674.744 301.044ZM313.613 302.072C318.619 303.324 328.006 304.844 334.398 305.425C343.338 306.229 364.168 305.872 370.694 304.799L371.857 304.62L371.633 310.52C371.499 313.784 371.231 316.823 371.052 317.315C370.516 318.79 358.357 321.785 348.389 322.902C341.148 323.707 329.526 323.483 322.106 322.411C316.071 321.561 303.823 318.835 303.197 318.254C303.063 318.119 304.047 314.052 305.343 309.269C307.265 302.206 307.891 300.597 308.427 300.731C308.83 300.865 311.154 301.446 313.613 302.072ZM589.635 309.269C590.931 314.052 591.915 318.119 591.781 318.254C591.155 318.835 578.907 321.561 572.873 322.411C562.368 323.93 549.494 323.707 538.677 321.74C534.252 320.936 524.82 318.477 524.105 317.896C523.837 317.717 523.568 315.929 523.524 313.828C523.479 311.817 523.345 308.867 523.211 307.347C522.987 304.754 523.032 304.531 523.792 304.709C526.25 305.425 541.136 306.006 550.433 305.782C563.128 305.469 573.007 304.218 582.483 301.759C584.807 301.133 586.864 300.642 586.998 300.597C587.132 300.552 588.294 304.486 589.635 309.269ZM513.109 303.637C517.355 304.084 520.931 304.575 521.021 304.665C521.065 304.709 521.289 307.57 521.468 310.923C521.691 315.259 521.646 317.091 521.289 317.091C520.484 317.091 511.946 313.784 505.823 311.057C502.649 309.626 498 307.704 495.542 306.81C491.966 305.425 491.027 304.888 490.937 304.128C490.625 302.117 490.803 302.117 498.268 302.43C502.202 302.609 508.862 303.145 513.109 303.637ZM269.136 305.648C274.724 308.732 274.724 308.732 276.735 312.085C277.853 313.918 279.909 317.002 281.339 318.924C282.725 320.891 283.887 322.679 283.887 322.947C283.887 323.662 278.121 329.16 277.361 329.16C276.512 329.16 272.086 321.517 267.08 311.459C264.755 306.81 262.878 302.787 262.878 302.609C262.878 302.161 262.565 302.027 269.136 305.648ZM395.861 305.29C395.548 306.9 395.235 308.285 395.101 308.375C394.341 309.135 374.807 317.091 373.689 317.091C373.332 317.091 373.287 315.259 373.511 310.923C373.689 307.57 373.913 304.709 373.958 304.62C374.226 304.397 390.72 302.609 394.788 302.43L396.397 302.34L395.861 305.29ZM632.1 302.653C632.1 302.832 630.223 306.81 627.898 311.459C622.892 321.517 618.467 329.16 617.617 329.16C616.813 329.16 611.091 323.662 611.091 322.858C611.091 322.545 611.449 321.874 611.94 321.383C612.924 320.265 617.662 313.158 619.137 310.61C619.986 309.09 621.104 308.241 625.797 305.603C631.564 302.385 632.1 302.117 632.1 302.653ZM246.518 313.024C248.663 314.856 257.559 330.144 256.888 330.814C256.799 330.904 255.413 330.859 253.804 330.68C250.988 330.412 250.586 330.188 246.071 326.881C243.434 324.958 240.126 322.589 238.695 321.695L236.058 319.997V316.331C236.058 313.962 235.745 311.727 235.164 309.85C234.672 308.33 234.27 306.9 234.27 306.721C234.27 306.319 245.311 312.04 246.518 313.024ZM659.859 309.716C659.233 311.683 658.92 313.962 658.92 316.376V319.997L656.283 321.695C654.852 322.589 651.545 324.958 648.907 326.881C644.393 330.188 643.99 330.412 641.174 330.68C639.565 330.859 638.179 330.904 638.045 330.814C637.688 330.412 643.409 319.818 645.868 316.421C648.416 312.889 648.505 312.8 654.45 309.671C657.758 307.883 660.529 306.542 660.619 306.587C660.708 306.676 660.35 308.062 659.859 309.716ZM499.922 310.699C503.185 312.085 507.611 313.962 509.801 314.856C512.885 316.197 514.137 316.957 515.433 318.522L517.132 320.488L514.941 323.349C513.734 324.958 512.528 326.791 512.259 327.506L511.723 328.758L505.867 328.624L500.012 328.49L497.911 323.573C496.033 319.148 494.156 313.471 493.307 309.582C493.128 308.598 493.172 308.151 493.53 308.151C493.798 308.151 496.704 309.269 499.922 310.699ZM293.945 320.042C296.403 322.455 299.577 325.227 300.962 326.21L303.466 327.909L301.901 330.099C300.337 332.289 300.337 332.289 297.744 332.289H295.151L291.71 328.624C287.329 323.975 281.116 315.795 278.389 310.967C278.21 310.699 280.624 311.638 283.798 313.024C289.251 315.482 289.653 315.75 293.945 320.042ZM616.634 310.923C613.773 315.84 607.649 323.975 603.269 328.624L599.827 332.289H597.234C594.641 332.289 594.641 332.289 593.077 330.099L591.512 327.909L594.016 326.21C595.401 325.227 598.53 322.455 601.034 320.042C605.28 315.84 605.816 315.482 611.091 313.068C614.175 311.638 616.723 310.476 616.813 310.431C616.902 310.386 616.813 310.655 616.634 310.923ZM394.698 313.381C394.52 314.812 394.341 318.835 394.341 322.321L394.296 328.713H388.753H383.21L382.719 327.462C382.451 326.791 381.244 324.958 380.037 323.349L377.846 320.488L379.679 318.343C380.663 317.181 381.646 316.197 381.825 316.197C382.048 316.197 384.998 314.99 388.351 313.515C391.748 312.085 394.609 310.878 394.788 310.833C394.922 310.833 394.877 311.996 394.698 313.381ZM495.944 324.02C497.017 326.478 497.866 328.49 497.821 328.535C497.821 328.579 496.436 328.713 494.782 328.847L491.742 329.116L491.787 320.533V311.951L492.904 315.75C493.53 317.851 494.916 321.561 495.944 324.02ZM226.85 316.689C229.085 317.941 232.482 319.997 234.404 321.204L237.891 323.483L233.421 325.182L228.951 326.836L219.877 324.69C214.87 323.528 209.015 322.187 206.78 321.74L202.757 320.936L206.333 319.282C210.356 317.404 219.519 314.454 221.486 314.409C222.201 314.409 224.481 315.393 226.85 316.689ZM679.795 316.018C682.7 316.868 686.679 318.343 688.646 319.282L692.222 320.936L687.305 321.919C684.623 322.455 678.722 323.796 674.207 324.869L666.027 326.836L661.557 325.182L657.132 323.483L659.68 321.785C664.642 318.477 672.107 314.454 673.313 314.409C673.984 314.409 676.889 315.125 679.795 316.018ZM263.772 321.785C264.711 323.215 268.019 331.351 267.75 331.619C267.661 331.708 265.694 331.619 263.414 331.485L259.257 331.172L257.738 327.641C256.888 325.718 255.056 322.187 253.625 319.818C252.195 317.449 250.988 315.393 250.898 315.214C250.809 315.035 253.491 316.197 256.844 317.717C261.224 319.729 263.191 320.891 263.772 321.785ZM641.308 319.907C639.744 322.5 637.866 326.121 637.106 327.909L635.721 331.172L631.564 331.485C629.284 331.619 627.317 331.708 627.228 331.574C626.96 331.351 629.776 324.333 630.983 322.232C631.877 320.712 632.547 320.22 635.944 318.745C638.135 317.807 640.817 316.555 641.934 315.974C643.052 315.393 643.99 314.99 644.035 315.035C644.124 315.125 642.873 317.27 641.308 319.907ZM151.352 317.717C157.028 317.896 162.124 318.075 162.75 318.164C163.376 318.254 165.79 318.477 168.114 318.656C184.34 319.729 204.947 322.947 220.86 326.925C230.292 329.25 245.177 331.932 252.374 332.513C253.625 332.647 257.022 332.915 259.973 333.183C267.661 333.854 280.356 334.301 291.71 334.301C300.739 334.301 320.72 333.764 325.369 333.407C326.441 333.317 330.375 333.139 334.085 333.005C337.84 332.826 341.371 332.602 341.997 332.513C342.623 332.423 345.841 332.2 349.149 332.021C352.457 331.887 357.687 331.619 360.771 331.44C363.855 331.261 372.661 331.038 380.35 330.993C391.48 330.904 394.341 331.038 394.475 331.485C394.609 331.976 395.503 338.19 395.771 340.559C395.816 341.095 395.548 341.453 394.967 341.587C394.475 341.676 387.859 342.928 380.216 344.403C348.389 350.482 336.275 351.957 316.965 352.136C291.128 352.36 269.583 349.231 205.215 335.821C166.103 327.641 156.224 326.255 137.897 326.255H125.783L129.851 324.109C134.142 321.829 136.69 319.729 137.092 318.209C137.271 317.404 137.629 317.27 139.193 317.359C140.221 317.404 145.719 317.583 151.352 317.717ZM307.802 321.561C325.413 326.255 343.204 326.702 360.235 322.947C364.839 321.874 374.896 319.013 376.103 318.343C377.846 317.449 377.221 318.388 374.449 321.025C372.84 322.5 369.532 325.048 367.074 326.657C362.738 329.518 362.559 329.607 359.698 329.607C357.284 329.607 344.009 330.323 331.94 331.127C330.241 331.261 325.592 331.485 321.659 331.664L314.507 331.932L311.065 330.144C305.522 327.283 298.325 322.098 294.883 318.477L293.542 317.091L298.236 318.656C300.784 319.55 305.12 320.846 307.802 321.561ZM600.095 318.477C596.653 322.098 589.456 327.283 583.913 330.144L580.472 331.932L573.32 331.664C569.386 331.485 564.782 331.261 563.039 331.172C553.16 330.501 545.069 330.054 539.035 329.786L532.196 329.473L527.815 326.612C525.401 325.003 522.138 322.5 520.529 321.025C517.757 318.388 517.132 317.449 518.875 318.343C520.082 319.013 530.139 321.874 534.788 322.947C543.013 324.78 548.422 325.316 558.122 325.316C571.397 325.316 581.366 323.662 594.552 319.326C598.128 318.164 601.123 317.181 601.212 317.136C601.346 317.091 600.855 317.717 600.095 318.477ZM757.707 317.807C757.707 319.237 760.97 321.964 765.261 324.154L769.642 326.389L759.987 326.165C742.062 325.718 728.071 327.73 683.282 337.162C641.621 345.923 614.354 350.438 595.67 351.779C589.903 352.181 570.593 352.181 564.827 351.779C550.925 350.84 538.722 349.007 514.986 344.403C508.728 343.196 501.084 341.766 498 341.229C494.916 340.738 492.01 340.201 491.474 340.112C490.625 339.933 490.58 339.71 490.893 337.787C491.072 336.581 491.25 334.837 491.295 333.854C491.295 332.87 491.474 331.798 491.653 331.485C491.966 331.038 495.765 330.948 509.443 330.948C519.009 330.993 527.547 331.038 528.396 331.127C529.245 331.216 533.179 331.44 537.113 331.619C541.046 331.753 545.069 331.976 546.053 332.066C548.6 332.289 555.44 332.692 561.698 333.005C564.648 333.139 568.09 333.317 569.297 333.407C585.746 334.614 620.925 334.48 635.006 333.183C637.732 332.915 641.04 332.647 642.381 332.557C649.488 332.021 662.138 329.741 675.012 326.702C689.316 323.305 700.223 321.383 712.337 319.997C715.778 319.639 719.399 319.237 720.383 319.103C725.881 318.477 745.459 317.404 753.818 317.225C756.902 317.181 757.707 317.315 757.707 317.807ZM86.6259 321.07C81.7089 326.478 84.2568 332.557 92.0793 333.988C96.6387 334.837 103.97 333.586 114.608 330.188C116.62 329.563 119.57 328.982 121.179 328.892C122.788 328.803 126.051 328.579 128.465 328.4C130.879 328.177 132.935 328.087 133.069 328.222C133.159 328.311 133.248 330.188 133.248 332.334V336.268L131.818 336.491C131.013 336.625 128.823 336.938 126.99 337.251C123.414 337.787 112.641 340.067 109.959 340.872C108.037 341.408 103.612 340.916 93.6438 338.95C85.866 337.43 78.3564 335.15 73.0818 332.736C68.4777 330.635 63.7395 327.417 64.3206 326.836C65.9298 325.227 77.7753 321.248 84.7485 319.997C86.4918 319.684 87.9669 319.371 88.0563 319.371C88.1457 319.326 87.5199 320.086 86.6259 321.07ZM816.845 321.561C821.583 322.768 829.719 325.897 830.657 326.836C831.239 327.417 826.5 330.635 821.896 332.736C814.878 335.999 803.748 338.905 792.26 340.559L787.254 341.274L779.297 339.486C774.917 338.547 769.821 337.519 767.988 337.206C766.155 336.938 763.965 336.625 763.205 336.491L761.73 336.268V332.334C761.73 330.188 761.819 328.311 761.909 328.222C762.043 328.087 764.099 328.177 766.513 328.4C768.927 328.579 772.19 328.803 773.799 328.892C775.408 328.982 778.358 329.563 780.37 330.188C794.138 334.569 801.826 335.284 806.922 332.692C811.436 330.412 812.062 325.182 808.397 321.114L806.877 319.46L809.336 319.863C810.677 320.042 814.074 320.801 816.845 321.561ZM271.684 324.377C272.042 325.137 273.248 327.104 274.321 328.803C275.394 330.457 276.288 331.976 276.288 332.111C276.288 332.379 270.343 331.842 270.03 331.574C269.941 331.44 269.315 329.92 268.644 328.132C267.974 326.344 267.125 324.199 266.767 323.305L266.052 321.695L268.51 322.366C270.432 322.902 271.148 323.349 271.684 324.377ZM628.256 323.215C627.854 324.154 627.004 326.344 626.334 328.132C625.663 329.92 625.037 331.44 624.948 331.574C624.814 331.664 623.384 331.887 621.73 332.066C618.824 332.334 618.198 332.111 619.092 331.127C619.316 330.904 620.523 329.026 621.819 326.925C623.965 323.305 624.188 323.081 626.423 322.366C627.719 321.964 628.792 321.651 628.882 321.606C628.926 321.561 628.658 322.321 628.256 323.215ZM378.204 324.109C380.26 326.836 381.378 328.713 380.975 328.713C374.449 329.116 367.342 329.16 367.7 328.847C367.968 328.624 369.577 327.417 371.276 326.121C373.019 324.869 374.807 323.439 375.254 322.947C375.746 322.411 376.237 322.008 376.371 322.008C376.505 322.008 377.355 322.947 378.204 324.109ZM519.724 322.947C520.171 323.439 521.959 324.869 523.703 326.121C525.401 327.417 527.055 328.624 527.279 328.847C527.636 329.16 520.529 329.116 514.003 328.713C513.377 328.713 517.981 322.053 518.607 322.008C518.741 322.008 519.233 322.411 519.724 322.947ZM288.983 328.49L292.425 332.289H285.809C281.518 332.289 278.97 332.111 278.657 331.798C278.3 331.44 278.836 330.725 280.758 329.116C282.233 327.909 283.753 326.434 284.2 325.808C284.647 325.227 285.094 324.69 285.228 324.69C285.362 324.69 287.061 326.389 288.983 328.49ZM610.733 325.853C611.225 326.478 612.834 327.953 614.22 329.16C616.142 330.725 616.679 331.44 616.321 331.798C616.008 332.111 613.46 332.289 609.169 332.289H602.553L605.995 328.49C607.917 326.389 609.571 324.69 609.661 324.69C609.75 324.69 610.242 325.227 610.733 325.853ZM243.478 327.372C245.177 328.579 246.25 329.607 245.892 329.607C244.372 329.652 232.974 327.641 233.197 327.417C233.555 327.015 238.829 325.227 239.679 325.182C240.081 325.137 241.78 326.121 243.478 327.372ZM658.518 326.076C660.082 326.612 661.513 327.194 661.736 327.328C662.004 327.641 650.785 329.652 649.086 329.607C648.728 329.607 649.801 328.579 651.5 327.372C653.198 326.121 654.808 325.137 655.076 325.137C655.389 325.137 656.909 325.584 658.518 326.076ZM153.587 328.758C156.313 328.982 158.995 329.294 159.621 329.384C160.247 329.518 161.901 329.697 163.286 329.876L165.879 330.188V334.211V338.19L164.449 337.922C158.101 336.625 153.274 336.178 144.87 336.134L135.707 336.089L135.483 335.016C135.349 334.435 135.349 332.557 135.394 330.859L135.572 327.685L142.099 327.998C145.719 328.132 150.905 328.49 153.587 328.758ZM759.584 330.904C759.674 332.602 759.629 334.435 759.495 335.016L759.272 336.089L750.108 336.134C741.704 336.178 736.877 336.625 730.574 337.922L729.099 338.19V334.211V330.188L735.581 329.384C742.375 328.579 750.153 327.998 756.008 327.864L759.406 327.819L759.584 330.904ZM64.4994 330.054C71.3832 335.284 82.737 339.218 98.6055 341.855C102.316 342.481 105.936 343.017 106.652 343.107C107.858 343.241 107.724 343.375 104.774 344.85L101.556 346.459L98.5161 345.878C87.9669 343.911 80.4126 343.285 66.5109 343.285L52.6986 343.241L53.0115 341.229C53.4585 337.787 55.6488 333.988 58.8225 330.993C60.4317 329.473 61.8621 328.266 61.9515 328.266C62.0856 328.266 63.2031 329.071 64.4994 330.054ZM836.156 330.993C839.329 333.988 841.52 337.787 841.967 341.229L842.279 343.241H828.467C814.521 343.285 807.011 343.911 796.685 345.833L793.422 346.459L790.204 344.85C787.254 343.375 787.12 343.241 788.327 343.107C791.813 342.749 803.614 340.604 808.218 339.441C818.052 336.983 825.651 333.764 830.434 330.01C831.596 329.071 832.714 328.311 832.892 328.311C833.071 328.266 834.546 329.473 836.156 330.993ZM307.31 330.323C308.427 330.948 309.455 331.664 309.59 331.887C309.768 332.111 308.338 332.289 306.237 332.289H302.616L303.868 330.725C304.538 329.876 305.164 329.16 305.164 329.16C305.209 329.16 306.148 329.697 307.31 330.323ZM591.11 330.725L592.362 332.289H588.652C585.88 332.289 585.12 332.155 585.523 331.753C586.014 331.261 589.188 329.294 589.635 329.205C589.769 329.16 590.44 329.876 591.11 330.725ZM179.736 332.736C185.011 333.675 190.017 334.614 190.822 334.793L192.252 335.061V339.844V344.626L180.317 341.632C166.773 338.19 167.801 338.86 168.025 333.675C168.159 330.859 168.248 330.635 169.142 330.77C169.679 330.859 174.461 331.753 179.736 332.736ZM726.864 337.564C726.641 338.547 725.657 338.86 714.661 341.632L702.726 344.626V339.844V335.061L711.13 333.452C715.734 332.557 721.098 331.574 723.065 331.261L726.641 330.68L726.864 333.586C726.998 335.195 726.998 336.983 726.864 337.564ZM207.897 338.368C214.379 339.71 219.787 340.916 219.877 341.006C220.055 341.185 220.279 343.196 220.637 348.426L220.949 352.717L208.702 349.275C201.997 347.398 195.962 345.699 195.292 345.521L194.04 345.252V340.335C194.04 335.463 194.04 335.418 195.068 335.642C195.605 335.776 201.371 336.983 207.897 338.368ZM700.938 340.335V345.252L699.731 345.521C699.016 345.699 692.981 347.398 686.276 349.275L674.029 352.717L674.342 348.426C674.61 344.045 674.923 341.14 675.146 340.961C675.236 340.827 699.776 335.552 700.625 335.463C700.804 335.418 700.938 337.609 700.938 340.335ZM152.514 338.1C155.062 338.368 157.475 338.681 157.878 338.771C158.414 338.95 158.906 341.185 160.023 348.873C160.828 354.282 161.454 358.796 161.364 358.841C161.275 358.931 159.666 359.109 157.788 359.243L154.391 359.556L152.558 357.366C148.491 352.583 142.501 349.007 133.203 345.878C125.873 343.42 120.732 342.347 115.368 342.079C114.072 342.034 114.429 341.855 117.156 341.185C129.091 338.19 142.009 337.072 152.514 338.1ZM759.942 338.1C765.172 338.637 773.352 340.067 777.822 341.185C780.549 341.855 780.906 342.034 779.61 342.079C774.246 342.347 769.106 343.42 761.775 345.878C752.477 349.007 746.487 352.583 742.42 357.366L740.587 359.556L737.19 359.243C735.312 359.109 733.703 358.931 733.614 358.841C733.524 358.796 734.15 354.282 734.955 348.828C736.609 337.609 735.893 338.771 741.839 338.145C746.934 337.609 755.025 337.609 759.942 338.1ZM732.943 348.962C732.139 354.326 731.379 358.752 731.289 358.841C731.2 358.931 728.518 359.109 725.3 359.243C719.131 359.512 711.353 360.629 702.324 362.507C698.301 363.356 696.692 363.535 696.468 363.177C695.932 362.283 693.205 349.678 693.518 349.409C694.322 348.56 733.658 338.726 734.329 339.173C734.374 339.218 733.748 343.643 732.943 348.962ZM166.594 340.335C174.372 341.945 200.879 348.828 201.46 349.409C201.773 349.678 199.046 362.283 198.51 363.177C198.287 363.535 196.677 363.356 192.654 362.507C183.625 360.629 175.847 359.512 169.679 359.243C166.505 359.109 163.778 358.931 163.689 358.841C163.599 358.752 162.974 354.908 162.258 350.303C161.543 345.699 160.873 341.363 160.783 340.648C160.47 339.128 160.694 339.128 166.594 340.335ZM235.522 343.956L247.68 346.37V353.164V360.003L246.473 359.735C244.238 359.199 229.308 355.131 226.224 354.192C222.693 353.12 222.827 353.477 222.38 346.191C222.156 341.989 222.201 341.14 222.693 341.363C223.05 341.497 228.817 342.66 235.522 343.956ZM672.554 346.459C672.151 353.075 672.017 353.477 669.559 354.058C668.531 354.282 663.614 355.623 658.697 356.964C653.78 358.305 649.22 359.556 648.55 359.735L647.298 360.003V353.209V346.37L659.725 343.867C666.519 342.481 672.285 341.319 672.509 341.319C672.688 341.274 672.732 343.598 672.554 346.459ZM495.989 342.839C498.224 343.196 505.241 344.537 511.634 345.744C526.697 348.65 539.124 350.884 542.387 351.287C544.801 351.6 544.98 351.689 544.756 352.583C543.639 356.472 543.549 359.959 544.533 363.579C545.248 366.306 545.248 366.261 540.152 364.92C533.09 363.043 523.837 359.824 510.963 354.729C504.705 352.27 497.285 349.499 494.558 348.56C489.149 346.817 489.284 346.906 489.775 343.777C490.133 341.81 490.178 341.81 495.989 342.839ZM397.425 346.504L398.23 349.32L397.112 349.767C396.531 349.991 395.95 350.169 395.816 350.169C395.726 350.169 390.452 352.225 384.104 354.684C371.141 359.824 361.889 363.043 354.871 364.92C349.73 366.261 349.73 366.306 350.445 363.579C351.384 360.137 351.339 356.561 350.311 352.807C349.998 351.689 350.043 351.644 352.367 351.332C355.809 350.884 370.382 348.247 383.345 345.699C389.513 344.492 395.011 343.554 395.592 343.598C396.531 343.688 396.799 344.09 397.425 346.504ZM80.949 345.476C81.7983 345.565 85.0167 346.012 88.101 346.37C91.1853 346.772 94.9401 347.264 96.5046 347.532L99.3207 348.024L97.3092 350.169C95.1189 352.538 94.5378 354.371 94.9848 357.59C95.1636 358.975 95.0742 359.646 94.6719 359.78C94.4037 359.869 91.5876 360.629 88.4586 361.523C85.3743 362.372 79.2951 364.473 74.9592 366.172L67.092 369.301L64.0524 366.44C57.7944 360.674 54.0843 354.192 53.0115 347.174L52.6986 345.297L55.5594 345.118C58.9119 344.895 78.714 345.163 80.949 345.476ZM842.011 345.386C842.458 345.789 841.341 350.572 840.134 353.611C838.346 358.171 836.245 361.165 831.909 365.457L827.975 369.346L820.064 366.217C815.728 364.473 809.604 362.372 806.519 361.523C803.39 360.629 800.574 359.869 800.306 359.78C799.904 359.646 799.814 358.975 799.993 357.59C800.44 354.371 799.859 352.538 797.669 350.169L795.657 348.024L798.473 347.532C802.318 346.906 811.079 345.789 816.488 345.297C820.958 344.85 841.564 344.939 842.011 345.386ZM271.863 350.616C272.22 350.616 272.042 351.466 269.985 359.243L268.466 364.965L267.125 364.652C264.577 364.16 250.139 360.808 250.004 360.674C249.826 360.495 249.781 358.886 249.87 352.628L249.915 346.772L260.777 348.694C266.722 349.722 271.729 350.572 271.863 350.616ZM645.108 353.656C645.152 357.411 645.108 360.54 645.018 360.629C644.84 360.763 631.117 364.026 627.854 364.697L626.513 364.965L624.993 359.243C622.937 351.466 622.758 350.616 623.115 350.616C623.249 350.572 628.211 349.722 634.112 348.694C640.012 347.621 644.884 346.772 644.929 346.817C644.974 346.817 645.063 349.901 645.108 353.656ZM492.725 349.991C495.854 350.974 514.181 357.947 515.031 358.439C515.165 358.573 514.673 361.344 513.958 364.697C512.84 369.614 512.483 370.731 511.902 370.508C510.74 370.061 504.571 365.501 497.911 360.093C494.379 357.277 490.669 354.371 489.686 353.656C487.853 352.36 487.853 352.315 488.255 350.572C488.524 349.633 488.792 348.828 488.881 348.828C488.926 348.828 490.669 349.365 492.725 349.991ZM219.385 354.282C227.565 356.561 234.27 358.573 234.27 358.707C234.27 359.065 228.548 370.91 228.236 371.268C228.101 371.402 226.939 371.223 225.643 370.821C224.347 370.463 218.223 368.809 212.009 367.155C205.796 365.546 200.7 364.026 200.656 363.892C200.522 362.864 203.695 350.169 204.053 350.169C204.321 350.125 211.25 352.002 219.385 354.282ZM692.803 356.517C693.607 360.048 694.233 363.222 694.233 363.579C694.233 364.071 692.177 364.786 686.5 366.217C682.298 367.289 676.13 368.943 672.911 369.837C668.709 371 666.832 371.357 666.564 371C666.072 370.329 660.708 359.154 660.708 358.752C660.708 358.394 689.048 350.259 690.434 350.214C691.283 350.169 691.506 350.84 692.803 356.517ZM280.088 351.734C287.955 352.762 288.357 352.807 292.782 353.12C296.537 353.388 297.118 353.566 298.415 354.729C301.722 357.59 302.929 363.982 300.962 367.915C300.024 369.703 299.979 369.748 297.878 369.524C290.234 368.809 271.237 365.814 270.656 365.233C270.522 365.144 271.237 361.97 272.265 358.26C273.248 354.505 274.053 351.376 274.053 351.242C274.053 350.974 274.858 351.019 280.088 351.734ZM400.107 354.192L401.09 356.874L400.062 357.724C399.481 358.171 397.112 360.048 394.832 361.925C390.139 365.725 384.06 370.105 383.076 370.508C382.495 370.731 382.138 369.614 381.02 364.697L379.679 358.573L380.618 358.171C384.149 356.606 398.587 351.197 398.811 351.332C398.99 351.421 399.571 352.717 400.107 354.192ZM620.925 351.242C620.925 351.376 621.73 354.505 622.713 358.26C623.741 361.97 624.456 365.144 624.322 365.233C623.741 365.814 603.671 368.988 597.323 369.524L594.954 369.703L594.016 367.871C592.049 364.026 593.3 357.59 596.564 354.729C597.815 353.611 598.486 353.388 601.972 353.164C606.755 352.762 609.661 352.449 614.667 351.734C618.869 351.108 620.925 350.974 620.925 351.242ZM348.568 353.745C349.73 357.187 348.657 366.395 347.003 366.887C345.528 367.379 333.236 369.301 329.839 369.614L326.397 369.927L327.067 367.781C328.051 364.563 327.693 359.78 326.218 356.785C325.503 355.31 325.235 354.326 325.503 354.148C325.771 354.014 328.542 353.745 331.627 353.522C334.756 353.343 339.315 352.941 341.774 352.628C347.808 351.868 347.942 351.913 348.568 353.745ZM552.713 352.628C555.618 352.985 560.491 353.432 563.53 353.566C566.525 353.745 569.207 354.014 569.475 354.148C569.744 354.326 569.475 355.31 568.76 356.785C567.285 359.78 566.927 364.563 567.911 367.781L568.581 369.927L565.139 369.614C561.742 369.301 549.45 367.379 547.975 366.887C546.857 366.53 545.65 360.674 545.918 356.919C546.097 354.505 546.812 351.957 547.304 351.957C547.349 351.957 549.807 352.27 552.713 352.628ZM322.642 354.729C322.955 354.997 323.759 356.293 324.43 357.724C325.458 359.824 325.682 360.763 325.637 363.579C325.592 365.591 325.324 367.602 324.877 368.586L324.162 370.284H315.266C310.349 370.284 305.432 370.15 304.315 370.016L302.303 369.748L302.885 368.273C304.538 364.384 304.091 359.512 301.767 355.846L300.515 353.879L311.333 354.103C317.367 354.192 322.329 354.505 322.642 354.729ZM593.256 355.757C590.887 359.512 590.44 364.339 592.094 368.318L592.675 369.748L591.065 370.016C590.127 370.15 585.21 370.284 580.114 370.284H570.816L570.235 368.809C568.581 364.831 569.028 359.869 571.308 356.249L572.604 354.192L580.784 354.103C585.299 354.014 590.216 353.924 591.781 353.835L594.552 353.701L593.256 355.757ZM495.765 360.942C500.056 364.429 503.856 367.334 504.169 367.468C504.526 367.602 505.331 368.854 506.001 370.284L507.253 372.832L503.766 375.559C499.833 378.643 496.793 382.219 494.782 386.153L493.396 388.835L492.144 386.153C490.535 382.666 488.747 376.498 487.943 371.402C487.272 367.245 487.004 354.639 487.63 354.639C487.808 354.639 491.474 357.455 495.765 360.942ZM406.857 372.475C406.276 376.408 403.817 384.588 402.387 387.27L401.537 388.79L400.196 386.153C398.185 382.219 395.145 378.643 391.212 375.559L387.725 372.832L388.977 370.284C389.647 368.854 390.452 367.602 390.809 367.468C391.122 367.334 393.804 365.323 396.71 362.953L402.029 358.662L404.711 363.669L407.393 368.72L406.857 372.475ZM242.987 360.853C255.1 364.116 269.136 367.289 279.998 369.167C282.367 369.614 284.334 370.061 284.334 370.24C284.289 370.374 283.306 373.816 282.144 377.883L279.953 385.259L278.389 385.169C276.199 385.035 231.096 372.609 230.426 371.938C230.292 371.849 231.633 368.854 233.376 365.412C235.879 360.316 236.684 359.109 237.31 359.288C237.712 359.422 240.305 360.137 242.987 360.853ZM661.647 365.412C663.345 368.899 664.686 371.849 664.552 371.938C663.882 372.609 618.69 385.035 616.544 385.169L615.025 385.259L612.834 377.883C611.672 373.816 610.689 370.374 610.644 370.195C610.644 370.061 611.493 369.793 612.566 369.614C622.087 368.094 649.131 361.925 656.462 359.601C657.221 359.378 657.937 359.154 658.115 359.154C658.339 359.109 659.903 361.925 661.647 365.412ZM379.187 365.144C379.858 368.094 380.394 370.955 380.439 371.491C380.439 372.564 378.696 373.726 371.276 377.749C358.849 384.454 345.439 388.567 331.716 389.908C324.564 390.578 317.189 390.936 315.892 390.578L314.73 390.31V381.415V372.519L316.652 372.475C335.918 371.804 351.742 368.764 369.935 362.104C373.645 360.763 376.952 359.69 377.31 359.735C377.757 359.78 378.338 361.389 379.187 365.144ZM524.731 362.06C543.862 368.854 559.105 371.804 578.371 372.475L580.248 372.519V381.415V390.31L579.086 390.578C576.404 391.249 560.982 389.952 552.981 388.343C540.51 385.885 527.413 380.61 516.64 373.726L514.226 372.162L515.522 366.44C516.953 360.003 517.087 359.556 517.445 359.556C517.579 359.556 520.842 360.674 524.731 362.06ZM178.842 362.015C192.029 363.937 206.914 367.513 239.411 376.676C251.211 380.029 262.565 383.203 264.621 383.739L268.331 384.767L272.712 389.908C275.081 392.768 278.523 396.657 280.311 398.579L283.529 402.021L280.266 401.753C271.907 401.083 255.547 397.954 241.869 394.378C226.895 390.533 220.815 388.254 204.947 380.655C184.474 370.821 177.322 368.63 164.449 368.183L156.939 367.915V366.708C156.939 366.038 156.626 364.607 156.269 363.579C155.911 362.551 155.598 361.613 155.598 361.523C155.598 360.719 172.405 361.076 178.842 362.015ZM739.157 361.389C739.291 361.523 739.067 362.507 738.71 363.579C738.352 364.607 738.039 366.038 738.039 366.753V368.005H732.452C719.936 368.005 710.817 370.687 690.434 380.476C684.533 383.292 677.515 386.51 674.789 387.583C660.35 393.394 632.145 400.01 614.265 401.798L611.404 402.066L614.667 398.579C616.455 396.657 619.897 392.768 622.266 389.908L626.647 384.767L630.357 383.739C632.413 383.203 643.767 380.029 655.568 376.676C693.384 366.038 707.509 362.819 723.065 361.165C725.568 360.942 738.844 361.121 739.157 361.389ZM106.16 369.703L110.049 372.028L105.445 375.022C102.897 376.632 99.2313 379.224 97.2645 380.744C95.2977 382.264 93.465 383.65 93.1521 383.828C91.9005 384.633 68.3436 371.447 69.3717 370.552C69.7293 370.284 78.5799 366.753 82.5135 365.367C84.7485 364.563 88.7268 363.401 91.3641 362.685L96.2364 361.478L99.2313 364.429C100.885 366.038 104.014 368.407 106.16 369.703ZM485.261 365.144C486.244 377.615 489.194 386.108 497.732 401.127C509.533 421.823 524.06 432.864 542.477 435.099C544.935 435.412 547.975 435.904 549.182 436.262C557.362 438.541 567.553 439.391 576.672 438.541L580.472 438.184L585.612 443.503C589.099 447.079 591.557 450.118 593.256 452.89C595.714 456.868 597.994 462.679 597.547 463.797C597.458 464.11 595.223 464.869 592.585 465.406L587.847 466.479L585.076 464.02C577.655 457.583 568.134 453.337 558.032 452.085C543.371 450.208 538.766 449.224 531.48 446.453C518.115 441.402 505.644 432.238 496.257 420.572C492.1 415.387 486.691 407.028 483.92 401.351C481.193 395.763 478.287 387.494 477.17 381.906L476.41 378.107L479.092 373.19C480.567 370.463 482.444 366.708 483.294 364.831C484.098 362.953 484.814 361.434 484.903 361.478C484.948 361.523 485.082 363.177 485.261 365.144ZM808.665 364.116C812.465 365.323 825.159 370.15 825.606 370.552C826.59 371.491 803.122 384.633 801.826 383.828C801.513 383.65 799.68 382.264 797.714 380.744C795.747 379.224 792.081 376.632 789.533 375.022L784.929 372.028L788.818 369.703C790.964 368.407 794.048 366.082 795.657 364.473L798.608 361.523L801.513 362.149C803.122 362.507 806.341 363.401 808.665 364.116ZM170.885 370.508C173.255 370.865 176.115 371.402 177.278 371.67C179.289 372.162 179.468 372.341 180.675 374.933C182.418 378.688 183.267 382.219 183.759 387.717C184.117 391.651 183.983 395.763 183.536 395.763C183.446 395.763 181.613 395.138 179.423 394.378C169.723 390.98 158.816 384.767 152.916 379.358L150.011 376.676L151.396 375.961C153.005 375.112 155.822 372.117 156.269 370.776C156.537 369.882 156.85 369.837 161.543 369.837C164.315 369.837 168.472 370.15 170.885 370.508ZM738.71 370.776C739.157 372.117 741.973 375.112 743.582 375.961L744.968 376.676L742.062 379.358C736.162 384.767 725.255 390.98 715.555 394.378C713.365 395.138 711.532 395.763 711.487 395.763C711.04 395.763 710.906 391.293 711.219 387.494C711.711 382.174 712.56 378.643 714.303 374.888L715.6 372.162L718.907 371.447C724.093 370.284 727.177 369.971 732.988 369.882C738.173 369.837 738.441 369.882 738.71 370.776ZM292.693 370.91C299.13 371.67 303.868 372.028 309.232 372.162L312.942 372.296V381.415V390.533L308.025 390.22C301.097 389.773 283.485 387.002 282.099 386.153C281.741 385.929 286.211 370.284 286.614 370.284C286.793 370.284 289.519 370.552 292.693 370.91ZM610.912 378.107C612.164 382.443 613.058 386.063 612.879 386.153C611.493 387.002 593.882 389.773 586.953 390.22L582.036 390.533V381.415V372.296H583.288C587.266 372.251 598.53 371.447 602.151 370.955C609.392 370.016 608.32 369.122 610.912 378.107ZM385.535 372.832C380.573 381.549 371.097 390.355 361.665 395.093C352.949 399.429 346.959 400.859 337.08 400.859C327.067 400.904 319.826 399.16 310.484 394.556C308.293 393.484 306.461 392.545 306.416 392.5C306.371 392.456 311.556 392.411 317.993 392.411C329.928 392.411 333.504 392.098 342.221 390.355C355.675 387.673 369.219 382.04 381.333 374.129C384.149 372.251 386.518 370.731 386.608 370.731C386.697 370.731 386.205 371.67 385.535 372.832ZM514.092 374.441C523.568 380.655 536.174 386.242 546.947 389.058C557.004 391.651 563.53 392.411 576.761 392.411H588.741L584.897 394.333C575.465 399.071 568 400.904 557.898 400.859C548.019 400.859 542.03 399.429 533.313 395.093C523.837 390.355 514.405 381.549 509.443 372.788C508.728 371.581 508.46 370.776 508.773 371C509.13 371.178 511.499 372.743 514.092 374.441ZM414.188 379.805L417.227 385.08L415.35 390.846C409.852 407.519 397.514 424.774 383.613 435.233C374.628 442.028 365.688 446.364 355.184 449.09C351.071 450.163 347.808 450.7 336.946 452.085C326.844 453.337 317.323 457.583 309.902 464.02L307.131 466.479L302.393 465.406C299.756 464.869 297.521 464.11 297.431 463.797C296.984 462.679 299.264 456.868 301.722 452.89C303.376 450.208 305.969 446.99 309.366 443.458L314.507 438.139L319.871 438.675C327.38 439.435 337.214 438.541 345.037 436.44C346.825 435.949 349.551 435.412 351.071 435.278C368.012 433.714 381.914 424.595 393.313 407.609C396.844 402.289 404.264 388.298 405.873 383.828C406.589 381.906 407.617 378.375 408.153 375.961L409.181 371.581L410.165 373.056C410.701 373.86 412.534 376.9 414.188 379.805ZM119.168 375.425C122.386 376.498 126.856 377.66 129.18 378.062C134.366 378.956 141.518 378.956 145.049 378.151L147.731 377.526L149.698 379.135L151.664 380.744L147.686 381.772C138.925 384.097 133.337 387.226 127.258 393.171L122.833 397.551L112.507 393.126C106.83 390.668 100.483 387.896 98.4267 386.957L94.6272 385.214L97.488 382.979C102.807 378.867 112.016 373.011 112.686 373.234C113.044 373.369 115.994 374.352 119.168 375.425ZM192.476 376.989C194.934 378.017 198.51 379.671 200.387 380.61C204.142 382.487 205.036 383.65 206.69 388.835C208.165 393.305 209.283 401.574 208.433 401.574C206.601 401.574 189.749 397.819 186.977 396.791C186.083 396.434 185.994 396.076 185.815 390.176C185.636 383.739 184.787 379.18 182.91 375.022L182.06 373.056L185.011 374.084C186.665 374.62 190.017 375.917 192.476 376.989ZM711.8 375.693C710.102 379.94 709.386 383.918 709.163 390.399C708.984 396.031 708.895 396.434 708.001 396.791C705.229 397.819 688.377 401.574 686.545 401.574C685.695 401.574 686.813 393.305 688.288 388.835C689.942 383.65 690.836 382.487 694.591 380.61C699.374 378.241 704.022 376.229 708.761 374.486C710.996 373.681 712.828 373.011 712.828 372.966C712.873 372.966 712.426 374.173 711.8 375.693ZM787.969 376.319C790.785 378.196 794.763 380.923 796.73 382.443L800.351 385.214L796.104 387.136C793.78 388.209 787.477 391.025 782.024 393.305L772.145 397.507L767.72 393.171C761.641 387.226 756.053 384.097 747.292 381.772L743.314 380.744L745.28 379.135L747.247 377.526L750.153 378.196C752.254 378.688 754.578 378.822 758.825 378.643C765.53 378.42 770.447 377.392 777.643 374.799C780.325 373.86 782.56 373.056 782.65 373.011C782.739 372.966 785.108 374.486 787.969 376.319ZM390.765 377.749C392.15 378.911 394.162 380.878 395.145 382.13C397.067 384.41 400.107 389.997 400.107 391.159C400.107 392.366 396.978 396.568 393.938 399.429C391.122 402.066 384.864 406.625 384.551 406.268C384.462 406.178 384.104 404.659 383.747 402.96C382.942 398.579 380.931 394.646 377.802 391.249L375.164 388.343L376.684 387.091C378.472 385.706 384.194 378.911 385.758 376.408C386.921 374.486 387.01 374.486 390.765 377.749ZM511.008 378.777C512.528 380.878 515.12 383.918 516.729 385.527L519.68 388.477L517.087 391.293C514.047 394.646 512.036 398.579 511.231 402.96C510.874 404.659 510.516 406.178 510.427 406.268C510.382 406.357 508.862 405.463 507.164 404.346C503.096 401.619 498.447 397.194 496.391 394.109C494.871 391.83 494.782 391.517 495.229 389.997C495.989 387.539 498.76 383.113 501.129 380.655C503.185 378.509 507.834 374.62 508.058 374.844C508.147 374.933 509.443 376.676 511.008 378.777ZM475.292 382.443C475.471 383.605 475.114 384.454 473.013 387.315C471.627 389.237 470.375 390.802 470.197 390.846C469.973 390.846 469.839 390.399 469.839 389.863C469.839 388.924 474.264 381.057 474.801 381.012C474.98 381.012 475.203 381.638 475.292 382.443ZM160.515 387.494C161.633 388.209 163.912 389.505 165.566 390.399L168.65 392.098L165.924 393.707C162.169 395.987 155.643 401.127 151.709 404.837L148.446 407.966L137.137 403.362C130.968 400.859 125.694 398.624 125.47 398.445C125.291 398.222 126.096 397.015 127.258 395.763C133.069 389.55 141.562 384.946 150.726 383.069L153.587 382.487L156.045 384.365C157.386 385.393 159.398 386.823 160.515 387.494ZM749.885 384.633C756.947 387.002 763.116 390.846 767.72 395.763C768.882 397.015 769.687 398.222 769.508 398.445C769.284 398.624 764.054 400.859 757.841 403.362L746.577 407.966L742.956 404.569C739.112 400.948 732.63 395.942 728.741 393.528L726.372 392.053L729.635 390.31C733.077 388.432 737.816 385.348 740.006 383.56C741.168 382.621 741.526 382.532 743.582 382.89C744.833 383.113 747.694 383.918 749.885 384.633ZM210.937 385.661C212.591 386.466 216.345 388.12 219.296 389.282C222.246 390.444 225.151 391.83 225.732 392.366C228.057 394.422 230.336 399.205 230.918 403.139L231.275 405.284L229.532 405.016C223.408 404.167 214.915 402.826 212.948 402.424L210.579 401.977V399.563C210.579 396.434 209.417 390.533 208.165 387.002C207.584 385.438 207.316 384.141 207.495 384.141C207.718 384.141 209.283 384.812 210.937 385.661ZM686.813 387.002C685.561 390.533 684.399 396.434 684.399 399.563V401.977L682.075 402.424C680.063 402.826 671.704 404.122 665.536 405.016C663.524 405.329 663.435 405.016 664.508 400.904C665.312 397.819 667.279 394.243 669.067 392.59C669.737 391.919 672.732 390.444 675.683 389.282C678.633 388.12 682.343 386.51 683.952 385.661C685.561 384.857 687.081 384.186 687.349 384.141C687.662 384.141 687.483 385.214 686.813 387.002ZM279.015 387.494L285.362 389.058L288.312 391.874C289.922 393.439 292.738 395.853 294.526 397.283C296.269 398.714 297.744 400.055 297.744 400.278C297.744 401.038 295.151 405.776 293.989 407.162L292.872 408.503L286.033 401.574C279.819 395.272 272.265 386.823 272.265 386.198C272.265 385.84 272.042 385.795 279.015 387.494ZM622.713 386.198C622.713 386.823 615.159 395.272 608.945 401.574L602.106 408.503L600.989 407.162C599.827 405.776 597.234 401.038 597.234 400.278C597.234 400.055 598.709 398.714 600.497 397.283C602.24 395.853 605.057 393.439 606.666 391.874L609.616 389.058L615.606 387.539C621.998 385.929 622.713 385.795 622.713 386.198ZM478.019 392.098C478.913 394.959 480.835 399.652 482.266 402.513L484.858 407.698L482.221 412.481C480.746 415.118 479.405 417.13 479.226 416.906C479.047 416.728 477.17 411.319 474.98 404.882L471.046 393.215L473.415 390.042C474.667 388.254 475.874 386.823 476.008 386.823C476.186 386.823 477.08 389.192 478.019 392.098ZM419.954 390.802C420.58 392.232 421.429 394.288 421.787 395.361L422.502 397.328L419.283 406.938C417.54 412.213 415.931 416.728 415.752 416.906C415.573 417.13 414.232 415.118 412.757 412.481L410.12 407.698L412.712 402.513C414.098 399.652 415.931 395.272 416.735 392.768C417.54 390.265 418.345 388.164 418.479 388.164C418.658 388.164 419.283 389.327 419.954 390.802ZM297.476 391.025C300.56 391.517 302.214 391.964 302.84 392.59C303.957 393.618 312.674 397.998 315.892 399.116L318.217 399.92L317.367 401.753C316.965 402.781 316.339 404.569 316.026 405.821C315.758 407.028 315.445 408.145 315.356 408.19C315.088 408.548 308.517 404.793 303.913 401.753C299.309 398.669 294.526 394.914 290.816 391.517L289.028 389.908L291.039 390.131C292.157 390.265 295.062 390.668 297.476 391.025ZM376.327 392.456C379.858 396.434 382.182 401.842 382.227 406.178C382.227 407.877 382.227 407.877 378.785 409.486C374.896 411.229 368.594 413.42 366.046 413.867L364.347 414.18V410.693C364.347 406.715 363.453 402.424 362.112 399.786C361.62 398.803 361.218 397.909 361.218 397.819C361.218 397.685 362.38 396.97 363.811 396.255C365.196 395.54 367.968 393.841 369.935 392.456C371.901 391.07 373.645 389.952 373.823 389.952C373.958 389.952 375.12 391.07 376.327 392.456ZM525.222 392.59C527.323 394.02 530.139 395.719 531.436 396.389C532.687 397.015 533.76 397.685 533.76 397.819C533.76 397.909 533.358 398.803 532.866 399.786C531.525 402.424 530.631 406.715 530.631 410.693V414.18L528.977 413.867C526.385 413.42 520.082 411.229 516.238 409.486C512.751 407.877 512.751 407.877 512.751 406.178C512.796 401.842 515.12 396.434 518.651 392.456C519.858 391.07 520.976 389.952 521.11 389.952C521.289 389.952 523.121 391.115 525.222 392.59ZM604.163 391.561C600.005 395.272 595.535 398.758 591.065 401.753C586.461 404.793 579.89 408.548 579.622 408.19C579.533 408.145 579.22 407.028 578.952 405.821C578.639 404.569 578.013 402.781 577.611 401.753L576.761 399.92L579.086 399.116C582.304 397.998 591.021 393.618 592.138 392.59C592.809 391.964 594.418 391.517 597.726 391.025C600.274 390.668 602.598 390.265 602.822 390.176C603.09 390.086 603.894 389.997 604.61 389.997H605.951L604.163 391.561ZM242.495 397.507C245.222 399.965 249.423 408.011 248.485 408.95C248.351 409.129 246.339 408.726 244.059 408.1C241.735 407.475 238.651 406.759 237.131 406.491C235.611 406.178 234.181 405.821 233.912 405.642C233.644 405.508 233.108 403.854 232.75 402.066C232.348 400.233 231.365 397.417 230.56 395.808L229.04 392.813L235.119 394.556C239.411 395.808 241.601 396.657 242.495 397.507ZM664.508 395.763C663.614 397.462 662.585 400.323 662.228 402.111C661.87 403.899 661.334 405.508 661.066 405.642C660.797 405.821 659.367 406.178 657.847 406.491C656.327 406.759 653.243 407.475 650.919 408.1C648.594 408.682 646.628 409.084 646.493 408.95C646.002 408.458 647.79 403.854 649.488 401.306C652.215 397.149 652.975 396.613 659.725 394.601C663.077 393.573 665.893 392.724 665.938 392.679C666.027 392.679 665.357 394.02 664.508 395.763ZM175.266 394.869C177.769 395.853 182.105 397.372 185.011 398.267C187.871 399.116 190.241 399.876 190.33 399.965C190.375 400.01 189.615 400.68 188.542 401.396C184.966 403.943 179.825 408.771 179.155 410.201C178.261 412.079 172.316 417.845 171.556 417.532C168.561 416.37 150.86 408.995 150.681 408.816C150.368 408.548 155.598 403.809 159.845 400.457C162.616 398.267 169.991 393.305 170.662 393.126C170.751 393.081 172.808 393.886 175.266 394.869ZM726.864 394.69C732.139 397.775 745.012 408.19 744.297 408.816C744.118 408.995 726.015 416.549 723.556 417.487C722.662 417.845 716.851 412.347 715.823 410.201C715.153 408.771 710.012 403.943 706.436 401.396C705.363 400.68 704.603 400.01 704.648 399.965C704.738 399.876 707.107 399.116 709.967 398.267C712.828 397.372 717.164 395.853 719.578 394.914C721.992 393.931 724.003 393.126 724.048 393.126C724.093 393.081 725.389 393.797 726.864 394.69ZM452.674 397.328C454.686 397.998 456.965 398.937 457.725 399.384C460.139 400.859 458.798 401.127 455.848 399.786C451.78 397.954 448.07 397.104 444.047 397.104C439.979 397.104 437.029 397.864 434.481 399.518C432.604 400.77 431.665 400.993 431.933 400.099C432.246 399.205 435.912 397.194 438.549 396.434C442.17 395.45 448.115 395.808 452.674 397.328ZM252.597 398.982C258.766 400.323 259.213 400.501 261.761 402.513C267.08 406.67 275.796 416.459 277.003 419.633C277.137 419.991 274.321 419.007 270.164 417.219C266.275 415.565 260.33 413.241 256.978 412.079C253.446 410.872 250.809 409.71 250.809 409.397C250.809 407.788 248.842 402.737 247.233 400.323C246.25 398.803 245.624 397.551 245.803 397.551C245.981 397.551 249.021 398.177 252.597 398.982ZM647.745 400.323C646.136 402.737 644.169 407.788 644.169 409.397C644.169 409.71 641.532 410.872 638.045 412.079C634.648 413.241 628.703 415.565 624.814 417.219C620.657 419.007 617.841 419.991 617.975 419.633C619.182 416.459 628.256 406.312 633.352 402.379C635.587 400.636 636.436 400.323 641.889 399.071C650.204 397.149 649.846 397.06 647.745 400.323ZM361.889 405.24C362.604 408.235 362.738 411.319 362.291 413.554C362.023 414.85 361.933 414.895 358.134 415.387C355.988 415.655 351.92 415.878 349.104 415.878H344.009V409.173V402.468H345.126C346.646 402.468 354.245 400.501 357.016 399.429L359.207 398.535L360.235 400.501C360.771 401.574 361.531 403.72 361.889 405.24ZM544.443 401.351C546.812 401.977 549.226 402.468 549.852 402.468H550.97V409.173V415.878H545.874C543.058 415.878 538.99 415.655 536.844 415.387C533.045 414.895 532.955 414.85 532.687 413.554C531.972 410.023 532.687 405.195 534.52 401.038L535.637 398.49L537.917 399.384C539.124 399.876 542.074 400.77 544.443 401.351ZM202.399 402.468C209.327 403.854 230.828 407.385 232.259 407.385C232.929 407.385 231.856 408.279 229.666 409.531C226.045 411.587 220.19 416.057 216.971 419.32L214.021 422.27L197.661 416.772C188.676 413.733 181.211 411.185 181.122 411.095C180.496 410.604 191.984 400.68 193.235 400.68C193.414 400.68 197.527 401.485 202.399 402.468ZM324.206 401.619C326.754 402.245 330.107 402.602 334.979 402.781L341.997 403.049L342.042 405.106C342.131 409.531 341.997 413.465 341.774 414.582L341.505 415.744L337.616 415.118C330.509 414.001 318.395 410.425 317.636 409.173C317.144 408.369 319.513 400.68 320.273 400.68C320.407 400.68 322.15 401.083 324.206 401.619ZM576.091 403.362C576.627 404.703 577.119 406.625 577.208 407.609L577.343 409.397L573.588 410.872C569.207 412.615 562.815 414.269 557.362 415.118L553.473 415.744L553.205 414.582C552.981 413.465 552.847 409.531 552.936 405.106L552.981 403.049L560.044 402.781C564.827 402.602 568.134 402.245 570.414 401.664C572.247 401.172 574.079 400.814 574.437 400.859C574.795 400.904 575.555 402.021 576.091 403.362ZM705.363 403.139C708.671 405.508 714.303 410.783 713.856 411.095C713.767 411.185 706.302 413.733 697.317 416.772L680.957 422.27L678.007 419.32C674.789 416.057 668.933 411.587 665.312 409.531C664.016 408.771 662.854 408.056 662.72 407.832C662.451 407.43 662.451 407.43 674.789 405.553C679.974 404.793 687.796 403.407 692.222 402.468C696.647 401.574 700.625 400.77 701.117 400.725C701.564 400.725 703.486 401.798 705.363 403.139ZM275.707 403.139C278.702 403.452 278.925 403.541 279.462 404.793C281.607 409.978 288.983 419.544 296.269 426.696C298.951 429.288 300.873 431.3 300.471 431.166C300.068 431.032 295.42 428.841 290.145 426.338L280.535 421.823L279.059 419.186C276.377 414.493 273.472 410.783 268.555 406L263.727 401.261L268.108 402.021C270.522 402.468 273.919 402.96 275.707 403.139ZM312.808 409.173L318.261 411.9L316.205 416.236C315.088 418.605 314.015 421.108 313.747 421.779C313.523 422.494 313.21 423.03 313.031 423.03C312.584 423.03 308.74 420.661 305.567 418.426C302.482 416.236 294.615 410.023 294.615 409.799C294.615 409.71 295.375 408.592 296.314 407.251C297.252 405.91 298.37 404.033 298.817 403.049L299.621 401.261L303.466 403.854C305.611 405.284 309.813 407.654 312.808 409.173ZM599.201 408.056C599.827 408.86 600.363 409.62 600.363 409.754C600.363 410.023 592.809 416.012 589.412 418.426C586.238 420.661 582.394 423.03 581.947 423.03C581.768 423.03 581.455 422.494 581.231 421.779C580.963 421.108 579.89 418.605 578.773 416.236L576.717 411.9L582.215 409.129C585.21 407.654 589.367 405.284 591.468 403.854L595.223 401.351L596.653 403.943C597.413 405.374 598.575 407.207 599.201 408.056ZM626.468 405.91C621.506 410.783 618.601 414.448 615.919 419.186L614.444 421.823L604.833 426.338C599.558 428.841 594.91 431.032 594.507 431.166C594.105 431.345 595.804 429.512 598.262 427.143C605.504 420.125 612.209 411.498 615.159 405.463L616.142 403.452L619.316 403.139C621.685 402.915 629.016 401.708 631.161 401.172C631.251 401.127 629.15 403.273 626.468 405.91ZM394.475 402.111C391.078 408.011 381.78 419.678 380.797 419.365C380.528 419.276 379.903 417.979 379.322 416.549C377.534 411.721 377.534 412.034 379.634 411.185C382.495 410.067 389.245 405.955 392.061 403.63C394.743 401.44 394.967 401.306 394.475 402.111ZM509.667 408.235C511.723 409.441 514.271 410.783 515.344 411.185C517.445 412.034 517.445 411.721 515.657 416.549C515.075 417.979 514.45 419.276 514.181 419.365C513.153 419.678 503.99 408.145 500.459 402.021C500.235 401.664 501.353 402.379 502.962 403.675C504.571 404.971 507.611 407.028 509.667 408.235ZM289.251 407.519C304.807 422.36 322.061 431.97 337.974 434.742L341.327 435.278L338.421 435.859C330.599 437.424 316.831 437.021 310.573 435.099C303.823 432.998 288.983 417.8 282.546 406.357L281.116 403.809H283.217C285.273 403.809 285.496 403.943 289.251 407.519ZM612.432 406.357C605.995 417.756 591.11 432.998 584.405 435.099C578.147 437.021 564.335 437.424 556.557 435.859L553.652 435.278L557.138 434.697C567.464 432.998 578.728 428.081 590.171 420.259C594.641 417.219 604.028 409.441 607.292 406.089C609.348 403.943 609.661 403.809 611.672 403.809H613.862L612.432 406.357ZM241.422 409.397C244.015 410.023 247.814 411.095 249.87 411.721L253.67 412.928L252.374 413.822C247.322 417.487 244.819 419.544 241.914 422.315C238.114 426.025 235.075 429.646 235.388 430.182C235.566 430.451 229.934 440.374 229.085 441.313C228.906 441.491 209.685 433.803 209.149 433.356C208.746 432.998 214.423 423.746 215.183 423.522C215.451 423.433 217.418 421.734 219.519 419.723C221.62 417.711 224.928 414.984 226.895 413.643C230.605 411.095 235.522 408.324 236.282 408.279C236.55 408.279 238.829 408.771 241.422 409.397ZM661.289 409.441C665.357 411.498 671.525 415.968 675.459 419.723C677.56 421.734 679.527 423.433 679.84 423.522C680.555 423.746 686.232 432.998 685.829 433.356C685.651 433.49 681.091 435.412 675.727 437.558C667.637 440.821 665.849 441.447 665.536 440.91C665.312 440.553 663.837 438.049 662.273 435.412C660.663 432.73 659.456 430.361 659.591 430.182C659.903 429.646 656.864 426.025 653.064 422.315C650.159 419.544 647.656 417.487 642.605 413.822L641.308 412.883L644.616 411.855C648.326 410.738 657.49 408.369 658.384 408.324C658.697 408.279 659.993 408.816 661.289 409.441ZM412.087 415.118L414.769 419.946L413.428 423.388C410.567 430.942 402.878 445.425 400.867 447.124C400.331 447.526 400.018 446.99 399.034 443.95C397.827 440.24 396.397 433.669 395.861 429.512C395.592 427.277 395.592 427.232 397.917 424.595C400.688 421.421 404.532 416.281 407.036 412.436C408.019 410.917 408.958 409.799 409.092 409.978C409.271 410.157 410.567 412.481 412.087 415.118ZM494.782 421.823C499.967 428.081 499.475 426.919 498.894 431.166C498.358 435.144 496.212 443.771 495.184 446.23L494.558 447.705L493.396 446.23C490.178 441.894 484.277 430.629 481.55 423.388L480.209 419.946L483.115 414.761L486.02 409.576L489.149 414.18C490.848 416.683 493.396 420.125 494.782 421.823ZM325.413 414.269C328.006 415.118 331.403 416.057 332.923 416.325C335.426 416.817 335.694 416.996 335.516 417.845C335.381 418.337 334.8 421.6 334.175 424.997C333.549 428.439 332.968 431.345 332.834 431.434C332.431 431.881 324.028 428.841 319.379 426.606C315.088 424.505 314.775 424.282 315.132 423.388C316.205 420.616 320.094 412.749 320.362 412.749C320.541 412.749 322.821 413.42 325.413 414.269ZM377.981 418.426L379.053 421.242L377.176 422.717C374.315 424.997 371.588 426.785 368.37 428.394C365.599 429.78 360.771 431.657 360.503 431.434C360.369 431.255 358.536 418.873 358.536 418.024C358.536 417.577 359.743 417.175 362.693 416.594C364.928 416.191 368.817 415.163 371.276 414.358L375.746 412.883L376.327 414.224C376.684 414.984 377.399 416.862 377.981 418.426ZM532.33 416.594C535.235 417.175 536.442 417.577 536.442 418.024C536.442 418.873 534.609 431.255 534.475 431.434C534.207 431.657 529.379 429.78 526.608 428.394C523.479 426.83 517.713 422.986 516.64 421.779C516.059 421.108 516.148 420.616 517.534 416.951L519.098 412.883L523.613 414.358C526.116 415.163 530.05 416.147 532.33 416.594ZM577.164 417.532C578.415 420.214 579.622 422.807 579.846 423.388C580.203 424.282 579.89 424.505 575.599 426.606C570.995 428.841 562.547 431.881 562.145 431.479C561.921 431.21 559.194 417.085 559.373 416.906C559.463 416.862 560.982 416.504 562.86 416.147C564.692 415.744 567.911 414.85 569.967 414.135C572.068 413.42 574.035 412.794 574.348 412.794C574.661 412.749 575.957 414.895 577.164 417.532ZM263.28 416.504C269.672 419.007 279.417 423.343 288.759 427.858L294.302 430.54L292.872 431.568C291.173 432.82 286.39 438.452 284.111 441.894C283.172 443.324 282.233 444.486 282.01 444.486C281.652 444.486 251.256 435.01 239.545 431.255C238.338 430.853 237.399 430.406 237.399 430.182C237.399 429.512 244.104 422.628 247.144 420.259C251.792 416.549 255.413 414.09 256.352 414.09C256.799 414.09 259.883 415.163 263.28 416.504ZM642.158 415.968C646.717 419.141 651.053 422.807 654.361 426.383C656.149 428.305 657.579 430.004 657.579 430.182C657.579 430.406 656.64 430.853 655.478 431.255C643.722 435.01 613.326 444.486 612.968 444.486C612.745 444.486 611.806 443.324 610.868 441.894C608.588 438.452 603.805 432.82 602.106 431.568L600.676 430.54L606.219 427.858C620.299 421.064 636.659 414.135 638.582 414.09C639.029 414.09 640.638 414.94 642.158 415.968ZM349.864 417.845L356.569 417.756L357.463 424.327C357.91 427.903 358.313 431.166 358.313 431.523C358.313 432.551 354.021 433.311 347.54 433.311C342.086 433.356 335.963 432.685 335.203 432.015C335.024 431.881 335.069 430.942 335.247 429.959C335.471 428.975 336.097 425.712 336.633 422.673L337.616 417.175L340.388 417.532C341.863 417.711 346.154 417.845 349.864 417.845ZM557.451 417.532C557.451 417.756 558.077 421.108 558.792 424.997C559.507 428.931 560.044 432.194 559.999 432.194C559.373 432.685 551.729 433.356 547.259 433.356C541.001 433.356 536.666 432.596 536.666 431.523C536.666 431.166 537.068 427.858 537.56 424.237L538.409 417.622L543.594 417.89C546.41 418.024 550.254 417.935 552.087 417.756C556.691 417.175 557.451 417.175 557.451 417.532ZM394.296 431.747C394.341 433.892 395.503 438.944 397.291 444.665L398.945 449.984L394.028 454.723C390.362 458.209 387.859 460.221 384.328 462.277C381.691 463.841 379.366 465.004 379.143 464.869C377.757 463.975 377.042 453.069 377.981 447.392C379.098 440.732 378.74 441.357 383.97 437.424C386.563 435.412 389.826 432.82 391.167 431.613C393.76 429.288 394.251 429.288 394.296 431.747ZM512.125 438.273C515.522 440.732 515.746 441.044 516.238 443.19C517.176 447.124 517.757 453.963 517.445 457.002C517.087 460.891 516.372 464.512 515.88 464.825C515.388 465.138 509.622 461.83 506.046 459.193C504.437 458.03 501.531 455.438 499.609 453.471L496.033 449.895L497.687 444.62C499.52 438.854 500.459 434.697 501.129 429.378C501.129 429.288 502.783 430.674 504.839 432.462C506.851 434.205 510.114 436.843 512.125 438.273ZM301.454 433.758C304.27 434.965 307.846 436.306 309.455 436.753L312.361 437.513L308.696 441.178C301.991 447.883 297.655 454.499 295.956 460.712C295.286 463.171 295.062 463.484 294.168 463.35C292.559 463.081 279.372 459.327 279.059 459.014C278.568 458.567 282.591 446.99 283.664 445.827C284.2 445.202 285.541 443.414 286.569 441.804C288.491 438.988 295.286 431.523 296.001 431.523C296.18 431.523 298.638 432.507 301.454 433.758ZM602.911 435.233C604.878 437.245 607.336 440.24 608.409 441.804C609.437 443.414 610.778 445.202 611.315 445.827C612.387 446.99 616.41 458.567 615.919 459.014C615.606 459.327 602.419 463.081 600.81 463.35C599.916 463.484 599.693 463.171 599.022 460.712C597.323 454.589 593.077 448.018 586.417 441.313C584.45 439.346 582.93 437.647 583.019 437.603C583.109 437.513 584.584 437.021 586.283 436.53C588.026 435.993 591.468 434.697 593.882 433.579C596.34 432.462 598.575 431.568 598.843 431.568C599.111 431.523 600.944 433.177 602.911 435.233ZM376.193 446.051C375.12 451.996 375.388 459.103 376.952 465.451C377.355 467.239 355.139 472.021 354.021 470.368C353.351 469.384 353.932 461.741 354.96 457.986C355.452 456.153 356.39 453.739 356.972 452.532C358.044 450.431 358.134 450.342 362.291 448.956C364.66 448.196 368.817 446.408 371.588 444.978C374.36 443.592 376.684 442.475 376.729 442.475C376.774 442.475 376.55 444.129 376.193 446.051ZM532.643 448.956C536.844 450.342 536.934 450.431 538.007 452.532C538.588 453.739 539.526 456.153 540.018 457.986C541.046 461.651 541.627 469.429 541.001 470.368C539.795 472.066 517.579 467.283 518.026 465.451C519.769 458.522 519.858 449.627 518.294 443.369C518.07 442.475 518.517 442.609 523.211 444.933C526.027 446.364 530.273 448.152 532.643 448.956ZM451.378 450.744C453.836 451.594 457.77 454.097 457.77 454.767C457.77 455.527 457.055 455.259 454.641 453.65C449.232 450.029 443.198 449.806 436.493 453.024C433.498 454.454 433.185 454.499 433.185 453.918C433.185 453.382 435.554 451.996 438.191 451.013C442.527 449.359 447.087 449.269 451.378 450.744ZM354.468 453.292C352.859 457.002 351.831 462.322 351.831 466.702C351.831 470.368 351.742 470.859 351.071 470.904C350.624 470.904 349.685 470.993 348.926 471.083C347.182 471.262 331.358 470.502 329.526 470.144C328.364 469.876 328.185 469.697 328.408 468.893C329.034 466.792 333.057 461.472 336.857 457.673L340.88 453.605L345.126 453.024C347.45 452.711 350.49 452.219 351.831 451.862C355.541 450.968 355.496 450.923 354.468 453.292ZM546.634 452.532C549.45 453.024 552.221 453.426 552.802 453.426C555.037 453.426 565.408 465.138 566.57 468.893C566.838 469.742 566.659 469.921 565.363 470.144C562.636 470.636 548.377 471.262 545.74 470.993L543.147 470.725V466.658C543.147 462.322 542.074 456.958 540.51 453.247L539.571 451.102L540.554 451.37C541.136 451.504 543.862 452.041 546.634 452.532ZM335.024 456.645C331.314 460.444 328.766 463.797 327.157 466.97L325.816 469.652L323.312 469.339C321.927 469.161 318.306 468.624 315.266 468.088L309.813 467.104L311.02 465.808C316.071 460.489 328.14 455.035 337.304 453.918C337.527 453.918 336.499 455.125 335.024 456.645ZM563.486 455.08C570.325 456.734 578.371 460.802 582.841 464.825L585.299 467.104L579.756 468.088C576.717 468.624 573.051 469.161 571.666 469.339L569.162 469.652L567.821 466.97C566.212 463.797 563.664 460.444 559.999 456.689L557.272 453.918L559.06 454.142C559.999 454.32 562.01 454.723 563.486 455.08ZM448.964 507.513C451.512 508.452 455.088 511.223 454.552 511.76C454.373 511.939 453.568 511.626 452.764 511C446.953 506.575 440.963 506.396 435.554 510.508C433.587 512.028 432.827 512.162 433.319 511C433.677 510.016 437.029 507.871 439.577 506.977C442.349 505.993 445.388 506.172 448.964 507.513ZM444.181 564.595C448.07 565.936 453.3 569.467 453.3 570.853C453.3 571.39 453.032 571.3 452.093 570.54C448.204 567.545 447.176 566.92 445.031 566.115C440.114 564.282 435.956 564.55 432.068 567.009C429.43 568.663 428.313 568.082 430.861 566.428C434.705 563.835 439.935 563.12 444.181 564.595ZM443.555 624.225C447.489 625.074 454.418 628.561 453.658 629.321C453.479 629.5 451.78 628.829 449.858 627.846C444.539 625.074 440.65 624.314 436.135 625.119C433.185 625.655 430.056 627.086 427.91 628.829C426.391 630.17 426.033 630.259 426.033 629.365C426.033 628.159 431.174 624.985 434.392 624.225C436.806 623.644 440.829 623.644 443.555 624.225Z" fill="black"/>
</svg>
