<svg width="81" height="77" viewBox="0 0 81 77" fill="none" xmlns="http://www.w3.org/2000/svg">
<g clip-path="url(#clip0_5_31)">
<path d="M63.123 57.7801C59.6268 52.0051 53.0613 48.125 45.5625 48.125H35.4375C27.9387 48.125 21.3732 52.0051 17.877 57.7801C23.4457 63.6754 31.5141 67.375 40.5 67.375C49.4859 67.375 57.5543 63.6604 63.123 57.7801ZM0 38.5C0 28.2892 4.26695 18.4965 11.8622 11.2764C19.4574 4.05624 29.7587 0 40.5 0C51.2413 0 61.5426 4.05624 69.1378 11.2764C76.733 18.4965 81 28.2892 81 38.5C81 48.7108 76.733 58.5035 69.1378 65.7236C61.5426 72.9438 51.2413 77 40.5 77C29.7587 77 19.4574 72.9438 11.8622 65.7236C4.26695 58.5035 0 48.7108 0 38.5ZM40.5 40.9062C43.521 40.9062 46.4182 39.7654 48.5544 37.7348C50.6905 35.7041 51.8906 32.9499 51.8906 30.0781C51.8906 27.2063 50.6905 24.4522 48.5544 22.4215C46.4182 20.3908 43.521 19.25 40.5 19.25C37.479 19.25 34.5818 20.3908 32.4456 22.4215C30.3095 24.4522 29.1094 27.2063 29.1094 30.0781C29.1094 32.9499 30.3095 35.7041 32.4456 37.7348C34.5818 39.7654 37.479 40.9062 40.5 40.9062Z" fill="#93B1A6"/>
</g>
<defs>
<clipPath id="clip0_5_31">
<rect width="81" height="77" fill="white"/>
</clipPath>
</defs>
</svg>
